<?xml version="1.0" encoding="utf-8" standalone="no"?>
<!DOCTYPE svg PUBLIC "-//W3C//DTD SVG 1.1//EN"
  "http://www.w3.org/Graphics/SVG/1.1/DTD/svg11.dtd">
<!-- Created with matplotlib (https://matplotlib.org/) -->
<svg height="360pt" version="1.1" viewBox="0 0 720 360" width="720pt" xmlns="http://www.w3.org/2000/svg" xmlns:xlink="http://www.w3.org/1999/xlink">
 <defs>
  <style type="text/css">
*{stroke-linecap:butt;stroke-linejoin:round;}
  </style>
 </defs>
 <g id="figure_1">
  <g id="patch_1">
   <path d="M 0 360 
L 720 360 
L 720 0 
L 0 0 
z
" style="fill:#ffffff;"/>
  </g>
  <g id="axes_1">
   <g id="patch_2">
    <path d="M 44.55 318.2 
L 709.2 318.2 
L 709.2 26.8 
L 44.55 26.8 
z
" style="fill:#ffffff;"/>
   </g>
   <g id="patch_3">
    <path clip-path="url(#pc284f800bb)" d="M 60.565663 318.2 
L 68.573494 318.2 
L 68.573494 294.873078 
L 60.565663 294.873078 
z
" style="fill:#1f77b4;"/>
   </g>
   <g id="patch_4">
    <path clip-path="url(#pc284f800bb)" d="M 108.612651 318.2 
L 116.620482 318.2 
L 116.620482 274.554897 
L 108.612651 274.554897 
z
" style="fill:#1f77b4;"/>
   </g>
   <g id="patch_5">
    <path clip-path="url(#pc284f800bb)" d="M 156.659639 318.2 
L 164.66747 318.2 
L 164.66747 287.580526 
L 156.659639 287.580526 
z
" style="fill:#1f77b4;"/>
   </g>
   <g id="patch_6">
    <path clip-path="url(#pc284f800bb)" d="M 204.706627 318.2 
L 212.714458 318.2 
L 212.714458 286.754557 
L 204.706627 286.754557 
z
" style="fill:#1f77b4;"/>
   </g>
   <g id="patch_7">
    <path clip-path="url(#pc284f800bb)" d="M 252.753614 318.2 
L 260.761446 318.2 
L 260.761446 -134.404115 
L 252.753614 -134.404115 
z
" style="fill:#1f77b4;"/>
   </g>
   <g id="patch_8">
    <path clip-path="url(#pc284f800bb)" d="M 300.800602 318.2 
L 308.808434 318.2 
L 308.808434 285.17424 
L 300.800602 285.17424 
z
" style="fill:#1f77b4;"/>
   </g>
   <g id="patch_9">
    <path clip-path="url(#pc284f800bb)" d="M 348.84759 318.2 
L 356.855422 318.2 
L 356.855422 275.998869 
L 348.84759 275.998869 
z
" style="fill:#1f77b4;"/>
   </g>
   <g id="patch_10">
    <path clip-path="url(#pc284f800bb)" d="M 396.894578 318.2 
L 404.90241 318.2 
L 404.90241 204.171599 
L 396.894578 204.171599 
z
" style="fill:#1f77b4;"/>
   </g>
   <g id="patch_11">
    <path clip-path="url(#pc284f800bb)" d="M 444.941566 318.2 
L 452.949398 318.2 
L 452.949398 262.892516 
L 444.941566 262.892516 
z
" style="fill:#1f77b4;"/>
   </g>
   <g id="patch_12">
    <path clip-path="url(#pc284f800bb)" d="M 492.988554 318.2 
L 500.996386 318.2 
L 500.996386 272.269622 
L 492.988554 272.269622 
z
" style="fill:#1f77b4;"/>
   </g>
   <g id="patch_13">
    <path clip-path="url(#pc284f800bb)" d="M 541.035542 318.2 
L 549.043373 318.2 
L 549.043373 261.992757 
L 541.035542 261.992757 
z
" style="fill:#1f77b4;"/>
   </g>
   <g id="patch_14">
    <path clip-path="url(#pc284f800bb)" d="M 589.08253 318.2 
L 597.090361 318.2 
L 597.090361 264.517297 
L 589.08253 264.517297 
z
" style="fill:#1f77b4;"/>
   </g>
   <g id="patch_15">
    <path clip-path="url(#pc284f800bb)" d="M 637.129518 318.2 
L 645.137349 318.2 
L 645.137349 222.460445 
L 637.129518 222.460445 
z
" style="fill:#1f77b4;"/>
   </g>
   <g id="patch_16">
    <path clip-path="url(#pc284f800bb)" d="M 685.176506 318.2 
L 693.184337 318.2 
L 693.184337 257.099808 
L 685.176506 257.099808 
z
" style="fill:#1f77b4;"/>
   </g>
   <g id="patch_17">
    <path clip-path="url(#pc284f800bb)" d="M 68.573494 318.2 
L 76.581325 318.2 
L 76.581325 269.773546 
L 68.573494 269.773546 
z
" style="fill:#ff7f0e;"/>
   </g>
   <g id="patch_18">
    <path clip-path="url(#pc284f800bb)" d="M 116.620482 318.2 
L 124.628313 318.2 
L 124.628313 246.517523 
L 116.620482 246.517523 
z
" style="fill:#ff7f0e;"/>
   </g>
   <g id="patch_19">
    <path clip-path="url(#pc284f800bb)" d="M 164.66747 318.2 
L 172.675301 318.2 
L 172.675301 256.256762 
L 164.66747 256.256762 
z
" style="fill:#ff7f0e;"/>
   </g>
   <g id="patch_20">
    <path clip-path="url(#pc284f800bb)" d="M 212.714458 318.2 
L 220.722289 318.2 
L 220.722289 262.593717 
L 212.714458 262.593717 
z
" style="fill:#ff7f0e;"/>
   </g>
   <g id="patch_21">
    <path clip-path="url(#pc284f800bb)" d="M 260.761446 318.2 
L 268.769277 318.2 
L 268.769277 318.2 
L 260.761446 318.2 
z
" style="fill:#ff7f0e;"/>
   </g>
   <g id="patch_22">
    <path clip-path="url(#pc284f800bb)" d="M 308.808434 318.2 
L 316.816265 318.2 
L 316.816265 253.815293 
L 308.808434 253.815293 
z
" style="fill:#ff7f0e;"/>
   </g>
   <g id="patch_23">
    <path clip-path="url(#pc284f800bb)" d="M 356.855422 318.2 
L 364.863253 318.2 
L 364.863253 255.571785 
L 356.855422 255.571785 
z
" style="fill:#ff7f0e;"/>
   </g>
   <g id="patch_24">
    <path clip-path="url(#pc284f800bb)" d="M 404.90241 318.2 
L 412.910241 318.2 
L 412.910241 318.2 
L 404.90241 318.2 
z
" style="fill:#ff7f0e;"/>
   </g>
   <g id="patch_25">
    <path clip-path="url(#pc284f800bb)" d="M 452.949398 318.2 
L 460.957229 318.2 
L 460.957229 288.35944 
L 452.949398 288.35944 
z
" style="fill:#ff7f0e;"/>
   </g>
   <g id="patch_26">
    <path clip-path="url(#pc284f800bb)" d="M 500.996386 318.2 
L 509.004217 318.2 
L 509.004217 294.568423 
L 500.996386 294.568423 
z
" style="fill:#ff7f0e;"/>
   </g>
   <g id="patch_27">
    <path clip-path="url(#pc284f800bb)" d="M 549.043373 318.2 
L 557.051205 318.2 
L 557.051205 292.874458 
L 549.043373 292.874458 
z
" style="fill:#ff7f0e;"/>
   </g>
   <g id="patch_28">
    <path clip-path="url(#pc284f800bb)" d="M 597.090361 318.2 
L 605.098193 318.2 
L 605.098193 273.419311 
L 597.090361 273.419311 
z
" style="fill:#ff7f0e;"/>
   </g>
   <g id="patch_29">
    <path clip-path="url(#pc284f800bb)" d="M 645.137349 318.2 
L 653.145181 318.2 
L 653.145181 292.923264 
L 645.137349 292.923264 
z
" style="fill:#ff7f0e;"/>
   </g>
   <g id="patch_30">
    <path clip-path="url(#pc284f800bb)" d="M 693.184337 318.2 
L 701.192169 318.2 
L 701.192169 287.148127 
L 693.184337 287.148127 
z
" style="fill:#ff7f0e;"/>
   </g>
   <g id="patch_31">
    <path clip-path="url(#pc284f800bb)" d="M 76.581325 318.2 
L 84.589157 318.2 
L 84.589157 270.086198 
L 76.581325 270.086198 
z
" style="fill:#2ca02c;"/>
   </g>
   <g id="patch_32">
    <path clip-path="url(#pc284f800bb)" d="M 124.628313 318.2 
L 132.636145 318.2 
L 132.636145 318.2 
L 124.628313 318.2 
z
" style="fill:#2ca02c;"/>
   </g>
   <g id="patch_33">
    <path clip-path="url(#pc284f800bb)" d="M 172.675301 318.2 
L 180.683133 318.2 
L 180.683133 250.416081 
L 172.675301 250.416081 
z
" style="fill:#2ca02c;"/>
   </g>
   <g id="patch_34">
    <path clip-path="url(#pc284f800bb)" d="M 220.722289 318.2 
L 228.73012 318.2 
L 228.73012 255.1714 
L 220.722289 255.1714 
z
" style="fill:#2ca02c;"/>
   </g>
   <g id="patch_35">
    <path clip-path="url(#pc284f800bb)" d="M 268.769277 318.2 
L 276.777108 318.2 
L 276.777108 257.148878 
L 268.769277 257.148878 
z
" style="fill:#2ca02c;"/>
   </g>
   <g id="patch_36">
    <path clip-path="url(#pc284f800bb)" d="M 316.816265 318.2 
L 324.824096 318.2 
L 324.824096 291.828829 
L 316.816265 291.828829 
z
" style="fill:#2ca02c;"/>
   </g>
   <g id="patch_37">
    <path clip-path="url(#pc284f800bb)" d="M 364.863253 318.2 
L 372.871084 318.2 
L 372.871084 269.117346 
L 364.863253 269.117346 
z
" style="fill:#2ca02c;"/>
   </g>
   <g id="patch_38">
    <path clip-path="url(#pc284f800bb)" d="M 412.910241 318.2 
L 420.918072 318.2 
L 420.918072 318.2 
L 412.910241 318.2 
z
" style="fill:#2ca02c;"/>
   </g>
   <g id="patch_39">
    <path clip-path="url(#pc284f800bb)" d="M 460.957229 318.2 
L 468.96506 318.2 
L 468.96506 279.731228 
L 460.957229 279.731228 
z
" style="fill:#2ca02c;"/>
   </g>
   <g id="patch_40">
    <path clip-path="url(#pc284f800bb)" d="M 509.004217 318.2 
L 517.012048 318.2 
L 517.012048 289.606672 
L 509.004217 289.606672 
z
" style="fill:#2ca02c;"/>
   </g>
   <g id="patch_41">
    <path clip-path="url(#pc284f800bb)" d="M 557.051205 318.2 
L 565.059036 318.2 
L 565.059036 272.160463 
L 557.051205 272.160463 
z
" style="fill:#2ca02c;"/>
   </g>
   <g id="patch_42">
    <path clip-path="url(#pc284f800bb)" d="M 605.098193 318.2 
L 613.106024 318.2 
L 613.106024 282.288595 
L 605.098193 282.288595 
z
" style="fill:#2ca02c;"/>
   </g>
   <g id="patch_43">
    <path clip-path="url(#pc284f800bb)" d="M 653.145181 318.2 
L 661.153012 318.2 
L 661.153012 318.2 
L 653.145181 318.2 
z
" style="fill:#2ca02c;"/>
   </g>
   <g id="patch_44">
    <path clip-path="url(#pc284f800bb)" d="M 701.192169 318.2 
L 709.2 318.2 
L 709.2 286.757648 
L 701.192169 286.757648 
z
" style="fill:#2ca02c;"/>
   </g>
   <g id="patch_45">
    <path clip-path="url(#pc284f800bb)" d="M 52.557831 318.2 
L 60.565663 318.2 
L 60.565663 276.404437 
L 52.557831 276.404437 
z
" style="fill:#d62728;"/>
   </g>
   <g id="patch_46">
    <path clip-path="url(#pc284f800bb)" d="M 100.604819 318.2 
L 108.612651 318.2 
L 108.612651 280.921108 
L 100.604819 280.921108 
z
" style="fill:#d62728;"/>
   </g>
   <g id="patch_47">
    <path clip-path="url(#pc284f800bb)" d="M 148.651807 318.2 
L 156.659639 318.2 
L 156.659639 270.280812 
L 148.651807 270.280812 
z
" style="fill:#d62728;"/>
   </g>
   <g id="patch_48">
    <path clip-path="url(#pc284f800bb)" d="M 196.698795 318.2 
L 204.706627 318.2 
L 204.706627 275.027509 
L 196.698795 275.027509 
z
" style="fill:#d62728;"/>
   </g>
   <g id="patch_49">
    <path clip-path="url(#pc284f800bb)" d="M 244.745783 318.2 
L 252.753614 318.2 
L 252.753614 318.2 
L 244.745783 318.2 
z
" style="fill:#d62728;"/>
   </g>
   <g id="patch_50">
    <path clip-path="url(#pc284f800bb)" d="M 292.792771 318.2 
L 300.800602 318.2 
L 300.800602 280.494183 
L 292.792771 280.494183 
z
" style="fill:#d62728;"/>
   </g>
   <g id="patch_51">
    <path clip-path="url(#pc284f800bb)" d="M 340.839759 318.2 
L 348.84759 318.2 
L 348.84759 287.298047 
L 340.839759 287.298047 
z
" style="fill:#d62728;"/>
   </g>
   <g id="patch_52">
    <path clip-path="url(#pc284f800bb)" d="M 388.886747 318.2 
L 396.894578 318.2 
L 396.894578 318.2 
L 388.886747 318.2 
z
" style="fill:#d62728;"/>
   </g>
   <g id="patch_53">
    <path clip-path="url(#pc284f800bb)" d="M 436.933735 318.2 
L 444.941566 318.2 
L 444.941566 286.814736 
L 436.933735 286.814736 
z
" style="fill:#d62728;"/>
   </g>
   <g id="patch_54">
    <path clip-path="url(#pc284f800bb)" d="M 484.980723 318.2 
L 492.988554 318.2 
L 492.988554 288.623223 
L 484.980723 288.623223 
z
" style="fill:#d62728;"/>
   </g>
   <g id="patch_55">
    <path clip-path="url(#pc284f800bb)" d="M 533.027711 318.2 
L 541.035542 318.2 
L 541.035542 295.67635 
L 533.027711 295.67635 
z
" style="fill:#d62728;"/>
   </g>
   <g id="patch_56">
    <path clip-path="url(#pc284f800bb)" d="M 581.074699 318.2 
L 589.08253 318.2 
L 589.08253 276.465603 
L 581.074699 276.465603 
z
" style="fill:#d62728;"/>
   </g>
   <g id="patch_57">
    <path clip-path="url(#pc284f800bb)" d="M 629.121687 318.2 
L 637.129518 318.2 
L 637.129518 290.791064 
L 629.121687 290.791064 
z
" style="fill:#d62728;"/>
   </g>
   <g id="patch_58">
    <path clip-path="url(#pc284f800bb)" d="M 677.168675 318.2 
L 685.176506 318.2 
L 685.176506 294.356148 
L 677.168675 294.356148 
z
" style="fill:#d62728;"/>
   </g>
   <g id="matplotlib.axis_1">
    <g id="xtick_1">
     <g id="line2d_1">
      <defs>
       <path d="M 0 0 
L 0 3.5 
" id="mc9b97dacc6" style="stroke:#000000;stroke-width:0.8;"/>
      </defs>
      <g>
       <use style="stroke:#000000;stroke-width:0.8;" x="68.573494" xlink:href="#mc9b97dacc6" y="318.2"/>
      </g>
     </g>
     <g id="text_1">
      <!-- 0 -->
      <defs>
       <path d="M 31.78125 66.40625 
Q 24.171875 66.40625 20.328125 58.90625 
Q 16.5 51.421875 16.5 36.375 
Q 16.5 21.390625 20.328125 13.890625 
Q 24.171875 6.390625 31.78125 6.390625 
Q 39.453125 6.390625 43.28125 13.890625 
Q 47.125 21.390625 47.125 36.375 
Q 47.125 51.421875 43.28125 58.90625 
Q 39.453125 66.40625 31.78125 66.40625 
z
M 31.78125 74.21875 
Q 44.046875 74.21875 50.515625 64.515625 
Q 56.984375 54.828125 56.984375 36.375 
Q 56.984375 17.96875 50.515625 8.265625 
Q 44.046875 -1.421875 31.78125 -1.421875 
Q 19.53125 -1.421875 13.0625 8.265625 
Q 6.59375 17.96875 6.59375 36.375 
Q 6.59375 54.828125 13.0625 64.515625 
Q 19.53125 74.21875 31.78125 74.21875 
z
" id="DejaVuSans-48"/>
      </defs>
      <g transform="translate(65.392244 332.798438)scale(0.1 -0.1)">
       <use xlink:href="#DejaVuSans-48"/>
      </g>
     </g>
    </g>
    <g id="xtick_2">
     <g id="line2d_2">
      <g>
       <use style="stroke:#000000;stroke-width:0.8;" x="116.620482" xlink:href="#mc9b97dacc6" y="318.2"/>
      </g>
     </g>
     <g id="text_2">
      <!-- 2 -->
      <defs>
       <path d="M 19.1875 8.296875 
L 53.609375 8.296875 
L 53.609375 0 
L 7.328125 0 
L 7.328125 8.296875 
Q 12.9375 14.109375 22.625 23.890625 
Q 32.328125 33.6875 34.8125 36.53125 
Q 39.546875 41.84375 41.421875 45.53125 
Q 43.3125 49.21875 43.3125 52.78125 
Q 43.3125 58.59375 39.234375 62.25 
Q 35.15625 65.921875 28.609375 65.921875 
Q 23.96875 65.921875 18.8125 64.3125 
Q 13.671875 62.703125 7.8125 59.421875 
L 7.8125 69.390625 
Q 13.765625 71.78125 18.9375 73 
Q 24.125 74.21875 28.421875 74.21875 
Q 39.75 74.21875 46.484375 68.546875 
Q 53.21875 62.890625 53.21875 53.421875 
Q 53.21875 48.921875 51.53125 44.890625 
Q 49.859375 40.875 45.40625 35.40625 
Q 44.1875 33.984375 37.640625 27.21875 
Q 31.109375 20.453125 19.1875 8.296875 
z
" id="DejaVuSans-50"/>
      </defs>
      <g transform="translate(113.439232 332.798438)scale(0.1 -0.1)">
       <use xlink:href="#DejaVuSans-50"/>
      </g>
     </g>
    </g>
    <g id="xtick_3">
     <g id="line2d_3">
      <g>
       <use style="stroke:#000000;stroke-width:0.8;" x="164.66747" xlink:href="#mc9b97dacc6" y="318.2"/>
      </g>
     </g>
     <g id="text_3">
      <!-- 4 -->
      <defs>
       <path d="M 37.796875 64.3125 
L 12.890625 25.390625 
L 37.796875 25.390625 
z
M 35.203125 72.90625 
L 47.609375 72.90625 
L 47.609375 25.390625 
L 58.015625 25.390625 
L 58.015625 17.1875 
L 47.609375 17.1875 
L 47.609375 0 
L 37.796875 0 
L 37.796875 17.1875 
L 4.890625 17.1875 
L 4.890625 26.703125 
z
" id="DejaVuSans-52"/>
      </defs>
      <g transform="translate(161.48622 332.798438)scale(0.1 -0.1)">
       <use xlink:href="#DejaVuSans-52"/>
      </g>
     </g>
    </g>
    <g id="xtick_4">
     <g id="line2d_4">
      <g>
       <use style="stroke:#000000;stroke-width:0.8;" x="212.714458" xlink:href="#mc9b97dacc6" y="318.2"/>
      </g>
     </g>
     <g id="text_4">
      <!-- 7 -->
      <defs>
       <path d="M 8.203125 72.90625 
L 55.078125 72.90625 
L 55.078125 68.703125 
L 28.609375 0 
L 18.3125 0 
L 43.21875 64.59375 
L 8.203125 64.59375 
z
" id="DejaVuSans-55"/>
      </defs>
      <g transform="translate(209.533208 332.798438)scale(0.1 -0.1)">
       <use xlink:href="#DejaVuSans-55"/>
      </g>
     </g>
    </g>
    <g id="xtick_5">
     <g id="line2d_5">
      <g>
       <use style="stroke:#000000;stroke-width:0.8;" x="260.761446" xlink:href="#mc9b97dacc6" y="318.2"/>
      </g>
     </g>
     <g id="text_5">
      <!-- 9 -->
      <defs>
       <path d="M 10.984375 1.515625 
L 10.984375 10.5 
Q 14.703125 8.734375 18.5 7.8125 
Q 22.3125 6.890625 25.984375 6.890625 
Q 35.75 6.890625 40.890625 13.453125 
Q 46.046875 20.015625 46.78125 33.40625 
Q 43.953125 29.203125 39.59375 26.953125 
Q 35.25 24.703125 29.984375 24.703125 
Q 19.046875 24.703125 12.671875 31.3125 
Q 6.296875 37.9375 6.296875 49.421875 
Q 6.296875 60.640625 12.9375 67.421875 
Q 19.578125 74.21875 30.609375 74.21875 
Q 43.265625 74.21875 49.921875 64.515625 
Q 56.59375 54.828125 56.59375 36.375 
Q 56.59375 19.140625 48.40625 8.859375 
Q 40.234375 -1.421875 26.421875 -1.421875 
Q 22.703125 -1.421875 18.890625 -0.6875 
Q 15.09375 0.046875 10.984375 1.515625 
z
M 30.609375 32.421875 
Q 37.25 32.421875 41.125 36.953125 
Q 45.015625 41.5 45.015625 49.421875 
Q 45.015625 57.28125 41.125 61.84375 
Q 37.25 66.40625 30.609375 66.40625 
Q 23.96875 66.40625 20.09375 61.84375 
Q 16.21875 57.28125 16.21875 49.421875 
Q 16.21875 41.5 20.09375 36.953125 
Q 23.96875 32.421875 30.609375 32.421875 
z
" id="DejaVuSans-57"/>
      </defs>
      <g transform="translate(257.580196 332.798438)scale(0.1 -0.1)">
       <use xlink:href="#DejaVuSans-57"/>
      </g>
     </g>
    </g>
    <g id="xtick_6">
     <g id="line2d_6">
      <g>
       <use style="stroke:#000000;stroke-width:0.8;" x="308.808434" xlink:href="#mc9b97dacc6" y="318.2"/>
      </g>
     </g>
     <g id="text_6">
      <!-- 11 -->
      <defs>
       <path d="M 12.40625 8.296875 
L 28.515625 8.296875 
L 28.515625 63.921875 
L 10.984375 60.40625 
L 10.984375 69.390625 
L 28.421875 72.90625 
L 38.28125 72.90625 
L 38.28125 8.296875 
L 54.390625 8.296875 
L 54.390625 0 
L 12.40625 0 
z
" id="DejaVuSans-49"/>
      </defs>
      <g transform="translate(302.445934 332.798438)scale(0.1 -0.1)">
       <use xlink:href="#DejaVuSans-49"/>
       <use x="63.623047" xlink:href="#DejaVuSans-49"/>
      </g>
     </g>
    </g>
    <g id="xtick_7">
     <g id="line2d_7">
      <g>
       <use style="stroke:#000000;stroke-width:0.8;" x="356.855422" xlink:href="#mc9b97dacc6" y="318.2"/>
      </g>
     </g>
     <g id="text_7">
      <!-- 12 -->
      <g transform="translate(350.492922 332.798438)scale(0.1 -0.1)">
       <use xlink:href="#DejaVuSans-49"/>
       <use x="63.623047" xlink:href="#DejaVuSans-50"/>
      </g>
     </g>
    </g>
    <g id="xtick_8">
     <g id="line2d_8">
      <g>
       <use style="stroke:#000000;stroke-width:0.8;" x="404.90241" xlink:href="#mc9b97dacc6" y="318.2"/>
      </g>
     </g>
     <g id="text_8">
      <!-- 15 -->
      <defs>
       <path d="M 10.796875 72.90625 
L 49.515625 72.90625 
L 49.515625 64.59375 
L 19.828125 64.59375 
L 19.828125 46.734375 
Q 21.96875 47.46875 24.109375 47.828125 
Q 26.265625 48.1875 28.421875 48.1875 
Q 40.625 48.1875 47.75 41.5 
Q 54.890625 34.8125 54.890625 23.390625 
Q 54.890625 11.625 47.5625 5.09375 
Q 40.234375 -1.421875 26.90625 -1.421875 
Q 22.3125 -1.421875 17.546875 -0.640625 
Q 12.796875 0.140625 7.71875 1.703125 
L 7.71875 11.625 
Q 12.109375 9.234375 16.796875 8.0625 
Q 21.484375 6.890625 26.703125 6.890625 
Q 35.15625 6.890625 40.078125 11.328125 
Q 45.015625 15.765625 45.015625 23.390625 
Q 45.015625 31 40.078125 35.4375 
Q 35.15625 39.890625 26.703125 39.890625 
Q 22.75 39.890625 18.8125 39.015625 
Q 14.890625 38.140625 10.796875 36.28125 
z
" id="DejaVuSans-53"/>
      </defs>
      <g transform="translate(398.53991 332.798438)scale(0.1 -0.1)">
       <use xlink:href="#DejaVuSans-49"/>
       <use x="63.623047" xlink:href="#DejaVuSans-53"/>
      </g>
     </g>
    </g>
    <g id="xtick_9">
     <g id="line2d_9">
      <g>
       <use style="stroke:#000000;stroke-width:0.8;" x="452.949398" xlink:href="#mc9b97dacc6" y="318.2"/>
      </g>
     </g>
     <g id="text_9">
      <!-- 18 -->
      <defs>
       <path d="M 31.78125 34.625 
Q 24.75 34.625 20.71875 30.859375 
Q 16.703125 27.09375 16.703125 20.515625 
Q 16.703125 13.921875 20.71875 10.15625 
Q 24.75 6.390625 31.78125 6.390625 
Q 38.8125 6.390625 42.859375 10.171875 
Q 46.921875 13.96875 46.921875 20.515625 
Q 46.921875 27.09375 42.890625 30.859375 
Q 38.875 34.625 31.78125 34.625 
z
M 21.921875 38.8125 
Q 15.578125 40.375 12.03125 44.71875 
Q 8.5 49.078125 8.5 55.328125 
Q 8.5 64.0625 14.71875 69.140625 
Q 20.953125 74.21875 31.78125 74.21875 
Q 42.671875 74.21875 48.875 69.140625 
Q 55.078125 64.0625 55.078125 55.328125 
Q 55.078125 49.078125 51.53125 44.71875 
Q 48 40.375 41.703125 38.8125 
Q 48.828125 37.15625 52.796875 32.3125 
Q 56.78125 27.484375 56.78125 20.515625 
Q 56.78125 9.90625 50.3125 4.234375 
Q 43.84375 -1.421875 31.78125 -1.421875 
Q 19.734375 -1.421875 13.25 4.234375 
Q 6.78125 9.90625 6.78125 20.515625 
Q 6.78125 27.484375 10.78125 32.3125 
Q 14.796875 37.15625 21.921875 38.8125 
z
M 18.3125 54.390625 
Q 18.3125 48.734375 21.84375 45.5625 
Q 25.390625 42.390625 31.78125 42.390625 
Q 38.140625 42.390625 41.71875 45.5625 
Q 45.3125 48.734375 45.3125 54.390625 
Q 45.3125 60.0625 41.71875 63.234375 
Q 38.140625 66.40625 31.78125 66.40625 
Q 25.390625 66.40625 21.84375 63.234375 
Q 18.3125 60.0625 18.3125 54.390625 
z
" id="DejaVuSans-56"/>
      </defs>
      <g transform="translate(446.586898 332.798438)scale(0.1 -0.1)">
       <use xlink:href="#DejaVuSans-49"/>
       <use x="63.623047" xlink:href="#DejaVuSans-56"/>
      </g>
     </g>
    </g>
    <g id="xtick_10">
     <g id="line2d_10">
      <g>
       <use style="stroke:#000000;stroke-width:0.8;" x="500.996386" xlink:href="#mc9b97dacc6" y="318.2"/>
      </g>
     </g>
     <g id="text_10">
      <!-- 19 -->
      <g transform="translate(494.633886 332.798438)scale(0.1 -0.1)">
       <use xlink:href="#DejaVuSans-49"/>
       <use x="63.623047" xlink:href="#DejaVuSans-57"/>
      </g>
     </g>
    </g>
    <g id="xtick_11">
     <g id="line2d_11">
      <g>
       <use style="stroke:#000000;stroke-width:0.8;" x="549.043373" xlink:href="#mc9b97dacc6" y="318.2"/>
      </g>
     </g>
     <g id="text_11">
      <!-- 21 -->
      <g transform="translate(542.680873 332.798438)scale(0.1 -0.1)">
       <use xlink:href="#DejaVuSans-50"/>
       <use x="63.623047" xlink:href="#DejaVuSans-49"/>
      </g>
     </g>
    </g>
    <g id="xtick_12">
     <g id="line2d_12">
      <g>
       <use style="stroke:#000000;stroke-width:0.8;" x="597.090361" xlink:href="#mc9b97dacc6" y="318.2"/>
      </g>
     </g>
     <g id="text_12">
      <!-- 23 -->
      <defs>
       <path d="M 40.578125 39.3125 
Q 47.65625 37.796875 51.625 33 
Q 55.609375 28.21875 55.609375 21.1875 
Q 55.609375 10.40625 48.1875 4.484375 
Q 40.765625 -1.421875 27.09375 -1.421875 
Q 22.515625 -1.421875 17.65625 -0.515625 
Q 12.796875 0.390625 7.625 2.203125 
L 7.625 11.71875 
Q 11.71875 9.328125 16.59375 8.109375 
Q 21.484375 6.890625 26.8125 6.890625 
Q 36.078125 6.890625 40.9375 10.546875 
Q 45.796875 14.203125 45.796875 21.1875 
Q 45.796875 27.640625 41.28125 31.265625 
Q 36.765625 34.90625 28.71875 34.90625 
L 20.21875 34.90625 
L 20.21875 43.015625 
L 29.109375 43.015625 
Q 36.375 43.015625 40.234375 45.921875 
Q 44.09375 48.828125 44.09375 54.296875 
Q 44.09375 59.90625 40.109375 62.90625 
Q 36.140625 65.921875 28.71875 65.921875 
Q 24.65625 65.921875 20.015625 65.03125 
Q 15.375 64.15625 9.8125 62.3125 
L 9.8125 71.09375 
Q 15.4375 72.65625 20.34375 73.4375 
Q 25.25 74.21875 29.59375 74.21875 
Q 40.828125 74.21875 47.359375 69.109375 
Q 53.90625 64.015625 53.90625 55.328125 
Q 53.90625 49.265625 50.4375 45.09375 
Q 46.96875 40.921875 40.578125 39.3125 
z
" id="DejaVuSans-51"/>
      </defs>
      <g transform="translate(590.727861 332.798438)scale(0.1 -0.1)">
       <use xlink:href="#DejaVuSans-50"/>
       <use x="63.623047" xlink:href="#DejaVuSans-51"/>
      </g>
     </g>
    </g>
    <g id="xtick_13">
     <g id="line2d_13">
      <g>
       <use style="stroke:#000000;stroke-width:0.8;" x="645.137349" xlink:href="#mc9b97dacc6" y="318.2"/>
      </g>
     </g>
     <g id="text_13">
      <!-- 26 -->
      <defs>
       <path d="M 33.015625 40.375 
Q 26.375 40.375 22.484375 35.828125 
Q 18.609375 31.296875 18.609375 23.390625 
Q 18.609375 15.53125 22.484375 10.953125 
Q 26.375 6.390625 33.015625 6.390625 
Q 39.65625 6.390625 43.53125 10.953125 
Q 47.40625 15.53125 47.40625 23.390625 
Q 47.40625 31.296875 43.53125 35.828125 
Q 39.65625 40.375 33.015625 40.375 
z
M 52.59375 71.296875 
L 52.59375 62.3125 
Q 48.875 64.0625 45.09375 64.984375 
Q 41.3125 65.921875 37.59375 65.921875 
Q 27.828125 65.921875 22.671875 59.328125 
Q 17.53125 52.734375 16.796875 39.40625 
Q 19.671875 43.65625 24.015625 45.921875 
Q 28.375 48.1875 33.59375 48.1875 
Q 44.578125 48.1875 50.953125 41.515625 
Q 57.328125 34.859375 57.328125 23.390625 
Q 57.328125 12.15625 50.6875 5.359375 
Q 44.046875 -1.421875 33.015625 -1.421875 
Q 20.359375 -1.421875 13.671875 8.265625 
Q 6.984375 17.96875 6.984375 36.375 
Q 6.984375 53.65625 15.1875 63.9375 
Q 23.390625 74.21875 37.203125 74.21875 
Q 40.921875 74.21875 44.703125 73.484375 
Q 48.484375 72.75 52.59375 71.296875 
z
" id="DejaVuSans-54"/>
      </defs>
      <g transform="translate(638.774849 332.798438)scale(0.1 -0.1)">
       <use xlink:href="#DejaVuSans-50"/>
       <use x="63.623047" xlink:href="#DejaVuSans-54"/>
      </g>
     </g>
    </g>
    <g id="xtick_14">
     <g id="line2d_14">
      <g>
       <use style="stroke:#000000;stroke-width:0.8;" x="693.184337" xlink:href="#mc9b97dacc6" y="318.2"/>
      </g>
     </g>
     <g id="text_14">
      <!-- 27 -->
      <g transform="translate(686.821837 332.798438)scale(0.1 -0.1)">
       <use xlink:href="#DejaVuSans-50"/>
       <use x="63.623047" xlink:href="#DejaVuSans-55"/>
      </g>
     </g>
    </g>
    <g id="text_15">
     <!-- Killed mutant number -->
     <defs>
      <path d="M 9.8125 72.90625 
L 19.671875 72.90625 
L 19.671875 42.09375 
L 52.390625 72.90625 
L 65.09375 72.90625 
L 28.90625 38.921875 
L 67.671875 0 
L 54.6875 0 
L 19.671875 35.109375 
L 19.671875 0 
L 9.8125 0 
z
" id="DejaVuSans-75"/>
      <path d="M 9.421875 54.6875 
L 18.40625 54.6875 
L 18.40625 0 
L 9.421875 0 
z
M 9.421875 75.984375 
L 18.40625 75.984375 
L 18.40625 64.59375 
L 9.421875 64.59375 
z
" id="DejaVuSans-105"/>
      <path d="M 9.421875 75.984375 
L 18.40625 75.984375 
L 18.40625 0 
L 9.421875 0 
z
" id="DejaVuSans-108"/>
      <path d="M 56.203125 29.59375 
L 56.203125 25.203125 
L 14.890625 25.203125 
Q 15.484375 15.921875 20.484375 11.0625 
Q 25.484375 6.203125 34.421875 6.203125 
Q 39.59375 6.203125 44.453125 7.46875 
Q 49.3125 8.734375 54.109375 11.28125 
L 54.109375 2.78125 
Q 49.265625 0.734375 44.1875 -0.34375 
Q 39.109375 -1.421875 33.890625 -1.421875 
Q 20.796875 -1.421875 13.15625 6.1875 
Q 5.515625 13.8125 5.515625 26.8125 
Q 5.515625 40.234375 12.765625 48.109375 
Q 20.015625 56 32.328125 56 
Q 43.359375 56 49.78125 48.890625 
Q 56.203125 41.796875 56.203125 29.59375 
z
M 47.21875 32.234375 
Q 47.125 39.59375 43.09375 43.984375 
Q 39.0625 48.390625 32.421875 48.390625 
Q 24.90625 48.390625 20.390625 44.140625 
Q 15.875 39.890625 15.1875 32.171875 
z
" id="DejaVuSans-101"/>
      <path d="M 45.40625 46.390625 
L 45.40625 75.984375 
L 54.390625 75.984375 
L 54.390625 0 
L 45.40625 0 
L 45.40625 8.203125 
Q 42.578125 3.328125 38.25 0.953125 
Q 33.9375 -1.421875 27.875 -1.421875 
Q 17.96875 -1.421875 11.734375 6.484375 
Q 5.515625 14.40625 5.515625 27.296875 
Q 5.515625 40.1875 11.734375 48.09375 
Q 17.96875 56 27.875 56 
Q 33.9375 56 38.25 53.625 
Q 42.578125 51.265625 45.40625 46.390625 
z
M 14.796875 27.296875 
Q 14.796875 17.390625 18.875 11.75 
Q 22.953125 6.109375 30.078125 6.109375 
Q 37.203125 6.109375 41.296875 11.75 
Q 45.40625 17.390625 45.40625 27.296875 
Q 45.40625 37.203125 41.296875 42.84375 
Q 37.203125 48.484375 30.078125 48.484375 
Q 22.953125 48.484375 18.875 42.84375 
Q 14.796875 37.203125 14.796875 27.296875 
z
" id="DejaVuSans-100"/>
      <path id="DejaVuSans-32"/>
      <path d="M 52 44.1875 
Q 55.375 50.25 60.0625 53.125 
Q 64.75 56 71.09375 56 
Q 79.640625 56 84.28125 50.015625 
Q 88.921875 44.046875 88.921875 33.015625 
L 88.921875 0 
L 79.890625 0 
L 79.890625 32.71875 
Q 79.890625 40.578125 77.09375 44.375 
Q 74.3125 48.1875 68.609375 48.1875 
Q 61.625 48.1875 57.5625 43.546875 
Q 53.515625 38.921875 53.515625 30.90625 
L 53.515625 0 
L 44.484375 0 
L 44.484375 32.71875 
Q 44.484375 40.625 41.703125 44.40625 
Q 38.921875 48.1875 33.109375 48.1875 
Q 26.21875 48.1875 22.15625 43.53125 
Q 18.109375 38.875 18.109375 30.90625 
L 18.109375 0 
L 9.078125 0 
L 9.078125 54.6875 
L 18.109375 54.6875 
L 18.109375 46.1875 
Q 21.1875 51.21875 25.484375 53.609375 
Q 29.78125 56 35.6875 56 
Q 41.65625 56 45.828125 52.96875 
Q 50 49.953125 52 44.1875 
z
" id="DejaVuSans-109"/>
      <path d="M 8.5 21.578125 
L 8.5 54.6875 
L 17.484375 54.6875 
L 17.484375 21.921875 
Q 17.484375 14.15625 20.5 10.265625 
Q 23.53125 6.390625 29.59375 6.390625 
Q 36.859375 6.390625 41.078125 11.03125 
Q 45.3125 15.671875 45.3125 23.6875 
L 45.3125 54.6875 
L 54.296875 54.6875 
L 54.296875 0 
L 45.3125 0 
L 45.3125 8.40625 
Q 42.046875 3.421875 37.71875 1 
Q 33.40625 -1.421875 27.6875 -1.421875 
Q 18.265625 -1.421875 13.375 4.4375 
Q 8.5 10.296875 8.5 21.578125 
z
M 31.109375 56 
z
" id="DejaVuSans-117"/>
      <path d="M 18.3125 70.21875 
L 18.3125 54.6875 
L 36.8125 54.6875 
L 36.8125 47.703125 
L 18.3125 47.703125 
L 18.3125 18.015625 
Q 18.3125 11.328125 20.140625 9.421875 
Q 21.96875 7.515625 27.59375 7.515625 
L 36.8125 7.515625 
L 36.8125 0 
L 27.59375 0 
Q 17.1875 0 13.234375 3.875 
Q 9.28125 7.765625 9.28125 18.015625 
L 9.28125 47.703125 
L 2.6875 47.703125 
L 2.6875 54.6875 
L 9.28125 54.6875 
L 9.28125 70.21875 
z
" id="DejaVuSans-116"/>
      <path d="M 34.28125 27.484375 
Q 23.390625 27.484375 19.1875 25 
Q 14.984375 22.515625 14.984375 16.5 
Q 14.984375 11.71875 18.140625 8.90625 
Q 21.296875 6.109375 26.703125 6.109375 
Q 34.1875 6.109375 38.703125 11.40625 
Q 43.21875 16.703125 43.21875 25.484375 
L 43.21875 27.484375 
z
M 52.203125 31.203125 
L 52.203125 0 
L 43.21875 0 
L 43.21875 8.296875 
Q 40.140625 3.328125 35.546875 0.953125 
Q 30.953125 -1.421875 24.3125 -1.421875 
Q 15.921875 -1.421875 10.953125 3.296875 
Q 6 8.015625 6 15.921875 
Q 6 25.140625 12.171875 29.828125 
Q 18.359375 34.515625 30.609375 34.515625 
L 43.21875 34.515625 
L 43.21875 35.40625 
Q 43.21875 41.609375 39.140625 45 
Q 35.0625 48.390625 27.6875 48.390625 
Q 23 48.390625 18.546875 47.265625 
Q 14.109375 46.140625 10.015625 43.890625 
L 10.015625 52.203125 
Q 14.9375 54.109375 19.578125 55.046875 
Q 24.21875 56 28.609375 56 
Q 40.484375 56 46.34375 49.84375 
Q 52.203125 43.703125 52.203125 31.203125 
z
" id="DejaVuSans-97"/>
      <path d="M 54.890625 33.015625 
L 54.890625 0 
L 45.90625 0 
L 45.90625 32.71875 
Q 45.90625 40.484375 42.875 44.328125 
Q 39.84375 48.1875 33.796875 48.1875 
Q 26.515625 48.1875 22.3125 43.546875 
Q 18.109375 38.921875 18.109375 30.90625 
L 18.109375 0 
L 9.078125 0 
L 9.078125 54.6875 
L 18.109375 54.6875 
L 18.109375 46.1875 
Q 21.34375 51.125 25.703125 53.5625 
Q 30.078125 56 35.796875 56 
Q 45.21875 56 50.046875 50.171875 
Q 54.890625 44.34375 54.890625 33.015625 
z
" id="DejaVuSans-110"/>
      <path d="M 48.6875 27.296875 
Q 48.6875 37.203125 44.609375 42.84375 
Q 40.53125 48.484375 33.40625 48.484375 
Q 26.265625 48.484375 22.1875 42.84375 
Q 18.109375 37.203125 18.109375 27.296875 
Q 18.109375 17.390625 22.1875 11.75 
Q 26.265625 6.109375 33.40625 6.109375 
Q 40.53125 6.109375 44.609375 11.75 
Q 48.6875 17.390625 48.6875 27.296875 
z
M 18.109375 46.390625 
Q 20.953125 51.265625 25.265625 53.625 
Q 29.59375 56 35.59375 56 
Q 45.5625 56 51.78125 48.09375 
Q 58.015625 40.1875 58.015625 27.296875 
Q 58.015625 14.40625 51.78125 6.484375 
Q 45.5625 -1.421875 35.59375 -1.421875 
Q 29.59375 -1.421875 25.265625 0.953125 
Q 20.953125 3.328125 18.109375 8.203125 
L 18.109375 0 
L 9.078125 0 
L 9.078125 75.984375 
L 18.109375 75.984375 
z
" id="DejaVuSans-98"/>
      <path d="M 41.109375 46.296875 
Q 39.59375 47.171875 37.8125 47.578125 
Q 36.03125 48 33.890625 48 
Q 26.265625 48 22.1875 43.046875 
Q 18.109375 38.09375 18.109375 28.8125 
L 18.109375 0 
L 9.078125 0 
L 9.078125 54.6875 
L 18.109375 54.6875 
L 18.109375 46.1875 
Q 20.953125 51.171875 25.484375 53.578125 
Q 30.03125 56 36.53125 56 
Q 37.453125 56 38.578125 55.875 
Q 39.703125 55.765625 41.0625 55.515625 
z
" id="DejaVuSans-114"/>
     </defs>
     <g transform="translate(322.29375 346.476562)scale(0.1 -0.1)">
      <use xlink:href="#DejaVuSans-75"/>
      <use x="65.576172" xlink:href="#DejaVuSans-105"/>
      <use x="93.359375" xlink:href="#DejaVuSans-108"/>
      <use x="121.142578" xlink:href="#DejaVuSans-108"/>
      <use x="148.925781" xlink:href="#DejaVuSans-101"/>
      <use x="210.449219" xlink:href="#DejaVuSans-100"/>
      <use x="273.925781" xlink:href="#DejaVuSans-32"/>
      <use x="305.712891" xlink:href="#DejaVuSans-109"/>
      <use x="403.125" xlink:href="#DejaVuSans-117"/>
      <use x="466.503906" xlink:href="#DejaVuSans-116"/>
      <use x="505.712891" xlink:href="#DejaVuSans-97"/>
      <use x="566.992188" xlink:href="#DejaVuSans-110"/>
      <use x="630.371094" xlink:href="#DejaVuSans-116"/>
      <use x="669.580078" xlink:href="#DejaVuSans-32"/>
      <use x="701.367188" xlink:href="#DejaVuSans-110"/>
      <use x="764.746094" xlink:href="#DejaVuSans-117"/>
      <use x="828.125" xlink:href="#DejaVuSans-109"/>
      <use x="925.537109" xlink:href="#DejaVuSans-98"/>
      <use x="989.013672" xlink:href="#DejaVuSans-101"/>
      <use x="1050.537109" xlink:href="#DejaVuSans-114"/>
     </g>
    </g>
   </g>
   <g id="matplotlib.axis_2">
    <g id="ytick_1">
     <g id="line2d_15">
      <defs>
       <path d="M 0 0 
L -3.5 0 
" id="m112b6fd51f" style="stroke:#000000;stroke-width:0.8;"/>
      </defs>
      <g>
       <use style="stroke:#000000;stroke-width:0.8;" x="44.55" xlink:href="#m112b6fd51f" y="318.2"/>
      </g>
     </g>
     <g id="text_16">
      <!-- 0 -->
      <g transform="translate(31.1875 321.999219)scale(0.1 -0.1)">
       <use xlink:href="#DejaVuSans-48"/>
      </g>
     </g>
    </g>
    <g id="ytick_2">
     <g id="line2d_16">
      <g>
       <use style="stroke:#000000;stroke-width:0.8;" x="44.55" xlink:href="#m112b6fd51f" y="259.92"/>
      </g>
     </g>
     <g id="text_17">
      <!-- 2 -->
      <g transform="translate(31.1875 263.719219)scale(0.1 -0.1)">
       <use xlink:href="#DejaVuSans-50"/>
      </g>
     </g>
    </g>
    <g id="ytick_3">
     <g id="line2d_17">
      <g>
       <use style="stroke:#000000;stroke-width:0.8;" x="44.55" xlink:href="#m112b6fd51f" y="201.64"/>
      </g>
     </g>
     <g id="text_18">
      <!-- 4 -->
      <g transform="translate(31.1875 205.439219)scale(0.1 -0.1)">
       <use xlink:href="#DejaVuSans-52"/>
      </g>
     </g>
    </g>
    <g id="ytick_4">
     <g id="line2d_18">
      <g>
       <use style="stroke:#000000;stroke-width:0.8;" x="44.55" xlink:href="#m112b6fd51f" y="143.36"/>
      </g>
     </g>
     <g id="text_19">
      <!-- 6 -->
      <g transform="translate(31.1875 147.159219)scale(0.1 -0.1)">
       <use xlink:href="#DejaVuSans-54"/>
      </g>
     </g>
    </g>
    <g id="ytick_5">
     <g id="line2d_19">
      <g>
       <use style="stroke:#000000;stroke-width:0.8;" x="44.55" xlink:href="#m112b6fd51f" y="85.08"/>
      </g>
     </g>
     <g id="text_20">
      <!-- 8 -->
      <g transform="translate(31.1875 88.879219)scale(0.1 -0.1)">
       <use xlink:href="#DejaVuSans-56"/>
      </g>
     </g>
    </g>
    <g id="ytick_6">
     <g id="line2d_20">
      <g>
       <use style="stroke:#000000;stroke-width:0.8;" x="44.55" xlink:href="#m112b6fd51f" y="26.8"/>
      </g>
     </g>
     <g id="text_21">
      <!-- 10 -->
      <g transform="translate(24.825 30.599219)scale(0.1 -0.1)">
       <use xlink:href="#DejaVuSans-49"/>
       <use x="63.623047" xlink:href="#DejaVuSans-48"/>
      </g>
     </g>
    </g>
    <g id="text_22">
     <!-- Time taken until mutant get discovered -->
     <defs>
      <path d="M -0.296875 72.90625 
L 61.375 72.90625 
L 61.375 64.59375 
L 35.5 64.59375 
L 35.5 0 
L 25.59375 0 
L 25.59375 64.59375 
L -0.296875 64.59375 
z
" id="DejaVuSans-84"/>
      <path d="M 9.078125 75.984375 
L 18.109375 75.984375 
L 18.109375 31.109375 
L 44.921875 54.6875 
L 56.390625 54.6875 
L 27.390625 29.109375 
L 57.625 0 
L 45.90625 0 
L 18.109375 26.703125 
L 18.109375 0 
L 9.078125 0 
z
" id="DejaVuSans-107"/>
      <path d="M 45.40625 27.984375 
Q 45.40625 37.75 41.375 43.109375 
Q 37.359375 48.484375 30.078125 48.484375 
Q 22.859375 48.484375 18.828125 43.109375 
Q 14.796875 37.75 14.796875 27.984375 
Q 14.796875 18.265625 18.828125 12.890625 
Q 22.859375 7.515625 30.078125 7.515625 
Q 37.359375 7.515625 41.375 12.890625 
Q 45.40625 18.265625 45.40625 27.984375 
z
M 54.390625 6.78125 
Q 54.390625 -7.171875 48.1875 -13.984375 
Q 42 -20.796875 29.203125 -20.796875 
Q 24.46875 -20.796875 20.265625 -20.09375 
Q 16.0625 -19.390625 12.109375 -17.921875 
L 12.109375 -9.1875 
Q 16.0625 -11.328125 19.921875 -12.34375 
Q 23.78125 -13.375 27.78125 -13.375 
Q 36.625 -13.375 41.015625 -8.765625 
Q 45.40625 -4.15625 45.40625 5.171875 
L 45.40625 9.625 
Q 42.625 4.78125 38.28125 2.390625 
Q 33.9375 0 27.875 0 
Q 17.828125 0 11.671875 7.65625 
Q 5.515625 15.328125 5.515625 27.984375 
Q 5.515625 40.671875 11.671875 48.328125 
Q 17.828125 56 27.875 56 
Q 33.9375 56 38.28125 53.609375 
Q 42.625 51.21875 45.40625 46.390625 
L 45.40625 54.6875 
L 54.390625 54.6875 
z
" id="DejaVuSans-103"/>
      <path d="M 44.28125 53.078125 
L 44.28125 44.578125 
Q 40.484375 46.53125 36.375 47.5 
Q 32.28125 48.484375 27.875 48.484375 
Q 21.1875 48.484375 17.84375 46.4375 
Q 14.5 44.390625 14.5 40.28125 
Q 14.5 37.15625 16.890625 35.375 
Q 19.28125 33.59375 26.515625 31.984375 
L 29.59375 31.296875 
Q 39.15625 29.25 43.1875 25.515625 
Q 47.21875 21.78125 47.21875 15.09375 
Q 47.21875 7.46875 41.1875 3.015625 
Q 35.15625 -1.421875 24.609375 -1.421875 
Q 20.21875 -1.421875 15.453125 -0.5625 
Q 10.6875 0.296875 5.421875 2 
L 5.421875 11.28125 
Q 10.40625 8.6875 15.234375 7.390625 
Q 20.0625 6.109375 24.8125 6.109375 
Q 31.15625 6.109375 34.5625 8.28125 
Q 37.984375 10.453125 37.984375 14.40625 
Q 37.984375 18.0625 35.515625 20.015625 
Q 33.0625 21.96875 24.703125 23.78125 
L 21.578125 24.515625 
Q 13.234375 26.265625 9.515625 29.90625 
Q 5.8125 33.546875 5.8125 39.890625 
Q 5.8125 47.609375 11.28125 51.796875 
Q 16.75 56 26.8125 56 
Q 31.78125 56 36.171875 55.265625 
Q 40.578125 54.546875 44.28125 53.078125 
z
" id="DejaVuSans-115"/>
      <path d="M 48.78125 52.59375 
L 48.78125 44.1875 
Q 44.96875 46.296875 41.140625 47.34375 
Q 37.3125 48.390625 33.40625 48.390625 
Q 24.65625 48.390625 19.8125 42.84375 
Q 14.984375 37.3125 14.984375 27.296875 
Q 14.984375 17.28125 19.8125 11.734375 
Q 24.65625 6.203125 33.40625 6.203125 
Q 37.3125 6.203125 41.140625 7.25 
Q 44.96875 8.296875 48.78125 10.40625 
L 48.78125 2.09375 
Q 45.015625 0.34375 40.984375 -0.53125 
Q 36.96875 -1.421875 32.421875 -1.421875 
Q 20.0625 -1.421875 12.78125 6.34375 
Q 5.515625 14.109375 5.515625 27.296875 
Q 5.515625 40.671875 12.859375 48.328125 
Q 20.21875 56 33.015625 56 
Q 37.15625 56 41.109375 55.140625 
Q 45.0625 54.296875 48.78125 52.59375 
z
" id="DejaVuSans-99"/>
      <path d="M 30.609375 48.390625 
Q 23.390625 48.390625 19.1875 42.75 
Q 14.984375 37.109375 14.984375 27.296875 
Q 14.984375 17.484375 19.15625 11.84375 
Q 23.34375 6.203125 30.609375 6.203125 
Q 37.796875 6.203125 41.984375 11.859375 
Q 46.1875 17.53125 46.1875 27.296875 
Q 46.1875 37.015625 41.984375 42.703125 
Q 37.796875 48.390625 30.609375 48.390625 
z
M 30.609375 56 
Q 42.328125 56 49.015625 48.375 
Q 55.71875 40.765625 55.71875 27.296875 
Q 55.71875 13.875 49.015625 6.21875 
Q 42.328125 -1.421875 30.609375 -1.421875 
Q 18.84375 -1.421875 12.171875 6.21875 
Q 5.515625 13.875 5.515625 27.296875 
Q 5.515625 40.765625 12.171875 48.375 
Q 18.84375 56 30.609375 56 
z
" id="DejaVuSans-111"/>
      <path d="M 2.984375 54.6875 
L 12.5 54.6875 
L 29.59375 8.796875 
L 46.6875 54.6875 
L 56.203125 54.6875 
L 35.6875 0 
L 23.484375 0 
z
" id="DejaVuSans-118"/>
     </defs>
     <g transform="translate(18.745312 271.347656)rotate(-90)scale(0.1 -0.1)">
      <use xlink:href="#DejaVuSans-84"/>
      <use x="57.958984" xlink:href="#DejaVuSans-105"/>
      <use x="85.742188" xlink:href="#DejaVuSans-109"/>
      <use x="183.154297" xlink:href="#DejaVuSans-101"/>
      <use x="244.677734" xlink:href="#DejaVuSans-32"/>
      <use x="276.464844" xlink:href="#DejaVuSans-116"/>
      <use x="315.673828" xlink:href="#DejaVuSans-97"/>
      <use x="376.953125" xlink:href="#DejaVuSans-107"/>
      <use x="431.238281" xlink:href="#DejaVuSans-101"/>
      <use x="492.761719" xlink:href="#DejaVuSans-110"/>
      <use x="556.140625" xlink:href="#DejaVuSans-32"/>
      <use x="587.927734" xlink:href="#DejaVuSans-117"/>
      <use x="651.306641" xlink:href="#DejaVuSans-110"/>
      <use x="714.685547" xlink:href="#DejaVuSans-116"/>
      <use x="753.894531" xlink:href="#DejaVuSans-105"/>
      <use x="781.677734" xlink:href="#DejaVuSans-108"/>
      <use x="809.460938" xlink:href="#DejaVuSans-32"/>
      <use x="841.248047" xlink:href="#DejaVuSans-109"/>
      <use x="938.660156" xlink:href="#DejaVuSans-117"/>
      <use x="1002.039062" xlink:href="#DejaVuSans-116"/>
      <use x="1041.248047" xlink:href="#DejaVuSans-97"/>
      <use x="1102.527344" xlink:href="#DejaVuSans-110"/>
      <use x="1165.90625" xlink:href="#DejaVuSans-116"/>
      <use x="1205.115234" xlink:href="#DejaVuSans-32"/>
      <use x="1236.902344" xlink:href="#DejaVuSans-103"/>
      <use x="1300.378906" xlink:href="#DejaVuSans-101"/>
      <use x="1361.902344" xlink:href="#DejaVuSans-116"/>
      <use x="1401.111328" xlink:href="#DejaVuSans-32"/>
      <use x="1432.898438" xlink:href="#DejaVuSans-100"/>
      <use x="1496.375" xlink:href="#DejaVuSans-105"/>
      <use x="1524.158203" xlink:href="#DejaVuSans-115"/>
      <use x="1576.257812" xlink:href="#DejaVuSans-99"/>
      <use x="1631.238281" xlink:href="#DejaVuSans-111"/>
      <use x="1692.419922" xlink:href="#DejaVuSans-118"/>
      <use x="1751.599609" xlink:href="#DejaVuSans-101"/>
      <use x="1813.123047" xlink:href="#DejaVuSans-114"/>
      <use x="1851.986328" xlink:href="#DejaVuSans-101"/>
      <use x="1913.509766" xlink:href="#DejaVuSans-100"/>
     </g>
    </g>
   </g>
   <g id="patch_59">
    <path d="M 44.55 318.2 
L 44.55 26.8 
" style="fill:none;stroke:#000000;stroke-linecap:square;stroke-linejoin:miter;stroke-width:0.8;"/>
   </g>
   <g id="patch_60">
    <path d="M 709.2 318.2 
L 709.2 26.8 
" style="fill:none;stroke:#000000;stroke-linecap:square;stroke-linejoin:miter;stroke-width:0.8;"/>
   </g>
   <g id="patch_61">
    <path d="M 44.55 318.2 
L 709.2 318.2 
" style="fill:none;stroke:#000000;stroke-linecap:square;stroke-linejoin:miter;stroke-width:0.8;"/>
   </g>
   <g id="patch_62">
    <path d="M 44.55 26.8 
L 709.2 26.8 
" style="fill:none;stroke:#000000;stroke-linecap:square;stroke-linejoin:miter;stroke-width:0.8;"/>
   </g>
   <g id="text_23">
    <!-- The different algorithms' performance on killed mutant for JavaNioServerSocket3 -->
    <defs>
     <path d="M 54.890625 33.015625 
L 54.890625 0 
L 45.90625 0 
L 45.90625 32.71875 
Q 45.90625 40.484375 42.875 44.328125 
Q 39.84375 48.1875 33.796875 48.1875 
Q 26.515625 48.1875 22.3125 43.546875 
Q 18.109375 38.921875 18.109375 30.90625 
L 18.109375 0 
L 9.078125 0 
L 9.078125 75.984375 
L 18.109375 75.984375 
L 18.109375 46.1875 
Q 21.34375 51.125 25.703125 53.5625 
Q 30.078125 56 35.796875 56 
Q 45.21875 56 50.046875 50.171875 
Q 54.890625 44.34375 54.890625 33.015625 
z
" id="DejaVuSans-104"/>
     <path d="M 37.109375 75.984375 
L 37.109375 68.5 
L 28.515625 68.5 
Q 23.6875 68.5 21.796875 66.546875 
Q 19.921875 64.59375 19.921875 59.515625 
L 19.921875 54.6875 
L 34.71875 54.6875 
L 34.71875 47.703125 
L 19.921875 47.703125 
L 19.921875 0 
L 10.890625 0 
L 10.890625 47.703125 
L 2.296875 47.703125 
L 2.296875 54.6875 
L 10.890625 54.6875 
L 10.890625 58.5 
Q 10.890625 67.625 15.140625 71.796875 
Q 19.390625 75.984375 28.609375 75.984375 
z
" id="DejaVuSans-102"/>
     <path d="M 17.921875 72.90625 
L 17.921875 45.796875 
L 9.625 45.796875 
L 9.625 72.90625 
z
" id="DejaVuSans-39"/>
     <path d="M 18.109375 8.203125 
L 18.109375 -20.796875 
L 9.078125 -20.796875 
L 9.078125 54.6875 
L 18.109375 54.6875 
L 18.109375 46.390625 
Q 20.953125 51.265625 25.265625 53.625 
Q 29.59375 56 35.59375 56 
Q 45.5625 56 51.78125 48.09375 
Q 58.015625 40.1875 58.015625 27.296875 
Q 58.015625 14.40625 51.78125 6.484375 
Q 45.5625 -1.421875 35.59375 -1.421875 
Q 29.59375 -1.421875 25.265625 0.953125 
Q 20.953125 3.328125 18.109375 8.203125 
z
M 48.6875 27.296875 
Q 48.6875 37.203125 44.609375 42.84375 
Q 40.53125 48.484375 33.40625 48.484375 
Q 26.265625 48.484375 22.1875 42.84375 
Q 18.109375 37.203125 18.109375 27.296875 
Q 18.109375 17.390625 22.1875 11.75 
Q 26.265625 6.109375 33.40625 6.109375 
Q 40.53125 6.109375 44.609375 11.75 
Q 48.6875 17.390625 48.6875 27.296875 
z
" id="DejaVuSans-112"/>
     <path d="M 9.8125 72.90625 
L 19.671875 72.90625 
L 19.671875 5.078125 
Q 19.671875 -8.109375 14.671875 -14.0625 
Q 9.671875 -20.015625 -1.421875 -20.015625 
L -5.171875 -20.015625 
L -5.171875 -11.71875 
L -2.09375 -11.71875 
Q 4.4375 -11.71875 7.125 -8.046875 
Q 9.8125 -4.390625 9.8125 5.078125 
z
" id="DejaVuSans-74"/>
     <path d="M 9.8125 72.90625 
L 23.09375 72.90625 
L 55.421875 11.921875 
L 55.421875 72.90625 
L 64.984375 72.90625 
L 64.984375 0 
L 51.703125 0 
L 19.390625 60.984375 
L 19.390625 0 
L 9.8125 0 
z
" id="DejaVuSans-78"/>
     <path d="M 53.515625 70.515625 
L 53.515625 60.890625 
Q 47.90625 63.578125 42.921875 64.890625 
Q 37.9375 66.21875 33.296875 66.21875 
Q 25.25 66.21875 20.875 63.09375 
Q 16.5 59.96875 16.5 54.203125 
Q 16.5 49.359375 19.40625 46.890625 
Q 22.3125 44.4375 30.421875 42.921875 
L 36.375 41.703125 
Q 47.40625 39.59375 52.65625 34.296875 
Q 57.90625 29 57.90625 20.125 
Q 57.90625 9.515625 50.796875 4.046875 
Q 43.703125 -1.421875 29.984375 -1.421875 
Q 24.8125 -1.421875 18.96875 -0.25 
Q 13.140625 0.921875 6.890625 3.21875 
L 6.890625 13.375 
Q 12.890625 10.015625 18.65625 8.296875 
Q 24.421875 6.59375 29.984375 6.59375 
Q 38.421875 6.59375 43.015625 9.90625 
Q 47.609375 13.234375 47.609375 19.390625 
Q 47.609375 24.75 44.3125 27.78125 
Q 41.015625 30.8125 33.5 32.328125 
L 27.484375 33.5 
Q 16.453125 35.6875 11.515625 40.375 
Q 6.59375 45.0625 6.59375 53.421875 
Q 6.59375 63.09375 13.40625 68.65625 
Q 20.21875 74.21875 32.171875 74.21875 
Q 37.3125 74.21875 42.625 73.28125 
Q 47.953125 72.359375 53.515625 70.515625 
z
" id="DejaVuSans-83"/>
    </defs>
    <g transform="translate(133.125 20.8)scale(0.12 -0.12)">
     <use xlink:href="#DejaVuSans-84"/>
     <use x="61.083984" xlink:href="#DejaVuSans-104"/>
     <use x="124.462891" xlink:href="#DejaVuSans-101"/>
     <use x="185.986328" xlink:href="#DejaVuSans-32"/>
     <use x="217.773438" xlink:href="#DejaVuSans-100"/>
     <use x="281.25" xlink:href="#DejaVuSans-105"/>
     <use x="309.033203" xlink:href="#DejaVuSans-102"/>
     <use x="344.238281" xlink:href="#DejaVuSans-102"/>
     <use x="379.443359" xlink:href="#DejaVuSans-101"/>
     <use x="440.966797" xlink:href="#DejaVuSans-114"/>
     <use x="479.830078" xlink:href="#DejaVuSans-101"/>
     <use x="541.353516" xlink:href="#DejaVuSans-110"/>
     <use x="604.732422" xlink:href="#DejaVuSans-116"/>
     <use x="643.941406" xlink:href="#DejaVuSans-32"/>
     <use x="675.728516" xlink:href="#DejaVuSans-97"/>
     <use x="737.007812" xlink:href="#DejaVuSans-108"/>
     <use x="764.791016" xlink:href="#DejaVuSans-103"/>
     <use x="828.267578" xlink:href="#DejaVuSans-111"/>
     <use x="889.449219" xlink:href="#DejaVuSans-114"/>
     <use x="930.5625" xlink:href="#DejaVuSans-105"/>
     <use x="958.345703" xlink:href="#DejaVuSans-116"/>
     <use x="997.554688" xlink:href="#DejaVuSans-104"/>
     <use x="1060.933594" xlink:href="#DejaVuSans-109"/>
     <use x="1158.345703" xlink:href="#DejaVuSans-115"/>
     <use x="1210.445312" xlink:href="#DejaVuSans-39"/>
     <use x="1237.935547" xlink:href="#DejaVuSans-32"/>
     <use x="1269.722656" xlink:href="#DejaVuSans-112"/>
     <use x="1333.199219" xlink:href="#DejaVuSans-101"/>
     <use x="1394.722656" xlink:href="#DejaVuSans-114"/>
     <use x="1435.835938" xlink:href="#DejaVuSans-102"/>
     <use x="1471.041016" xlink:href="#DejaVuSans-111"/>
     <use x="1532.222656" xlink:href="#DejaVuSans-114"/>
     <use x="1571.585938" xlink:href="#DejaVuSans-109"/>
     <use x="1668.998047" xlink:href="#DejaVuSans-97"/>
     <use x="1730.277344" xlink:href="#DejaVuSans-110"/>
     <use x="1793.65625" xlink:href="#DejaVuSans-99"/>
     <use x="1848.636719" xlink:href="#DejaVuSans-101"/>
     <use x="1910.160156" xlink:href="#DejaVuSans-32"/>
     <use x="1941.947266" xlink:href="#DejaVuSans-111"/>
     <use x="2003.128906" xlink:href="#DejaVuSans-110"/>
     <use x="2066.507812" xlink:href="#DejaVuSans-32"/>
     <use x="2098.294922" xlink:href="#DejaVuSans-107"/>
     <use x="2156.205078" xlink:href="#DejaVuSans-105"/>
     <use x="2183.988281" xlink:href="#DejaVuSans-108"/>
     <use x="2211.771484" xlink:href="#DejaVuSans-108"/>
     <use x="2239.554688" xlink:href="#DejaVuSans-101"/>
     <use x="2301.078125" xlink:href="#DejaVuSans-100"/>
     <use x="2364.554688" xlink:href="#DejaVuSans-32"/>
     <use x="2396.341797" xlink:href="#DejaVuSans-109"/>
     <use x="2493.753906" xlink:href="#DejaVuSans-117"/>
     <use x="2557.132812" xlink:href="#DejaVuSans-116"/>
     <use x="2596.341797" xlink:href="#DejaVuSans-97"/>
     <use x="2657.621094" xlink:href="#DejaVuSans-110"/>
     <use x="2721" xlink:href="#DejaVuSans-116"/>
     <use x="2760.208984" xlink:href="#DejaVuSans-32"/>
     <use x="2791.996094" xlink:href="#DejaVuSans-102"/>
     <use x="2827.201172" xlink:href="#DejaVuSans-111"/>
     <use x="2888.382812" xlink:href="#DejaVuSans-114"/>
     <use x="2929.496094" xlink:href="#DejaVuSans-32"/>
     <use x="2961.283203" xlink:href="#DejaVuSans-74"/>
     <use x="2990.775391" xlink:href="#DejaVuSans-97"/>
     <use x="3052.054688" xlink:href="#DejaVuSans-118"/>
     <use x="3111.234375" xlink:href="#DejaVuSans-97"/>
     <use x="3172.513672" xlink:href="#DejaVuSans-78"/>
     <use x="3247.318359" xlink:href="#DejaVuSans-105"/>
     <use x="3275.101562" xlink:href="#DejaVuSans-111"/>
     <use x="3336.283203" xlink:href="#DejaVuSans-83"/>
     <use x="3399.759766" xlink:href="#DejaVuSans-101"/>
     <use x="3461.283203" xlink:href="#DejaVuSans-114"/>
     <use x="3502.396484" xlink:href="#DejaVuSans-118"/>
     <use x="3561.576172" xlink:href="#DejaVuSans-101"/>
     <use x="3623.099609" xlink:href="#DejaVuSans-114"/>
     <use x="3664.212891" xlink:href="#DejaVuSans-83"/>
     <use x="3727.689453" xlink:href="#DejaVuSans-111"/>
     <use x="3788.871094" xlink:href="#DejaVuSans-99"/>
     <use x="3843.851562" xlink:href="#DejaVuSans-107"/>
     <use x="3898.136719" xlink:href="#DejaVuSans-101"/>
     <use x="3959.660156" xlink:href="#DejaVuSans-116"/>
     <use x="3998.869141" xlink:href="#DejaVuSans-51"/>
    </g>
   </g>
   <g id="legend_1">
    <g id="patch_63">
     <path d="M 559.725 94.625 
L 702.2 94.625 
Q 704.2 94.625 704.2 92.625 
L 704.2 33.8 
Q 704.2 31.8 702.2 31.8 
L 559.725 31.8 
Q 557.725 31.8 557.725 33.8 
L 557.725 92.625 
Q 557.725 94.625 559.725 94.625 
z
" style="fill:#ffffff;opacity:0.8;stroke:#cccccc;stroke-linejoin:miter;"/>
    </g>
    <g id="patch_64">
     <path d="M 561.725 43.398438 
L 581.725 43.398438 
L 581.725 36.398438 
L 561.725 36.398438 
z
" style="fill:#1f77b4;"/>
    </g>
    <g id="text_24">
     <!-- bes_loops -->
     <defs>
      <path d="M 50.984375 -16.609375 
L 50.984375 -23.578125 
L -0.984375 -23.578125 
L -0.984375 -16.609375 
z
" id="DejaVuSans-95"/>
     </defs>
     <g transform="translate(589.725 43.398438)scale(0.1 -0.1)">
      <use xlink:href="#DejaVuSans-98"/>
      <use x="63.476562" xlink:href="#DejaVuSans-101"/>
      <use x="125" xlink:href="#DejaVuSans-115"/>
      <use x="177.099609" xlink:href="#DejaVuSans-95"/>
      <use x="227.099609" xlink:href="#DejaVuSans-108"/>
      <use x="254.882812" xlink:href="#DejaVuSans-111"/>
      <use x="316.064453" xlink:href="#DejaVuSans-111"/>
      <use x="377.246094" xlink:href="#DejaVuSans-112"/>
      <use x="440.722656" xlink:href="#DejaVuSans-115"/>
     </g>
    </g>
    <g id="patch_65">
     <path d="M 561.725 58.354688 
L 581.725 58.354688 
L 581.725 51.354688 
L 561.725 51.354688 
z
" style="fill:#ff7f0e;"/>
    </g>
    <g id="text_25">
     <!-- random_loops -->
     <g transform="translate(589.725 58.354688)scale(0.1 -0.1)">
      <use xlink:href="#DejaVuSans-114"/>
      <use x="41.113281" xlink:href="#DejaVuSans-97"/>
      <use x="102.392578" xlink:href="#DejaVuSans-110"/>
      <use x="165.771484" xlink:href="#DejaVuSans-100"/>
      <use x="229.248047" xlink:href="#DejaVuSans-111"/>
      <use x="290.429688" xlink:href="#DejaVuSans-109"/>
      <use x="387.841797" xlink:href="#DejaVuSans-95"/>
      <use x="437.841797" xlink:href="#DejaVuSans-108"/>
      <use x="465.625" xlink:href="#DejaVuSans-111"/>
      <use x="526.806641" xlink:href="#DejaVuSans-111"/>
      <use x="587.988281" xlink:href="#DejaVuSans-112"/>
      <use x="651.464844" xlink:href="#DejaVuSans-115"/>
     </g>
    </g>
    <g id="patch_66">
     <path d="M 561.725 73.310938 
L 581.725 73.310938 
L 581.725 66.310938 
L 561.725 66.310938 
z
" style="fill:#2ca02c;"/>
    </g>
    <g id="text_26">
     <!-- bes_no_self_loops -->
     <g transform="translate(589.725 73.310938)scale(0.1 -0.1)">
      <use xlink:href="#DejaVuSans-98"/>
      <use x="63.476562" xlink:href="#DejaVuSans-101"/>
      <use x="125" xlink:href="#DejaVuSans-115"/>
      <use x="177.099609" xlink:href="#DejaVuSans-95"/>
      <use x="227.099609" xlink:href="#DejaVuSans-110"/>
      <use x="290.478516" xlink:href="#DejaVuSans-111"/>
      <use x="351.660156" xlink:href="#DejaVuSans-95"/>
      <use x="401.660156" xlink:href="#DejaVuSans-115"/>
      <use x="453.759766" xlink:href="#DejaVuSans-101"/>
      <use x="515.283203" xlink:href="#DejaVuSans-108"/>
      <use x="543.066406" xlink:href="#DejaVuSans-102"/>
      <use x="578.271484" xlink:href="#DejaVuSans-95"/>
      <use x="628.271484" xlink:href="#DejaVuSans-108"/>
      <use x="656.054688" xlink:href="#DejaVuSans-111"/>
      <use x="717.236328" xlink:href="#DejaVuSans-111"/>
      <use x="778.417969" xlink:href="#DejaVuSans-112"/>
      <use x="841.894531" xlink:href="#DejaVuSans-115"/>
     </g>
    </g>
    <g id="patch_67">
     <path d="M 561.725 88.267187 
L 581.725 88.267187 
L 581.725 81.267187 
L 561.725 81.267187 
z
" style="fill:#d62728;"/>
    </g>
    <g id="text_27">
     <!-- random_no_self_loops -->
     <g transform="translate(589.725 88.267187)scale(0.1 -0.1)">
      <use xlink:href="#DejaVuSans-114"/>
      <use x="41.113281" xlink:href="#DejaVuSans-97"/>
      <use x="102.392578" xlink:href="#DejaVuSans-110"/>
      <use x="165.771484" xlink:href="#DejaVuSans-100"/>
      <use x="229.248047" xlink:href="#DejaVuSans-111"/>
      <use x="290.429688" xlink:href="#DejaVuSans-109"/>
      <use x="387.841797" xlink:href="#DejaVuSans-95"/>
      <use x="437.841797" xlink:href="#DejaVuSans-110"/>
      <use x="501.220703" xlink:href="#DejaVuSans-111"/>
      <use x="562.402344" xlink:href="#DejaVuSans-95"/>
      <use x="612.402344" xlink:href="#DejaVuSans-115"/>
      <use x="664.501953" xlink:href="#DejaVuSans-101"/>
      <use x="726.025391" xlink:href="#DejaVuSans-108"/>
      <use x="753.808594" xlink:href="#DejaVuSans-102"/>
      <use x="789.013672" xlink:href="#DejaVuSans-95"/>
      <use x="839.013672" xlink:href="#DejaVuSans-108"/>
      <use x="866.796875" xlink:href="#DejaVuSans-111"/>
      <use x="927.978516" xlink:href="#DejaVuSans-111"/>
      <use x="989.160156" xlink:href="#DejaVuSans-112"/>
      <use x="1052.636719" xlink:href="#DejaVuSans-115"/>
     </g>
    </g>
   </g>
  </g>
 </g>
 <defs>
  <clipPath id="pc284f800bb">
   <rect height="291.4" width="664.65" x="44.55" y="26.8"/>
  </clipPath>
 </defs>
</svg>
