<?xml version="1.0" encoding="utf-8" standalone="no"?>
<!DOCTYPE svg PUBLIC "-//W3C//DTD SVG 1.1//EN"
  "http://www.w3.org/Graphics/SVG/1.1/DTD/svg11.dtd">
<!-- Created with matplotlib (https://matplotlib.org/) -->
<svg height="360pt" version="1.1" viewBox="0 0 1800 360" width="1800pt" xmlns="http://www.w3.org/2000/svg" xmlns:xlink="http://www.w3.org/1999/xlink">
 <defs>
  <style type="text/css">
*{stroke-linecap:butt;stroke-linejoin:round;}
  </style>
 </defs>
 <g id="figure_1">
  <g id="patch_1">
   <path d="M 0 360 
L 1800 360 
L 1800 0 
L 0 0 
z
" style="fill:#ffffff;"/>
  </g>
  <g id="axes_1">
   <g id="patch_2">
    <path d="M 47.8 318.2 
L 1789.2 318.2 
L 1789.2 26.8 
L 47.8 26.8 
z
" style="fill:#ffffff;"/>
   </g>
   <g id="patch_3">
    <path clip-path="url(#pb15e64198b)" d="M 60.942642 318.2 
L 67.513962 318.2 
L 67.513962 211.509245 
L 60.942642 211.509245 
z
" style="fill:#1f77b4;"/>
   </g>
   <g id="patch_4">
    <path clip-path="url(#pb15e64198b)" d="M 100.370566 318.2 
L 106.941887 318.2 
L 106.941887 231.104347 
L 100.370566 231.104347 
z
" style="fill:#1f77b4;"/>
   </g>
   <g id="patch_5">
    <path clip-path="url(#pb15e64198b)" d="M 139.798491 318.2 
L 146.369811 318.2 
L 146.369811 239.905879 
L 139.798491 239.905879 
z
" style="fill:#1f77b4;"/>
   </g>
   <g id="patch_6">
    <path clip-path="url(#pb15e64198b)" d="M 179.226415 318.2 
L 185.797736 318.2 
L 185.797736 257.58481 
L 179.226415 257.58481 
z
" style="fill:#1f77b4;"/>
   </g>
   <g id="patch_7">
    <path clip-path="url(#pb15e64198b)" d="M 218.65434 318.2 
L 225.22566 318.2 
L 225.22566 246.204383 
L 218.65434 246.204383 
z
" style="fill:#1f77b4;"/>
   </g>
   <g id="patch_8">
    <path clip-path="url(#pb15e64198b)" d="M 258.082264 318.2 
L 264.653585 318.2 
L 264.653585 244.898898 
L 258.082264 244.898898 
z
" style="fill:#1f77b4;"/>
   </g>
   <g id="patch_9">
    <path clip-path="url(#pb15e64198b)" d="M 297.510189 318.2 
L 304.081509 318.2 
L 304.081509 257.300239 
L 297.510189 257.300239 
z
" style="fill:#1f77b4;"/>
   </g>
   <g id="patch_10">
    <path clip-path="url(#pb15e64198b)" d="M 336.938113 318.2 
L 343.509434 318.2 
L 343.509434 244.676183 
L 336.938113 244.676183 
z
" style="fill:#1f77b4;"/>
   </g>
   <g id="patch_11">
    <path clip-path="url(#pb15e64198b)" d="M 376.366038 318.2 
L 382.937358 318.2 
L 382.937358 263.514238 
L 376.366038 263.514238 
z
" style="fill:#1f77b4;"/>
   </g>
   <g id="patch_12">
    <path clip-path="url(#pb15e64198b)" d="M 415.793962 318.2 
L 422.365283 318.2 
L 422.365283 211.124955 
L 415.793962 211.124955 
z
" style="fill:#1f77b4;"/>
   </g>
   <g id="patch_13">
    <path clip-path="url(#pb15e64198b)" d="M 455.221887 318.2 
L 461.793208 318.2 
L 461.793208 208.973563 
L 455.221887 208.973563 
z
" style="fill:#1f77b4;"/>
   </g>
   <g id="patch_14">
    <path clip-path="url(#pb15e64198b)" d="M 494.649811 318.2 
L 501.221132 318.2 
L 501.221132 257.810859 
L 494.649811 257.810859 
z
" style="fill:#1f77b4;"/>
   </g>
   <g id="patch_15">
    <path clip-path="url(#pb15e64198b)" d="M 534.077736 318.2 
L 540.649057 318.2 
L 540.649057 255.352572 
L 534.077736 255.352572 
z
" style="fill:#1f77b4;"/>
   </g>
   <g id="patch_16">
    <path clip-path="url(#pb15e64198b)" d="M 573.50566 318.2 
L 580.076981 318.2 
L 580.076981 247.930146 
L 573.50566 247.930146 
z
" style="fill:#1f77b4;"/>
   </g>
   <g id="patch_17">
    <path clip-path="url(#pb15e64198b)" d="M 612.933585 318.2 
L 619.504906 318.2 
L 619.504906 252.083186 
L 612.933585 252.083186 
z
" style="fill:#1f77b4;"/>
   </g>
   <g id="patch_18">
    <path clip-path="url(#pb15e64198b)" d="M 652.361509 318.2 
L 658.93283 318.2 
L 658.93283 253.518937 
L 652.361509 253.518937 
z
" style="fill:#1f77b4;"/>
   </g>
   <g id="patch_19">
    <path clip-path="url(#pb15e64198b)" d="M 691.789434 318.2 
L 698.360755 318.2 
L 698.360755 252.855704 
L 691.789434 252.855704 
z
" style="fill:#1f77b4;"/>
   </g>
   <g id="patch_20">
    <path clip-path="url(#pb15e64198b)" d="M 731.217358 318.2 
L 737.788679 318.2 
L 737.788679 246.967753 
L 731.217358 246.967753 
z
" style="fill:#1f77b4;"/>
   </g>
   <g id="patch_21">
    <path clip-path="url(#pb15e64198b)" d="M 770.645283 318.2 
L 777.216604 318.2 
L 777.216604 246.219042 
L 770.645283 246.219042 
z
" style="fill:#1f77b4;"/>
   </g>
   <g id="patch_22">
    <path clip-path="url(#pb15e64198b)" d="M 810.073208 318.2 
L 816.644528 318.2 
L 816.644528 253.190227 
L 810.073208 253.190227 
z
" style="fill:#1f77b4;"/>
   </g>
   <g id="patch_23">
    <path clip-path="url(#pb15e64198b)" d="M 849.501132 318.2 
L 856.072453 318.2 
L 856.072453 250.972001 
L 849.501132 250.972001 
z
" style="fill:#1f77b4;"/>
   </g>
   <g id="patch_24">
    <path clip-path="url(#pb15e64198b)" d="M 888.929057 318.2 
L 895.500377 318.2 
L 895.500377 258.435811 
L 888.929057 258.435811 
z
" style="fill:#1f77b4;"/>
   </g>
   <g id="patch_25">
    <path clip-path="url(#pb15e64198b)" d="M 928.356981 318.2 
L 934.928302 318.2 
L 934.928302 248.954696 
L 928.356981 248.954696 
z
" style="fill:#1f77b4;"/>
   </g>
   <g id="patch_26">
    <path clip-path="url(#pb15e64198b)" d="M 967.784906 318.2 
L 974.356226 318.2 
L 974.356226 242.997154 
L 967.784906 242.997154 
z
" style="fill:#1f77b4;"/>
   </g>
   <g id="patch_27">
    <path clip-path="url(#pb15e64198b)" d="M 1007.21283 318.2 
L 1013.784151 318.2 
L 1013.784151 257.314991 
L 1007.21283 257.314991 
z
" style="fill:#1f77b4;"/>
   </g>
   <g id="patch_28">
    <path clip-path="url(#pb15e64198b)" d="M 1046.640755 318.2 
L 1053.212075 318.2 
L 1053.212075 251.60742 
L 1046.640755 251.60742 
z
" style="fill:#1f77b4;"/>
   </g>
   <g id="patch_29">
    <path clip-path="url(#pb15e64198b)" d="M 1086.068679 318.2 
L 1092.64 318.2 
L 1092.64 243.010539 
L 1086.068679 243.010539 
z
" style="fill:#1f77b4;"/>
   </g>
   <g id="patch_30">
    <path clip-path="url(#pb15e64198b)" d="M 1125.496604 318.2 
L 1132.067925 318.2 
L 1132.067925 253.18944 
L 1125.496604 253.18944 
z
" style="fill:#1f77b4;"/>
   </g>
   <g id="patch_31">
    <path clip-path="url(#pb15e64198b)" d="M 1164.924528 318.2 
L 1171.495849 318.2 
L 1171.495849 258.701345 
L 1164.924528 258.701345 
z
" style="fill:#1f77b4;"/>
   </g>
   <g id="patch_32">
    <path clip-path="url(#pb15e64198b)" d="M 1204.352453 318.2 
L 1210.923774 318.2 
L 1210.923774 238.662852 
L 1204.352453 238.662852 
z
" style="fill:#1f77b4;"/>
   </g>
   <g id="patch_33">
    <path clip-path="url(#pb15e64198b)" d="M 1243.780377 318.2 
L 1250.351698 318.2 
L 1250.351698 183.95025 
L 1243.780377 183.95025 
z
" style="fill:#1f77b4;"/>
   </g>
   <g id="patch_34">
    <path clip-path="url(#pb15e64198b)" d="M 1283.208302 318.2 
L 1289.779623 318.2 
L 1289.779623 223.976079 
L 1283.208302 223.976079 
z
" style="fill:#1f77b4;"/>
   </g>
   <g id="patch_35">
    <path clip-path="url(#pb15e64198b)" d="M 1322.636226 318.2 
L 1329.207547 318.2 
L 1329.207547 251.123317 
L 1322.636226 251.123317 
z
" style="fill:#1f77b4;"/>
   </g>
   <g id="patch_36">
    <path clip-path="url(#pb15e64198b)" d="M 1362.064151 318.2 
L 1368.635472 318.2 
L 1368.635472 259.6353 
L 1362.064151 259.6353 
z
" style="fill:#1f77b4;"/>
   </g>
   <g id="patch_37">
    <path clip-path="url(#pb15e64198b)" d="M 1401.492075 318.2 
L 1408.063396 318.2 
L 1408.063396 253.236173 
L 1401.492075 253.236173 
z
" style="fill:#1f77b4;"/>
   </g>
   <g id="patch_38">
    <path clip-path="url(#pb15e64198b)" d="M 1440.92 318.2 
L 1447.491321 318.2 
L 1447.491321 254.205931 
L 1440.92 254.205931 
z
" style="fill:#1f77b4;"/>
   </g>
   <g id="patch_39">
    <path clip-path="url(#pb15e64198b)" d="M 1480.347925 318.2 
L 1486.919245 318.2 
L 1486.919245 238.316472 
L 1480.347925 238.316472 
z
" style="fill:#1f77b4;"/>
   </g>
   <g id="patch_40">
    <path clip-path="url(#pb15e64198b)" d="M 1519.775849 318.2 
L 1526.34717 318.2 
L 1526.34717 257.410358 
L 1519.775849 257.410358 
z
" style="fill:#1f77b4;"/>
   </g>
   <g id="patch_41">
    <path clip-path="url(#pb15e64198b)" d="M 1559.203774 318.2 
L 1565.775094 318.2 
L 1565.775094 251.957297 
L 1559.203774 251.957297 
z
" style="fill:#1f77b4;"/>
   </g>
   <g id="patch_42">
    <path clip-path="url(#pb15e64198b)" d="M 1598.631698 318.2 
L 1605.203019 318.2 
L 1605.203019 252.310347 
L 1598.631698 252.310347 
z
" style="fill:#1f77b4;"/>
   </g>
   <g id="patch_43">
    <path clip-path="url(#pb15e64198b)" d="M 1638.059623 318.2 
L 1644.630943 318.2 
L 1644.630943 255.351322 
L 1638.059623 255.351322 
z
" style="fill:#1f77b4;"/>
   </g>
   <g id="patch_44">
    <path clip-path="url(#pb15e64198b)" d="M 1677.487547 318.2 
L 1684.058868 318.2 
L 1684.058868 174.224026 
L 1677.487547 174.224026 
z
" style="fill:#1f77b4;"/>
   </g>
   <g id="patch_45">
    <path clip-path="url(#pb15e64198b)" d="M 1716.915472 318.2 
L 1723.486792 318.2 
L 1723.486792 152.007186 
L 1716.915472 152.007186 
z
" style="fill:#1f77b4;"/>
   </g>
   <g id="patch_46">
    <path clip-path="url(#pb15e64198b)" d="M 1756.343396 318.2 
L 1762.914717 318.2 
L 1762.914717 174.802731 
L 1756.343396 174.802731 
z
" style="fill:#1f77b4;"/>
   </g>
   <g id="patch_47">
    <path clip-path="url(#pb15e64198b)" d="M 67.513962 318.2 
L 74.085283 318.2 
L 74.085283 193.4545 
L 67.513962 193.4545 
z
" style="fill:#ff7f0e;"/>
   </g>
   <g id="patch_48">
    <path clip-path="url(#pb15e64198b)" d="M 106.941887 318.2 
L 113.513208 318.2 
L 113.513208 173.661254 
L 106.941887 173.661254 
z
" style="fill:#ff7f0e;"/>
   </g>
   <g id="patch_49">
    <path clip-path="url(#pb15e64198b)" d="M 146.369811 318.2 
L 152.941132 318.2 
L 152.941132 186.758228 
L 146.369811 186.758228 
z
" style="fill:#ff7f0e;"/>
   </g>
   <g id="patch_50">
    <path clip-path="url(#pb15e64198b)" d="M 185.797736 318.2 
L 192.369057 318.2 
L 192.369057 126.280946 
L 185.797736 126.280946 
z
" style="fill:#ff7f0e;"/>
   </g>
   <g id="patch_51">
    <path clip-path="url(#pb15e64198b)" d="M 225.22566 318.2 
L 231.796981 318.2 
L 231.796981 197.887178 
L 225.22566 197.887178 
z
" style="fill:#ff7f0e;"/>
   </g>
   <g id="patch_52">
    <path clip-path="url(#pb15e64198b)" d="M 264.653585 318.2 
L 271.224906 318.2 
L 271.224906 172.613939 
L 264.653585 172.613939 
z
" style="fill:#ff7f0e;"/>
   </g>
   <g id="patch_53">
    <path clip-path="url(#pb15e64198b)" d="M 304.081509 318.2 
L 310.65283 318.2 
L 310.65283 172.50447 
L 304.081509 172.50447 
z
" style="fill:#ff7f0e;"/>
   </g>
   <g id="patch_54">
    <path clip-path="url(#pb15e64198b)" d="M 343.509434 318.2 
L 350.080755 318.2 
L 350.080755 168.208565 
L 343.509434 168.208565 
z
" style="fill:#ff7f0e;"/>
   </g>
   <g id="patch_55">
    <path clip-path="url(#pb15e64198b)" d="M 382.937358 318.2 
L 389.508679 318.2 
L 389.508679 168.13462 
L 382.937358 168.13462 
z
" style="fill:#ff7f0e;"/>
   </g>
   <g id="patch_56">
    <path clip-path="url(#pb15e64198b)" d="M 422.365283 318.2 
L 428.936604 318.2 
L 428.936604 151.645776 
L 422.365283 151.645776 
z
" style="fill:#ff7f0e;"/>
   </g>
   <g id="patch_57">
    <path clip-path="url(#pb15e64198b)" d="M 461.793208 318.2 
L 468.364528 318.2 
L 468.364528 192.465637 
L 461.793208 192.465637 
z
" style="fill:#ff7f0e;"/>
   </g>
   <g id="patch_58">
    <path clip-path="url(#pb15e64198b)" d="M 501.221132 318.2 
L 507.792453 318.2 
L 507.792453 139.057083 
L 501.221132 139.057083 
z
" style="fill:#ff7f0e;"/>
   </g>
   <g id="patch_59">
    <path clip-path="url(#pb15e64198b)" d="M 540.649057 318.2 
L 547.220377 318.2 
L 547.220377 196.97886 
L 540.649057 196.97886 
z
" style="fill:#ff7f0e;"/>
   </g>
   <g id="patch_60">
    <path clip-path="url(#pb15e64198b)" d="M 580.076981 318.2 
L 586.648302 318.2 
L 586.648302 190.396133 
L 580.076981 190.396133 
z
" style="fill:#ff7f0e;"/>
   </g>
   <g id="patch_61">
    <path clip-path="url(#pb15e64198b)" d="M 619.504906 318.2 
L 626.076226 318.2 
L 626.076226 192.277984 
L 619.504906 192.277984 
z
" style="fill:#ff7f0e;"/>
   </g>
   <g id="patch_62">
    <path clip-path="url(#pb15e64198b)" d="M 658.93283 318.2 
L 665.504151 318.2 
L 665.504151 197.92261 
L 658.93283 197.92261 
z
" style="fill:#ff7f0e;"/>
   </g>
   <g id="patch_63">
    <path clip-path="url(#pb15e64198b)" d="M 698.360755 318.2 
L 704.932075 318.2 
L 704.932075 175.776403 
L 698.360755 175.776403 
z
" style="fill:#ff7f0e;"/>
   </g>
   <g id="patch_64">
    <path clip-path="url(#pb15e64198b)" d="M 737.788679 318.2 
L 744.36 318.2 
L 744.36 173.459406 
L 737.788679 173.459406 
z
" style="fill:#ff7f0e;"/>
   </g>
   <g id="patch_65">
    <path clip-path="url(#pb15e64198b)" d="M 777.216604 318.2 
L 783.787925 318.2 
L 783.787925 176.038278 
L 777.216604 176.038278 
z
" style="fill:#ff7f0e;"/>
   </g>
   <g id="patch_66">
    <path clip-path="url(#pb15e64198b)" d="M 816.644528 318.2 
L 823.215849 318.2 
L 823.215849 195.888655 
L 816.644528 195.888655 
z
" style="fill:#ff7f0e;"/>
   </g>
   <g id="patch_67">
    <path clip-path="url(#pb15e64198b)" d="M 856.072453 318.2 
L 862.643774 318.2 
L 862.643774 192.612368 
L 856.072453 192.612368 
z
" style="fill:#ff7f0e;"/>
   </g>
   <g id="patch_68">
    <path clip-path="url(#pb15e64198b)" d="M 895.500377 318.2 
L 902.071698 318.2 
L 902.071698 200.947652 
L 895.500377 200.947652 
z
" style="fill:#ff7f0e;"/>
   </g>
   <g id="patch_69">
    <path clip-path="url(#pb15e64198b)" d="M 934.928302 318.2 
L 941.499623 318.2 
L 941.499623 202.626288 
L 934.928302 202.626288 
z
" style="fill:#ff7f0e;"/>
   </g>
   <g id="patch_70">
    <path clip-path="url(#pb15e64198b)" d="M 974.356226 318.2 
L 980.927547 318.2 
L 980.927547 190.942625 
L 974.356226 190.942625 
z
" style="fill:#ff7f0e;"/>
   </g>
   <g id="patch_71">
    <path clip-path="url(#pb15e64198b)" d="M 1013.784151 318.2 
L 1020.355472 318.2 
L 1020.355472 176.773372 
L 1013.784151 176.773372 
z
" style="fill:#ff7f0e;"/>
   </g>
   <g id="patch_72">
    <path clip-path="url(#pb15e64198b)" d="M 1053.212075 318.2 
L 1059.783396 318.2 
L 1059.783396 132.36704 
L 1053.212075 132.36704 
z
" style="fill:#ff7f0e;"/>
   </g>
   <g id="patch_73">
    <path clip-path="url(#pb15e64198b)" d="M 1092.64 318.2 
L 1099.211321 318.2 
L 1099.211321 190.549905 
L 1092.64 190.549905 
z
" style="fill:#ff7f0e;"/>
   </g>
   <g id="patch_74">
    <path clip-path="url(#pb15e64198b)" d="M 1132.067925 318.2 
L 1138.639245 318.2 
L 1138.639245 188.050258 
L 1132.067925 188.050258 
z
" style="fill:#ff7f0e;"/>
   </g>
   <g id="patch_75">
    <path clip-path="url(#pb15e64198b)" d="M 1171.495849 318.2 
L 1178.06717 318.2 
L 1178.06717 188.527089 
L 1171.495849 188.527089 
z
" style="fill:#ff7f0e;"/>
   </g>
   <g id="patch_76">
    <path clip-path="url(#pb15e64198b)" d="M 1210.923774 318.2 
L 1217.495094 318.2 
L 1217.495094 189.146437 
L 1210.923774 189.146437 
z
" style="fill:#ff7f0e;"/>
   </g>
   <g id="patch_77">
    <path clip-path="url(#pb15e64198b)" d="M 1250.351698 318.2 
L 1256.923019 318.2 
L 1256.923019 180.505925 
L 1250.351698 180.505925 
z
" style="fill:#ff7f0e;"/>
   </g>
   <g id="patch_78">
    <path clip-path="url(#pb15e64198b)" d="M 1289.779623 318.2 
L 1296.350943 318.2 
L 1296.350943 170.049796 
L 1289.779623 170.049796 
z
" style="fill:#ff7f0e;"/>
   </g>
   <g id="patch_79">
    <path clip-path="url(#pb15e64198b)" d="M 1329.207547 318.2 
L 1335.778868 318.2 
L 1335.778868 110.121854 
L 1329.207547 110.121854 
z
" style="fill:#ff7f0e;"/>
   </g>
   <g id="patch_80">
    <path clip-path="url(#pb15e64198b)" d="M 1368.635472 318.2 
L 1375.206792 318.2 
L 1375.206792 201.20038 
L 1368.635472 201.20038 
z
" style="fill:#ff7f0e;"/>
   </g>
   <g id="patch_81">
    <path clip-path="url(#pb15e64198b)" d="M 1408.063396 318.2 
L 1414.634717 318.2 
L 1414.634717 170.107229 
L 1408.063396 170.107229 
z
" style="fill:#ff7f0e;"/>
   </g>
   <g id="patch_82">
    <path clip-path="url(#pb15e64198b)" d="M 1447.491321 318.2 
L 1454.062642 318.2 
L 1454.062642 203.457767 
L 1447.491321 203.457767 
z
" style="fill:#ff7f0e;"/>
   </g>
   <g id="patch_83">
    <path clip-path="url(#pb15e64198b)" d="M 1486.919245 318.2 
L 1493.490566 318.2 
L 1493.490566 155.732931 
L 1486.919245 155.732931 
z
" style="fill:#ff7f0e;"/>
   </g>
   <g id="patch_84">
    <path clip-path="url(#pb15e64198b)" d="M 1526.34717 318.2 
L 1532.918491 318.2 
L 1532.918491 167.197956 
L 1526.34717 167.197956 
z
" style="fill:#ff7f0e;"/>
   </g>
   <g id="patch_85">
    <path clip-path="url(#pb15e64198b)" d="M 1565.775094 318.2 
L 1572.346415 318.2 
L 1572.346415 147.785203 
L 1565.775094 147.785203 
z
" style="fill:#ff7f0e;"/>
   </g>
   <g id="patch_86">
    <path clip-path="url(#pb15e64198b)" d="M 1605.203019 318.2 
L 1611.77434 318.2 
L 1611.77434 186.440773 
L 1605.203019 186.440773 
z
" style="fill:#ff7f0e;"/>
   </g>
   <g id="patch_87">
    <path clip-path="url(#pb15e64198b)" d="M 1644.630943 318.2 
L 1651.202264 318.2 
L 1651.202264 164.395883 
L 1644.630943 164.395883 
z
" style="fill:#ff7f0e;"/>
   </g>
   <g id="patch_88">
    <path clip-path="url(#pb15e64198b)" d="M 1684.058868 318.2 
L 1690.630189 318.2 
L 1690.630189 188.672408 
L 1684.058868 188.672408 
z
" style="fill:#ff7f0e;"/>
   </g>
   <g id="patch_89">
    <path clip-path="url(#pb15e64198b)" d="M 1723.486792 318.2 
L 1730.058113 318.2 
L 1730.058113 180.567874 
L 1723.486792 180.567874 
z
" style="fill:#ff7f0e;"/>
   </g>
   <g id="patch_90">
    <path clip-path="url(#pb15e64198b)" d="M 1762.914717 318.2 
L 1769.486038 318.2 
L 1769.486038 167.37037 
L 1762.914717 167.37037 
z
" style="fill:#ff7f0e;"/>
   </g>
   <g id="patch_91">
    <path clip-path="url(#pb15e64198b)" d="M 74.085283 318.2 
L 80.656604 318.2 
L 80.656604 206.049677 
L 74.085283 206.049677 
z
" style="fill:#2ca02c;"/>
   </g>
   <g id="patch_92">
    <path clip-path="url(#pb15e64198b)" d="M 113.513208 318.2 
L 120.084528 318.2 
L 120.084528 215.020705 
L 113.513208 215.020705 
z
" style="fill:#2ca02c;"/>
   </g>
   <g id="patch_93">
    <path clip-path="url(#pb15e64198b)" d="M 152.941132 318.2 
L 159.512453 318.2 
L 159.512453 231.062662 
L 152.941132 231.062662 
z
" style="fill:#2ca02c;"/>
   </g>
   <g id="patch_94">
    <path clip-path="url(#pb15e64198b)" d="M 192.369057 318.2 
L 198.940377 318.2 
L 198.940377 213.772445 
L 192.369057 213.772445 
z
" style="fill:#2ca02c;"/>
   </g>
   <g id="patch_95">
    <path clip-path="url(#pb15e64198b)" d="M 231.796981 318.2 
L 238.368302 318.2 
L 238.368302 200.420498 
L 231.796981 200.420498 
z
" style="fill:#2ca02c;"/>
   </g>
   <g id="patch_96">
    <path clip-path="url(#pb15e64198b)" d="M 271.224906 318.2 
L 277.796226 318.2 
L 277.796226 215.412569 
L 271.224906 215.412569 
z
" style="fill:#2ca02c;"/>
   </g>
   <g id="patch_97">
    <path clip-path="url(#pb15e64198b)" d="M 310.65283 318.2 
L 317.224151 318.2 
L 317.224151 196.004007 
L 310.65283 196.004007 
z
" style="fill:#2ca02c;"/>
   </g>
   <g id="patch_98">
    <path clip-path="url(#pb15e64198b)" d="M 350.080755 318.2 
L 356.652075 318.2 
L 356.652075 195.805123 
L 350.080755 195.805123 
z
" style="fill:#2ca02c;"/>
   </g>
   <g id="patch_99">
    <path clip-path="url(#pb15e64198b)" d="M 389.508679 318.2 
L 396.08 318.2 
L 396.08 200.87556 
L 389.508679 200.87556 
z
" style="fill:#2ca02c;"/>
   </g>
   <g id="patch_100">
    <path clip-path="url(#pb15e64198b)" d="M 428.936604 318.2 
L 435.507925 318.2 
L 435.507925 142.195462 
L 428.936604 142.195462 
z
" style="fill:#2ca02c;"/>
   </g>
   <g id="patch_101">
    <path clip-path="url(#pb15e64198b)" d="M 468.364528 318.2 
L 474.935849 318.2 
L 474.935849 243.672429 
L 468.364528 243.672429 
z
" style="fill:#2ca02c;"/>
   </g>
   <g id="patch_102">
    <path clip-path="url(#pb15e64198b)" d="M 507.792453 318.2 
L 514.363774 318.2 
L 514.363774 186.040943 
L 507.792453 186.040943 
z
" style="fill:#2ca02c;"/>
   </g>
   <g id="patch_103">
    <path clip-path="url(#pb15e64198b)" d="M 547.220377 318.2 
L 553.791698 318.2 
L 553.791698 228.738162 
L 547.220377 228.738162 
z
" style="fill:#2ca02c;"/>
   </g>
   <g id="patch_104">
    <path clip-path="url(#pb15e64198b)" d="M 586.648302 318.2 
L 593.219623 318.2 
L 593.219623 208.613311 
L 586.648302 208.613311 
z
" style="fill:#2ca02c;"/>
   </g>
   <g id="patch_105">
    <path clip-path="url(#pb15e64198b)" d="M 626.076226 318.2 
L 632.647547 318.2 
L 632.647547 228.659956 
L 626.076226 228.659956 
z
" style="fill:#2ca02c;"/>
   </g>
   <g id="patch_106">
    <path clip-path="url(#pb15e64198b)" d="M 665.504151 318.2 
L 672.075472 318.2 
L 672.075472 228.620818 
L 665.504151 228.620818 
z
" style="fill:#2ca02c;"/>
   </g>
   <g id="patch_107">
    <path clip-path="url(#pb15e64198b)" d="M 704.932075 318.2 
L 711.503396 318.2 
L 711.503396 164.366449 
L 704.932075 164.366449 
z
" style="fill:#2ca02c;"/>
   </g>
   <g id="patch_108">
    <path clip-path="url(#pb15e64198b)" d="M 744.36 318.2 
L 750.931321 318.2 
L 750.931321 160.912977 
L 744.36 160.912977 
z
" style="fill:#2ca02c;"/>
   </g>
   <g id="patch_109">
    <path clip-path="url(#pb15e64198b)" d="M 783.787925 318.2 
L 790.359245 318.2 
L 790.359245 196.552259 
L 783.787925 196.552259 
z
" style="fill:#2ca02c;"/>
   </g>
   <g id="patch_110">
    <path clip-path="url(#pb15e64198b)" d="M 823.215849 318.2 
L 829.78717 318.2 
L 829.78717 207.320749 
L 823.215849 207.320749 
z
" style="fill:#2ca02c;"/>
   </g>
   <g id="patch_111">
    <path clip-path="url(#pb15e64198b)" d="M 862.643774 318.2 
L 869.215094 318.2 
L 869.215094 204.244319 
L 862.643774 204.244319 
z
" style="fill:#2ca02c;"/>
   </g>
   <g id="patch_112">
    <path clip-path="url(#pb15e64198b)" d="M 902.071698 318.2 
L 908.643019 318.2 
L 908.643019 241.010882 
L 902.071698 241.010882 
z
" style="fill:#2ca02c;"/>
   </g>
   <g id="patch_113">
    <path clip-path="url(#pb15e64198b)" d="M 941.499623 318.2 
L 948.070943 318.2 
L 948.070943 237.524664 
L 941.499623 237.524664 
z
" style="fill:#2ca02c;"/>
   </g>
   <g id="patch_114">
    <path clip-path="url(#pb15e64198b)" d="M 980.927547 318.2 
L 987.498868 318.2 
L 987.498868 115.068556 
L 980.927547 115.068556 
z
" style="fill:#2ca02c;"/>
   </g>
   <g id="patch_115">
    <path clip-path="url(#pb15e64198b)" d="M 1020.355472 318.2 
L 1026.926792 318.2 
L 1026.926792 181.726604 
L 1020.355472 181.726604 
z
" style="fill:#2ca02c;"/>
   </g>
   <g id="patch_116">
    <path clip-path="url(#pb15e64198b)" d="M 1059.783396 318.2 
L 1066.354717 318.2 
L 1066.354717 208.075851 
L 1059.783396 208.075851 
z
" style="fill:#2ca02c;"/>
   </g>
   <g id="patch_117">
    <path clip-path="url(#pb15e64198b)" d="M 1099.211321 318.2 
L 1105.782642 318.2 
L 1105.782642 211.539536 
L 1099.211321 211.539536 
z
" style="fill:#2ca02c;"/>
   </g>
   <g id="patch_118">
    <path clip-path="url(#pb15e64198b)" d="M 1138.639245 318.2 
L 1145.210566 318.2 
L 1145.210566 175.028109 
L 1138.639245 175.028109 
z
" style="fill:#2ca02c;"/>
   </g>
   <g id="patch_119">
    <path clip-path="url(#pb15e64198b)" d="M 1178.06717 318.2 
L 1184.638491 318.2 
L 1184.638491 227.270591 
L 1178.06717 227.270591 
z
" style="fill:#2ca02c;"/>
   </g>
   <g id="patch_120">
    <path clip-path="url(#pb15e64198b)" d="M 1217.495094 318.2 
L 1224.066415 318.2 
L 1224.066415 188.283185 
L 1217.495094 188.283185 
z
" style="fill:#2ca02c;"/>
   </g>
   <g id="patch_121">
    <path clip-path="url(#pb15e64198b)" d="M 1256.923019 318.2 
L 1263.49434 318.2 
L 1263.49434 109.543056 
L 1256.923019 109.543056 
z
" style="fill:#2ca02c;"/>
   </g>
   <g id="patch_122">
    <path clip-path="url(#pb15e64198b)" d="M 1296.350943 318.2 
L 1302.922264 318.2 
L 1302.922264 109.696967 
L 1296.350943 109.696967 
z
" style="fill:#2ca02c;"/>
   </g>
   <g id="patch_123">
    <path clip-path="url(#pb15e64198b)" d="M 1335.778868 318.2 
L 1342.350189 318.2 
L 1342.350189 196.987521 
L 1335.778868 196.987521 
z
" style="fill:#2ca02c;"/>
   </g>
   <g id="patch_124">
    <path clip-path="url(#pb15e64198b)" d="M 1375.206792 318.2 
L 1381.778113 318.2 
L 1381.778113 219.77195 
L 1375.206792 219.77195 
z
" style="fill:#2ca02c;"/>
   </g>
   <g id="patch_125">
    <path clip-path="url(#pb15e64198b)" d="M 1414.634717 318.2 
L 1421.206038 318.2 
L 1421.206038 232.867905 
L 1414.634717 232.867905 
z
" style="fill:#2ca02c;"/>
   </g>
   <g id="patch_126">
    <path clip-path="url(#pb15e64198b)" d="M 1454.062642 318.2 
L 1460.633962 318.2 
L 1460.633962 242.801002 
L 1454.062642 242.801002 
z
" style="fill:#2ca02c;"/>
   </g>
   <g id="patch_127">
    <path clip-path="url(#pb15e64198b)" d="M 1493.490566 318.2 
L 1500.061887 318.2 
L 1500.061887 157.359715 
L 1493.490566 157.359715 
z
" style="fill:#2ca02c;"/>
   </g>
   <g id="patch_128">
    <path clip-path="url(#pb15e64198b)" d="M 1532.918491 318.2 
L 1539.489811 318.2 
L 1539.489811 183.753195 
L 1532.918491 183.753195 
z
" style="fill:#2ca02c;"/>
   </g>
   <g id="patch_129">
    <path clip-path="url(#pb15e64198b)" d="M 1572.346415 318.2 
L 1578.917736 318.2 
L 1578.917736 197.232305 
L 1572.346415 197.232305 
z
" style="fill:#2ca02c;"/>
   </g>
   <g id="patch_130">
    <path clip-path="url(#pb15e64198b)" d="M 1611.77434 318.2 
L 1618.34566 318.2 
L 1618.34566 194.460199 
L 1611.77434 194.460199 
z
" style="fill:#2ca02c;"/>
   </g>
   <g id="patch_131">
    <path clip-path="url(#pb15e64198b)" d="M 1651.202264 318.2 
L 1657.773585 318.2 
L 1657.773585 219.895338 
L 1651.202264 219.895338 
z
" style="fill:#2ca02c;"/>
   </g>
   <g id="patch_132">
    <path clip-path="url(#pb15e64198b)" d="M 1690.630189 318.2 
L 1697.201509 318.2 
L 1697.201509 146.198228 
L 1690.630189 146.198228 
z
" style="fill:#2ca02c;"/>
   </g>
   <g id="patch_133">
    <path clip-path="url(#pb15e64198b)" d="M 1730.058113 318.2 
L 1736.629434 318.2 
L 1736.629434 217.122584 
L 1730.058113 217.122584 
z
" style="fill:#2ca02c;"/>
   </g>
   <g id="patch_134">
    <path clip-path="url(#pb15e64198b)" d="M 1769.486038 318.2 
L 1776.057358 318.2 
L 1776.057358 196.559322 
L 1769.486038 196.559322 
z
" style="fill:#2ca02c;"/>
   </g>
   <g id="patch_135">
    <path clip-path="url(#pb15e64198b)" d="M 54.371321 318.2 
L 60.942642 318.2 
L 60.942642 196.413239 
L 54.371321 196.413239 
z
" style="fill:#d62728;"/>
   </g>
   <g id="patch_136">
    <path clip-path="url(#pb15e64198b)" d="M 93.799245 318.2 
L 100.370566 318.2 
L 100.370566 178.972979 
L 93.799245 178.972979 
z
" style="fill:#d62728;"/>
   </g>
   <g id="patch_137">
    <path clip-path="url(#pb15e64198b)" d="M 133.22717 318.2 
L 139.798491 318.2 
L 139.798491 193.69808 
L 133.22717 193.69808 
z
" style="fill:#d62728;"/>
   </g>
   <g id="patch_138">
    <path clip-path="url(#pb15e64198b)" d="M 172.655094 318.2 
L 179.226415 318.2 
L 179.226415 161.184486 
L 172.655094 161.184486 
z
" style="fill:#d62728;"/>
   </g>
   <g id="patch_139">
    <path clip-path="url(#pb15e64198b)" d="M 212.083019 318.2 
L 218.65434 318.2 
L 218.65434 153.524616 
L 212.083019 153.524616 
z
" style="fill:#d62728;"/>
   </g>
   <g id="patch_140">
    <path clip-path="url(#pb15e64198b)" d="M 251.510943 318.2 
L 258.082264 318.2 
L 258.082264 127.691408 
L 251.510943 127.691408 
z
" style="fill:#d62728;"/>
   </g>
   <g id="patch_141">
    <path clip-path="url(#pb15e64198b)" d="M 290.938868 318.2 
L 297.510189 318.2 
L 297.510189 135.877065 
L 290.938868 135.877065 
z
" style="fill:#d62728;"/>
   </g>
   <g id="patch_142">
    <path clip-path="url(#pb15e64198b)" d="M 330.366792 318.2 
L 336.938113 318.2 
L 336.938113 160.173691 
L 330.366792 160.173691 
z
" style="fill:#d62728;"/>
   </g>
   <g id="patch_143">
    <path clip-path="url(#pb15e64198b)" d="M 369.794717 318.2 
L 376.366038 318.2 
L 376.366038 161.784937 
L 369.794717 161.784937 
z
" style="fill:#d62728;"/>
   </g>
   <g id="patch_144">
    <path clip-path="url(#pb15e64198b)" d="M 409.222642 318.2 
L 415.793962 318.2 
L 415.793962 159.918718 
L 409.222642 159.918718 
z
" style="fill:#d62728;"/>
   </g>
   <g id="patch_145">
    <path clip-path="url(#pb15e64198b)" d="M 448.650566 318.2 
L 455.221887 318.2 
L 455.221887 201.439745 
L 448.650566 201.439745 
z
" style="fill:#d62728;"/>
   </g>
   <g id="patch_146">
    <path clip-path="url(#pb15e64198b)" d="M 488.078491 318.2 
L 494.649811 318.2 
L 494.649811 164.22685 
L 488.078491 164.22685 
z
" style="fill:#d62728;"/>
   </g>
   <g id="patch_147">
    <path clip-path="url(#pb15e64198b)" d="M 527.506415 318.2 
L 534.077736 318.2 
L 534.077736 149.833076 
L 527.506415 149.833076 
z
" style="fill:#d62728;"/>
   </g>
   <g id="patch_148">
    <path clip-path="url(#pb15e64198b)" d="M 566.93434 318.2 
L 573.50566 318.2 
L 573.50566 174.838025 
L 566.93434 174.838025 
z
" style="fill:#d62728;"/>
   </g>
   <g id="patch_149">
    <path clip-path="url(#pb15e64198b)" d="M 606.362264 318.2 
L 612.933585 318.2 
L 612.933585 174.90757 
L 606.362264 174.90757 
z
" style="fill:#d62728;"/>
   </g>
   <g id="patch_150">
    <path clip-path="url(#pb15e64198b)" d="M 645.790189 318.2 
L 652.361509 318.2 
L 652.361509 167.103863 
L 645.790189 167.103863 
z
" style="fill:#d62728;"/>
   </g>
   <g id="patch_151">
    <path clip-path="url(#pb15e64198b)" d="M 685.218113 318.2 
L 691.789434 318.2 
L 691.789434 184.755606 
L 685.218113 184.755606 
z
" style="fill:#d62728;"/>
   </g>
   <g id="patch_152">
    <path clip-path="url(#pb15e64198b)" d="M 724.646038 318.2 
L 731.217358 318.2 
L 731.217358 204.863551 
L 724.646038 204.863551 
z
" style="fill:#d62728;"/>
   </g>
   <g id="patch_153">
    <path clip-path="url(#pb15e64198b)" d="M 764.073962 318.2 
L 770.645283 318.2 
L 770.645283 186.207568 
L 764.073962 186.207568 
z
" style="fill:#d62728;"/>
   </g>
   <g id="patch_154">
    <path clip-path="url(#pb15e64198b)" d="M 803.501887 318.2 
L 810.073208 318.2 
L 810.073208 193.081488 
L 803.501887 193.081488 
z
" style="fill:#d62728;"/>
   </g>
   <g id="patch_155">
    <path clip-path="url(#pb15e64198b)" d="M 842.929811 318.2 
L 849.501132 318.2 
L 849.501132 142.135945 
L 842.929811 142.135945 
z
" style="fill:#d62728;"/>
   </g>
   <g id="patch_156">
    <path clip-path="url(#pb15e64198b)" d="M 882.357736 318.2 
L 888.929057 318.2 
L 888.929057 150.692299 
L 882.357736 150.692299 
z
" style="fill:#d62728;"/>
   </g>
   <g id="patch_157">
    <path clip-path="url(#pb15e64198b)" d="M 921.78566 318.2 
L 928.356981 318.2 
L 928.356981 132.022513 
L 921.78566 132.022513 
z
" style="fill:#d62728;"/>
   </g>
   <g id="patch_158">
    <path clip-path="url(#pb15e64198b)" d="M 961.213585 318.2 
L 967.784906 318.2 
L 967.784906 133.750708 
L 961.213585 133.750708 
z
" style="fill:#d62728;"/>
   </g>
   <g id="patch_159">
    <path clip-path="url(#pb15e64198b)" d="M 1000.641509 318.2 
L 1007.21283 318.2 
L 1007.21283 170.286428 
L 1000.641509 170.286428 
z
" style="fill:#d62728;"/>
   </g>
   <g id="patch_160">
    <path clip-path="url(#pb15e64198b)" d="M 1040.069434 318.2 
L 1046.640755 318.2 
L 1046.640755 160.983865 
L 1040.069434 160.983865 
z
" style="fill:#d62728;"/>
   </g>
   <g id="patch_161">
    <path clip-path="url(#pb15e64198b)" d="M 1079.497358 318.2 
L 1086.068679 318.2 
L 1086.068679 162.957307 
L 1079.497358 162.957307 
z
" style="fill:#d62728;"/>
   </g>
   <g id="patch_162">
    <path clip-path="url(#pb15e64198b)" d="M 1118.925283 318.2 
L 1125.496604 318.2 
L 1125.496604 149.895418 
L 1118.925283 149.895418 
z
" style="fill:#d62728;"/>
   </g>
   <g id="patch_163">
    <path clip-path="url(#pb15e64198b)" d="M 1158.353208 318.2 
L 1164.924528 318.2 
L 1164.924528 214.952527 
L 1158.353208 214.952527 
z
" style="fill:#d62728;"/>
   </g>
   <g id="patch_164">
    <path clip-path="url(#pb15e64198b)" d="M 1197.781132 318.2 
L 1204.352453 318.2 
L 1204.352453 166.487248 
L 1197.781132 166.487248 
z
" style="fill:#d62728;"/>
   </g>
   <g id="patch_165">
    <path clip-path="url(#pb15e64198b)" d="M 1237.209057 318.2 
L 1243.780377 318.2 
L 1243.780377 130.538083 
L 1237.209057 130.538083 
z
" style="fill:#d62728;"/>
   </g>
   <g id="patch_166">
    <path clip-path="url(#pb15e64198b)" d="M 1276.636981 318.2 
L 1283.208302 318.2 
L 1283.208302 144.365032 
L 1276.636981 144.365032 
z
" style="fill:#d62728;"/>
   </g>
   <g id="patch_167">
    <path clip-path="url(#pb15e64198b)" d="M 1316.064906 318.2 
L 1322.636226 318.2 
L 1322.636226 137.845158 
L 1316.064906 137.845158 
z
" style="fill:#d62728;"/>
   </g>
   <g id="patch_168">
    <path clip-path="url(#pb15e64198b)" d="M 1355.49283 318.2 
L 1362.064151 318.2 
L 1362.064151 200.200586 
L 1355.49283 200.200586 
z
" style="fill:#d62728;"/>
   </g>
   <g id="patch_169">
    <path clip-path="url(#pb15e64198b)" d="M 1394.920755 318.2 
L 1401.492075 318.2 
L 1401.492075 184.886381 
L 1394.920755 184.886381 
z
" style="fill:#d62728;"/>
   </g>
   <g id="patch_170">
    <path clip-path="url(#pb15e64198b)" d="M 1434.348679 318.2 
L 1440.92 318.2 
L 1440.92 183.730268 
L 1434.348679 183.730268 
z
" style="fill:#d62728;"/>
   </g>
   <g id="patch_171">
    <path clip-path="url(#pb15e64198b)" d="M 1473.776604 318.2 
L 1480.347925 318.2 
L 1480.347925 170.491681 
L 1473.776604 170.491681 
z
" style="fill:#d62728;"/>
   </g>
   <g id="patch_172">
    <path clip-path="url(#pb15e64198b)" d="M 1513.204528 318.2 
L 1519.775849 318.2 
L 1519.775849 156.025723 
L 1513.204528 156.025723 
z
" style="fill:#d62728;"/>
   </g>
   <g id="patch_173">
    <path clip-path="url(#pb15e64198b)" d="M 1552.632453 318.2 
L 1559.203774 318.2 
L 1559.203774 110.91533 
L 1552.632453 110.91533 
z
" style="fill:#d62728;"/>
   </g>
   <g id="patch_174">
    <path clip-path="url(#pb15e64198b)" d="M 1592.060377 318.2 
L 1598.631698 318.2 
L 1598.631698 140.921472 
L 1592.060377 140.921472 
z
" style="fill:#d62728;"/>
   </g>
   <g id="patch_175">
    <path clip-path="url(#pb15e64198b)" d="M 1631.488302 318.2 
L 1638.059623 318.2 
L 1638.059623 151.651774 
L 1631.488302 151.651774 
z
" style="fill:#d62728;"/>
   </g>
   <g id="patch_176">
    <path clip-path="url(#pb15e64198b)" d="M 1670.916226 318.2 
L 1677.487547 318.2 
L 1677.487547 219.341274 
L 1670.916226 219.341274 
z
" style="fill:#d62728;"/>
   </g>
   <g id="patch_177">
    <path clip-path="url(#pb15e64198b)" d="M 1710.344151 318.2 
L 1716.915472 318.2 
L 1716.915472 202.038829 
L 1710.344151 202.038829 
z
" style="fill:#d62728;"/>
   </g>
   <g id="patch_178">
    <path clip-path="url(#pb15e64198b)" d="M 1749.772075 318.2 
L 1756.343396 318.2 
L 1756.343396 194.73011 
L 1749.772075 194.73011 
z
" style="fill:#d62728;"/>
   </g>
   <g id="matplotlib.axis_1">
    <g id="xtick_1">
     <g id="line2d_1">
      <defs>
       <path d="M 0 0 
L 0 3.5 
" id="me40860ad98" style="stroke:#000000;stroke-width:0.8;"/>
      </defs>
      <g>
       <use style="stroke:#000000;stroke-width:0.8;" x="67.513962" xlink:href="#me40860ad98" y="318.2"/>
      </g>
     </g>
     <g id="text_1">
      <!-- 5 -->
      <defs>
       <path d="M 10.796875 72.90625 
L 49.515625 72.90625 
L 49.515625 64.59375 
L 19.828125 64.59375 
L 19.828125 46.734375 
Q 21.96875 47.46875 24.109375 47.828125 
Q 26.265625 48.1875 28.421875 48.1875 
Q 40.625 48.1875 47.75 41.5 
Q 54.890625 34.8125 54.890625 23.390625 
Q 54.890625 11.625 47.5625 5.09375 
Q 40.234375 -1.421875 26.90625 -1.421875 
Q 22.3125 -1.421875 17.546875 -0.640625 
Q 12.796875 0.140625 7.71875 1.703125 
L 7.71875 11.625 
Q 12.109375 9.234375 16.796875 8.0625 
Q 21.484375 6.890625 26.703125 6.890625 
Q 35.15625 6.890625 40.078125 11.328125 
Q 45.015625 15.765625 45.015625 23.390625 
Q 45.015625 31 40.078125 35.4375 
Q 35.15625 39.890625 26.703125 39.890625 
Q 22.75 39.890625 18.8125 39.015625 
Q 14.890625 38.140625 10.796875 36.28125 
z
" id="DejaVuSans-53"/>
      </defs>
      <g transform="translate(64.332712 332.798438)scale(0.1 -0.1)">
       <use xlink:href="#DejaVuSans-53"/>
      </g>
     </g>
    </g>
    <g id="xtick_2">
     <g id="line2d_2">
      <g>
       <use style="stroke:#000000;stroke-width:0.8;" x="106.941887" xlink:href="#me40860ad98" y="318.2"/>
      </g>
     </g>
     <g id="text_2">
      <!-- 6 -->
      <defs>
       <path d="M 33.015625 40.375 
Q 26.375 40.375 22.484375 35.828125 
Q 18.609375 31.296875 18.609375 23.390625 
Q 18.609375 15.53125 22.484375 10.953125 
Q 26.375 6.390625 33.015625 6.390625 
Q 39.65625 6.390625 43.53125 10.953125 
Q 47.40625 15.53125 47.40625 23.390625 
Q 47.40625 31.296875 43.53125 35.828125 
Q 39.65625 40.375 33.015625 40.375 
z
M 52.59375 71.296875 
L 52.59375 62.3125 
Q 48.875 64.0625 45.09375 64.984375 
Q 41.3125 65.921875 37.59375 65.921875 
Q 27.828125 65.921875 22.671875 59.328125 
Q 17.53125 52.734375 16.796875 39.40625 
Q 19.671875 43.65625 24.015625 45.921875 
Q 28.375 48.1875 33.59375 48.1875 
Q 44.578125 48.1875 50.953125 41.515625 
Q 57.328125 34.859375 57.328125 23.390625 
Q 57.328125 12.15625 50.6875 5.359375 
Q 44.046875 -1.421875 33.015625 -1.421875 
Q 20.359375 -1.421875 13.671875 8.265625 
Q 6.984375 17.96875 6.984375 36.375 
Q 6.984375 53.65625 15.1875 63.9375 
Q 23.390625 74.21875 37.203125 74.21875 
Q 40.921875 74.21875 44.703125 73.484375 
Q 48.484375 72.75 52.59375 71.296875 
z
" id="DejaVuSans-54"/>
      </defs>
      <g transform="translate(103.760637 332.798438)scale(0.1 -0.1)">
       <use xlink:href="#DejaVuSans-54"/>
      </g>
     </g>
    </g>
    <g id="xtick_3">
     <g id="line2d_3">
      <g>
       <use style="stroke:#000000;stroke-width:0.8;" x="146.369811" xlink:href="#me40860ad98" y="318.2"/>
      </g>
     </g>
     <g id="text_3">
      <!-- 7 -->
      <defs>
       <path d="M 8.203125 72.90625 
L 55.078125 72.90625 
L 55.078125 68.703125 
L 28.609375 0 
L 18.3125 0 
L 43.21875 64.59375 
L 8.203125 64.59375 
z
" id="DejaVuSans-55"/>
      </defs>
      <g transform="translate(143.188561 332.798438)scale(0.1 -0.1)">
       <use xlink:href="#DejaVuSans-55"/>
      </g>
     </g>
    </g>
    <g id="xtick_4">
     <g id="line2d_4">
      <g>
       <use style="stroke:#000000;stroke-width:0.8;" x="185.797736" xlink:href="#me40860ad98" y="318.2"/>
      </g>
     </g>
     <g id="text_4">
      <!-- 9 -->
      <defs>
       <path d="M 10.984375 1.515625 
L 10.984375 10.5 
Q 14.703125 8.734375 18.5 7.8125 
Q 22.3125 6.890625 25.984375 6.890625 
Q 35.75 6.890625 40.890625 13.453125 
Q 46.046875 20.015625 46.78125 33.40625 
Q 43.953125 29.203125 39.59375 26.953125 
Q 35.25 24.703125 29.984375 24.703125 
Q 19.046875 24.703125 12.671875 31.3125 
Q 6.296875 37.9375 6.296875 49.421875 
Q 6.296875 60.640625 12.9375 67.421875 
Q 19.578125 74.21875 30.609375 74.21875 
Q 43.265625 74.21875 49.921875 64.515625 
Q 56.59375 54.828125 56.59375 36.375 
Q 56.59375 19.140625 48.40625 8.859375 
Q 40.234375 -1.421875 26.421875 -1.421875 
Q 22.703125 -1.421875 18.890625 -0.6875 
Q 15.09375 0.046875 10.984375 1.515625 
z
M 30.609375 32.421875 
Q 37.25 32.421875 41.125 36.953125 
Q 45.015625 41.5 45.015625 49.421875 
Q 45.015625 57.28125 41.125 61.84375 
Q 37.25 66.40625 30.609375 66.40625 
Q 23.96875 66.40625 20.09375 61.84375 
Q 16.21875 57.28125 16.21875 49.421875 
Q 16.21875 41.5 20.09375 36.953125 
Q 23.96875 32.421875 30.609375 32.421875 
z
" id="DejaVuSans-57"/>
      </defs>
      <g transform="translate(182.616486 332.798438)scale(0.1 -0.1)">
       <use xlink:href="#DejaVuSans-57"/>
      </g>
     </g>
    </g>
    <g id="xtick_5">
     <g id="line2d_5">
      <g>
       <use style="stroke:#000000;stroke-width:0.8;" x="225.22566" xlink:href="#me40860ad98" y="318.2"/>
      </g>
     </g>
     <g id="text_5">
      <!-- 10 -->
      <defs>
       <path d="M 12.40625 8.296875 
L 28.515625 8.296875 
L 28.515625 63.921875 
L 10.984375 60.40625 
L 10.984375 69.390625 
L 28.421875 72.90625 
L 38.28125 72.90625 
L 38.28125 8.296875 
L 54.390625 8.296875 
L 54.390625 0 
L 12.40625 0 
z
" id="DejaVuSans-49"/>
       <path d="M 31.78125 66.40625 
Q 24.171875 66.40625 20.328125 58.90625 
Q 16.5 51.421875 16.5 36.375 
Q 16.5 21.390625 20.328125 13.890625 
Q 24.171875 6.390625 31.78125 6.390625 
Q 39.453125 6.390625 43.28125 13.890625 
Q 47.125 21.390625 47.125 36.375 
Q 47.125 51.421875 43.28125 58.90625 
Q 39.453125 66.40625 31.78125 66.40625 
z
M 31.78125 74.21875 
Q 44.046875 74.21875 50.515625 64.515625 
Q 56.984375 54.828125 56.984375 36.375 
Q 56.984375 17.96875 50.515625 8.265625 
Q 44.046875 -1.421875 31.78125 -1.421875 
Q 19.53125 -1.421875 13.0625 8.265625 
Q 6.59375 17.96875 6.59375 36.375 
Q 6.59375 54.828125 13.0625 64.515625 
Q 19.53125 74.21875 31.78125 74.21875 
z
" id="DejaVuSans-48"/>
      </defs>
      <g transform="translate(218.86316 332.798438)scale(0.1 -0.1)">
       <use xlink:href="#DejaVuSans-49"/>
       <use x="63.623047" xlink:href="#DejaVuSans-48"/>
      </g>
     </g>
    </g>
    <g id="xtick_6">
     <g id="line2d_6">
      <g>
       <use style="stroke:#000000;stroke-width:0.8;" x="264.653585" xlink:href="#me40860ad98" y="318.2"/>
      </g>
     </g>
     <g id="text_6">
      <!-- 16 -->
      <g transform="translate(258.291085 332.798438)scale(0.1 -0.1)">
       <use xlink:href="#DejaVuSans-49"/>
       <use x="63.623047" xlink:href="#DejaVuSans-54"/>
      </g>
     </g>
    </g>
    <g id="xtick_7">
     <g id="line2d_7">
      <g>
       <use style="stroke:#000000;stroke-width:0.8;" x="304.081509" xlink:href="#me40860ad98" y="318.2"/>
      </g>
     </g>
     <g id="text_7">
      <!-- 18 -->
      <defs>
       <path d="M 31.78125 34.625 
Q 24.75 34.625 20.71875 30.859375 
Q 16.703125 27.09375 16.703125 20.515625 
Q 16.703125 13.921875 20.71875 10.15625 
Q 24.75 6.390625 31.78125 6.390625 
Q 38.8125 6.390625 42.859375 10.171875 
Q 46.921875 13.96875 46.921875 20.515625 
Q 46.921875 27.09375 42.890625 30.859375 
Q 38.875 34.625 31.78125 34.625 
z
M 21.921875 38.8125 
Q 15.578125 40.375 12.03125 44.71875 
Q 8.5 49.078125 8.5 55.328125 
Q 8.5 64.0625 14.71875 69.140625 
Q 20.953125 74.21875 31.78125 74.21875 
Q 42.671875 74.21875 48.875 69.140625 
Q 55.078125 64.0625 55.078125 55.328125 
Q 55.078125 49.078125 51.53125 44.71875 
Q 48 40.375 41.703125 38.8125 
Q 48.828125 37.15625 52.796875 32.3125 
Q 56.78125 27.484375 56.78125 20.515625 
Q 56.78125 9.90625 50.3125 4.234375 
Q 43.84375 -1.421875 31.78125 -1.421875 
Q 19.734375 -1.421875 13.25 4.234375 
Q 6.78125 9.90625 6.78125 20.515625 
Q 6.78125 27.484375 10.78125 32.3125 
Q 14.796875 37.15625 21.921875 38.8125 
z
M 18.3125 54.390625 
Q 18.3125 48.734375 21.84375 45.5625 
Q 25.390625 42.390625 31.78125 42.390625 
Q 38.140625 42.390625 41.71875 45.5625 
Q 45.3125 48.734375 45.3125 54.390625 
Q 45.3125 60.0625 41.71875 63.234375 
Q 38.140625 66.40625 31.78125 66.40625 
Q 25.390625 66.40625 21.84375 63.234375 
Q 18.3125 60.0625 18.3125 54.390625 
z
" id="DejaVuSans-56"/>
      </defs>
      <g transform="translate(297.719009 332.798438)scale(0.1 -0.1)">
       <use xlink:href="#DejaVuSans-49"/>
       <use x="63.623047" xlink:href="#DejaVuSans-56"/>
      </g>
     </g>
    </g>
    <g id="xtick_8">
     <g id="line2d_8">
      <g>
       <use style="stroke:#000000;stroke-width:0.8;" x="343.509434" xlink:href="#me40860ad98" y="318.2"/>
      </g>
     </g>
     <g id="text_8">
      <!-- 20 -->
      <defs>
       <path d="M 19.1875 8.296875 
L 53.609375 8.296875 
L 53.609375 0 
L 7.328125 0 
L 7.328125 8.296875 
Q 12.9375 14.109375 22.625 23.890625 
Q 32.328125 33.6875 34.8125 36.53125 
Q 39.546875 41.84375 41.421875 45.53125 
Q 43.3125 49.21875 43.3125 52.78125 
Q 43.3125 58.59375 39.234375 62.25 
Q 35.15625 65.921875 28.609375 65.921875 
Q 23.96875 65.921875 18.8125 64.3125 
Q 13.671875 62.703125 7.8125 59.421875 
L 7.8125 69.390625 
Q 13.765625 71.78125 18.9375 73 
Q 24.125 74.21875 28.421875 74.21875 
Q 39.75 74.21875 46.484375 68.546875 
Q 53.21875 62.890625 53.21875 53.421875 
Q 53.21875 48.921875 51.53125 44.890625 
Q 49.859375 40.875 45.40625 35.40625 
Q 44.1875 33.984375 37.640625 27.21875 
Q 31.109375 20.453125 19.1875 8.296875 
z
" id="DejaVuSans-50"/>
      </defs>
      <g transform="translate(337.146934 332.798438)scale(0.1 -0.1)">
       <use xlink:href="#DejaVuSans-50"/>
       <use x="63.623047" xlink:href="#DejaVuSans-48"/>
      </g>
     </g>
    </g>
    <g id="xtick_9">
     <g id="line2d_9">
      <g>
       <use style="stroke:#000000;stroke-width:0.8;" x="382.937358" xlink:href="#me40860ad98" y="318.2"/>
      </g>
     </g>
     <g id="text_9">
      <!-- 21 -->
      <g transform="translate(376.574858 332.798438)scale(0.1 -0.1)">
       <use xlink:href="#DejaVuSans-50"/>
       <use x="63.623047" xlink:href="#DejaVuSans-49"/>
      </g>
     </g>
    </g>
    <g id="xtick_10">
     <g id="line2d_10">
      <g>
       <use style="stroke:#000000;stroke-width:0.8;" x="422.365283" xlink:href="#me40860ad98" y="318.2"/>
      </g>
     </g>
     <g id="text_10">
      <!-- 23 -->
      <defs>
       <path d="M 40.578125 39.3125 
Q 47.65625 37.796875 51.625 33 
Q 55.609375 28.21875 55.609375 21.1875 
Q 55.609375 10.40625 48.1875 4.484375 
Q 40.765625 -1.421875 27.09375 -1.421875 
Q 22.515625 -1.421875 17.65625 -0.515625 
Q 12.796875 0.390625 7.625 2.203125 
L 7.625 11.71875 
Q 11.71875 9.328125 16.59375 8.109375 
Q 21.484375 6.890625 26.8125 6.890625 
Q 36.078125 6.890625 40.9375 10.546875 
Q 45.796875 14.203125 45.796875 21.1875 
Q 45.796875 27.640625 41.28125 31.265625 
Q 36.765625 34.90625 28.71875 34.90625 
L 20.21875 34.90625 
L 20.21875 43.015625 
L 29.109375 43.015625 
Q 36.375 43.015625 40.234375 45.921875 
Q 44.09375 48.828125 44.09375 54.296875 
Q 44.09375 59.90625 40.109375 62.90625 
Q 36.140625 65.921875 28.71875 65.921875 
Q 24.65625 65.921875 20.015625 65.03125 
Q 15.375 64.15625 9.8125 62.3125 
L 9.8125 71.09375 
Q 15.4375 72.65625 20.34375 73.4375 
Q 25.25 74.21875 29.59375 74.21875 
Q 40.828125 74.21875 47.359375 69.109375 
Q 53.90625 64.015625 53.90625 55.328125 
Q 53.90625 49.265625 50.4375 45.09375 
Q 46.96875 40.921875 40.578125 39.3125 
z
" id="DejaVuSans-51"/>
      </defs>
      <g transform="translate(416.002783 332.798438)scale(0.1 -0.1)">
       <use xlink:href="#DejaVuSans-50"/>
       <use x="63.623047" xlink:href="#DejaVuSans-51"/>
      </g>
     </g>
    </g>
    <g id="xtick_11">
     <g id="line2d_11">
      <g>
       <use style="stroke:#000000;stroke-width:0.8;" x="461.793208" xlink:href="#me40860ad98" y="318.2"/>
      </g>
     </g>
     <g id="text_11">
      <!-- 32 -->
      <g transform="translate(455.430708 332.798438)scale(0.1 -0.1)">
       <use xlink:href="#DejaVuSans-51"/>
       <use x="63.623047" xlink:href="#DejaVuSans-50"/>
      </g>
     </g>
    </g>
    <g id="xtick_12">
     <g id="line2d_12">
      <g>
       <use style="stroke:#000000;stroke-width:0.8;" x="501.221132" xlink:href="#me40860ad98" y="318.2"/>
      </g>
     </g>
     <g id="text_12">
      <!-- 34 -->
      <defs>
       <path d="M 37.796875 64.3125 
L 12.890625 25.390625 
L 37.796875 25.390625 
z
M 35.203125 72.90625 
L 47.609375 72.90625 
L 47.609375 25.390625 
L 58.015625 25.390625 
L 58.015625 17.1875 
L 47.609375 17.1875 
L 47.609375 0 
L 37.796875 0 
L 37.796875 17.1875 
L 4.890625 17.1875 
L 4.890625 26.703125 
z
" id="DejaVuSans-52"/>
      </defs>
      <g transform="translate(494.858632 332.798438)scale(0.1 -0.1)">
       <use xlink:href="#DejaVuSans-51"/>
       <use x="63.623047" xlink:href="#DejaVuSans-52"/>
      </g>
     </g>
    </g>
    <g id="xtick_13">
     <g id="line2d_13">
      <g>
       <use style="stroke:#000000;stroke-width:0.8;" x="540.649057" xlink:href="#me40860ad98" y="318.2"/>
      </g>
     </g>
     <g id="text_13">
      <!-- 43 -->
      <g transform="translate(534.286557 332.798438)scale(0.1 -0.1)">
       <use xlink:href="#DejaVuSans-52"/>
       <use x="63.623047" xlink:href="#DejaVuSans-51"/>
      </g>
     </g>
    </g>
    <g id="xtick_14">
     <g id="line2d_14">
      <g>
       <use style="stroke:#000000;stroke-width:0.8;" x="580.076981" xlink:href="#me40860ad98" y="318.2"/>
      </g>
     </g>
     <g id="text_14">
      <!-- 45 -->
      <g transform="translate(573.714481 332.798438)scale(0.1 -0.1)">
       <use xlink:href="#DejaVuSans-52"/>
       <use x="63.623047" xlink:href="#DejaVuSans-53"/>
      </g>
     </g>
    </g>
    <g id="xtick_15">
     <g id="line2d_15">
      <g>
       <use style="stroke:#000000;stroke-width:0.8;" x="619.504906" xlink:href="#me40860ad98" y="318.2"/>
      </g>
     </g>
     <g id="text_15">
      <!-- 46 -->
      <g transform="translate(613.142406 332.798438)scale(0.1 -0.1)">
       <use xlink:href="#DejaVuSans-52"/>
       <use x="63.623047" xlink:href="#DejaVuSans-54"/>
      </g>
     </g>
    </g>
    <g id="xtick_16">
     <g id="line2d_16">
      <g>
       <use style="stroke:#000000;stroke-width:0.8;" x="658.93283" xlink:href="#me40860ad98" y="318.2"/>
      </g>
     </g>
     <g id="text_16">
      <!-- 47 -->
      <g transform="translate(652.57033 332.798438)scale(0.1 -0.1)">
       <use xlink:href="#DejaVuSans-52"/>
       <use x="63.623047" xlink:href="#DejaVuSans-55"/>
      </g>
     </g>
    </g>
    <g id="xtick_17">
     <g id="line2d_17">
      <g>
       <use style="stroke:#000000;stroke-width:0.8;" x="698.360755" xlink:href="#me40860ad98" y="318.2"/>
      </g>
     </g>
     <g id="text_17">
      <!-- 51 -->
      <g transform="translate(691.998255 332.798438)scale(0.1 -0.1)">
       <use xlink:href="#DejaVuSans-53"/>
       <use x="63.623047" xlink:href="#DejaVuSans-49"/>
      </g>
     </g>
    </g>
    <g id="xtick_18">
     <g id="line2d_18">
      <g>
       <use style="stroke:#000000;stroke-width:0.8;" x="737.788679" xlink:href="#me40860ad98" y="318.2"/>
      </g>
     </g>
     <g id="text_18">
      <!-- 52 -->
      <g transform="translate(731.426179 332.798438)scale(0.1 -0.1)">
       <use xlink:href="#DejaVuSans-53"/>
       <use x="63.623047" xlink:href="#DejaVuSans-50"/>
      </g>
     </g>
    </g>
    <g id="xtick_19">
     <g id="line2d_19">
      <g>
       <use style="stroke:#000000;stroke-width:0.8;" x="777.216604" xlink:href="#me40860ad98" y="318.2"/>
      </g>
     </g>
     <g id="text_19">
      <!-- 53 -->
      <g transform="translate(770.854104 332.798438)scale(0.1 -0.1)">
       <use xlink:href="#DejaVuSans-53"/>
       <use x="63.623047" xlink:href="#DejaVuSans-51"/>
      </g>
     </g>
    </g>
    <g id="xtick_20">
     <g id="line2d_20">
      <g>
       <use style="stroke:#000000;stroke-width:0.8;" x="816.644528" xlink:href="#me40860ad98" y="318.2"/>
      </g>
     </g>
     <g id="text_20">
      <!-- 56 -->
      <g transform="translate(810.282028 332.798438)scale(0.1 -0.1)">
       <use xlink:href="#DejaVuSans-53"/>
       <use x="63.623047" xlink:href="#DejaVuSans-54"/>
      </g>
     </g>
    </g>
    <g id="xtick_21">
     <g id="line2d_21">
      <g>
       <use style="stroke:#000000;stroke-width:0.8;" x="856.072453" xlink:href="#me40860ad98" y="318.2"/>
      </g>
     </g>
     <g id="text_21">
      <!-- 58 -->
      <g transform="translate(849.709953 332.798438)scale(0.1 -0.1)">
       <use xlink:href="#DejaVuSans-53"/>
       <use x="63.623047" xlink:href="#DejaVuSans-56"/>
      </g>
     </g>
    </g>
    <g id="xtick_22">
     <g id="line2d_22">
      <g>
       <use style="stroke:#000000;stroke-width:0.8;" x="895.500377" xlink:href="#me40860ad98" y="318.2"/>
      </g>
     </g>
     <g id="text_22">
      <!-- 59 -->
      <g transform="translate(889.137877 332.798438)scale(0.1 -0.1)">
       <use xlink:href="#DejaVuSans-53"/>
       <use x="63.623047" xlink:href="#DejaVuSans-57"/>
      </g>
     </g>
    </g>
    <g id="xtick_23">
     <g id="line2d_23">
      <g>
       <use style="stroke:#000000;stroke-width:0.8;" x="934.928302" xlink:href="#me40860ad98" y="318.2"/>
      </g>
     </g>
     <g id="text_23">
      <!-- 60 -->
      <g transform="translate(928.565802 332.798438)scale(0.1 -0.1)">
       <use xlink:href="#DejaVuSans-54"/>
       <use x="63.623047" xlink:href="#DejaVuSans-48"/>
      </g>
     </g>
    </g>
    <g id="xtick_24">
     <g id="line2d_24">
      <g>
       <use style="stroke:#000000;stroke-width:0.8;" x="974.356226" xlink:href="#me40860ad98" y="318.2"/>
      </g>
     </g>
     <g id="text_24">
      <!-- 62 -->
      <g transform="translate(967.993726 332.798438)scale(0.1 -0.1)">
       <use xlink:href="#DejaVuSans-54"/>
       <use x="63.623047" xlink:href="#DejaVuSans-50"/>
      </g>
     </g>
    </g>
    <g id="xtick_25">
     <g id="line2d_25">
      <g>
       <use style="stroke:#000000;stroke-width:0.8;" x="1013.784151" xlink:href="#me40860ad98" y="318.2"/>
      </g>
     </g>
     <g id="text_25">
      <!-- 64 -->
      <g transform="translate(1007.421651 332.798438)scale(0.1 -0.1)">
       <use xlink:href="#DejaVuSans-54"/>
       <use x="63.623047" xlink:href="#DejaVuSans-52"/>
      </g>
     </g>
    </g>
    <g id="xtick_26">
     <g id="line2d_26">
      <g>
       <use style="stroke:#000000;stroke-width:0.8;" x="1053.212075" xlink:href="#me40860ad98" y="318.2"/>
      </g>
     </g>
     <g id="text_26">
      <!-- 65 -->
      <g transform="translate(1046.849575 332.798438)scale(0.1 -0.1)">
       <use xlink:href="#DejaVuSans-54"/>
       <use x="63.623047" xlink:href="#DejaVuSans-53"/>
      </g>
     </g>
    </g>
    <g id="xtick_27">
     <g id="line2d_27">
      <g>
       <use style="stroke:#000000;stroke-width:0.8;" x="1092.64" xlink:href="#me40860ad98" y="318.2"/>
      </g>
     </g>
     <g id="text_27">
      <!-- 67 -->
      <g transform="translate(1086.2775 332.798438)scale(0.1 -0.1)">
       <use xlink:href="#DejaVuSans-54"/>
       <use x="63.623047" xlink:href="#DejaVuSans-55"/>
      </g>
     </g>
    </g>
    <g id="xtick_28">
     <g id="line2d_28">
      <g>
       <use style="stroke:#000000;stroke-width:0.8;" x="1132.067925" xlink:href="#me40860ad98" y="318.2"/>
      </g>
     </g>
     <g id="text_28">
      <!-- 68 -->
      <g transform="translate(1125.705425 332.798438)scale(0.1 -0.1)">
       <use xlink:href="#DejaVuSans-54"/>
       <use x="63.623047" xlink:href="#DejaVuSans-56"/>
      </g>
     </g>
    </g>
    <g id="xtick_29">
     <g id="line2d_29">
      <g>
       <use style="stroke:#000000;stroke-width:0.8;" x="1171.495849" xlink:href="#me40860ad98" y="318.2"/>
      </g>
     </g>
     <g id="text_29">
      <!-- 70 -->
      <g transform="translate(1165.133349 332.798438)scale(0.1 -0.1)">
       <use xlink:href="#DejaVuSans-55"/>
       <use x="63.623047" xlink:href="#DejaVuSans-48"/>
      </g>
     </g>
    </g>
    <g id="xtick_30">
     <g id="line2d_30">
      <g>
       <use style="stroke:#000000;stroke-width:0.8;" x="1210.923774" xlink:href="#me40860ad98" y="318.2"/>
      </g>
     </g>
     <g id="text_30">
      <!-- 72 -->
      <g transform="translate(1204.561274 332.798438)scale(0.1 -0.1)">
       <use xlink:href="#DejaVuSans-55"/>
       <use x="63.623047" xlink:href="#DejaVuSans-50"/>
      </g>
     </g>
    </g>
    <g id="xtick_31">
     <g id="line2d_31">
      <g>
       <use style="stroke:#000000;stroke-width:0.8;" x="1250.351698" xlink:href="#me40860ad98" y="318.2"/>
      </g>
     </g>
     <g id="text_31">
      <!-- 73 -->
      <g transform="translate(1243.989198 332.798438)scale(0.1 -0.1)">
       <use xlink:href="#DejaVuSans-55"/>
       <use x="63.623047" xlink:href="#DejaVuSans-51"/>
      </g>
     </g>
    </g>
    <g id="xtick_32">
     <g id="line2d_32">
      <g>
       <use style="stroke:#000000;stroke-width:0.8;" x="1289.779623" xlink:href="#me40860ad98" y="318.2"/>
      </g>
     </g>
     <g id="text_32">
      <!-- 76 -->
      <g transform="translate(1283.417123 332.798438)scale(0.1 -0.1)">
       <use xlink:href="#DejaVuSans-55"/>
       <use x="63.623047" xlink:href="#DejaVuSans-54"/>
      </g>
     </g>
    </g>
    <g id="xtick_33">
     <g id="line2d_33">
      <g>
       <use style="stroke:#000000;stroke-width:0.8;" x="1329.207547" xlink:href="#me40860ad98" y="318.2"/>
      </g>
     </g>
     <g id="text_33">
      <!-- 77 -->
      <g transform="translate(1322.845047 332.798438)scale(0.1 -0.1)">
       <use xlink:href="#DejaVuSans-55"/>
       <use x="63.623047" xlink:href="#DejaVuSans-55"/>
      </g>
     </g>
    </g>
    <g id="xtick_34">
     <g id="line2d_34">
      <g>
       <use style="stroke:#000000;stroke-width:0.8;" x="1368.635472" xlink:href="#me40860ad98" y="318.2"/>
      </g>
     </g>
     <g id="text_34">
      <!-- 81 -->
      <g transform="translate(1362.272972 332.798438)scale(0.1 -0.1)">
       <use xlink:href="#DejaVuSans-56"/>
       <use x="63.623047" xlink:href="#DejaVuSans-49"/>
      </g>
     </g>
    </g>
    <g id="xtick_35">
     <g id="line2d_35">
      <g>
       <use style="stroke:#000000;stroke-width:0.8;" x="1408.063396" xlink:href="#me40860ad98" y="318.2"/>
      </g>
     </g>
     <g id="text_35">
      <!-- 82 -->
      <g transform="translate(1401.700896 332.798438)scale(0.1 -0.1)">
       <use xlink:href="#DejaVuSans-56"/>
       <use x="63.623047" xlink:href="#DejaVuSans-50"/>
      </g>
     </g>
    </g>
    <g id="xtick_36">
     <g id="line2d_36">
      <g>
       <use style="stroke:#000000;stroke-width:0.8;" x="1447.491321" xlink:href="#me40860ad98" y="318.2"/>
      </g>
     </g>
     <g id="text_36">
      <!-- 83 -->
      <g transform="translate(1441.128821 332.798438)scale(0.1 -0.1)">
       <use xlink:href="#DejaVuSans-56"/>
       <use x="63.623047" xlink:href="#DejaVuSans-51"/>
      </g>
     </g>
    </g>
    <g id="xtick_37">
     <g id="line2d_37">
      <g>
       <use style="stroke:#000000;stroke-width:0.8;" x="1486.919245" xlink:href="#me40860ad98" y="318.2"/>
      </g>
     </g>
     <g id="text_37">
      <!-- 86 -->
      <g transform="translate(1480.556745 332.798438)scale(0.1 -0.1)">
       <use xlink:href="#DejaVuSans-56"/>
       <use x="63.623047" xlink:href="#DejaVuSans-54"/>
      </g>
     </g>
    </g>
    <g id="xtick_38">
     <g id="line2d_38">
      <g>
       <use style="stroke:#000000;stroke-width:0.8;" x="1526.34717" xlink:href="#me40860ad98" y="318.2"/>
      </g>
     </g>
     <g id="text_38">
      <!-- 87 -->
      <g transform="translate(1519.98467 332.798438)scale(0.1 -0.1)">
       <use xlink:href="#DejaVuSans-56"/>
       <use x="63.623047" xlink:href="#DejaVuSans-55"/>
      </g>
     </g>
    </g>
    <g id="xtick_39">
     <g id="line2d_39">
      <g>
       <use style="stroke:#000000;stroke-width:0.8;" x="1565.775094" xlink:href="#me40860ad98" y="318.2"/>
      </g>
     </g>
     <g id="text_39">
      <!-- 89 -->
      <g transform="translate(1559.412594 332.798438)scale(0.1 -0.1)">
       <use xlink:href="#DejaVuSans-56"/>
       <use x="63.623047" xlink:href="#DejaVuSans-57"/>
      </g>
     </g>
    </g>
    <g id="xtick_40">
     <g id="line2d_40">
      <g>
       <use style="stroke:#000000;stroke-width:0.8;" x="1605.203019" xlink:href="#me40860ad98" y="318.2"/>
      </g>
     </g>
     <g id="text_40">
      <!-- 90 -->
      <g transform="translate(1598.840519 332.798438)scale(0.1 -0.1)">
       <use xlink:href="#DejaVuSans-57"/>
       <use x="63.623047" xlink:href="#DejaVuSans-48"/>
      </g>
     </g>
    </g>
    <g id="xtick_41">
     <g id="line2d_41">
      <g>
       <use style="stroke:#000000;stroke-width:0.8;" x="1644.630943" xlink:href="#me40860ad98" y="318.2"/>
      </g>
     </g>
     <g id="text_41">
      <!-- 93 -->
      <g transform="translate(1638.268443 332.798438)scale(0.1 -0.1)">
       <use xlink:href="#DejaVuSans-57"/>
       <use x="63.623047" xlink:href="#DejaVuSans-51"/>
      </g>
     </g>
    </g>
    <g id="xtick_42">
     <g id="line2d_42">
      <g>
       <use style="stroke:#000000;stroke-width:0.8;" x="1684.058868" xlink:href="#me40860ad98" y="318.2"/>
      </g>
     </g>
     <g id="text_42">
      <!-- 96 -->
      <g transform="translate(1677.696368 332.798438)scale(0.1 -0.1)">
       <use xlink:href="#DejaVuSans-57"/>
       <use x="63.623047" xlink:href="#DejaVuSans-54"/>
      </g>
     </g>
    </g>
    <g id="xtick_43">
     <g id="line2d_43">
      <g>
       <use style="stroke:#000000;stroke-width:0.8;" x="1723.486792" xlink:href="#me40860ad98" y="318.2"/>
      </g>
     </g>
     <g id="text_43">
      <!-- 98 -->
      <g transform="translate(1717.124292 332.798438)scale(0.1 -0.1)">
       <use xlink:href="#DejaVuSans-57"/>
       <use x="63.623047" xlink:href="#DejaVuSans-56"/>
      </g>
     </g>
    </g>
    <g id="xtick_44">
     <g id="line2d_44">
      <g>
       <use style="stroke:#000000;stroke-width:0.8;" x="1762.914717" xlink:href="#me40860ad98" y="318.2"/>
      </g>
     </g>
     <g id="text_44">
      <!-- 100 -->
      <g transform="translate(1753.370967 332.798438)scale(0.1 -0.1)">
       <use xlink:href="#DejaVuSans-49"/>
       <use x="63.623047" xlink:href="#DejaVuSans-48"/>
       <use x="127.246094" xlink:href="#DejaVuSans-48"/>
      </g>
     </g>
    </g>
    <g id="text_45">
     <!-- Killed mutant number -->
     <defs>
      <path d="M 9.8125 72.90625 
L 19.671875 72.90625 
L 19.671875 42.09375 
L 52.390625 72.90625 
L 65.09375 72.90625 
L 28.90625 38.921875 
L 67.671875 0 
L 54.6875 0 
L 19.671875 35.109375 
L 19.671875 0 
L 9.8125 0 
z
" id="DejaVuSans-75"/>
      <path d="M 9.421875 54.6875 
L 18.40625 54.6875 
L 18.40625 0 
L 9.421875 0 
z
M 9.421875 75.984375 
L 18.40625 75.984375 
L 18.40625 64.59375 
L 9.421875 64.59375 
z
" id="DejaVuSans-105"/>
      <path d="M 9.421875 75.984375 
L 18.40625 75.984375 
L 18.40625 0 
L 9.421875 0 
z
" id="DejaVuSans-108"/>
      <path d="M 56.203125 29.59375 
L 56.203125 25.203125 
L 14.890625 25.203125 
Q 15.484375 15.921875 20.484375 11.0625 
Q 25.484375 6.203125 34.421875 6.203125 
Q 39.59375 6.203125 44.453125 7.46875 
Q 49.3125 8.734375 54.109375 11.28125 
L 54.109375 2.78125 
Q 49.265625 0.734375 44.1875 -0.34375 
Q 39.109375 -1.421875 33.890625 -1.421875 
Q 20.796875 -1.421875 13.15625 6.1875 
Q 5.515625 13.8125 5.515625 26.8125 
Q 5.515625 40.234375 12.765625 48.109375 
Q 20.015625 56 32.328125 56 
Q 43.359375 56 49.78125 48.890625 
Q 56.203125 41.796875 56.203125 29.59375 
z
M 47.21875 32.234375 
Q 47.125 39.59375 43.09375 43.984375 
Q 39.0625 48.390625 32.421875 48.390625 
Q 24.90625 48.390625 20.390625 44.140625 
Q 15.875 39.890625 15.1875 32.171875 
z
" id="DejaVuSans-101"/>
      <path d="M 45.40625 46.390625 
L 45.40625 75.984375 
L 54.390625 75.984375 
L 54.390625 0 
L 45.40625 0 
L 45.40625 8.203125 
Q 42.578125 3.328125 38.25 0.953125 
Q 33.9375 -1.421875 27.875 -1.421875 
Q 17.96875 -1.421875 11.734375 6.484375 
Q 5.515625 14.40625 5.515625 27.296875 
Q 5.515625 40.1875 11.734375 48.09375 
Q 17.96875 56 27.875 56 
Q 33.9375 56 38.25 53.625 
Q 42.578125 51.265625 45.40625 46.390625 
z
M 14.796875 27.296875 
Q 14.796875 17.390625 18.875 11.75 
Q 22.953125 6.109375 30.078125 6.109375 
Q 37.203125 6.109375 41.296875 11.75 
Q 45.40625 17.390625 45.40625 27.296875 
Q 45.40625 37.203125 41.296875 42.84375 
Q 37.203125 48.484375 30.078125 48.484375 
Q 22.953125 48.484375 18.875 42.84375 
Q 14.796875 37.203125 14.796875 27.296875 
z
" id="DejaVuSans-100"/>
      <path id="DejaVuSans-32"/>
      <path d="M 52 44.1875 
Q 55.375 50.25 60.0625 53.125 
Q 64.75 56 71.09375 56 
Q 79.640625 56 84.28125 50.015625 
Q 88.921875 44.046875 88.921875 33.015625 
L 88.921875 0 
L 79.890625 0 
L 79.890625 32.71875 
Q 79.890625 40.578125 77.09375 44.375 
Q 74.3125 48.1875 68.609375 48.1875 
Q 61.625 48.1875 57.5625 43.546875 
Q 53.515625 38.921875 53.515625 30.90625 
L 53.515625 0 
L 44.484375 0 
L 44.484375 32.71875 
Q 44.484375 40.625 41.703125 44.40625 
Q 38.921875 48.1875 33.109375 48.1875 
Q 26.21875 48.1875 22.15625 43.53125 
Q 18.109375 38.875 18.109375 30.90625 
L 18.109375 0 
L 9.078125 0 
L 9.078125 54.6875 
L 18.109375 54.6875 
L 18.109375 46.1875 
Q 21.1875 51.21875 25.484375 53.609375 
Q 29.78125 56 35.6875 56 
Q 41.65625 56 45.828125 52.96875 
Q 50 49.953125 52 44.1875 
z
" id="DejaVuSans-109"/>
      <path d="M 8.5 21.578125 
L 8.5 54.6875 
L 17.484375 54.6875 
L 17.484375 21.921875 
Q 17.484375 14.15625 20.5 10.265625 
Q 23.53125 6.390625 29.59375 6.390625 
Q 36.859375 6.390625 41.078125 11.03125 
Q 45.3125 15.671875 45.3125 23.6875 
L 45.3125 54.6875 
L 54.296875 54.6875 
L 54.296875 0 
L 45.3125 0 
L 45.3125 8.40625 
Q 42.046875 3.421875 37.71875 1 
Q 33.40625 -1.421875 27.6875 -1.421875 
Q 18.265625 -1.421875 13.375 4.4375 
Q 8.5 10.296875 8.5 21.578125 
z
M 31.109375 56 
z
" id="DejaVuSans-117"/>
      <path d="M 18.3125 70.21875 
L 18.3125 54.6875 
L 36.8125 54.6875 
L 36.8125 47.703125 
L 18.3125 47.703125 
L 18.3125 18.015625 
Q 18.3125 11.328125 20.140625 9.421875 
Q 21.96875 7.515625 27.59375 7.515625 
L 36.8125 7.515625 
L 36.8125 0 
L 27.59375 0 
Q 17.1875 0 13.234375 3.875 
Q 9.28125 7.765625 9.28125 18.015625 
L 9.28125 47.703125 
L 2.6875 47.703125 
L 2.6875 54.6875 
L 9.28125 54.6875 
L 9.28125 70.21875 
z
" id="DejaVuSans-116"/>
      <path d="M 34.28125 27.484375 
Q 23.390625 27.484375 19.1875 25 
Q 14.984375 22.515625 14.984375 16.5 
Q 14.984375 11.71875 18.140625 8.90625 
Q 21.296875 6.109375 26.703125 6.109375 
Q 34.1875 6.109375 38.703125 11.40625 
Q 43.21875 16.703125 43.21875 25.484375 
L 43.21875 27.484375 
z
M 52.203125 31.203125 
L 52.203125 0 
L 43.21875 0 
L 43.21875 8.296875 
Q 40.140625 3.328125 35.546875 0.953125 
Q 30.953125 -1.421875 24.3125 -1.421875 
Q 15.921875 -1.421875 10.953125 3.296875 
Q 6 8.015625 6 15.921875 
Q 6 25.140625 12.171875 29.828125 
Q 18.359375 34.515625 30.609375 34.515625 
L 43.21875 34.515625 
L 43.21875 35.40625 
Q 43.21875 41.609375 39.140625 45 
Q 35.0625 48.390625 27.6875 48.390625 
Q 23 48.390625 18.546875 47.265625 
Q 14.109375 46.140625 10.015625 43.890625 
L 10.015625 52.203125 
Q 14.9375 54.109375 19.578125 55.046875 
Q 24.21875 56 28.609375 56 
Q 40.484375 56 46.34375 49.84375 
Q 52.203125 43.703125 52.203125 31.203125 
z
" id="DejaVuSans-97"/>
      <path d="M 54.890625 33.015625 
L 54.890625 0 
L 45.90625 0 
L 45.90625 32.71875 
Q 45.90625 40.484375 42.875 44.328125 
Q 39.84375 48.1875 33.796875 48.1875 
Q 26.515625 48.1875 22.3125 43.546875 
Q 18.109375 38.921875 18.109375 30.90625 
L 18.109375 0 
L 9.078125 0 
L 9.078125 54.6875 
L 18.109375 54.6875 
L 18.109375 46.1875 
Q 21.34375 51.125 25.703125 53.5625 
Q 30.078125 56 35.796875 56 
Q 45.21875 56 50.046875 50.171875 
Q 54.890625 44.34375 54.890625 33.015625 
z
" id="DejaVuSans-110"/>
      <path d="M 48.6875 27.296875 
Q 48.6875 37.203125 44.609375 42.84375 
Q 40.53125 48.484375 33.40625 48.484375 
Q 26.265625 48.484375 22.1875 42.84375 
Q 18.109375 37.203125 18.109375 27.296875 
Q 18.109375 17.390625 22.1875 11.75 
Q 26.265625 6.109375 33.40625 6.109375 
Q 40.53125 6.109375 44.609375 11.75 
Q 48.6875 17.390625 48.6875 27.296875 
z
M 18.109375 46.390625 
Q 20.953125 51.265625 25.265625 53.625 
Q 29.59375 56 35.59375 56 
Q 45.5625 56 51.78125 48.09375 
Q 58.015625 40.1875 58.015625 27.296875 
Q 58.015625 14.40625 51.78125 6.484375 
Q 45.5625 -1.421875 35.59375 -1.421875 
Q 29.59375 -1.421875 25.265625 0.953125 
Q 20.953125 3.328125 18.109375 8.203125 
L 18.109375 0 
L 9.078125 0 
L 9.078125 75.984375 
L 18.109375 75.984375 
z
" id="DejaVuSans-98"/>
      <path d="M 41.109375 46.296875 
Q 39.59375 47.171875 37.8125 47.578125 
Q 36.03125 48 33.890625 48 
Q 26.265625 48 22.1875 43.046875 
Q 18.109375 38.09375 18.109375 28.8125 
L 18.109375 0 
L 9.078125 0 
L 9.078125 54.6875 
L 18.109375 54.6875 
L 18.109375 46.1875 
Q 20.953125 51.171875 25.484375 53.578125 
Q 30.03125 56 36.53125 56 
Q 37.453125 56 38.578125 55.875 
Q 39.703125 55.765625 41.0625 55.515625 
z
" id="DejaVuSans-114"/>
     </defs>
     <g transform="translate(863.91875 346.476562)scale(0.1 -0.1)">
      <use xlink:href="#DejaVuSans-75"/>
      <use x="65.576172" xlink:href="#DejaVuSans-105"/>
      <use x="93.359375" xlink:href="#DejaVuSans-108"/>
      <use x="121.142578" xlink:href="#DejaVuSans-108"/>
      <use x="148.925781" xlink:href="#DejaVuSans-101"/>
      <use x="210.449219" xlink:href="#DejaVuSans-100"/>
      <use x="273.925781" xlink:href="#DejaVuSans-32"/>
      <use x="305.712891" xlink:href="#DejaVuSans-109"/>
      <use x="403.125" xlink:href="#DejaVuSans-117"/>
      <use x="466.503906" xlink:href="#DejaVuSans-116"/>
      <use x="505.712891" xlink:href="#DejaVuSans-97"/>
      <use x="566.992188" xlink:href="#DejaVuSans-110"/>
      <use x="630.371094" xlink:href="#DejaVuSans-116"/>
      <use x="669.580078" xlink:href="#DejaVuSans-32"/>
      <use x="701.367188" xlink:href="#DejaVuSans-110"/>
      <use x="764.746094" xlink:href="#DejaVuSans-117"/>
      <use x="828.125" xlink:href="#DejaVuSans-109"/>
      <use x="925.537109" xlink:href="#DejaVuSans-98"/>
      <use x="989.013672" xlink:href="#DejaVuSans-101"/>
      <use x="1050.537109" xlink:href="#DejaVuSans-114"/>
     </g>
    </g>
   </g>
   <g id="matplotlib.axis_2">
    <g id="ytick_1">
     <g id="line2d_45">
      <defs>
       <path d="M 0 0 
L -3.5 0 
" id="m8b411754bd" style="stroke:#000000;stroke-width:0.8;"/>
      </defs>
      <g>
       <use style="stroke:#000000;stroke-width:0.8;" x="47.8" xlink:href="#m8b411754bd" y="318.2"/>
      </g>
     </g>
     <g id="text_46">
      <!-- 0.0 -->
      <defs>
       <path d="M 10.6875 12.40625 
L 21 12.40625 
L 21 0 
L 10.6875 0 
z
" id="DejaVuSans-46"/>
      </defs>
      <g transform="translate(24.896875 321.999219)scale(0.1 -0.1)">
       <use xlink:href="#DejaVuSans-48"/>
       <use x="63.623047" xlink:href="#DejaVuSans-46"/>
       <use x="95.410156" xlink:href="#DejaVuSans-48"/>
      </g>
     </g>
    </g>
    <g id="ytick_2">
     <g id="line2d_46">
      <g>
       <use style="stroke:#000000;stroke-width:0.8;" x="47.8" xlink:href="#m8b411754bd" y="269.633333"/>
      </g>
     </g>
     <g id="text_47">
      <!-- 0.5 -->
      <g transform="translate(24.896875 273.432552)scale(0.1 -0.1)">
       <use xlink:href="#DejaVuSans-48"/>
       <use x="63.623047" xlink:href="#DejaVuSans-46"/>
       <use x="95.410156" xlink:href="#DejaVuSans-53"/>
      </g>
     </g>
    </g>
    <g id="ytick_3">
     <g id="line2d_47">
      <g>
       <use style="stroke:#000000;stroke-width:0.8;" x="47.8" xlink:href="#m8b411754bd" y="221.066667"/>
      </g>
     </g>
     <g id="text_48">
      <!-- 1.0 -->
      <g transform="translate(24.896875 224.865885)scale(0.1 -0.1)">
       <use xlink:href="#DejaVuSans-49"/>
       <use x="63.623047" xlink:href="#DejaVuSans-46"/>
       <use x="95.410156" xlink:href="#DejaVuSans-48"/>
      </g>
     </g>
    </g>
    <g id="ytick_4">
     <g id="line2d_48">
      <g>
       <use style="stroke:#000000;stroke-width:0.8;" x="47.8" xlink:href="#m8b411754bd" y="172.5"/>
      </g>
     </g>
     <g id="text_49">
      <!-- 1.5 -->
      <g transform="translate(24.896875 176.299219)scale(0.1 -0.1)">
       <use xlink:href="#DejaVuSans-49"/>
       <use x="63.623047" xlink:href="#DejaVuSans-46"/>
       <use x="95.410156" xlink:href="#DejaVuSans-53"/>
      </g>
     </g>
    </g>
    <g id="ytick_5">
     <g id="line2d_49">
      <g>
       <use style="stroke:#000000;stroke-width:0.8;" x="47.8" xlink:href="#m8b411754bd" y="123.933333"/>
      </g>
     </g>
     <g id="text_50">
      <!-- 2.0 -->
      <g transform="translate(24.896875 127.732552)scale(0.1 -0.1)">
       <use xlink:href="#DejaVuSans-50"/>
       <use x="63.623047" xlink:href="#DejaVuSans-46"/>
       <use x="95.410156" xlink:href="#DejaVuSans-48"/>
      </g>
     </g>
    </g>
    <g id="ytick_6">
     <g id="line2d_50">
      <g>
       <use style="stroke:#000000;stroke-width:0.8;" x="47.8" xlink:href="#m8b411754bd" y="75.366667"/>
      </g>
     </g>
     <g id="text_51">
      <!-- 2.5 -->
      <g transform="translate(24.896875 79.165885)scale(0.1 -0.1)">
       <use xlink:href="#DejaVuSans-50"/>
       <use x="63.623047" xlink:href="#DejaVuSans-46"/>
       <use x="95.410156" xlink:href="#DejaVuSans-53"/>
      </g>
     </g>
    </g>
    <g id="ytick_7">
     <g id="line2d_51">
      <g>
       <use style="stroke:#000000;stroke-width:0.8;" x="47.8" xlink:href="#m8b411754bd" y="26.8"/>
      </g>
     </g>
     <g id="text_52">
      <!-- 3.0 -->
      <g transform="translate(24.896875 30.599219)scale(0.1 -0.1)">
       <use xlink:href="#DejaVuSans-51"/>
       <use x="63.623047" xlink:href="#DejaVuSans-46"/>
       <use x="95.410156" xlink:href="#DejaVuSans-48"/>
      </g>
     </g>
    </g>
    <g id="text_53">
     <!-- Time taken until mutant get discovered -->
     <defs>
      <path d="M -0.296875 72.90625 
L 61.375 72.90625 
L 61.375 64.59375 
L 35.5 64.59375 
L 35.5 0 
L 25.59375 0 
L 25.59375 64.59375 
L -0.296875 64.59375 
z
" id="DejaVuSans-84"/>
      <path d="M 9.078125 75.984375 
L 18.109375 75.984375 
L 18.109375 31.109375 
L 44.921875 54.6875 
L 56.390625 54.6875 
L 27.390625 29.109375 
L 57.625 0 
L 45.90625 0 
L 18.109375 26.703125 
L 18.109375 0 
L 9.078125 0 
z
" id="DejaVuSans-107"/>
      <path d="M 45.40625 27.984375 
Q 45.40625 37.75 41.375 43.109375 
Q 37.359375 48.484375 30.078125 48.484375 
Q 22.859375 48.484375 18.828125 43.109375 
Q 14.796875 37.75 14.796875 27.984375 
Q 14.796875 18.265625 18.828125 12.890625 
Q 22.859375 7.515625 30.078125 7.515625 
Q 37.359375 7.515625 41.375 12.890625 
Q 45.40625 18.265625 45.40625 27.984375 
z
M 54.390625 6.78125 
Q 54.390625 -7.171875 48.1875 -13.984375 
Q 42 -20.796875 29.203125 -20.796875 
Q 24.46875 -20.796875 20.265625 -20.09375 
Q 16.0625 -19.390625 12.109375 -17.921875 
L 12.109375 -9.1875 
Q 16.0625 -11.328125 19.921875 -12.34375 
Q 23.78125 -13.375 27.78125 -13.375 
Q 36.625 -13.375 41.015625 -8.765625 
Q 45.40625 -4.15625 45.40625 5.171875 
L 45.40625 9.625 
Q 42.625 4.78125 38.28125 2.390625 
Q 33.9375 0 27.875 0 
Q 17.828125 0 11.671875 7.65625 
Q 5.515625 15.328125 5.515625 27.984375 
Q 5.515625 40.671875 11.671875 48.328125 
Q 17.828125 56 27.875 56 
Q 33.9375 56 38.28125 53.609375 
Q 42.625 51.21875 45.40625 46.390625 
L 45.40625 54.6875 
L 54.390625 54.6875 
z
" id="DejaVuSans-103"/>
      <path d="M 44.28125 53.078125 
L 44.28125 44.578125 
Q 40.484375 46.53125 36.375 47.5 
Q 32.28125 48.484375 27.875 48.484375 
Q 21.1875 48.484375 17.84375 46.4375 
Q 14.5 44.390625 14.5 40.28125 
Q 14.5 37.15625 16.890625 35.375 
Q 19.28125 33.59375 26.515625 31.984375 
L 29.59375 31.296875 
Q 39.15625 29.25 43.1875 25.515625 
Q 47.21875 21.78125 47.21875 15.09375 
Q 47.21875 7.46875 41.1875 3.015625 
Q 35.15625 -1.421875 24.609375 -1.421875 
Q 20.21875 -1.421875 15.453125 -0.5625 
Q 10.6875 0.296875 5.421875 2 
L 5.421875 11.28125 
Q 10.40625 8.6875 15.234375 7.390625 
Q 20.0625 6.109375 24.8125 6.109375 
Q 31.15625 6.109375 34.5625 8.28125 
Q 37.984375 10.453125 37.984375 14.40625 
Q 37.984375 18.0625 35.515625 20.015625 
Q 33.0625 21.96875 24.703125 23.78125 
L 21.578125 24.515625 
Q 13.234375 26.265625 9.515625 29.90625 
Q 5.8125 33.546875 5.8125 39.890625 
Q 5.8125 47.609375 11.28125 51.796875 
Q 16.75 56 26.8125 56 
Q 31.78125 56 36.171875 55.265625 
Q 40.578125 54.546875 44.28125 53.078125 
z
" id="DejaVuSans-115"/>
      <path d="M 48.78125 52.59375 
L 48.78125 44.1875 
Q 44.96875 46.296875 41.140625 47.34375 
Q 37.3125 48.390625 33.40625 48.390625 
Q 24.65625 48.390625 19.8125 42.84375 
Q 14.984375 37.3125 14.984375 27.296875 
Q 14.984375 17.28125 19.8125 11.734375 
Q 24.65625 6.203125 33.40625 6.203125 
Q 37.3125 6.203125 41.140625 7.25 
Q 44.96875 8.296875 48.78125 10.40625 
L 48.78125 2.09375 
Q 45.015625 0.34375 40.984375 -0.53125 
Q 36.96875 -1.421875 32.421875 -1.421875 
Q 20.0625 -1.421875 12.78125 6.34375 
Q 5.515625 14.109375 5.515625 27.296875 
Q 5.515625 40.671875 12.859375 48.328125 
Q 20.21875 56 33.015625 56 
Q 37.15625 56 41.109375 55.140625 
Q 45.0625 54.296875 48.78125 52.59375 
z
" id="DejaVuSans-99"/>
      <path d="M 30.609375 48.390625 
Q 23.390625 48.390625 19.1875 42.75 
Q 14.984375 37.109375 14.984375 27.296875 
Q 14.984375 17.484375 19.15625 11.84375 
Q 23.34375 6.203125 30.609375 6.203125 
Q 37.796875 6.203125 41.984375 11.859375 
Q 46.1875 17.53125 46.1875 27.296875 
Q 46.1875 37.015625 41.984375 42.703125 
Q 37.796875 48.390625 30.609375 48.390625 
z
M 30.609375 56 
Q 42.328125 56 49.015625 48.375 
Q 55.71875 40.765625 55.71875 27.296875 
Q 55.71875 13.875 49.015625 6.21875 
Q 42.328125 -1.421875 30.609375 -1.421875 
Q 18.84375 -1.421875 12.171875 6.21875 
Q 5.515625 13.875 5.515625 27.296875 
Q 5.515625 40.765625 12.171875 48.375 
Q 18.84375 56 30.609375 56 
z
" id="DejaVuSans-111"/>
      <path d="M 2.984375 54.6875 
L 12.5 54.6875 
L 29.59375 8.796875 
L 46.6875 54.6875 
L 56.203125 54.6875 
L 35.6875 0 
L 23.484375 0 
z
" id="DejaVuSans-118"/>
     </defs>
     <g transform="translate(18.817187 271.347656)rotate(-90)scale(0.1 -0.1)">
      <use xlink:href="#DejaVuSans-84"/>
      <use x="57.958984" xlink:href="#DejaVuSans-105"/>
      <use x="85.742188" xlink:href="#DejaVuSans-109"/>
      <use x="183.154297" xlink:href="#DejaVuSans-101"/>
      <use x="244.677734" xlink:href="#DejaVuSans-32"/>
      <use x="276.464844" xlink:href="#DejaVuSans-116"/>
      <use x="315.673828" xlink:href="#DejaVuSans-97"/>
      <use x="376.953125" xlink:href="#DejaVuSans-107"/>
      <use x="431.238281" xlink:href="#DejaVuSans-101"/>
      <use x="492.761719" xlink:href="#DejaVuSans-110"/>
      <use x="556.140625" xlink:href="#DejaVuSans-32"/>
      <use x="587.927734" xlink:href="#DejaVuSans-117"/>
      <use x="651.306641" xlink:href="#DejaVuSans-110"/>
      <use x="714.685547" xlink:href="#DejaVuSans-116"/>
      <use x="753.894531" xlink:href="#DejaVuSans-105"/>
      <use x="781.677734" xlink:href="#DejaVuSans-108"/>
      <use x="809.460938" xlink:href="#DejaVuSans-32"/>
      <use x="841.248047" xlink:href="#DejaVuSans-109"/>
      <use x="938.660156" xlink:href="#DejaVuSans-117"/>
      <use x="1002.039062" xlink:href="#DejaVuSans-116"/>
      <use x="1041.248047" xlink:href="#DejaVuSans-97"/>
      <use x="1102.527344" xlink:href="#DejaVuSans-110"/>
      <use x="1165.90625" xlink:href="#DejaVuSans-116"/>
      <use x="1205.115234" xlink:href="#DejaVuSans-32"/>
      <use x="1236.902344" xlink:href="#DejaVuSans-103"/>
      <use x="1300.378906" xlink:href="#DejaVuSans-101"/>
      <use x="1361.902344" xlink:href="#DejaVuSans-116"/>
      <use x="1401.111328" xlink:href="#DejaVuSans-32"/>
      <use x="1432.898438" xlink:href="#DejaVuSans-100"/>
      <use x="1496.375" xlink:href="#DejaVuSans-105"/>
      <use x="1524.158203" xlink:href="#DejaVuSans-115"/>
      <use x="1576.257812" xlink:href="#DejaVuSans-99"/>
      <use x="1631.238281" xlink:href="#DejaVuSans-111"/>
      <use x="1692.419922" xlink:href="#DejaVuSans-118"/>
      <use x="1751.599609" xlink:href="#DejaVuSans-101"/>
      <use x="1813.123047" xlink:href="#DejaVuSans-114"/>
      <use x="1851.986328" xlink:href="#DejaVuSans-101"/>
      <use x="1913.509766" xlink:href="#DejaVuSans-100"/>
     </g>
    </g>
   </g>
   <g id="patch_179">
    <path d="M 47.8 318.2 
L 47.8 26.8 
" style="fill:none;stroke:#000000;stroke-linecap:square;stroke-linejoin:miter;stroke-width:0.8;"/>
   </g>
   <g id="patch_180">
    <path d="M 1789.2 318.2 
L 1789.2 26.8 
" style="fill:none;stroke:#000000;stroke-linecap:square;stroke-linejoin:miter;stroke-width:0.8;"/>
   </g>
   <g id="patch_181">
    <path d="M 47.8 318.2 
L 1789.2 318.2 
" style="fill:none;stroke:#000000;stroke-linecap:square;stroke-linejoin:miter;stroke-width:0.8;"/>
   </g>
   <g id="patch_182">
    <path d="M 47.8 26.8 
L 1789.2 26.8 
" style="fill:none;stroke:#000000;stroke-linecap:square;stroke-linejoin:miter;stroke-width:0.8;"/>
   </g>
   <g id="text_54">
    <!-- The different algorithms' performance on killed mutant for linked -->
    <defs>
     <path d="M 54.890625 33.015625 
L 54.890625 0 
L 45.90625 0 
L 45.90625 32.71875 
Q 45.90625 40.484375 42.875 44.328125 
Q 39.84375 48.1875 33.796875 48.1875 
Q 26.515625 48.1875 22.3125 43.546875 
Q 18.109375 38.921875 18.109375 30.90625 
L 18.109375 0 
L 9.078125 0 
L 9.078125 75.984375 
L 18.109375 75.984375 
L 18.109375 46.1875 
Q 21.34375 51.125 25.703125 53.5625 
Q 30.078125 56 35.796875 56 
Q 45.21875 56 50.046875 50.171875 
Q 54.890625 44.34375 54.890625 33.015625 
z
" id="DejaVuSans-104"/>
     <path d="M 37.109375 75.984375 
L 37.109375 68.5 
L 28.515625 68.5 
Q 23.6875 68.5 21.796875 66.546875 
Q 19.921875 64.59375 19.921875 59.515625 
L 19.921875 54.6875 
L 34.71875 54.6875 
L 34.71875 47.703125 
L 19.921875 47.703125 
L 19.921875 0 
L 10.890625 0 
L 10.890625 47.703125 
L 2.296875 47.703125 
L 2.296875 54.6875 
L 10.890625 54.6875 
L 10.890625 58.5 
Q 10.890625 67.625 15.140625 71.796875 
Q 19.390625 75.984375 28.609375 75.984375 
z
" id="DejaVuSans-102"/>
     <path d="M 17.921875 72.90625 
L 17.921875 45.796875 
L 9.625 45.796875 
L 9.625 72.90625 
z
" id="DejaVuSans-39"/>
     <path d="M 18.109375 8.203125 
L 18.109375 -20.796875 
L 9.078125 -20.796875 
L 9.078125 54.6875 
L 18.109375 54.6875 
L 18.109375 46.390625 
Q 20.953125 51.265625 25.265625 53.625 
Q 29.59375 56 35.59375 56 
Q 45.5625 56 51.78125 48.09375 
Q 58.015625 40.1875 58.015625 27.296875 
Q 58.015625 14.40625 51.78125 6.484375 
Q 45.5625 -1.421875 35.59375 -1.421875 
Q 29.59375 -1.421875 25.265625 0.953125 
Q 20.953125 3.328125 18.109375 8.203125 
z
M 48.6875 27.296875 
Q 48.6875 37.203125 44.609375 42.84375 
Q 40.53125 48.484375 33.40625 48.484375 
Q 26.265625 48.484375 22.1875 42.84375 
Q 18.109375 37.203125 18.109375 27.296875 
Q 18.109375 17.390625 22.1875 11.75 
Q 26.265625 6.109375 33.40625 6.109375 
Q 40.53125 6.109375 44.609375 11.75 
Q 48.6875 17.390625 48.6875 27.296875 
z
" id="DejaVuSans-112"/>
    </defs>
    <g transform="translate(722.932812 20.8)scale(0.12 -0.12)">
     <use xlink:href="#DejaVuSans-84"/>
     <use x="61.083984" xlink:href="#DejaVuSans-104"/>
     <use x="124.462891" xlink:href="#DejaVuSans-101"/>
     <use x="185.986328" xlink:href="#DejaVuSans-32"/>
     <use x="217.773438" xlink:href="#DejaVuSans-100"/>
     <use x="281.25" xlink:href="#DejaVuSans-105"/>
     <use x="309.033203" xlink:href="#DejaVuSans-102"/>
     <use x="344.238281" xlink:href="#DejaVuSans-102"/>
     <use x="379.443359" xlink:href="#DejaVuSans-101"/>
     <use x="440.966797" xlink:href="#DejaVuSans-114"/>
     <use x="479.830078" xlink:href="#DejaVuSans-101"/>
     <use x="541.353516" xlink:href="#DejaVuSans-110"/>
     <use x="604.732422" xlink:href="#DejaVuSans-116"/>
     <use x="643.941406" xlink:href="#DejaVuSans-32"/>
     <use x="675.728516" xlink:href="#DejaVuSans-97"/>
     <use x="737.007812" xlink:href="#DejaVuSans-108"/>
     <use x="764.791016" xlink:href="#DejaVuSans-103"/>
     <use x="828.267578" xlink:href="#DejaVuSans-111"/>
     <use x="889.449219" xlink:href="#DejaVuSans-114"/>
     <use x="930.5625" xlink:href="#DejaVuSans-105"/>
     <use x="958.345703" xlink:href="#DejaVuSans-116"/>
     <use x="997.554688" xlink:href="#DejaVuSans-104"/>
     <use x="1060.933594" xlink:href="#DejaVuSans-109"/>
     <use x="1158.345703" xlink:href="#DejaVuSans-115"/>
     <use x="1210.445312" xlink:href="#DejaVuSans-39"/>
     <use x="1237.935547" xlink:href="#DejaVuSans-32"/>
     <use x="1269.722656" xlink:href="#DejaVuSans-112"/>
     <use x="1333.199219" xlink:href="#DejaVuSans-101"/>
     <use x="1394.722656" xlink:href="#DejaVuSans-114"/>
     <use x="1435.835938" xlink:href="#DejaVuSans-102"/>
     <use x="1471.041016" xlink:href="#DejaVuSans-111"/>
     <use x="1532.222656" xlink:href="#DejaVuSans-114"/>
     <use x="1571.585938" xlink:href="#DejaVuSans-109"/>
     <use x="1668.998047" xlink:href="#DejaVuSans-97"/>
     <use x="1730.277344" xlink:href="#DejaVuSans-110"/>
     <use x="1793.65625" xlink:href="#DejaVuSans-99"/>
     <use x="1848.636719" xlink:href="#DejaVuSans-101"/>
     <use x="1910.160156" xlink:href="#DejaVuSans-32"/>
     <use x="1941.947266" xlink:href="#DejaVuSans-111"/>
     <use x="2003.128906" xlink:href="#DejaVuSans-110"/>
     <use x="2066.507812" xlink:href="#DejaVuSans-32"/>
     <use x="2098.294922" xlink:href="#DejaVuSans-107"/>
     <use x="2156.205078" xlink:href="#DejaVuSans-105"/>
     <use x="2183.988281" xlink:href="#DejaVuSans-108"/>
     <use x="2211.771484" xlink:href="#DejaVuSans-108"/>
     <use x="2239.554688" xlink:href="#DejaVuSans-101"/>
     <use x="2301.078125" xlink:href="#DejaVuSans-100"/>
     <use x="2364.554688" xlink:href="#DejaVuSans-32"/>
     <use x="2396.341797" xlink:href="#DejaVuSans-109"/>
     <use x="2493.753906" xlink:href="#DejaVuSans-117"/>
     <use x="2557.132812" xlink:href="#DejaVuSans-116"/>
     <use x="2596.341797" xlink:href="#DejaVuSans-97"/>
     <use x="2657.621094" xlink:href="#DejaVuSans-110"/>
     <use x="2721" xlink:href="#DejaVuSans-116"/>
     <use x="2760.208984" xlink:href="#DejaVuSans-32"/>
     <use x="2791.996094" xlink:href="#DejaVuSans-102"/>
     <use x="2827.201172" xlink:href="#DejaVuSans-111"/>
     <use x="2888.382812" xlink:href="#DejaVuSans-114"/>
     <use x="2929.496094" xlink:href="#DejaVuSans-32"/>
     <use x="2961.283203" xlink:href="#DejaVuSans-108"/>
     <use x="2989.066406" xlink:href="#DejaVuSans-105"/>
     <use x="3016.849609" xlink:href="#DejaVuSans-110"/>
     <use x="3080.228516" xlink:href="#DejaVuSans-107"/>
     <use x="3134.513672" xlink:href="#DejaVuSans-101"/>
     <use x="3196.037109" xlink:href="#DejaVuSans-100"/>
    </g>
   </g>
   <g id="legend_1">
    <g id="patch_183">
     <path d="M 1639.725 94.625 
L 1782.2 94.625 
Q 1784.2 94.625 1784.2 92.625 
L 1784.2 33.8 
Q 1784.2 31.8 1782.2 31.8 
L 1639.725 31.8 
Q 1637.725 31.8 1637.725 33.8 
L 1637.725 92.625 
Q 1637.725 94.625 1639.725 94.625 
z
" style="fill:#ffffff;opacity:0.8;stroke:#cccccc;stroke-linejoin:miter;"/>
    </g>
    <g id="patch_184">
     <path d="M 1641.725 43.398438 
L 1661.725 43.398438 
L 1661.725 36.398438 
L 1641.725 36.398438 
z
" style="fill:#1f77b4;"/>
    </g>
    <g id="text_55">
     <!-- bes_loops -->
     <defs>
      <path d="M 50.984375 -16.609375 
L 50.984375 -23.578125 
L -0.984375 -23.578125 
L -0.984375 -16.609375 
z
" id="DejaVuSans-95"/>
     </defs>
     <g transform="translate(1669.725 43.398438)scale(0.1 -0.1)">
      <use xlink:href="#DejaVuSans-98"/>
      <use x="63.476562" xlink:href="#DejaVuSans-101"/>
      <use x="125" xlink:href="#DejaVuSans-115"/>
      <use x="177.099609" xlink:href="#DejaVuSans-95"/>
      <use x="227.099609" xlink:href="#DejaVuSans-108"/>
      <use x="254.882812" xlink:href="#DejaVuSans-111"/>
      <use x="316.064453" xlink:href="#DejaVuSans-111"/>
      <use x="377.246094" xlink:href="#DejaVuSans-112"/>
      <use x="440.722656" xlink:href="#DejaVuSans-115"/>
     </g>
    </g>
    <g id="patch_185">
     <path d="M 1641.725 58.354688 
L 1661.725 58.354688 
L 1661.725 51.354688 
L 1641.725 51.354688 
z
" style="fill:#ff7f0e;"/>
    </g>
    <g id="text_56">
     <!-- random_loops -->
     <g transform="translate(1669.725 58.354688)scale(0.1 -0.1)">
      <use xlink:href="#DejaVuSans-114"/>
      <use x="41.113281" xlink:href="#DejaVuSans-97"/>
      <use x="102.392578" xlink:href="#DejaVuSans-110"/>
      <use x="165.771484" xlink:href="#DejaVuSans-100"/>
      <use x="229.248047" xlink:href="#DejaVuSans-111"/>
      <use x="290.429688" xlink:href="#DejaVuSans-109"/>
      <use x="387.841797" xlink:href="#DejaVuSans-95"/>
      <use x="437.841797" xlink:href="#DejaVuSans-108"/>
      <use x="465.625" xlink:href="#DejaVuSans-111"/>
      <use x="526.806641" xlink:href="#DejaVuSans-111"/>
      <use x="587.988281" xlink:href="#DejaVuSans-112"/>
      <use x="651.464844" xlink:href="#DejaVuSans-115"/>
     </g>
    </g>
    <g id="patch_186">
     <path d="M 1641.725 73.310938 
L 1661.725 73.310938 
L 1661.725 66.310938 
L 1641.725 66.310938 
z
" style="fill:#2ca02c;"/>
    </g>
    <g id="text_57">
     <!-- bes_no_self_loops -->
     <g transform="translate(1669.725 73.310938)scale(0.1 -0.1)">
      <use xlink:href="#DejaVuSans-98"/>
      <use x="63.476562" xlink:href="#DejaVuSans-101"/>
      <use x="125" xlink:href="#DejaVuSans-115"/>
      <use x="177.099609" xlink:href="#DejaVuSans-95"/>
      <use x="227.099609" xlink:href="#DejaVuSans-110"/>
      <use x="290.478516" xlink:href="#DejaVuSans-111"/>
      <use x="351.660156" xlink:href="#DejaVuSans-95"/>
      <use x="401.660156" xlink:href="#DejaVuSans-115"/>
      <use x="453.759766" xlink:href="#DejaVuSans-101"/>
      <use x="515.283203" xlink:href="#DejaVuSans-108"/>
      <use x="543.066406" xlink:href="#DejaVuSans-102"/>
      <use x="578.271484" xlink:href="#DejaVuSans-95"/>
      <use x="628.271484" xlink:href="#DejaVuSans-108"/>
      <use x="656.054688" xlink:href="#DejaVuSans-111"/>
      <use x="717.236328" xlink:href="#DejaVuSans-111"/>
      <use x="778.417969" xlink:href="#DejaVuSans-112"/>
      <use x="841.894531" xlink:href="#DejaVuSans-115"/>
     </g>
    </g>
    <g id="patch_187">
     <path d="M 1641.725 88.267187 
L 1661.725 88.267187 
L 1661.725 81.267187 
L 1641.725 81.267187 
z
" style="fill:#d62728;"/>
    </g>
    <g id="text_58">
     <!-- random_no_self_loops -->
     <g transform="translate(1669.725 88.267187)scale(0.1 -0.1)">
      <use xlink:href="#DejaVuSans-114"/>
      <use x="41.113281" xlink:href="#DejaVuSans-97"/>
      <use x="102.392578" xlink:href="#DejaVuSans-110"/>
      <use x="165.771484" xlink:href="#DejaVuSans-100"/>
      <use x="229.248047" xlink:href="#DejaVuSans-111"/>
      <use x="290.429688" xlink:href="#DejaVuSans-109"/>
      <use x="387.841797" xlink:href="#DejaVuSans-95"/>
      <use x="437.841797" xlink:href="#DejaVuSans-110"/>
      <use x="501.220703" xlink:href="#DejaVuSans-111"/>
      <use x="562.402344" xlink:href="#DejaVuSans-95"/>
      <use x="612.402344" xlink:href="#DejaVuSans-115"/>
      <use x="664.501953" xlink:href="#DejaVuSans-101"/>
      <use x="726.025391" xlink:href="#DejaVuSans-108"/>
      <use x="753.808594" xlink:href="#DejaVuSans-102"/>
      <use x="789.013672" xlink:href="#DejaVuSans-95"/>
      <use x="839.013672" xlink:href="#DejaVuSans-108"/>
      <use x="866.796875" xlink:href="#DejaVuSans-111"/>
      <use x="927.978516" xlink:href="#DejaVuSans-111"/>
      <use x="989.160156" xlink:href="#DejaVuSans-112"/>
      <use x="1052.636719" xlink:href="#DejaVuSans-115"/>
     </g>
    </g>
   </g>
  </g>
 </g>
 <defs>
  <clipPath id="pb15e64198b">
   <rect height="291.4" width="1741.4" x="47.8" y="26.8"/>
  </clipPath>
 </defs>
</svg>
