<?xml version="1.0" encoding="utf-8" standalone="no"?>
<!DOCTYPE svg PUBLIC "-//W3C//DTD SVG 1.1//EN"
  "http://www.w3.org/Graphics/SVG/1.1/DTD/svg11.dtd">
<!-- Created with matplotlib (https://matplotlib.org/) -->
<svg height="360pt" version="1.1" viewBox="0 0 1008 360" width="1008pt" xmlns="http://www.w3.org/2000/svg" xmlns:xlink="http://www.w3.org/1999/xlink">
 <defs>
  <style type="text/css">
*{stroke-linecap:butt;stroke-linejoin:round;}
  </style>
 </defs>
 <g id="figure_1">
  <g id="patch_1">
   <path d="M 0 360 
L 1008 360 
L 1008 0 
L 0 0 
z
" style="fill:#ffffff;"/>
  </g>
  <g id="axes_1">
   <g id="patch_2">
    <path d="M 126 315 
L 410.072727 315 
L 410.072727 43.2 
L 126 43.2 
z
" style="fill:#ffffff;"/>
   </g>
   <g id="matplotlib.axis_1">
    <g id="xtick_1">
     <g id="line2d_1">
      <path clip-path="url(#p5c79d0c549)" d="M 138.912397 315 
L 138.912397 43.2 
" style="fill:none;stroke:#b0b0b0;stroke-linecap:square;stroke-width:0.8;"/>
     </g>
     <g id="line2d_2">
      <defs>
       <path d="M 0 0 
L 0 3.5 
" id="m8f0c65cf3c" style="stroke:#000000;stroke-width:0.8;"/>
      </defs>
      <g>
       <use style="stroke:#000000;stroke-width:0.8;" x="138.912397" xlink:href="#m8f0c65cf3c" y="315"/>
      </g>
     </g>
     <g id="text_1">
      <!-- 1 -->
      <defs>
       <path d="M 12.40625 8.296875 
L 28.515625 8.296875 
L 28.515625 63.921875 
L 10.984375 60.40625 
L 10.984375 69.390625 
L 28.421875 72.90625 
L 38.28125 72.90625 
L 38.28125 8.296875 
L 54.390625 8.296875 
L 54.390625 0 
L 12.40625 0 
z
" id="DejaVuSans-49"/>
      </defs>
      <g transform="translate(135.731147 329.598437)scale(0.1 -0.1)">
       <use xlink:href="#DejaVuSans-49"/>
      </g>
     </g>
    </g>
    <g id="xtick_2">
     <g id="line2d_3">
      <path clip-path="url(#p5c79d0c549)" d="M 164.73719 315 
L 164.73719 43.2 
" style="fill:none;stroke:#b0b0b0;stroke-linecap:square;stroke-width:0.8;"/>
     </g>
     <g id="line2d_4">
      <g>
       <use style="stroke:#000000;stroke-width:0.8;" x="164.73719" xlink:href="#m8f0c65cf3c" y="315"/>
      </g>
     </g>
     <g id="text_2">
      <!-- 2 -->
      <defs>
       <path d="M 19.1875 8.296875 
L 53.609375 8.296875 
L 53.609375 0 
L 7.328125 0 
L 7.328125 8.296875 
Q 12.9375 14.109375 22.625 23.890625 
Q 32.328125 33.6875 34.8125 36.53125 
Q 39.546875 41.84375 41.421875 45.53125 
Q 43.3125 49.21875 43.3125 52.78125 
Q 43.3125 58.59375 39.234375 62.25 
Q 35.15625 65.921875 28.609375 65.921875 
Q 23.96875 65.921875 18.8125 64.3125 
Q 13.671875 62.703125 7.8125 59.421875 
L 7.8125 69.390625 
Q 13.765625 71.78125 18.9375 73 
Q 24.125 74.21875 28.421875 74.21875 
Q 39.75 74.21875 46.484375 68.546875 
Q 53.21875 62.890625 53.21875 53.421875 
Q 53.21875 48.921875 51.53125 44.890625 
Q 49.859375 40.875 45.40625 35.40625 
Q 44.1875 33.984375 37.640625 27.21875 
Q 31.109375 20.453125 19.1875 8.296875 
z
" id="DejaVuSans-50"/>
      </defs>
      <g transform="translate(161.55594 329.598437)scale(0.1 -0.1)">
       <use xlink:href="#DejaVuSans-50"/>
      </g>
     </g>
    </g>
    <g id="xtick_3">
     <g id="line2d_5">
      <path clip-path="url(#p5c79d0c549)" d="M 190.561983 315 
L 190.561983 43.2 
" style="fill:none;stroke:#b0b0b0;stroke-linecap:square;stroke-width:0.8;"/>
     </g>
     <g id="line2d_6">
      <g>
       <use style="stroke:#000000;stroke-width:0.8;" x="190.561983" xlink:href="#m8f0c65cf3c" y="315"/>
      </g>
     </g>
     <g id="text_3">
      <!-- 3 -->
      <defs>
       <path d="M 40.578125 39.3125 
Q 47.65625 37.796875 51.625 33 
Q 55.609375 28.21875 55.609375 21.1875 
Q 55.609375 10.40625 48.1875 4.484375 
Q 40.765625 -1.421875 27.09375 -1.421875 
Q 22.515625 -1.421875 17.65625 -0.515625 
Q 12.796875 0.390625 7.625 2.203125 
L 7.625 11.71875 
Q 11.71875 9.328125 16.59375 8.109375 
Q 21.484375 6.890625 26.8125 6.890625 
Q 36.078125 6.890625 40.9375 10.546875 
Q 45.796875 14.203125 45.796875 21.1875 
Q 45.796875 27.640625 41.28125 31.265625 
Q 36.765625 34.90625 28.71875 34.90625 
L 20.21875 34.90625 
L 20.21875 43.015625 
L 29.109375 43.015625 
Q 36.375 43.015625 40.234375 45.921875 
Q 44.09375 48.828125 44.09375 54.296875 
Q 44.09375 59.90625 40.109375 62.90625 
Q 36.140625 65.921875 28.71875 65.921875 
Q 24.65625 65.921875 20.015625 65.03125 
Q 15.375 64.15625 9.8125 62.3125 
L 9.8125 71.09375 
Q 15.4375 72.65625 20.34375 73.4375 
Q 25.25 74.21875 29.59375 74.21875 
Q 40.828125 74.21875 47.359375 69.109375 
Q 53.90625 64.015625 53.90625 55.328125 
Q 53.90625 49.265625 50.4375 45.09375 
Q 46.96875 40.921875 40.578125 39.3125 
z
" id="DejaVuSans-51"/>
      </defs>
      <g transform="translate(187.380733 329.598437)scale(0.1 -0.1)">
       <use xlink:href="#DejaVuSans-51"/>
      </g>
     </g>
    </g>
    <g id="xtick_4">
     <g id="line2d_7">
      <path clip-path="url(#p5c79d0c549)" d="M 216.386777 315 
L 216.386777 43.2 
" style="fill:none;stroke:#b0b0b0;stroke-linecap:square;stroke-width:0.8;"/>
     </g>
     <g id="line2d_8">
      <g>
       <use style="stroke:#000000;stroke-width:0.8;" x="216.386777" xlink:href="#m8f0c65cf3c" y="315"/>
      </g>
     </g>
     <g id="text_4">
      <!-- 4 -->
      <defs>
       <path d="M 37.796875 64.3125 
L 12.890625 25.390625 
L 37.796875 25.390625 
z
M 35.203125 72.90625 
L 47.609375 72.90625 
L 47.609375 25.390625 
L 58.015625 25.390625 
L 58.015625 17.1875 
L 47.609375 17.1875 
L 47.609375 0 
L 37.796875 0 
L 37.796875 17.1875 
L 4.890625 17.1875 
L 4.890625 26.703125 
z
" id="DejaVuSans-52"/>
      </defs>
      <g transform="translate(213.205527 329.598437)scale(0.1 -0.1)">
       <use xlink:href="#DejaVuSans-52"/>
      </g>
     </g>
    </g>
    <g id="xtick_5">
     <g id="line2d_9">
      <path clip-path="url(#p5c79d0c549)" d="M 242.21157 315 
L 242.21157 43.2 
" style="fill:none;stroke:#b0b0b0;stroke-linecap:square;stroke-width:0.8;"/>
     </g>
     <g id="line2d_10">
      <g>
       <use style="stroke:#000000;stroke-width:0.8;" x="242.21157" xlink:href="#m8f0c65cf3c" y="315"/>
      </g>
     </g>
     <g id="text_5">
      <!-- 5 -->
      <defs>
       <path d="M 10.796875 72.90625 
L 49.515625 72.90625 
L 49.515625 64.59375 
L 19.828125 64.59375 
L 19.828125 46.734375 
Q 21.96875 47.46875 24.109375 47.828125 
Q 26.265625 48.1875 28.421875 48.1875 
Q 40.625 48.1875 47.75 41.5 
Q 54.890625 34.8125 54.890625 23.390625 
Q 54.890625 11.625 47.5625 5.09375 
Q 40.234375 -1.421875 26.90625 -1.421875 
Q 22.3125 -1.421875 17.546875 -0.640625 
Q 12.796875 0.140625 7.71875 1.703125 
L 7.71875 11.625 
Q 12.109375 9.234375 16.796875 8.0625 
Q 21.484375 6.890625 26.703125 6.890625 
Q 35.15625 6.890625 40.078125 11.328125 
Q 45.015625 15.765625 45.015625 23.390625 
Q 45.015625 31 40.078125 35.4375 
Q 35.15625 39.890625 26.703125 39.890625 
Q 22.75 39.890625 18.8125 39.015625 
Q 14.890625 38.140625 10.796875 36.28125 
z
" id="DejaVuSans-53"/>
      </defs>
      <g transform="translate(239.03032 329.598437)scale(0.1 -0.1)">
       <use xlink:href="#DejaVuSans-53"/>
      </g>
     </g>
    </g>
    <g id="xtick_6">
     <g id="line2d_11">
      <path clip-path="url(#p5c79d0c549)" d="M 268.036364 315 
L 268.036364 43.2 
" style="fill:none;stroke:#b0b0b0;stroke-linecap:square;stroke-width:0.8;"/>
     </g>
     <g id="line2d_12">
      <g>
       <use style="stroke:#000000;stroke-width:0.8;" x="268.036364" xlink:href="#m8f0c65cf3c" y="315"/>
      </g>
     </g>
     <g id="text_6">
      <!-- 6 -->
      <defs>
       <path d="M 33.015625 40.375 
Q 26.375 40.375 22.484375 35.828125 
Q 18.609375 31.296875 18.609375 23.390625 
Q 18.609375 15.53125 22.484375 10.953125 
Q 26.375 6.390625 33.015625 6.390625 
Q 39.65625 6.390625 43.53125 10.953125 
Q 47.40625 15.53125 47.40625 23.390625 
Q 47.40625 31.296875 43.53125 35.828125 
Q 39.65625 40.375 33.015625 40.375 
z
M 52.59375 71.296875 
L 52.59375 62.3125 
Q 48.875 64.0625 45.09375 64.984375 
Q 41.3125 65.921875 37.59375 65.921875 
Q 27.828125 65.921875 22.671875 59.328125 
Q 17.53125 52.734375 16.796875 39.40625 
Q 19.671875 43.65625 24.015625 45.921875 
Q 28.375 48.1875 33.59375 48.1875 
Q 44.578125 48.1875 50.953125 41.515625 
Q 57.328125 34.859375 57.328125 23.390625 
Q 57.328125 12.15625 50.6875 5.359375 
Q 44.046875 -1.421875 33.015625 -1.421875 
Q 20.359375 -1.421875 13.671875 8.265625 
Q 6.984375 17.96875 6.984375 36.375 
Q 6.984375 53.65625 15.1875 63.9375 
Q 23.390625 74.21875 37.203125 74.21875 
Q 40.921875 74.21875 44.703125 73.484375 
Q 48.484375 72.75 52.59375 71.296875 
z
" id="DejaVuSans-54"/>
      </defs>
      <g transform="translate(264.855114 329.598437)scale(0.1 -0.1)">
       <use xlink:href="#DejaVuSans-54"/>
      </g>
     </g>
    </g>
    <g id="xtick_7">
     <g id="line2d_13">
      <path clip-path="url(#p5c79d0c549)" d="M 293.861157 315 
L 293.861157 43.2 
" style="fill:none;stroke:#b0b0b0;stroke-linecap:square;stroke-width:0.8;"/>
     </g>
     <g id="line2d_14">
      <g>
       <use style="stroke:#000000;stroke-width:0.8;" x="293.861157" xlink:href="#m8f0c65cf3c" y="315"/>
      </g>
     </g>
     <g id="text_7">
      <!-- 7 -->
      <defs>
       <path d="M 8.203125 72.90625 
L 55.078125 72.90625 
L 55.078125 68.703125 
L 28.609375 0 
L 18.3125 0 
L 43.21875 64.59375 
L 8.203125 64.59375 
z
" id="DejaVuSans-55"/>
      </defs>
      <g transform="translate(290.679907 329.598437)scale(0.1 -0.1)">
       <use xlink:href="#DejaVuSans-55"/>
      </g>
     </g>
    </g>
    <g id="xtick_8">
     <g id="line2d_15">
      <path clip-path="url(#p5c79d0c549)" d="M 319.68595 315 
L 319.68595 43.2 
" style="fill:none;stroke:#b0b0b0;stroke-linecap:square;stroke-width:0.8;"/>
     </g>
     <g id="line2d_16">
      <g>
       <use style="stroke:#000000;stroke-width:0.8;" x="319.68595" xlink:href="#m8f0c65cf3c" y="315"/>
      </g>
     </g>
     <g id="text_8">
      <!-- 8 -->
      <defs>
       <path d="M 31.78125 34.625 
Q 24.75 34.625 20.71875 30.859375 
Q 16.703125 27.09375 16.703125 20.515625 
Q 16.703125 13.921875 20.71875 10.15625 
Q 24.75 6.390625 31.78125 6.390625 
Q 38.8125 6.390625 42.859375 10.171875 
Q 46.921875 13.96875 46.921875 20.515625 
Q 46.921875 27.09375 42.890625 30.859375 
Q 38.875 34.625 31.78125 34.625 
z
M 21.921875 38.8125 
Q 15.578125 40.375 12.03125 44.71875 
Q 8.5 49.078125 8.5 55.328125 
Q 8.5 64.0625 14.71875 69.140625 
Q 20.953125 74.21875 31.78125 74.21875 
Q 42.671875 74.21875 48.875 69.140625 
Q 55.078125 64.0625 55.078125 55.328125 
Q 55.078125 49.078125 51.53125 44.71875 
Q 48 40.375 41.703125 38.8125 
Q 48.828125 37.15625 52.796875 32.3125 
Q 56.78125 27.484375 56.78125 20.515625 
Q 56.78125 9.90625 50.3125 4.234375 
Q 43.84375 -1.421875 31.78125 -1.421875 
Q 19.734375 -1.421875 13.25 4.234375 
Q 6.78125 9.90625 6.78125 20.515625 
Q 6.78125 27.484375 10.78125 32.3125 
Q 14.796875 37.15625 21.921875 38.8125 
z
M 18.3125 54.390625 
Q 18.3125 48.734375 21.84375 45.5625 
Q 25.390625 42.390625 31.78125 42.390625 
Q 38.140625 42.390625 41.71875 45.5625 
Q 45.3125 48.734375 45.3125 54.390625 
Q 45.3125 60.0625 41.71875 63.234375 
Q 38.140625 66.40625 31.78125 66.40625 
Q 25.390625 66.40625 21.84375 63.234375 
Q 18.3125 60.0625 18.3125 54.390625 
z
" id="DejaVuSans-56"/>
      </defs>
      <g transform="translate(316.5047 329.598437)scale(0.1 -0.1)">
       <use xlink:href="#DejaVuSans-56"/>
      </g>
     </g>
    </g>
    <g id="xtick_9">
     <g id="line2d_17">
      <path clip-path="url(#p5c79d0c549)" d="M 345.510744 315 
L 345.510744 43.2 
" style="fill:none;stroke:#b0b0b0;stroke-linecap:square;stroke-width:0.8;"/>
     </g>
     <g id="line2d_18">
      <g>
       <use style="stroke:#000000;stroke-width:0.8;" x="345.510744" xlink:href="#m8f0c65cf3c" y="315"/>
      </g>
     </g>
     <g id="text_9">
      <!-- 9 -->
      <defs>
       <path d="M 10.984375 1.515625 
L 10.984375 10.5 
Q 14.703125 8.734375 18.5 7.8125 
Q 22.3125 6.890625 25.984375 6.890625 
Q 35.75 6.890625 40.890625 13.453125 
Q 46.046875 20.015625 46.78125 33.40625 
Q 43.953125 29.203125 39.59375 26.953125 
Q 35.25 24.703125 29.984375 24.703125 
Q 19.046875 24.703125 12.671875 31.3125 
Q 6.296875 37.9375 6.296875 49.421875 
Q 6.296875 60.640625 12.9375 67.421875 
Q 19.578125 74.21875 30.609375 74.21875 
Q 43.265625 74.21875 49.921875 64.515625 
Q 56.59375 54.828125 56.59375 36.375 
Q 56.59375 19.140625 48.40625 8.859375 
Q 40.234375 -1.421875 26.421875 -1.421875 
Q 22.703125 -1.421875 18.890625 -0.6875 
Q 15.09375 0.046875 10.984375 1.515625 
z
M 30.609375 32.421875 
Q 37.25 32.421875 41.125 36.953125 
Q 45.015625 41.5 45.015625 49.421875 
Q 45.015625 57.28125 41.125 61.84375 
Q 37.25 66.40625 30.609375 66.40625 
Q 23.96875 66.40625 20.09375 61.84375 
Q 16.21875 57.28125 16.21875 49.421875 
Q 16.21875 41.5 20.09375 36.953125 
Q 23.96875 32.421875 30.609375 32.421875 
z
" id="DejaVuSans-57"/>
      </defs>
      <g transform="translate(342.329494 329.598437)scale(0.1 -0.1)">
       <use xlink:href="#DejaVuSans-57"/>
      </g>
     </g>
    </g>
    <g id="xtick_10">
     <g id="line2d_19">
      <path clip-path="url(#p5c79d0c549)" d="M 371.335537 315 
L 371.335537 43.2 
" style="fill:none;stroke:#b0b0b0;stroke-linecap:square;stroke-width:0.8;"/>
     </g>
     <g id="line2d_20">
      <g>
       <use style="stroke:#000000;stroke-width:0.8;" x="371.335537" xlink:href="#m8f0c65cf3c" y="315"/>
      </g>
     </g>
     <g id="text_10">
      <!-- 10 -->
      <defs>
       <path d="M 31.78125 66.40625 
Q 24.171875 66.40625 20.328125 58.90625 
Q 16.5 51.421875 16.5 36.375 
Q 16.5 21.390625 20.328125 13.890625 
Q 24.171875 6.390625 31.78125 6.390625 
Q 39.453125 6.390625 43.28125 13.890625 
Q 47.125 21.390625 47.125 36.375 
Q 47.125 51.421875 43.28125 58.90625 
Q 39.453125 66.40625 31.78125 66.40625 
z
M 31.78125 74.21875 
Q 44.046875 74.21875 50.515625 64.515625 
Q 56.984375 54.828125 56.984375 36.375 
Q 56.984375 17.96875 50.515625 8.265625 
Q 44.046875 -1.421875 31.78125 -1.421875 
Q 19.53125 -1.421875 13.0625 8.265625 
Q 6.59375 17.96875 6.59375 36.375 
Q 6.59375 54.828125 13.0625 64.515625 
Q 19.53125 74.21875 31.78125 74.21875 
z
" id="DejaVuSans-48"/>
      </defs>
      <g transform="translate(364.973037 329.598437)scale(0.1 -0.1)">
       <use xlink:href="#DejaVuSans-49"/>
       <use x="63.623047" xlink:href="#DejaVuSans-48"/>
      </g>
     </g>
    </g>
    <g id="xtick_11">
     <g id="line2d_21">
      <path clip-path="url(#p5c79d0c549)" d="M 397.160331 315 
L 397.160331 43.2 
" style="fill:none;stroke:#b0b0b0;stroke-linecap:square;stroke-width:0.8;"/>
     </g>
     <g id="line2d_22">
      <g>
       <use style="stroke:#000000;stroke-width:0.8;" x="397.160331" xlink:href="#m8f0c65cf3c" y="315"/>
      </g>
     </g>
     <g id="text_11">
      <!-- 11 -->
      <g transform="translate(390.797831 329.598437)scale(0.1 -0.1)">
       <use xlink:href="#DejaVuSans-49"/>
       <use x="63.623047" xlink:href="#DejaVuSans-49"/>
      </g>
     </g>
    </g>
    <g id="text_12">
     <!-- Depths -->
     <defs>
      <path d="M 19.671875 64.796875 
L 19.671875 8.109375 
L 31.59375 8.109375 
Q 46.6875 8.109375 53.6875 14.9375 
Q 60.6875 21.78125 60.6875 36.53125 
Q 60.6875 51.171875 53.6875 57.984375 
Q 46.6875 64.796875 31.59375 64.796875 
z
M 9.8125 72.90625 
L 30.078125 72.90625 
Q 51.265625 72.90625 61.171875 64.09375 
Q 71.09375 55.28125 71.09375 36.53125 
Q 71.09375 17.671875 61.125 8.828125 
Q 51.171875 0 30.078125 0 
L 9.8125 0 
z
" id="DejaVuSans-68"/>
      <path d="M 56.203125 29.59375 
L 56.203125 25.203125 
L 14.890625 25.203125 
Q 15.484375 15.921875 20.484375 11.0625 
Q 25.484375 6.203125 34.421875 6.203125 
Q 39.59375 6.203125 44.453125 7.46875 
Q 49.3125 8.734375 54.109375 11.28125 
L 54.109375 2.78125 
Q 49.265625 0.734375 44.1875 -0.34375 
Q 39.109375 -1.421875 33.890625 -1.421875 
Q 20.796875 -1.421875 13.15625 6.1875 
Q 5.515625 13.8125 5.515625 26.8125 
Q 5.515625 40.234375 12.765625 48.109375 
Q 20.015625 56 32.328125 56 
Q 43.359375 56 49.78125 48.890625 
Q 56.203125 41.796875 56.203125 29.59375 
z
M 47.21875 32.234375 
Q 47.125 39.59375 43.09375 43.984375 
Q 39.0625 48.390625 32.421875 48.390625 
Q 24.90625 48.390625 20.390625 44.140625 
Q 15.875 39.890625 15.1875 32.171875 
z
" id="DejaVuSans-101"/>
      <path d="M 18.109375 8.203125 
L 18.109375 -20.796875 
L 9.078125 -20.796875 
L 9.078125 54.6875 
L 18.109375 54.6875 
L 18.109375 46.390625 
Q 20.953125 51.265625 25.265625 53.625 
Q 29.59375 56 35.59375 56 
Q 45.5625 56 51.78125 48.09375 
Q 58.015625 40.1875 58.015625 27.296875 
Q 58.015625 14.40625 51.78125 6.484375 
Q 45.5625 -1.421875 35.59375 -1.421875 
Q 29.59375 -1.421875 25.265625 0.953125 
Q 20.953125 3.328125 18.109375 8.203125 
z
M 48.6875 27.296875 
Q 48.6875 37.203125 44.609375 42.84375 
Q 40.53125 48.484375 33.40625 48.484375 
Q 26.265625 48.484375 22.1875 42.84375 
Q 18.109375 37.203125 18.109375 27.296875 
Q 18.109375 17.390625 22.1875 11.75 
Q 26.265625 6.109375 33.40625 6.109375 
Q 40.53125 6.109375 44.609375 11.75 
Q 48.6875 17.390625 48.6875 27.296875 
z
" id="DejaVuSans-112"/>
      <path d="M 18.3125 70.21875 
L 18.3125 54.6875 
L 36.8125 54.6875 
L 36.8125 47.703125 
L 18.3125 47.703125 
L 18.3125 18.015625 
Q 18.3125 11.328125 20.140625 9.421875 
Q 21.96875 7.515625 27.59375 7.515625 
L 36.8125 7.515625 
L 36.8125 0 
L 27.59375 0 
Q 17.1875 0 13.234375 3.875 
Q 9.28125 7.765625 9.28125 18.015625 
L 9.28125 47.703125 
L 2.6875 47.703125 
L 2.6875 54.6875 
L 9.28125 54.6875 
L 9.28125 70.21875 
z
" id="DejaVuSans-116"/>
      <path d="M 54.890625 33.015625 
L 54.890625 0 
L 45.90625 0 
L 45.90625 32.71875 
Q 45.90625 40.484375 42.875 44.328125 
Q 39.84375 48.1875 33.796875 48.1875 
Q 26.515625 48.1875 22.3125 43.546875 
Q 18.109375 38.921875 18.109375 30.90625 
L 18.109375 0 
L 9.078125 0 
L 9.078125 75.984375 
L 18.109375 75.984375 
L 18.109375 46.1875 
Q 21.34375 51.125 25.703125 53.5625 
Q 30.078125 56 35.796875 56 
Q 45.21875 56 50.046875 50.171875 
Q 54.890625 44.34375 54.890625 33.015625 
z
" id="DejaVuSans-104"/>
      <path d="M 44.28125 53.078125 
L 44.28125 44.578125 
Q 40.484375 46.53125 36.375 47.5 
Q 32.28125 48.484375 27.875 48.484375 
Q 21.1875 48.484375 17.84375 46.4375 
Q 14.5 44.390625 14.5 40.28125 
Q 14.5 37.15625 16.890625 35.375 
Q 19.28125 33.59375 26.515625 31.984375 
L 29.59375 31.296875 
Q 39.15625 29.25 43.1875 25.515625 
Q 47.21875 21.78125 47.21875 15.09375 
Q 47.21875 7.46875 41.1875 3.015625 
Q 35.15625 -1.421875 24.609375 -1.421875 
Q 20.21875 -1.421875 15.453125 -0.5625 
Q 10.6875 0.296875 5.421875 2 
L 5.421875 11.28125 
Q 10.40625 8.6875 15.234375 7.390625 
Q 20.0625 6.109375 24.8125 6.109375 
Q 31.15625 6.109375 34.5625 8.28125 
Q 37.984375 10.453125 37.984375 14.40625 
Q 37.984375 18.0625 35.515625 20.015625 
Q 33.0625 21.96875 24.703125 23.78125 
L 21.578125 24.515625 
Q 13.234375 26.265625 9.515625 29.90625 
Q 5.8125 33.546875 5.8125 39.890625 
Q 5.8125 47.609375 11.28125 51.796875 
Q 16.75 56 26.8125 56 
Q 31.78125 56 36.171875 55.265625 
Q 40.578125 54.546875 44.28125 53.078125 
z
" id="DejaVuSans-115"/>
     </defs>
     <g transform="translate(250.201989 343.276563)scale(0.1 -0.1)">
      <use xlink:href="#DejaVuSans-68"/>
      <use x="77.001953" xlink:href="#DejaVuSans-101"/>
      <use x="138.525391" xlink:href="#DejaVuSans-112"/>
      <use x="202.001953" xlink:href="#DejaVuSans-116"/>
      <use x="241.210938" xlink:href="#DejaVuSans-104"/>
      <use x="304.589844" xlink:href="#DejaVuSans-115"/>
     </g>
    </g>
   </g>
   <g id="matplotlib.axis_2">
    <g id="ytick_1">
     <g id="line2d_23">
      <path clip-path="url(#p5c79d0c549)" d="M 126 303.512788 
L 410.072727 303.512788 
" style="fill:none;stroke:#b0b0b0;stroke-linecap:square;stroke-width:0.8;"/>
     </g>
     <g id="line2d_24">
      <defs>
       <path d="M 0 0 
L -3.5 0 
" id="m29df4e8ae4" style="stroke:#000000;stroke-width:0.8;"/>
      </defs>
      <g>
       <use style="stroke:#000000;stroke-width:0.8;" x="126" xlink:href="#m29df4e8ae4" y="303.512788"/>
      </g>
     </g>
     <g id="text_13">
      <!-- 0 -->
      <g transform="translate(112.6375 307.312007)scale(0.1 -0.1)">
       <use xlink:href="#DejaVuSans-48"/>
      </g>
     </g>
    </g>
    <g id="ytick_2">
     <g id="line2d_25">
      <path clip-path="url(#p5c79d0c549)" d="M 126 252.117752 
L 410.072727 252.117752 
" style="fill:none;stroke:#b0b0b0;stroke-linecap:square;stroke-width:0.8;"/>
     </g>
     <g id="line2d_26">
      <g>
       <use style="stroke:#000000;stroke-width:0.8;" x="126" xlink:href="#m29df4e8ae4" y="252.117752"/>
      </g>
     </g>
     <g id="text_14">
      <!-- 50 -->
      <g transform="translate(106.275 255.916971)scale(0.1 -0.1)">
       <use xlink:href="#DejaVuSans-53"/>
       <use x="63.623047" xlink:href="#DejaVuSans-48"/>
      </g>
     </g>
    </g>
    <g id="ytick_3">
     <g id="line2d_27">
      <path clip-path="url(#p5c79d0c549)" d="M 126 200.722716 
L 410.072727 200.722716 
" style="fill:none;stroke:#b0b0b0;stroke-linecap:square;stroke-width:0.8;"/>
     </g>
     <g id="line2d_28">
      <g>
       <use style="stroke:#000000;stroke-width:0.8;" x="126" xlink:href="#m29df4e8ae4" y="200.722716"/>
      </g>
     </g>
     <g id="text_15">
      <!-- 100 -->
      <g transform="translate(99.9125 204.521935)scale(0.1 -0.1)">
       <use xlink:href="#DejaVuSans-49"/>
       <use x="63.623047" xlink:href="#DejaVuSans-48"/>
       <use x="127.246094" xlink:href="#DejaVuSans-48"/>
      </g>
     </g>
    </g>
    <g id="ytick_4">
     <g id="line2d_29">
      <path clip-path="url(#p5c79d0c549)" d="M 126 149.32768 
L 410.072727 149.32768 
" style="fill:none;stroke:#b0b0b0;stroke-linecap:square;stroke-width:0.8;"/>
     </g>
     <g id="line2d_30">
      <g>
       <use style="stroke:#000000;stroke-width:0.8;" x="126" xlink:href="#m29df4e8ae4" y="149.32768"/>
      </g>
     </g>
     <g id="text_16">
      <!-- 150 -->
      <g transform="translate(99.9125 153.126899)scale(0.1 -0.1)">
       <use xlink:href="#DejaVuSans-49"/>
       <use x="63.623047" xlink:href="#DejaVuSans-53"/>
       <use x="127.246094" xlink:href="#DejaVuSans-48"/>
      </g>
     </g>
    </g>
    <g id="ytick_5">
     <g id="line2d_31">
      <path clip-path="url(#p5c79d0c549)" d="M 126 97.932644 
L 410.072727 97.932644 
" style="fill:none;stroke:#b0b0b0;stroke-linecap:square;stroke-width:0.8;"/>
     </g>
     <g id="line2d_32">
      <g>
       <use style="stroke:#000000;stroke-width:0.8;" x="126" xlink:href="#m29df4e8ae4" y="97.932644"/>
      </g>
     </g>
     <g id="text_17">
      <!-- 200 -->
      <g transform="translate(99.9125 101.731863)scale(0.1 -0.1)">
       <use xlink:href="#DejaVuSans-50"/>
       <use x="63.623047" xlink:href="#DejaVuSans-48"/>
       <use x="127.246094" xlink:href="#DejaVuSans-48"/>
      </g>
     </g>
    </g>
    <g id="ytick_6">
     <g id="line2d_33">
      <path clip-path="url(#p5c79d0c549)" d="M 126 46.537608 
L 410.072727 46.537608 
" style="fill:none;stroke:#b0b0b0;stroke-linecap:square;stroke-width:0.8;"/>
     </g>
     <g id="line2d_34">
      <g>
       <use style="stroke:#000000;stroke-width:0.8;" x="126" xlink:href="#m29df4e8ae4" y="46.537608"/>
      </g>
     </g>
     <g id="text_18">
      <!-- 250 -->
      <g transform="translate(99.9125 50.336827)scale(0.1 -0.1)">
       <use xlink:href="#DejaVuSans-50"/>
       <use x="63.623047" xlink:href="#DejaVuSans-53"/>
       <use x="127.246094" xlink:href="#DejaVuSans-48"/>
      </g>
     </g>
    </g>
    <g id="text_19">
     <!-- Time taken -->
     <defs>
      <path d="M -0.296875 72.90625 
L 61.375 72.90625 
L 61.375 64.59375 
L 35.5 64.59375 
L 35.5 0 
L 25.59375 0 
L 25.59375 64.59375 
L -0.296875 64.59375 
z
" id="DejaVuSans-84"/>
      <path d="M 9.421875 54.6875 
L 18.40625 54.6875 
L 18.40625 0 
L 9.421875 0 
z
M 9.421875 75.984375 
L 18.40625 75.984375 
L 18.40625 64.59375 
L 9.421875 64.59375 
z
" id="DejaVuSans-105"/>
      <path d="M 52 44.1875 
Q 55.375 50.25 60.0625 53.125 
Q 64.75 56 71.09375 56 
Q 79.640625 56 84.28125 50.015625 
Q 88.921875 44.046875 88.921875 33.015625 
L 88.921875 0 
L 79.890625 0 
L 79.890625 32.71875 
Q 79.890625 40.578125 77.09375 44.375 
Q 74.3125 48.1875 68.609375 48.1875 
Q 61.625 48.1875 57.5625 43.546875 
Q 53.515625 38.921875 53.515625 30.90625 
L 53.515625 0 
L 44.484375 0 
L 44.484375 32.71875 
Q 44.484375 40.625 41.703125 44.40625 
Q 38.921875 48.1875 33.109375 48.1875 
Q 26.21875 48.1875 22.15625 43.53125 
Q 18.109375 38.875 18.109375 30.90625 
L 18.109375 0 
L 9.078125 0 
L 9.078125 54.6875 
L 18.109375 54.6875 
L 18.109375 46.1875 
Q 21.1875 51.21875 25.484375 53.609375 
Q 29.78125 56 35.6875 56 
Q 41.65625 56 45.828125 52.96875 
Q 50 49.953125 52 44.1875 
z
" id="DejaVuSans-109"/>
      <path id="DejaVuSans-32"/>
      <path d="M 34.28125 27.484375 
Q 23.390625 27.484375 19.1875 25 
Q 14.984375 22.515625 14.984375 16.5 
Q 14.984375 11.71875 18.140625 8.90625 
Q 21.296875 6.109375 26.703125 6.109375 
Q 34.1875 6.109375 38.703125 11.40625 
Q 43.21875 16.703125 43.21875 25.484375 
L 43.21875 27.484375 
z
M 52.203125 31.203125 
L 52.203125 0 
L 43.21875 0 
L 43.21875 8.296875 
Q 40.140625 3.328125 35.546875 0.953125 
Q 30.953125 -1.421875 24.3125 -1.421875 
Q 15.921875 -1.421875 10.953125 3.296875 
Q 6 8.015625 6 15.921875 
Q 6 25.140625 12.171875 29.828125 
Q 18.359375 34.515625 30.609375 34.515625 
L 43.21875 34.515625 
L 43.21875 35.40625 
Q 43.21875 41.609375 39.140625 45 
Q 35.0625 48.390625 27.6875 48.390625 
Q 23 48.390625 18.546875 47.265625 
Q 14.109375 46.140625 10.015625 43.890625 
L 10.015625 52.203125 
Q 14.9375 54.109375 19.578125 55.046875 
Q 24.21875 56 28.609375 56 
Q 40.484375 56 46.34375 49.84375 
Q 52.203125 43.703125 52.203125 31.203125 
z
" id="DejaVuSans-97"/>
      <path d="M 9.078125 75.984375 
L 18.109375 75.984375 
L 18.109375 31.109375 
L 44.921875 54.6875 
L 56.390625 54.6875 
L 27.390625 29.109375 
L 57.625 0 
L 45.90625 0 
L 18.109375 26.703125 
L 18.109375 0 
L 9.078125 0 
z
" id="DejaVuSans-107"/>
      <path d="M 54.890625 33.015625 
L 54.890625 0 
L 45.90625 0 
L 45.90625 32.71875 
Q 45.90625 40.484375 42.875 44.328125 
Q 39.84375 48.1875 33.796875 48.1875 
Q 26.515625 48.1875 22.3125 43.546875 
Q 18.109375 38.921875 18.109375 30.90625 
L 18.109375 0 
L 9.078125 0 
L 9.078125 54.6875 
L 18.109375 54.6875 
L 18.109375 46.1875 
Q 21.34375 51.125 25.703125 53.5625 
Q 30.078125 56 35.796875 56 
Q 45.21875 56 50.046875 50.171875 
Q 54.890625 44.34375 54.890625 33.015625 
z
" id="DejaVuSans-110"/>
     </defs>
     <g transform="translate(93.832812 206.90625)rotate(-90)scale(0.1 -0.1)">
      <use xlink:href="#DejaVuSans-84"/>
      <use x="57.958984" xlink:href="#DejaVuSans-105"/>
      <use x="85.742188" xlink:href="#DejaVuSans-109"/>
      <use x="183.154297" xlink:href="#DejaVuSans-101"/>
      <use x="244.677734" xlink:href="#DejaVuSans-32"/>
      <use x="276.464844" xlink:href="#DejaVuSans-116"/>
      <use x="315.673828" xlink:href="#DejaVuSans-97"/>
      <use x="376.953125" xlink:href="#DejaVuSans-107"/>
      <use x="431.238281" xlink:href="#DejaVuSans-101"/>
      <use x="492.761719" xlink:href="#DejaVuSans-110"/>
     </g>
    </g>
   </g>
   <g id="line2d_35">
    <path clip-path="url(#p5c79d0c549)" d="M 132.456198 302.161044 
L 145.368595 302.161044 
L 145.368595 301.98323 
L 132.456198 301.98323 
L 132.456198 302.161044 
" style="fill:none;stroke:#000000;stroke-linecap:square;"/>
   </g>
   <g id="line2d_36">
    <path clip-path="url(#p5c79d0c549)" d="M 138.912397 302.161044 
L 138.912397 302.322807 
" style="fill:none;stroke:#000000;stroke-linecap:square;"/>
   </g>
   <g id="line2d_37">
    <path clip-path="url(#p5c79d0c549)" d="M 138.912397 301.98323 
L 138.912397 301.830071 
" style="fill:none;stroke:#000000;stroke-linecap:square;"/>
   </g>
   <g id="line2d_38">
    <path clip-path="url(#p5c79d0c549)" d="M 135.684298 302.322807 
L 142.140496 302.322807 
" style="fill:none;stroke:#000000;stroke-linecap:square;"/>
   </g>
   <g id="line2d_39">
    <path clip-path="url(#p5c79d0c549)" d="M 135.684298 301.830071 
L 142.140496 301.830071 
" style="fill:none;stroke:#000000;stroke-linecap:square;"/>
   </g>
   <g id="line2d_40">
    <defs>
     <path d="M 0 3 
C 0.795609 3 1.55874 2.683901 2.12132 2.12132 
C 2.683901 1.55874 3 0.795609 3 0 
C 3 -0.795609 2.683901 -1.55874 2.12132 -2.12132 
C 1.55874 -2.683901 0.795609 -3 0 -3 
C -0.795609 -3 -1.55874 -2.683901 -2.12132 -2.12132 
C -2.683901 -1.55874 -3 -0.795609 -3 0 
C -3 0.795609 -2.683901 1.55874 -2.12132 2.12132 
C -1.55874 2.683901 -0.795609 3 0 3 
z
" id="m22a5076ab0" style="stroke:#000000;"/>
    </defs>
    <g clip-path="url(#p5c79d0c549)">
     <use style="fill-opacity:0;stroke:#000000;" x="138.912397" xlink:href="#m22a5076ab0" y="302.645455"/>
     <use style="fill-opacity:0;stroke:#000000;" x="138.912397" xlink:href="#m22a5076ab0" y="301.680093"/>
    </g>
   </g>
   <g id="line2d_41">
    <path clip-path="url(#p5c79d0c549)" d="M 158.280992 302.012912 
L 171.193388 302.012912 
L 171.193388 301.936794 
L 158.280992 301.936794 
L 158.280992 302.012912 
" style="fill:none;stroke:#000000;stroke-linecap:square;"/>
   </g>
   <g id="line2d_42">
    <path clip-path="url(#p5c79d0c549)" d="M 164.73719 302.012912 
L 164.73719 302.068627 
" style="fill:none;stroke:#000000;stroke-linecap:square;"/>
   </g>
   <g id="line2d_43">
    <path clip-path="url(#p5c79d0c549)" d="M 164.73719 301.936794 
L 164.73719 301.847951 
" style="fill:none;stroke:#000000;stroke-linecap:square;"/>
   </g>
   <g id="line2d_44">
    <path clip-path="url(#p5c79d0c549)" d="M 161.509091 302.068627 
L 167.965289 302.068627 
" style="fill:none;stroke:#000000;stroke-linecap:square;"/>
   </g>
   <g id="line2d_45">
    <path clip-path="url(#p5c79d0c549)" d="M 161.509091 301.847951 
L 167.965289 301.847951 
" style="fill:none;stroke:#000000;stroke-linecap:square;"/>
   </g>
   <g id="line2d_46"/>
   <g id="line2d_47">
    <path clip-path="url(#p5c79d0c549)" d="M 184.105785 301.861637 
L 197.018182 301.861637 
L 197.018182 301.798183 
L 184.105785 301.798183 
L 184.105785 301.861637 
" style="fill:none;stroke:#000000;stroke-linecap:square;"/>
   </g>
   <g id="line2d_48">
    <path clip-path="url(#p5c79d0c549)" d="M 190.561983 301.861637 
L 190.561983 301.950058 
" style="fill:none;stroke:#000000;stroke-linecap:square;"/>
   </g>
   <g id="line2d_49">
    <path clip-path="url(#p5c79d0c549)" d="M 190.561983 301.798183 
L 190.561983 301.74154 
" style="fill:none;stroke:#000000;stroke-linecap:square;"/>
   </g>
   <g id="line2d_50">
    <path clip-path="url(#p5c79d0c549)" d="M 187.333884 301.950058 
L 193.790083 301.950058 
" style="fill:none;stroke:#000000;stroke-linecap:square;"/>
   </g>
   <g id="line2d_51">
    <path clip-path="url(#p5c79d0c549)" d="M 187.333884 301.74154 
L 193.790083 301.74154 
" style="fill:none;stroke:#000000;stroke-linecap:square;"/>
   </g>
   <g id="line2d_52">
    <g clip-path="url(#p5c79d0c549)">
     <use style="fill-opacity:0;stroke:#000000;" x="190.561983" xlink:href="#m22a5076ab0" y="301.405418"/>
     <use style="fill-opacity:0;stroke:#000000;" x="190.561983" xlink:href="#m22a5076ab0" y="301.572799"/>
    </g>
   </g>
   <g id="line2d_53">
    <path clip-path="url(#p5c79d0c549)" d="M 209.930579 301.655257 
L 222.842975 301.655257 
L 222.842975 301.522523 
L 209.930579 301.522523 
L 209.930579 301.655257 
" style="fill:none;stroke:#000000;stroke-linecap:square;"/>
   </g>
   <g id="line2d_54">
    <path clip-path="url(#p5c79d0c549)" d="M 216.386777 301.655257 
L 216.386777 301.684906 
" style="fill:none;stroke:#000000;stroke-linecap:square;"/>
   </g>
   <g id="line2d_55">
    <path clip-path="url(#p5c79d0c549)" d="M 216.386777 301.522523 
L 216.386777 301.40783 
" style="fill:none;stroke:#000000;stroke-linecap:square;"/>
   </g>
   <g id="line2d_56">
    <path clip-path="url(#p5c79d0c549)" d="M 213.158678 301.684906 
L 219.614876 301.684906 
" style="fill:none;stroke:#000000;stroke-linecap:square;"/>
   </g>
   <g id="line2d_57">
    <path clip-path="url(#p5c79d0c549)" d="M 213.158678 301.40783 
L 219.614876 301.40783 
" style="fill:none;stroke:#000000;stroke-linecap:square;"/>
   </g>
   <g id="line2d_58">
    <g clip-path="url(#p5c79d0c549)">
     <use style="fill-opacity:0;stroke:#000000;" x="216.386777" xlink:href="#m22a5076ab0" y="301.245436"/>
    </g>
   </g>
   <g id="line2d_59">
    <path clip-path="url(#p5c79d0c549)" d="M 235.755372 301.246463 
L 248.667769 301.246463 
L 248.667769 301.190898 
L 235.755372 301.190898 
L 235.755372 301.246463 
" style="fill:none;stroke:#000000;stroke-linecap:square;"/>
   </g>
   <g id="line2d_60">
    <path clip-path="url(#p5c79d0c549)" d="M 242.21157 301.246463 
L 242.21157 301.327485 
" style="fill:none;stroke:#000000;stroke-linecap:square;"/>
   </g>
   <g id="line2d_61">
    <path clip-path="url(#p5c79d0c549)" d="M 242.21157 301.190898 
L 242.21157 301.129322 
" style="fill:none;stroke:#000000;stroke-linecap:square;"/>
   </g>
   <g id="line2d_62">
    <path clip-path="url(#p5c79d0c549)" d="M 238.983471 301.327485 
L 245.439669 301.327485 
" style="fill:none;stroke:#000000;stroke-linecap:square;"/>
   </g>
   <g id="line2d_63">
    <path clip-path="url(#p5c79d0c549)" d="M 238.983471 301.129322 
L 245.439669 301.129322 
" style="fill:none;stroke:#000000;stroke-linecap:square;"/>
   </g>
   <g id="line2d_64"/>
   <g id="line2d_65">
    <path clip-path="url(#p5c79d0c549)" d="M 261.580165 301.286569 
L 274.492562 301.286569 
L 274.492562 301.243789 
L 261.580165 301.243789 
L 261.580165 301.286569 
" style="fill:none;stroke:#000000;stroke-linecap:square;"/>
   </g>
   <g id="line2d_66">
    <path clip-path="url(#p5c79d0c549)" d="M 268.036364 301.286569 
L 268.036364 301.326301 
" style="fill:none;stroke:#000000;stroke-linecap:square;"/>
   </g>
   <g id="line2d_67">
    <path clip-path="url(#p5c79d0c549)" d="M 268.036364 301.243789 
L 268.036364 301.183295 
" style="fill:none;stroke:#000000;stroke-linecap:square;"/>
   </g>
   <g id="line2d_68">
    <path clip-path="url(#p5c79d0c549)" d="M 264.808264 301.326301 
L 271.264463 301.326301 
" style="fill:none;stroke:#000000;stroke-linecap:square;"/>
   </g>
   <g id="line2d_69">
    <path clip-path="url(#p5c79d0c549)" d="M 264.808264 301.183295 
L 271.264463 301.183295 
" style="fill:none;stroke:#000000;stroke-linecap:square;"/>
   </g>
   <g id="line2d_70">
    <g clip-path="url(#p5c79d0c549)">
     <use style="fill-opacity:0;stroke:#000000;" x="268.036364" xlink:href="#m22a5076ab0" y="301.157921"/>
    </g>
   </g>
   <g id="line2d_71">
    <path clip-path="url(#p5c79d0c549)" d="M 287.404959 300.171339 
L 300.317355 300.171339 
L 300.317355 300.104957 
L 287.404959 300.104957 
L 287.404959 300.171339 
" style="fill:none;stroke:#000000;stroke-linecap:square;"/>
   </g>
   <g id="line2d_72">
    <path clip-path="url(#p5c79d0c549)" d="M 293.861157 300.171339 
L 293.861157 300.199882 
" style="fill:none;stroke:#000000;stroke-linecap:square;"/>
   </g>
   <g id="line2d_73">
    <path clip-path="url(#p5c79d0c549)" d="M 293.861157 300.104957 
L 293.861157 300.054999 
" style="fill:none;stroke:#000000;stroke-linecap:square;"/>
   </g>
   <g id="line2d_74">
    <path clip-path="url(#p5c79d0c549)" d="M 290.633058 300.199882 
L 297.089256 300.199882 
" style="fill:none;stroke:#000000;stroke-linecap:square;"/>
   </g>
   <g id="line2d_75">
    <path clip-path="url(#p5c79d0c549)" d="M 290.633058 300.054999 
L 297.089256 300.054999 
" style="fill:none;stroke:#000000;stroke-linecap:square;"/>
   </g>
   <g id="line2d_76">
    <g clip-path="url(#p5c79d0c549)">
     <use style="fill-opacity:0;stroke:#000000;" x="293.861157" xlink:href="#m22a5076ab0" y="299.980211"/>
    </g>
   </g>
   <g id="line2d_77">
    <path clip-path="url(#p5c79d0c549)" d="M 313.229752 297.799351 
L 326.142149 297.799351 
L 326.142149 297.671437 
L 313.229752 297.671437 
L 313.229752 297.799351 
" style="fill:none;stroke:#000000;stroke-linecap:square;"/>
   </g>
   <g id="line2d_78">
    <path clip-path="url(#p5c79d0c549)" d="M 319.68595 297.799351 
L 319.68595 297.891459 
" style="fill:none;stroke:#000000;stroke-linecap:square;"/>
   </g>
   <g id="line2d_79">
    <path clip-path="url(#p5c79d0c549)" d="M 319.68595 297.671437 
L 319.68595 297.508382 
" style="fill:none;stroke:#000000;stroke-linecap:square;"/>
   </g>
   <g id="line2d_80">
    <path clip-path="url(#p5c79d0c549)" d="M 316.457851 297.891459 
L 322.91405 297.891459 
" style="fill:none;stroke:#000000;stroke-linecap:square;"/>
   </g>
   <g id="line2d_81">
    <path clip-path="url(#p5c79d0c549)" d="M 316.457851 297.508382 
L 322.91405 297.508382 
" style="fill:none;stroke:#000000;stroke-linecap:square;"/>
   </g>
   <g id="line2d_82">
    <g clip-path="url(#p5c79d0c549)">
     <use style="fill-opacity:0;stroke:#000000;" x="319.68595" xlink:href="#m22a5076ab0" y="298.068968"/>
     <use style="fill-opacity:0;stroke:#000000;" x="319.68595" xlink:href="#m22a5076ab0" y="298.002124"/>
     <use style="fill-opacity:0;stroke:#000000;" x="319.68595" xlink:href="#m22a5076ab0" y="297.36599"/>
    </g>
   </g>
   <g id="line2d_83">
    <path clip-path="url(#p5c79d0c549)" d="M 339.054545 291.547747 
L 351.966942 291.547747 
L 351.966942 291.164653 
L 339.054545 291.164653 
L 339.054545 291.547747 
" style="fill:none;stroke:#000000;stroke-linecap:square;"/>
   </g>
   <g id="line2d_84">
    <path clip-path="url(#p5c79d0c549)" d="M 345.510744 291.547747 
L 345.510744 291.914183 
" style="fill:none;stroke:#000000;stroke-linecap:square;"/>
   </g>
   <g id="line2d_85">
    <path clip-path="url(#p5c79d0c549)" d="M 345.510744 291.164653 
L 345.510744 290.841611 
" style="fill:none;stroke:#000000;stroke-linecap:square;"/>
   </g>
   <g id="line2d_86">
    <path clip-path="url(#p5c79d0c549)" d="M 342.282645 291.914183 
L 348.738843 291.914183 
" style="fill:none;stroke:#000000;stroke-linecap:square;"/>
   </g>
   <g id="line2d_87">
    <path clip-path="url(#p5c79d0c549)" d="M 342.282645 290.841611 
L 348.738843 290.841611 
" style="fill:none;stroke:#000000;stroke-linecap:square;"/>
   </g>
   <g id="line2d_88"/>
   <g id="line2d_89">
    <path clip-path="url(#p5c79d0c549)" d="M 364.879339 268.315505 
L 377.791736 268.315505 
L 377.791736 267.148323 
L 364.879339 267.148323 
L 364.879339 268.315505 
" style="fill:none;stroke:#000000;stroke-linecap:square;"/>
   </g>
   <g id="line2d_90">
    <path clip-path="url(#p5c79d0c549)" d="M 371.335537 268.315505 
L 371.335537 269.210342 
" style="fill:none;stroke:#000000;stroke-linecap:square;"/>
   </g>
   <g id="line2d_91">
    <path clip-path="url(#p5c79d0c549)" d="M 371.335537 267.148323 
L 371.335537 266.140271 
" style="fill:none;stroke:#000000;stroke-linecap:square;"/>
   </g>
   <g id="line2d_92">
    <path clip-path="url(#p5c79d0c549)" d="M 368.107438 269.210342 
L 374.563636 269.210342 
" style="fill:none;stroke:#000000;stroke-linecap:square;"/>
   </g>
   <g id="line2d_93">
    <path clip-path="url(#p5c79d0c549)" d="M 368.107438 266.140271 
L 374.563636 266.140271 
" style="fill:none;stroke:#000000;stroke-linecap:square;"/>
   </g>
   <g id="line2d_94"/>
   <g id="line2d_95">
    <path clip-path="url(#p5c79d0c549)" d="M 390.704132 103.829269 
L 403.616529 103.829269 
L 403.616529 79.902858 
L 390.704132 79.902858 
L 390.704132 103.829269 
" style="fill:none;stroke:#000000;stroke-linecap:square;"/>
   </g>
   <g id="line2d_96">
    <path clip-path="url(#p5c79d0c549)" d="M 397.160331 103.829269 
L 397.160331 121.087015 
" style="fill:none;stroke:#000000;stroke-linecap:square;"/>
   </g>
   <g id="line2d_97">
    <path clip-path="url(#p5c79d0c549)" d="M 397.160331 79.902858 
L 397.160331 55.554545 
" style="fill:none;stroke:#000000;stroke-linecap:square;"/>
   </g>
   <g id="line2d_98">
    <path clip-path="url(#p5c79d0c549)" d="M 393.932231 121.087015 
L 400.38843 121.087015 
" style="fill:none;stroke:#000000;stroke-linecap:square;"/>
   </g>
   <g id="line2d_99">
    <path clip-path="url(#p5c79d0c549)" d="M 393.932231 55.554545 
L 400.38843 55.554545 
" style="fill:none;stroke:#000000;stroke-linecap:square;"/>
   </g>
   <g id="line2d_100"/>
   <g id="line2d_101">
    <path clip-path="url(#p5c79d0c549)" d="M 132.456198 302.039592 
L 145.368595 302.039592 
" style="fill:none;stroke:#ff7f0e;stroke-linecap:square;"/>
   </g>
   <g id="line2d_102">
    <path clip-path="url(#p5c79d0c549)" d="M 158.280992 301.991662 
L 171.193388 301.991662 
" style="fill:none;stroke:#ff7f0e;stroke-linecap:square;"/>
   </g>
   <g id="line2d_103">
    <path clip-path="url(#p5c79d0c549)" d="M 184.105785 301.840193 
L 197.018182 301.840193 
" style="fill:none;stroke:#ff7f0e;stroke-linecap:square;"/>
   </g>
   <g id="line2d_104">
    <path clip-path="url(#p5c79d0c549)" d="M 209.930579 301.606879 
L 222.842975 301.606879 
" style="fill:none;stroke:#ff7f0e;stroke-linecap:square;"/>
   </g>
   <g id="line2d_105">
    <path clip-path="url(#p5c79d0c549)" d="M 235.755372 301.218533 
L 248.667769 301.218533 
" style="fill:none;stroke:#ff7f0e;stroke-linecap:square;"/>
   </g>
   <g id="line2d_106">
    <path clip-path="url(#p5c79d0c549)" d="M 261.580165 301.266681 
L 274.492562 301.266681 
" style="fill:none;stroke:#ff7f0e;stroke-linecap:square;"/>
   </g>
   <g id="line2d_107">
    <path clip-path="url(#p5c79d0c549)" d="M 287.404959 300.14774 
L 300.317355 300.14774 
" style="fill:none;stroke:#ff7f0e;stroke-linecap:square;"/>
   </g>
   <g id="line2d_108">
    <path clip-path="url(#p5c79d0c549)" d="M 313.229752 297.743113 
L 326.142149 297.743113 
" style="fill:none;stroke:#ff7f0e;stroke-linecap:square;"/>
   </g>
   <g id="line2d_109">
    <path clip-path="url(#p5c79d0c549)" d="M 339.054545 291.361127 
L 351.966942 291.361127 
" style="fill:none;stroke:#ff7f0e;stroke-linecap:square;"/>
   </g>
   <g id="line2d_110">
    <path clip-path="url(#p5c79d0c549)" d="M 364.879339 267.586438 
L 377.791736 267.586438 
" style="fill:none;stroke:#ff7f0e;stroke-linecap:square;"/>
   </g>
   <g id="line2d_111">
    <path clip-path="url(#p5c79d0c549)" d="M 390.704132 92.864058 
L 403.616529 92.864058 
" style="fill:none;stroke:#ff7f0e;stroke-linecap:square;"/>
   </g>
   <g id="patch_3">
    <path d="M 126 315 
L 126 43.2 
" style="fill:none;stroke:#000000;stroke-linecap:square;stroke-linejoin:miter;stroke-width:0.8;"/>
   </g>
   <g id="patch_4">
    <path d="M 410.072727 315 
L 410.072727 43.2 
" style="fill:none;stroke:#000000;stroke-linecap:square;stroke-linejoin:miter;stroke-width:0.8;"/>
   </g>
   <g id="patch_5">
    <path d="M 126 315 
L 410.072727 315 
" style="fill:none;stroke:#000000;stroke-linecap:square;stroke-linejoin:miter;stroke-width:0.8;"/>
   </g>
   <g id="patch_6">
    <path d="M 126 43.2 
L 410.072727 43.2 
" style="fill:none;stroke:#000000;stroke-linecap:square;stroke-linejoin:miter;stroke-width:0.8;"/>
   </g>
   <g id="text_20">
    <!-- Time taken for tests generated for BES -->
    <defs>
     <path d="M 37.109375 75.984375 
L 37.109375 68.5 
L 28.515625 68.5 
Q 23.6875 68.5 21.796875 66.546875 
Q 19.921875 64.59375 19.921875 59.515625 
L 19.921875 54.6875 
L 34.71875 54.6875 
L 34.71875 47.703125 
L 19.921875 47.703125 
L 19.921875 0 
L 10.890625 0 
L 10.890625 47.703125 
L 2.296875 47.703125 
L 2.296875 54.6875 
L 10.890625 54.6875 
L 10.890625 58.5 
Q 10.890625 67.625 15.140625 71.796875 
Q 19.390625 75.984375 28.609375 75.984375 
z
" id="DejaVuSans-102"/>
     <path d="M 30.609375 48.390625 
Q 23.390625 48.390625 19.1875 42.75 
Q 14.984375 37.109375 14.984375 27.296875 
Q 14.984375 17.484375 19.15625 11.84375 
Q 23.34375 6.203125 30.609375 6.203125 
Q 37.796875 6.203125 41.984375 11.859375 
Q 46.1875 17.53125 46.1875 27.296875 
Q 46.1875 37.015625 41.984375 42.703125 
Q 37.796875 48.390625 30.609375 48.390625 
z
M 30.609375 56 
Q 42.328125 56 49.015625 48.375 
Q 55.71875 40.765625 55.71875 27.296875 
Q 55.71875 13.875 49.015625 6.21875 
Q 42.328125 -1.421875 30.609375 -1.421875 
Q 18.84375 -1.421875 12.171875 6.21875 
Q 5.515625 13.875 5.515625 27.296875 
Q 5.515625 40.765625 12.171875 48.375 
Q 18.84375 56 30.609375 56 
z
" id="DejaVuSans-111"/>
     <path d="M 41.109375 46.296875 
Q 39.59375 47.171875 37.8125 47.578125 
Q 36.03125 48 33.890625 48 
Q 26.265625 48 22.1875 43.046875 
Q 18.109375 38.09375 18.109375 28.8125 
L 18.109375 0 
L 9.078125 0 
L 9.078125 54.6875 
L 18.109375 54.6875 
L 18.109375 46.1875 
Q 20.953125 51.171875 25.484375 53.578125 
Q 30.03125 56 36.53125 56 
Q 37.453125 56 38.578125 55.875 
Q 39.703125 55.765625 41.0625 55.515625 
z
" id="DejaVuSans-114"/>
     <path d="M 45.40625 27.984375 
Q 45.40625 37.75 41.375 43.109375 
Q 37.359375 48.484375 30.078125 48.484375 
Q 22.859375 48.484375 18.828125 43.109375 
Q 14.796875 37.75 14.796875 27.984375 
Q 14.796875 18.265625 18.828125 12.890625 
Q 22.859375 7.515625 30.078125 7.515625 
Q 37.359375 7.515625 41.375 12.890625 
Q 45.40625 18.265625 45.40625 27.984375 
z
M 54.390625 6.78125 
Q 54.390625 -7.171875 48.1875 -13.984375 
Q 42 -20.796875 29.203125 -20.796875 
Q 24.46875 -20.796875 20.265625 -20.09375 
Q 16.0625 -19.390625 12.109375 -17.921875 
L 12.109375 -9.1875 
Q 16.0625 -11.328125 19.921875 -12.34375 
Q 23.78125 -13.375 27.78125 -13.375 
Q 36.625 -13.375 41.015625 -8.765625 
Q 45.40625 -4.15625 45.40625 5.171875 
L 45.40625 9.625 
Q 42.625 4.78125 38.28125 2.390625 
Q 33.9375 0 27.875 0 
Q 17.828125 0 11.671875 7.65625 
Q 5.515625 15.328125 5.515625 27.984375 
Q 5.515625 40.671875 11.671875 48.328125 
Q 17.828125 56 27.875 56 
Q 33.9375 56 38.28125 53.609375 
Q 42.625 51.21875 45.40625 46.390625 
L 45.40625 54.6875 
L 54.390625 54.6875 
z
" id="DejaVuSans-103"/>
     <path d="M 45.40625 46.390625 
L 45.40625 75.984375 
L 54.390625 75.984375 
L 54.390625 0 
L 45.40625 0 
L 45.40625 8.203125 
Q 42.578125 3.328125 38.25 0.953125 
Q 33.9375 -1.421875 27.875 -1.421875 
Q 17.96875 -1.421875 11.734375 6.484375 
Q 5.515625 14.40625 5.515625 27.296875 
Q 5.515625 40.1875 11.734375 48.09375 
Q 17.96875 56 27.875 56 
Q 33.9375 56 38.25 53.625 
Q 42.578125 51.265625 45.40625 46.390625 
z
M 14.796875 27.296875 
Q 14.796875 17.390625 18.875 11.75 
Q 22.953125 6.109375 30.078125 6.109375 
Q 37.203125 6.109375 41.296875 11.75 
Q 45.40625 17.390625 45.40625 27.296875 
Q 45.40625 37.203125 41.296875 42.84375 
Q 37.203125 48.484375 30.078125 48.484375 
Q 22.953125 48.484375 18.875 42.84375 
Q 14.796875 37.203125 14.796875 27.296875 
z
" id="DejaVuSans-100"/>
     <path d="M 19.671875 34.8125 
L 19.671875 8.109375 
L 35.5 8.109375 
Q 43.453125 8.109375 47.28125 11.40625 
Q 51.125 14.703125 51.125 21.484375 
Q 51.125 28.328125 47.28125 31.5625 
Q 43.453125 34.8125 35.5 34.8125 
z
M 19.671875 64.796875 
L 19.671875 42.828125 
L 34.28125 42.828125 
Q 41.5 42.828125 45.03125 45.53125 
Q 48.578125 48.25 48.578125 53.8125 
Q 48.578125 59.328125 45.03125 62.0625 
Q 41.5 64.796875 34.28125 64.796875 
z
M 9.8125 72.90625 
L 35.015625 72.90625 
Q 46.296875 72.90625 52.390625 68.21875 
Q 58.5 63.53125 58.5 54.890625 
Q 58.5 48.1875 55.375 44.234375 
Q 52.25 40.28125 46.1875 39.3125 
Q 53.46875 37.75 57.5 32.78125 
Q 61.53125 27.828125 61.53125 20.40625 
Q 61.53125 10.640625 54.890625 5.3125 
Q 48.25 0 35.984375 0 
L 9.8125 0 
z
" id="DejaVuSans-66"/>
     <path d="M 9.8125 72.90625 
L 55.90625 72.90625 
L 55.90625 64.59375 
L 19.671875 64.59375 
L 19.671875 43.015625 
L 54.390625 43.015625 
L 54.390625 34.71875 
L 19.671875 34.71875 
L 19.671875 8.296875 
L 56.78125 8.296875 
L 56.78125 0 
L 9.8125 0 
z
" id="DejaVuSans-69"/>
     <path d="M 53.515625 70.515625 
L 53.515625 60.890625 
Q 47.90625 63.578125 42.921875 64.890625 
Q 37.9375 66.21875 33.296875 66.21875 
Q 25.25 66.21875 20.875 63.09375 
Q 16.5 59.96875 16.5 54.203125 
Q 16.5 49.359375 19.40625 46.890625 
Q 22.3125 44.4375 30.421875 42.921875 
L 36.375 41.703125 
Q 47.40625 39.59375 52.65625 34.296875 
Q 57.90625 29 57.90625 20.125 
Q 57.90625 9.515625 50.796875 4.046875 
Q 43.703125 -1.421875 29.984375 -1.421875 
Q 24.8125 -1.421875 18.96875 -0.25 
Q 13.140625 0.921875 6.890625 3.21875 
L 6.890625 13.375 
Q 12.890625 10.015625 18.65625 8.296875 
Q 24.421875 6.59375 29.984375 6.59375 
Q 38.421875 6.59375 43.015625 9.90625 
Q 47.609375 13.234375 47.609375 19.390625 
Q 47.609375 24.75 44.3125 27.78125 
Q 41.015625 30.8125 33.5 32.328125 
L 27.484375 33.5 
Q 16.453125 35.6875 11.515625 40.375 
Q 6.59375 45.0625 6.59375 53.421875 
Q 6.59375 63.09375 13.40625 68.65625 
Q 20.21875 74.21875 32.171875 74.21875 
Q 37.3125 74.21875 42.625 73.28125 
Q 47.953125 72.359375 53.515625 70.515625 
z
" id="DejaVuSans-83"/>
    </defs>
    <g transform="translate(151.278239 37.2)scale(0.12 -0.12)">
     <use xlink:href="#DejaVuSans-84"/>
     <use x="57.958984" xlink:href="#DejaVuSans-105"/>
     <use x="85.742188" xlink:href="#DejaVuSans-109"/>
     <use x="183.154297" xlink:href="#DejaVuSans-101"/>
     <use x="244.677734" xlink:href="#DejaVuSans-32"/>
     <use x="276.464844" xlink:href="#DejaVuSans-116"/>
     <use x="315.673828" xlink:href="#DejaVuSans-97"/>
     <use x="376.953125" xlink:href="#DejaVuSans-107"/>
     <use x="431.238281" xlink:href="#DejaVuSans-101"/>
     <use x="492.761719" xlink:href="#DejaVuSans-110"/>
     <use x="556.140625" xlink:href="#DejaVuSans-32"/>
     <use x="587.927734" xlink:href="#DejaVuSans-102"/>
     <use x="623.132812" xlink:href="#DejaVuSans-111"/>
     <use x="684.314453" xlink:href="#DejaVuSans-114"/>
     <use x="725.427734" xlink:href="#DejaVuSans-32"/>
     <use x="757.214844" xlink:href="#DejaVuSans-116"/>
     <use x="796.423828" xlink:href="#DejaVuSans-101"/>
     <use x="857.947266" xlink:href="#DejaVuSans-115"/>
     <use x="910.046875" xlink:href="#DejaVuSans-116"/>
     <use x="949.255859" xlink:href="#DejaVuSans-115"/>
     <use x="1001.355469" xlink:href="#DejaVuSans-32"/>
     <use x="1033.142578" xlink:href="#DejaVuSans-103"/>
     <use x="1096.619141" xlink:href="#DejaVuSans-101"/>
     <use x="1158.142578" xlink:href="#DejaVuSans-110"/>
     <use x="1221.521484" xlink:href="#DejaVuSans-101"/>
     <use x="1283.044922" xlink:href="#DejaVuSans-114"/>
     <use x="1324.158203" xlink:href="#DejaVuSans-97"/>
     <use x="1385.4375" xlink:href="#DejaVuSans-116"/>
     <use x="1424.646484" xlink:href="#DejaVuSans-101"/>
     <use x="1486.169922" xlink:href="#DejaVuSans-100"/>
     <use x="1549.646484" xlink:href="#DejaVuSans-32"/>
     <use x="1581.433594" xlink:href="#DejaVuSans-102"/>
     <use x="1616.638672" xlink:href="#DejaVuSans-111"/>
     <use x="1677.820312" xlink:href="#DejaVuSans-114"/>
     <use x="1718.933594" xlink:href="#DejaVuSans-32"/>
     <use x="1750.720703" xlink:href="#DejaVuSans-66"/>
     <use x="1819.324219" xlink:href="#DejaVuSans-69"/>
     <use x="1882.507812" xlink:href="#DejaVuSans-83"/>
    </g>
   </g>
  </g>
  <g id="axes_2">
   <g id="patch_7">
    <path d="M 481.090909 315 
L 907.2 315 
L 907.2 43.2 
L 481.090909 43.2 
z
" style="fill:#ffffff;"/>
   </g>
   <g id="matplotlib.axis_3">
    <g id="xtick_12">
     <g id="line2d_112">
      <path clip-path="url(#p3a03025450)" d="M 560.625198 315 
L 560.625198 43.2 
" style="fill:none;stroke:#b0b0b0;stroke-linecap:square;stroke-width:0.8;"/>
     </g>
     <g id="line2d_113">
      <g>
       <use style="stroke:#000000;stroke-width:0.8;" x="560.625198" xlink:href="#m8f0c65cf3c" y="315"/>
      </g>
     </g>
     <g id="text_21">
      <!-- $\mathdefault{10^{0}}$ -->
      <g transform="translate(551.825198 329.598437)scale(0.1 -0.1)">
       <use transform="translate(0 0.765625)" xlink:href="#DejaVuSans-49"/>
       <use transform="translate(63.623047 0.765625)" xlink:href="#DejaVuSans-48"/>
       <use transform="translate(128.203125 39.046875)scale(0.7)" xlink:href="#DejaVuSans-48"/>
      </g>
     </g>
    </g>
    <g id="xtick_13">
     <g id="line2d_114">
      <path clip-path="url(#p3a03025450)" d="M 824.832388 315 
L 824.832388 43.2 
" style="fill:none;stroke:#b0b0b0;stroke-linecap:square;stroke-width:0.8;"/>
     </g>
     <g id="line2d_115">
      <g>
       <use style="stroke:#000000;stroke-width:0.8;" x="824.832388" xlink:href="#m8f0c65cf3c" y="315"/>
      </g>
     </g>
     <g id="text_22">
      <!-- $\mathdefault{10^{1}}$ -->
      <g transform="translate(816.032388 329.598437)scale(0.1 -0.1)">
       <use transform="translate(0 0.684375)" xlink:href="#DejaVuSans-49"/>
       <use transform="translate(63.623047 0.684375)" xlink:href="#DejaVuSans-48"/>
       <use transform="translate(128.203125 38.965625)scale(0.7)" xlink:href="#DejaVuSans-49"/>
      </g>
     </g>
    </g>
    <g id="xtick_14">
     <g id="line2d_116">
      <defs>
       <path d="M 0 0 
L 0 2 
" id="m3835c2cc3d" style="stroke:#000000;stroke-width:0.6;"/>
      </defs>
      <g>
       <use style="stroke:#000000;stroke-width:0.6;" x="481.090909" xlink:href="#m3835c2cc3d" y="315"/>
      </g>
     </g>
    </g>
    <g id="xtick_15">
     <g id="line2d_117">
      <g>
       <use style="stroke:#000000;stroke-width:0.6;" x="502.011164" xlink:href="#m3835c2cc3d" y="315"/>
      </g>
     </g>
    </g>
    <g id="xtick_16">
     <g id="line2d_118">
      <g>
       <use style="stroke:#000000;stroke-width:0.6;" x="519.698987" xlink:href="#m3835c2cc3d" y="315"/>
      </g>
     </g>
    </g>
    <g id="xtick_17">
     <g id="line2d_119">
      <g>
       <use style="stroke:#000000;stroke-width:0.6;" x="535.020876" xlink:href="#m3835c2cc3d" y="315"/>
      </g>
     </g>
    </g>
    <g id="xtick_18">
     <g id="line2d_120">
      <g>
       <use style="stroke:#000000;stroke-width:0.6;" x="548.53574" xlink:href="#m3835c2cc3d" y="315"/>
      </g>
     </g>
    </g>
    <g id="xtick_19">
     <g id="line2d_121">
      <g>
       <use style="stroke:#000000;stroke-width:0.6;" x="640.159488" xlink:href="#m3835c2cc3d" y="315"/>
      </g>
     </g>
    </g>
    <g id="xtick_20">
     <g id="line2d_122">
      <g>
       <use style="stroke:#000000;stroke-width:0.6;" x="686.684064" xlink:href="#m3835c2cc3d" y="315"/>
      </g>
     </g>
    </g>
    <g id="xtick_21">
     <g id="line2d_123">
      <g>
       <use style="stroke:#000000;stroke-width:0.6;" x="719.693777" xlink:href="#m3835c2cc3d" y="315"/>
      </g>
     </g>
    </g>
    <g id="xtick_22">
     <g id="line2d_124">
      <g>
       <use style="stroke:#000000;stroke-width:0.6;" x="745.298099" xlink:href="#m3835c2cc3d" y="315"/>
      </g>
     </g>
    </g>
    <g id="xtick_23">
     <g id="line2d_125">
      <g>
       <use style="stroke:#000000;stroke-width:0.6;" x="766.218354" xlink:href="#m3835c2cc3d" y="315"/>
      </g>
     </g>
    </g>
    <g id="xtick_24">
     <g id="line2d_126">
      <g>
       <use style="stroke:#000000;stroke-width:0.6;" x="783.906177" xlink:href="#m3835c2cc3d" y="315"/>
      </g>
     </g>
    </g>
    <g id="xtick_25">
     <g id="line2d_127">
      <g>
       <use style="stroke:#000000;stroke-width:0.6;" x="799.228066" xlink:href="#m3835c2cc3d" y="315"/>
      </g>
     </g>
    </g>
    <g id="xtick_26">
     <g id="line2d_128">
      <g>
       <use style="stroke:#000000;stroke-width:0.6;" x="812.74293" xlink:href="#m3835c2cc3d" y="315"/>
      </g>
     </g>
    </g>
    <g id="xtick_27">
     <g id="line2d_129">
      <g>
       <use style="stroke:#000000;stroke-width:0.6;" x="904.366678" xlink:href="#m3835c2cc3d" y="315"/>
      </g>
     </g>
    </g>
    <g id="text_23">
     <!-- Test sizes -->
     <defs>
      <path d="M 5.515625 54.6875 
L 48.1875 54.6875 
L 48.1875 46.484375 
L 14.40625 7.171875 
L 48.1875 7.171875 
L 48.1875 0 
L 4.296875 0 
L 4.296875 8.203125 
L 38.09375 47.515625 
L 5.515625 47.515625 
z
" id="DejaVuSans-122"/>
     </defs>
     <g transform="translate(670.411861 343.276563)scale(0.1 -0.1)">
      <use xlink:href="#DejaVuSans-84"/>
      <use x="44.083984" xlink:href="#DejaVuSans-101"/>
      <use x="105.607422" xlink:href="#DejaVuSans-115"/>
      <use x="157.707031" xlink:href="#DejaVuSans-116"/>
      <use x="196.916016" xlink:href="#DejaVuSans-32"/>
      <use x="228.703125" xlink:href="#DejaVuSans-115"/>
      <use x="280.802734" xlink:href="#DejaVuSans-105"/>
      <use x="308.585938" xlink:href="#DejaVuSans-122"/>
      <use x="361.076172" xlink:href="#DejaVuSans-101"/>
      <use x="422.599609" xlink:href="#DejaVuSans-115"/>
     </g>
    </g>
   </g>
   <g id="matplotlib.axis_4">
    <g id="ytick_7">
     <g id="line2d_130">
      <path clip-path="url(#p3a03025450)" d="M 481.090909 303.086689 
L 907.2 303.086689 
" style="fill:none;stroke:#b0b0b0;stroke-linecap:square;stroke-width:0.8;"/>
     </g>
     <g id="line2d_131">
      <g>
       <use style="stroke:#000000;stroke-width:0.8;" x="481.090909" xlink:href="#m29df4e8ae4" y="303.086689"/>
      </g>
     </g>
     <g id="text_24">
      <!-- 0 -->
      <g transform="translate(467.728409 306.885907)scale(0.1 -0.1)">
       <use xlink:href="#DejaVuSans-48"/>
      </g>
     </g>
    </g>
    <g id="ytick_8">
     <g id="line2d_132">
      <path clip-path="url(#p3a03025450)" d="M 481.090909 255.893513 
L 907.2 255.893513 
" style="fill:none;stroke:#b0b0b0;stroke-linecap:square;stroke-width:0.8;"/>
     </g>
     <g id="line2d_133">
      <g>
       <use style="stroke:#000000;stroke-width:0.8;" x="481.090909" xlink:href="#m29df4e8ae4" y="255.893513"/>
      </g>
     </g>
     <g id="text_25">
      <!-- 100 -->
      <g transform="translate(455.003409 259.692732)scale(0.1 -0.1)">
       <use xlink:href="#DejaVuSans-49"/>
       <use x="63.623047" xlink:href="#DejaVuSans-48"/>
       <use x="127.246094" xlink:href="#DejaVuSans-48"/>
      </g>
     </g>
    </g>
    <g id="ytick_9">
     <g id="line2d_134">
      <path clip-path="url(#p3a03025450)" d="M 481.090909 208.700338 
L 907.2 208.700338 
" style="fill:none;stroke:#b0b0b0;stroke-linecap:square;stroke-width:0.8;"/>
     </g>
     <g id="line2d_135">
      <g>
       <use style="stroke:#000000;stroke-width:0.8;" x="481.090909" xlink:href="#m29df4e8ae4" y="208.700338"/>
      </g>
     </g>
     <g id="text_26">
      <!-- 200 -->
      <g transform="translate(455.003409 212.499557)scale(0.1 -0.1)">
       <use xlink:href="#DejaVuSans-50"/>
       <use x="63.623047" xlink:href="#DejaVuSans-48"/>
       <use x="127.246094" xlink:href="#DejaVuSans-48"/>
      </g>
     </g>
    </g>
    <g id="ytick_10">
     <g id="line2d_136">
      <path clip-path="url(#p3a03025450)" d="M 481.090909 161.507163 
L 907.2 161.507163 
" style="fill:none;stroke:#b0b0b0;stroke-linecap:square;stroke-width:0.8;"/>
     </g>
     <g id="line2d_137">
      <g>
       <use style="stroke:#000000;stroke-width:0.8;" x="481.090909" xlink:href="#m29df4e8ae4" y="161.507163"/>
      </g>
     </g>
     <g id="text_27">
      <!-- 300 -->
      <g transform="translate(455.003409 165.306382)scale(0.1 -0.1)">
       <use xlink:href="#DejaVuSans-51"/>
       <use x="63.623047" xlink:href="#DejaVuSans-48"/>
       <use x="127.246094" xlink:href="#DejaVuSans-48"/>
      </g>
     </g>
    </g>
    <g id="ytick_11">
     <g id="line2d_138">
      <path clip-path="url(#p3a03025450)" d="M 481.090909 114.313988 
L 907.2 114.313988 
" style="fill:none;stroke:#b0b0b0;stroke-linecap:square;stroke-width:0.8;"/>
     </g>
     <g id="line2d_139">
      <g>
       <use style="stroke:#000000;stroke-width:0.8;" x="481.090909" xlink:href="#m29df4e8ae4" y="114.313988"/>
      </g>
     </g>
     <g id="text_28">
      <!-- 400 -->
      <g transform="translate(455.003409 118.113207)scale(0.1 -0.1)">
       <use xlink:href="#DejaVuSans-52"/>
       <use x="63.623047" xlink:href="#DejaVuSans-48"/>
       <use x="127.246094" xlink:href="#DejaVuSans-48"/>
      </g>
     </g>
    </g>
    <g id="ytick_12">
     <g id="line2d_140">
      <path clip-path="url(#p3a03025450)" d="M 481.090909 67.120813 
L 907.2 67.120813 
" style="fill:none;stroke:#b0b0b0;stroke-linecap:square;stroke-width:0.8;"/>
     </g>
     <g id="line2d_141">
      <g>
       <use style="stroke:#000000;stroke-width:0.8;" x="481.090909" xlink:href="#m29df4e8ae4" y="67.120813"/>
      </g>
     </g>
     <g id="text_29">
      <!-- 500 -->
      <g transform="translate(455.003409 70.920032)scale(0.1 -0.1)">
       <use xlink:href="#DejaVuSans-53"/>
       <use x="63.623047" xlink:href="#DejaVuSans-48"/>
       <use x="127.246094" xlink:href="#DejaVuSans-48"/>
      </g>
     </g>
    </g>
    <g id="text_30">
     <!-- Time taken -->
     <g transform="translate(448.923722 206.90625)rotate(-90)scale(0.1 -0.1)">
      <use xlink:href="#DejaVuSans-84"/>
      <use x="57.958984" xlink:href="#DejaVuSans-105"/>
      <use x="85.742188" xlink:href="#DejaVuSans-109"/>
      <use x="183.154297" xlink:href="#DejaVuSans-101"/>
      <use x="244.677734" xlink:href="#DejaVuSans-32"/>
      <use x="276.464844" xlink:href="#DejaVuSans-116"/>
      <use x="315.673828" xlink:href="#DejaVuSans-97"/>
      <use x="376.953125" xlink:href="#DejaVuSans-107"/>
      <use x="431.238281" xlink:href="#DejaVuSans-101"/>
      <use x="492.761719" xlink:href="#DejaVuSans-110"/>
     </g>
    </g>
   </g>
   <g id="line2d_142">
    <path clip-path="url(#p3a03025450)" d="M 527.615486 302.61614 
L 586.229521 302.61614 
L 586.229521 302.586929 
L 527.615486 302.586929 
L 527.615486 302.61614 
" style="fill:none;stroke:#000000;stroke-linecap:square;"/>
   </g>
   <g id="line2d_143">
    <path clip-path="url(#p3a03025450)" d="M 560.625198 302.61614 
L 560.625198 302.645455 
" style="fill:none;stroke:#000000;stroke-linecap:square;"/>
   </g>
   <g id="line2d_144">
    <path clip-path="url(#p3a03025450)" d="M 560.625198 302.586929 
L 560.625198 302.548317 
" style="fill:none;stroke:#000000;stroke-linecap:square;"/>
   </g>
   <g id="line2d_145">
    <path clip-path="url(#p3a03025450)" d="M 545.303309 302.645455 
L 574.140063 302.645455 
" style="fill:none;stroke:#000000;stroke-linecap:square;"/>
   </g>
   <g id="line2d_146">
    <path clip-path="url(#p3a03025450)" d="M 545.303309 302.548317 
L 574.140063 302.548317 
" style="fill:none;stroke:#000000;stroke-linecap:square;"/>
   </g>
   <g id="line2d_147">
    <g clip-path="url(#p3a03025450)">
     <use style="fill-opacity:0;stroke:#000000;" x="560.625198" xlink:href="#m22a5076ab0" y="302.526736"/>
    </g>
   </g>
   <g id="line2d_148">
    <path clip-path="url(#p3a03025450)" d="M 624.837598 302.61283 
L 653.674352 302.61283 
L 653.674352 302.561396 
L 624.837598 302.561396 
L 624.837598 302.61283 
" style="fill:none;stroke:#000000;stroke-linecap:square;"/>
   </g>
   <g id="line2d_149">
    <path clip-path="url(#p3a03025450)" d="M 640.159488 302.61283 
L 640.159488 302.643922 
" style="fill:none;stroke:#000000;stroke-linecap:square;"/>
   </g>
   <g id="line2d_150">
    <path clip-path="url(#p3a03025450)" d="M 640.159488 302.561396 
L 640.159488 302.524978 
" style="fill:none;stroke:#000000;stroke-linecap:square;"/>
   </g>
   <g id="line2d_151">
    <path clip-path="url(#p3a03025450)" d="M 632.754097 302.643922 
L 647.115783 302.643922 
" style="fill:none;stroke:#000000;stroke-linecap:square;"/>
   </g>
   <g id="line2d_152">
    <path clip-path="url(#p3a03025450)" d="M 632.754097 302.524978 
L 647.115783 302.524978 
" style="fill:none;stroke:#000000;stroke-linecap:square;"/>
   </g>
   <g id="line2d_153">
    <g clip-path="url(#p3a03025450)">
     <use style="fill-opacity:0;stroke:#000000;" x="640.159488" xlink:href="#m22a5076ab0" y="302.457839"/>
    </g>
   </g>
   <g id="line2d_154">
    <path clip-path="url(#p3a03025450)" d="M 676.700055 302.540495 
L 695.868463 302.540495 
L 695.868463 302.484927 
L 676.700055 302.484927 
L 676.700055 302.540495 
" style="fill:none;stroke:#000000;stroke-linecap:square;"/>
   </g>
   <g id="line2d_155">
    <path clip-path="url(#p3a03025450)" d="M 686.684064 302.540495 
L 686.684064 302.59678 
" style="fill:none;stroke:#000000;stroke-linecap:square;"/>
   </g>
   <g id="line2d_156">
    <path clip-path="url(#p3a03025450)" d="M 686.684064 302.484927 
L 686.684064 302.414803 
" style="fill:none;stroke:#000000;stroke-linecap:square;"/>
   </g>
   <g id="line2d_157">
    <path clip-path="url(#p3a03025450)" d="M 681.800616 302.59678 
L 691.368132 302.59678 
" style="fill:none;stroke:#000000;stroke-linecap:square;"/>
   </g>
   <g id="line2d_158">
    <path clip-path="url(#p3a03025450)" d="M 681.800616 302.414803 
L 691.368132 302.414803 
" style="fill:none;stroke:#000000;stroke-linecap:square;"/>
   </g>
   <g id="line2d_159"/>
   <g id="line2d_160">
    <path clip-path="url(#p3a03025450)" d="M 712.288387 302.440332 
L 726.650072 302.440332 
L 726.650072 302.376494 
L 712.288387 302.376494 
L 712.288387 302.440332 
" style="fill:none;stroke:#000000;stroke-linecap:square;"/>
   </g>
   <g id="line2d_161">
    <path clip-path="url(#p3a03025450)" d="M 719.693777 302.440332 
L 719.693777 302.462557 
" style="fill:none;stroke:#000000;stroke-linecap:square;"/>
   </g>
   <g id="line2d_162">
    <path clip-path="url(#p3a03025450)" d="M 719.693777 302.376494 
L 719.693777 302.286642 
" style="fill:none;stroke:#000000;stroke-linecap:square;"/>
   </g>
   <g id="line2d_163">
    <path clip-path="url(#p3a03025450)" d="M 716.050813 302.462557 
L 723.224632 302.462557 
" style="fill:none;stroke:#000000;stroke-linecap:square;"/>
   </g>
   <g id="line2d_164">
    <path clip-path="url(#p3a03025450)" d="M 716.050813 302.286642 
L 723.224632 302.286642 
" style="fill:none;stroke:#000000;stroke-linecap:square;"/>
   </g>
   <g id="line2d_165"/>
   <g id="line2d_166">
    <path clip-path="url(#p3a03025450)" d="M 739.412515 302.261398 
L 750.896464 302.261398 
L 750.896464 302.05863 
L 739.412515 302.05863 
L 739.412515 302.261398 
" style="fill:none;stroke:#000000;stroke-linecap:square;"/>
   </g>
   <g id="line2d_167">
    <path clip-path="url(#p3a03025450)" d="M 745.298099 302.261398 
L 745.298099 302.300678 
" style="fill:none;stroke:#000000;stroke-linecap:square;"/>
   </g>
   <g id="line2d_168">
    <path clip-path="url(#p3a03025450)" d="M 745.298099 302.05863 
L 745.298099 301.758239 
" style="fill:none;stroke:#000000;stroke-linecap:square;"/>
   </g>
   <g id="line2d_169">
    <path clip-path="url(#p3a03025450)" d="M 742.39304 302.300678 
L 748.131421 302.300678 
" style="fill:none;stroke:#000000;stroke-linecap:square;"/>
   </g>
   <g id="line2d_170">
    <path clip-path="url(#p3a03025450)" d="M 742.39304 301.758239 
L 748.131421 301.758239 
" style="fill:none;stroke:#000000;stroke-linecap:square;"/>
   </g>
   <g id="line2d_171">
    <g clip-path="url(#p3a03025450)">
     <use style="fill-opacity:0;stroke:#000000;" x="745.298099" xlink:href="#m22a5076ab0" y="301.394024"/>
     <use style="fill-opacity:0;stroke:#000000;" x="745.298099" xlink:href="#m22a5076ab0" y="301.731471"/>
    </g>
   </g>
   <g id="line2d_172">
    <path clip-path="url(#p3a03025450)" d="M 761.334905 301.839537 
L 770.902421 301.839537 
L 770.902421 301.600402 
L 761.334905 301.600402 
L 761.334905 301.839537 
" style="fill:none;stroke:#000000;stroke-linecap:square;"/>
   </g>
   <g id="line2d_173">
    <path clip-path="url(#p3a03025450)" d="M 766.218354 301.839537 
L 766.218354 302.001106 
" style="fill:none;stroke:#000000;stroke-linecap:square;"/>
   </g>
   <g id="line2d_174">
    <path clip-path="url(#p3a03025450)" d="M 766.218354 301.600402 
L 766.218354 301.414225 
" style="fill:none;stroke:#000000;stroke-linecap:square;"/>
   </g>
   <g id="line2d_175">
    <path clip-path="url(#p3a03025450)" d="M 763.802607 302.001106 
L 768.584287 302.001106 
" style="fill:none;stroke:#000000;stroke-linecap:square;"/>
   </g>
   <g id="line2d_176">
    <path clip-path="url(#p3a03025450)" d="M 763.802607 301.414225 
L 768.584287 301.414225 
" style="fill:none;stroke:#000000;stroke-linecap:square;"/>
   </g>
   <g id="line2d_177">
    <g clip-path="url(#p3a03025450)">
     <use style="fill-opacity:0;stroke:#000000;" x="766.218354" xlink:href="#m22a5076ab0" y="301.051519"/>
     <use style="fill-opacity:0;stroke:#000000;" x="766.218354" xlink:href="#m22a5076ab0" y="301.044681"/>
     <use style="fill-opacity:0;stroke:#000000;" x="766.218354" xlink:href="#m22a5076ab0" y="300.935468"/>
    </g>
   </g>
   <g id="line2d_178">
    <path clip-path="url(#p3a03025450)" d="M 779.733218 299.974988 
L 787.932686 299.974988 
L 787.932686 299.091432 
L 779.733218 299.091432 
L 779.733218 299.974988 
" style="fill:none;stroke:#000000;stroke-linecap:square;"/>
   </g>
   <g id="line2d_179">
    <path clip-path="url(#p3a03025450)" d="M 783.906177 299.974988 
L 783.906177 300.721295 
" style="fill:none;stroke:#000000;stroke-linecap:square;"/>
   </g>
   <g id="line2d_180">
    <path clip-path="url(#p3a03025450)" d="M 783.906177 299.091432 
L 783.906177 298.092404 
" style="fill:none;stroke:#000000;stroke-linecap:square;"/>
   </g>
   <g id="line2d_181">
    <path clip-path="url(#p3a03025450)" d="M 781.838666 300.721295 
L 785.937092 300.721295 
" style="fill:none;stroke:#000000;stroke-linecap:square;"/>
   </g>
   <g id="line2d_182">
    <path clip-path="url(#p3a03025450)" d="M 781.838666 298.092404 
L 785.937092 298.092404 
" style="fill:none;stroke:#000000;stroke-linecap:square;"/>
   </g>
   <g id="line2d_183">
    <g clip-path="url(#p3a03025450)">
     <use style="fill-opacity:0;stroke:#000000;" x="783.906177" xlink:href="#m22a5076ab0" y="296.671316"/>
     <use style="fill-opacity:0;stroke:#000000;" x="783.906177" xlink:href="#m22a5076ab0" y="294.47722"/>
     <use style="fill-opacity:0;stroke:#000000;" x="783.906177" xlink:href="#m22a5076ab0" y="295.227281"/>
     <use style="fill-opacity:0;stroke:#000000;" x="783.906177" xlink:href="#m22a5076ab0" y="297.554836"/>
    </g>
   </g>
   <g id="line2d_184">
    <path clip-path="url(#p3a03025450)" d="M 795.585102 288.926195 
L 802.758921 288.926195 
L 802.758921 278.855136 
L 795.585102 278.855136 
L 795.585102 288.926195 
" style="fill:none;stroke:#000000;stroke-linecap:square;"/>
   </g>
   <g id="line2d_185">
    <path clip-path="url(#p3a03025450)" d="M 799.228066 288.926195 
L 799.228066 293.756965 
" style="fill:none;stroke:#000000;stroke-linecap:square;"/>
   </g>
   <g id="line2d_186">
    <path clip-path="url(#p3a03025450)" d="M 799.228066 278.855136 
L 799.228066 264.4074 
" style="fill:none;stroke:#000000;stroke-linecap:square;"/>
   </g>
   <g id="line2d_187">
    <path clip-path="url(#p3a03025450)" d="M 797.421041 293.756965 
L 801.007074 293.756965 
" style="fill:none;stroke:#000000;stroke-linecap:square;"/>
   </g>
   <g id="line2d_188">
    <path clip-path="url(#p3a03025450)" d="M 797.421041 264.4074 
L 801.007074 264.4074 
" style="fill:none;stroke:#000000;stroke-linecap:square;"/>
   </g>
   <g id="line2d_189">
    <g clip-path="url(#p3a03025450)">
     <use style="fill-opacity:0;stroke:#000000;" x="799.228066" xlink:href="#m22a5076ab0" y="257.675599"/>
     <use style="fill-opacity:0;stroke:#000000;" x="799.228066" xlink:href="#m22a5076ab0" y="254.425613"/>
    </g>
   </g>
   <g id="line2d_190">
    <path clip-path="url(#p3a03025450)" d="M 809.510499 288.857983 
L 815.886791 288.857983 
L 815.886791 276.197281 
L 809.510499 276.197281 
L 809.510499 288.857983 
" style="fill:none;stroke:#000000;stroke-linecap:square;"/>
   </g>
   <g id="line2d_191">
    <path clip-path="url(#p3a03025450)" d="M 812.74293 288.857983 
L 812.74293 296.023512 
" style="fill:none;stroke:#000000;stroke-linecap:square;"/>
   </g>
   <g id="line2d_192">
    <path clip-path="url(#p3a03025450)" d="M 812.74293 276.197281 
L 812.74293 266.512748 
" style="fill:none;stroke:#000000;stroke-linecap:square;"/>
   </g>
   <g id="line2d_193">
    <path clip-path="url(#p3a03025450)" d="M 811.138097 296.023512 
L 814.325628 296.023512 
" style="fill:none;stroke:#000000;stroke-linecap:square;"/>
   </g>
   <g id="line2d_194">
    <path clip-path="url(#p3a03025450)" d="M 811.138097 266.512748 
L 814.325628 266.512748 
" style="fill:none;stroke:#000000;stroke-linecap:square;"/>
   </g>
   <g id="line2d_195">
    <g clip-path="url(#p3a03025450)">
     <use style="fill-opacity:0;stroke:#000000;" x="812.74293" xlink:href="#m22a5076ab0" y="225.602568"/>
     <use style="fill-opacity:0;stroke:#000000;" x="812.74293" xlink:href="#m22a5076ab0" y="209.275542"/>
     <use style="fill-opacity:0;stroke:#000000;" x="812.74293" xlink:href="#m22a5076ab0" y="232.483897"/>
    </g>
   </g>
   <g id="line2d_196">
    <path clip-path="url(#p3a03025450)" d="M 821.927329 289.850937 
L 827.665711 289.850937 
L 827.665711 275.665525 
L 821.927329 275.665525 
L 821.927329 289.850937 
" style="fill:none;stroke:#000000;stroke-linecap:square;"/>
   </g>
   <g id="line2d_197">
    <path clip-path="url(#p3a03025450)" d="M 824.832388 289.850937 
L 824.832388 292.664515 
" style="fill:none;stroke:#000000;stroke-linecap:square;"/>
   </g>
   <g id="line2d_198">
    <path clip-path="url(#p3a03025450)" d="M 824.832388 275.665525 
L 824.832388 260.36711 
" style="fill:none;stroke:#000000;stroke-linecap:square;"/>
   </g>
   <g id="line2d_199">
    <path clip-path="url(#p3a03025450)" d="M 823.389052 292.664515 
L 826.257795 292.664515 
" style="fill:none;stroke:#000000;stroke-linecap:square;"/>
   </g>
   <g id="line2d_200">
    <path clip-path="url(#p3a03025450)" d="M 823.389052 260.36711 
L 826.257795 260.36711 
" style="fill:none;stroke:#000000;stroke-linecap:square;"/>
   </g>
   <g id="line2d_201">
    <g clip-path="url(#p3a03025450)">
     <use style="fill-opacity:0;stroke:#000000;" x="824.832388" xlink:href="#m22a5076ab0" y="217.162088"/>
     <use style="fill-opacity:0;stroke:#000000;" x="824.832388" xlink:href="#m22a5076ab0" y="187.003187"/>
     <use style="fill-opacity:0;stroke:#000000;" x="824.832388" xlink:href="#m22a5076ab0" y="250.196932"/>
    </g>
   </g>
   <g id="line2d_202">
    <path clip-path="url(#p3a03025450)" d="M 833.13073 286.347472 
L 838.347253 286.347472 
L 838.347253 276.466706 
L 833.13073 276.466706 
L 833.13073 286.347472 
" style="fill:none;stroke:#000000;stroke-linecap:square;"/>
   </g>
   <g id="line2d_203">
    <path clip-path="url(#p3a03025450)" d="M 835.768633 286.347472 
L 835.768633 292.523528 
" style="fill:none;stroke:#000000;stroke-linecap:square;"/>
   </g>
   <g id="line2d_204">
    <path clip-path="url(#p3a03025450)" d="M 835.768633 276.466706 
L 835.768633 261.686615 
" style="fill:none;stroke:#000000;stroke-linecap:square;"/>
   </g>
   <g id="line2d_205">
    <path clip-path="url(#p3a03025450)" d="M 834.457262 292.523528 
L 837.065186 292.523528 
" style="fill:none;stroke:#000000;stroke-linecap:square;"/>
   </g>
   <g id="line2d_206">
    <path clip-path="url(#p3a03025450)" d="M 834.457262 261.686615 
L 837.065186 261.686615 
" style="fill:none;stroke:#000000;stroke-linecap:square;"/>
   </g>
   <g id="line2d_207">
    <g clip-path="url(#p3a03025450)">
     <use style="fill-opacity:0;stroke:#000000;" x="835.768633" xlink:href="#m22a5076ab0" y="256.216902"/>
    </g>
   </g>
   <g id="line2d_208">
    <path clip-path="url(#p3a03025450)" d="M 843.336896 291.020657 
L 848.118577 291.020657 
L 848.118577 275.244025 
L 843.336896 275.244025 
L 843.336896 291.020657 
" style="fill:none;stroke:#000000;stroke-linecap:square;"/>
   </g>
   <g id="line2d_209">
    <path clip-path="url(#p3a03025450)" d="M 845.752643 291.020657 
L 845.752643 296.676556 
" style="fill:none;stroke:#000000;stroke-linecap:square;"/>
   </g>
   <g id="line2d_210">
    <path clip-path="url(#p3a03025450)" d="M 845.752643 275.244025 
L 845.752643 264.633381 
" style="fill:none;stroke:#000000;stroke-linecap:square;"/>
   </g>
   <g id="line2d_211">
    <path clip-path="url(#p3a03025450)" d="M 844.551127 296.676556 
L 846.941708 296.676556 
" style="fill:none;stroke:#000000;stroke-linecap:square;"/>
   </g>
   <g id="line2d_212">
    <path clip-path="url(#p3a03025450)" d="M 844.551127 264.633381 
L 846.941708 264.633381 
" style="fill:none;stroke:#000000;stroke-linecap:square;"/>
   </g>
   <g id="line2d_213">
    <g clip-path="url(#p3a03025450)">
     <use style="fill-opacity:0;stroke:#000000;" x="845.752643" xlink:href="#m22a5076ab0" y="245.543414"/>
     <use style="fill-opacity:0;stroke:#000000;" x="845.752643" xlink:href="#m22a5076ab0" y="227.762281"/>
     <use style="fill-opacity:0;stroke:#000000;" x="845.752643" xlink:href="#m22a5076ab0" y="227.97243"/>
    </g>
   </g>
   <g id="line2d_214">
    <path clip-path="url(#p3a03025450)" d="M 852.708938 289.957385 
L 857.122702 289.957385 
L 857.122702 275.603572 
L 852.708938 275.603572 
L 852.708938 289.957385 
" style="fill:none;stroke:#000000;stroke-linecap:square;"/>
   </g>
   <g id="line2d_215">
    <path clip-path="url(#p3a03025450)" d="M 854.937041 289.957385 
L 854.937041 296.670515 
" style="fill:none;stroke:#000000;stroke-linecap:square;"/>
   </g>
   <g id="line2d_216">
    <path clip-path="url(#p3a03025450)" d="M 854.937041 275.603572 
L 854.937041 260.967205 
" style="fill:none;stroke:#000000;stroke-linecap:square;"/>
   </g>
   <g id="line2d_217">
    <path clip-path="url(#p3a03025450)" d="M 853.828398 296.670515 
L 856.035076 296.670515 
" style="fill:none;stroke:#000000;stroke-linecap:square;"/>
   </g>
   <g id="line2d_218">
    <path clip-path="url(#p3a03025450)" d="M 853.828398 260.967205 
L 856.035076 260.967205 
" style="fill:none;stroke:#000000;stroke-linecap:square;"/>
   </g>
   <g id="line2d_219">
    <g clip-path="url(#p3a03025450)">
     <use style="fill-opacity:0;stroke:#000000;" x="854.937041" xlink:href="#m22a5076ab0" y="242.636791"/>
     <use style="fill-opacity:0;stroke:#000000;" x="854.937041" xlink:href="#m22a5076ab0" y="245.300713"/>
     <use style="fill-opacity:0;stroke:#000000;" x="854.937041" xlink:href="#m22a5076ab0" y="219.223228"/>
    </g>
   </g>
   <g id="line2d_220">
    <path clip-path="url(#p3a03025450)" d="M 861.372956 286.308454 
L 865.471381 286.308454 
L 865.471381 276.936879 
L 861.372956 276.936879 
L 861.372956 286.308454 
" style="fill:none;stroke:#000000;stroke-linecap:square;"/>
   </g>
   <g id="line2d_221">
    <path clip-path="url(#p3a03025450)" d="M 863.440466 286.308454 
L 863.440466 293.490528 
" style="fill:none;stroke:#000000;stroke-linecap:square;"/>
   </g>
   <g id="line2d_222">
    <path clip-path="url(#p3a03025450)" d="M 863.440466 276.936879 
L 863.440466 263.624249 
" style="fill:none;stroke:#000000;stroke-linecap:square;"/>
   </g>
   <g id="line2d_223">
    <path clip-path="url(#p3a03025450)" d="M 862.411367 293.490528 
L 864.460417 293.490528 
" style="fill:none;stroke:#000000;stroke-linecap:square;"/>
   </g>
   <g id="line2d_224">
    <path clip-path="url(#p3a03025450)" d="M 862.411367 263.624249 
L 864.460417 263.624249 
" style="fill:none;stroke:#000000;stroke-linecap:square;"/>
   </g>
   <g id="line2d_225">
    <g clip-path="url(#p3a03025450)">
     <use style="fill-opacity:0;stroke:#000000;" x="863.440466" xlink:href="#m22a5076ab0" y="231.495442"/>
     <use style="fill-opacity:0;stroke:#000000;" x="863.440466" xlink:href="#m22a5076ab0" y="231.558483"/>
    </g>
   </g>
   <g id="line2d_226">
    <path clip-path="url(#p3a03025450)" d="M 869.428454 290.141848 
L 873.253599 290.141848 
L 873.253599 275.552187 
L 869.428454 275.552187 
L 869.428454 290.141848 
" style="fill:none;stroke:#000000;stroke-linecap:square;"/>
   </g>
   <g id="line2d_227">
    <path clip-path="url(#p3a03025450)" d="M 871.356965 290.141848 
L 871.356965 292.904055 
" style="fill:none;stroke:#000000;stroke-linecap:square;"/>
   </g>
   <g id="line2d_228">
    <path clip-path="url(#p3a03025450)" d="M 871.356965 275.552187 
L 871.356965 260.548006 
" style="fill:none;stroke:#000000;stroke-linecap:square;"/>
   </g>
   <g id="line2d_229">
    <path clip-path="url(#p3a03025450)" d="M 870.396761 292.904055 
L 872.309201 292.904055 
" style="fill:none;stroke:#000000;stroke-linecap:square;"/>
   </g>
   <g id="line2d_230">
    <path clip-path="url(#p3a03025450)" d="M 870.396761 260.548006 
L 872.309201 260.548006 
" style="fill:none;stroke:#000000;stroke-linecap:square;"/>
   </g>
   <g id="line2d_231">
    <g clip-path="url(#p3a03025450)">
     <use style="fill-opacity:0;stroke:#000000;" x="871.356965" xlink:href="#m22a5076ab0" y="216.609194"/>
     <use style="fill-opacity:0;stroke:#000000;" x="871.356965" xlink:href="#m22a5076ab0" y="250.139933"/>
    </g>
   </g>
   <g id="line2d_232">
    <path clip-path="url(#p3a03025450)" d="M 876.95533 289.450451 
L 880.541364 289.450451 
L 880.541364 271.718498 
L 876.95533 271.718498 
L 876.95533 289.450451 
" style="fill:none;stroke:#000000;stroke-linecap:square;"/>
   </g>
   <g id="line2d_233">
    <path clip-path="url(#p3a03025450)" d="M 878.762355 289.450451 
L 878.762355 293.485334 
" style="fill:none;stroke:#000000;stroke-linecap:square;"/>
   </g>
   <g id="line2d_234">
    <path clip-path="url(#p3a03025450)" d="M 878.762355 271.718498 
L 878.762355 245.399917 
" style="fill:none;stroke:#000000;stroke-linecap:square;"/>
   </g>
   <g id="line2d_235">
    <path clip-path="url(#p3a03025450)" d="M 877.8624 293.485334 
L 879.655307 293.485334 
" style="fill:none;stroke:#000000;stroke-linecap:square;"/>
   </g>
   <g id="line2d_236">
    <path clip-path="url(#p3a03025450)" d="M 877.8624 245.399917 
L 879.655307 245.399917 
" style="fill:none;stroke:#000000;stroke-linecap:square;"/>
   </g>
   <g id="line2d_237">
    <g clip-path="url(#p3a03025450)">
     <use style="fill-opacity:0;stroke:#000000;" x="878.762355" xlink:href="#m22a5076ab0" y="231.961833"/>
     <use style="fill-opacity:0;stroke:#000000;" x="878.762355" xlink:href="#m22a5076ab0" y="223.583727"/>
    </g>
   </g>
   <g id="line2d_238">
    <path clip-path="url(#p3a03025450)" d="M 884.018712 291.579147 
L 887.393771 291.579147 
L 887.393771 282.082852 
L 884.018712 282.082852 
L 884.018712 291.579147 
" style="fill:none;stroke:#000000;stroke-linecap:square;"/>
   </g>
   <g id="line2d_239">
    <path clip-path="url(#p3a03025450)" d="M 885.71865 291.579147 
L 885.71865 294.672325 
" style="fill:none;stroke:#000000;stroke-linecap:square;"/>
   </g>
   <g id="line2d_240">
    <path clip-path="url(#p3a03025450)" d="M 885.71865 282.082852 
L 885.71865 269.751784 
" style="fill:none;stroke:#000000;stroke-linecap:square;"/>
   </g>
   <g id="line2d_241">
    <path clip-path="url(#p3a03025450)" d="M 884.871829 294.672325 
L 886.559267 294.672325 
" style="fill:none;stroke:#000000;stroke-linecap:square;"/>
   </g>
   <g id="line2d_242">
    <path clip-path="url(#p3a03025450)" d="M 884.871829 269.751784 
L 886.559267 269.751784 
" style="fill:none;stroke:#000000;stroke-linecap:square;"/>
   </g>
   <g id="line2d_243">
    <g clip-path="url(#p3a03025450)">
     <use style="fill-opacity:0;stroke:#000000;" x="885.71865" xlink:href="#m22a5076ab0" y="262.33413"/>
     <use style="fill-opacity:0;stroke:#000000;" x="885.71865" xlink:href="#m22a5076ab0" y="267.258367"/>
     <use style="fill-opacity:0;stroke:#000000;" x="885.71865" xlink:href="#m22a5076ab0" y="263.097974"/>
    </g>
   </g>
   <g id="line2d_244">
    <path clip-path="url(#p3a03025450)" d="M 890.672386 288.565412 
L 893.859917 288.565412 
L 893.859917 274.535772 
L 890.672386 274.535772 
L 890.672386 288.565412 
" style="fill:none;stroke:#000000;stroke-linecap:square;"/>
   </g>
   <g id="line2d_245">
    <path clip-path="url(#p3a03025450)" d="M 892.27722 288.565412 
L 892.27722 295.717685 
" style="fill:none;stroke:#000000;stroke-linecap:square;"/>
   </g>
   <g id="line2d_246">
    <path clip-path="url(#p3a03025450)" d="M 892.27722 274.535772 
L 892.27722 258.378929 
" style="fill:none;stroke:#000000;stroke-linecap:square;"/>
   </g>
   <g id="line2d_247">
    <path clip-path="url(#p3a03025450)" d="M 891.477609 295.717685 
L 893.071297 295.717685 
" style="fill:none;stroke:#000000;stroke-linecap:square;"/>
   </g>
   <g id="line2d_248">
    <path clip-path="url(#p3a03025450)" d="M 891.477609 258.378929 
L 893.071297 258.378929 
" style="fill:none;stroke:#000000;stroke-linecap:square;"/>
   </g>
   <g id="line2d_249">
    <g clip-path="url(#p3a03025450)">
     <use style="fill-opacity:0;stroke:#000000;" x="892.27722" xlink:href="#m22a5076ab0" y="244.689367"/>
     <use style="fill-opacity:0;stroke:#000000;" x="892.27722" xlink:href="#m22a5076ab0" y="233.828927"/>
    </g>
   </g>
   <g id="line2d_250">
    <path clip-path="url(#p3a03025450)" d="M 896.961287 194.309386 
L 899.981033 194.309386 
L 899.981033 139.863961 
L 896.961287 139.863961 
L 896.961287 194.309386 
" style="fill:none;stroke:#000000;stroke-linecap:square;"/>
   </g>
   <g id="line2d_251">
    <path clip-path="url(#p3a03025450)" d="M 898.481094 194.309386 
L 898.481094 245.850412 
" style="fill:none;stroke:#000000;stroke-linecap:square;"/>
   </g>
   <g id="line2d_252">
    <path clip-path="url(#p3a03025450)" d="M 898.481094 139.863961 
L 898.481094 88.089116 
" style="fill:none;stroke:#000000;stroke-linecap:square;"/>
   </g>
   <g id="line2d_253">
    <path clip-path="url(#p3a03025450)" d="M 897.723707 245.850412 
L 899.233515 245.850412 
" style="fill:none;stroke:#000000;stroke-linecap:square;"/>
   </g>
   <g id="line2d_254">
    <path clip-path="url(#p3a03025450)" d="M 897.723707 88.089116 
L 899.233515 88.089116 
" style="fill:none;stroke:#000000;stroke-linecap:square;"/>
   </g>
   <g id="line2d_255">
    <g clip-path="url(#p3a03025450)">
     <use style="fill-opacity:0;stroke:#000000;" x="898.481094" xlink:href="#m22a5076ab0" y="55.554545"/>
    </g>
   </g>
   <g id="line2d_256">
    <path clip-path="url(#p3a03025450)" d="M 902.923341 202.398004 
L 905.792084 202.398004 
L 905.792084 150.923386 
L 902.923341 150.923386 
L 902.923341 202.398004 
" style="fill:none;stroke:#000000;stroke-linecap:square;"/>
   </g>
   <g id="line2d_257">
    <path clip-path="url(#p3a03025450)" d="M 904.366678 202.398004 
L 904.366678 240.62474 
" style="fill:none;stroke:#000000;stroke-linecap:square;"/>
   </g>
   <g id="line2d_258">
    <path clip-path="url(#p3a03025450)" d="M 904.366678 150.923386 
L 904.366678 103.275213 
" style="fill:none;stroke:#000000;stroke-linecap:square;"/>
   </g>
   <g id="line2d_259">
    <path clip-path="url(#p3a03025450)" d="M 903.647279 240.62474 
L 905.081594 240.62474 
" style="fill:none;stroke:#000000;stroke-linecap:square;"/>
   </g>
   <g id="line2d_260">
    <path clip-path="url(#p3a03025450)" d="M 903.647279 103.275213 
L 905.081594 103.275213 
" style="fill:none;stroke:#000000;stroke-linecap:square;"/>
   </g>
   <g id="line2d_261">
    <g clip-path="url(#p3a03025450)">
     <use style="fill-opacity:0;stroke:#000000;" x="904.366678" xlink:href="#m22a5076ab0" y="72.17385"/>
    </g>
   </g>
   <g id="line2d_262">
    <path clip-path="url(#p3a03025450)" d="M 527.615486 302.59375 
L 586.229521 302.59375 
" style="fill:none;stroke:#ff7f0e;stroke-linecap:square;"/>
   </g>
   <g id="line2d_263">
    <path clip-path="url(#p3a03025450)" d="M 624.837598 302.587352 
L 653.674352 302.587352 
" style="fill:none;stroke:#ff7f0e;stroke-linecap:square;"/>
   </g>
   <g id="line2d_264">
    <path clip-path="url(#p3a03025450)" d="M 676.700055 302.512191 
L 695.868463 302.512191 
" style="fill:none;stroke:#ff7f0e;stroke-linecap:square;"/>
   </g>
   <g id="line2d_265">
    <path clip-path="url(#p3a03025450)" d="M 712.288387 302.41941 
L 726.650072 302.41941 
" style="fill:none;stroke:#ff7f0e;stroke-linecap:square;"/>
   </g>
   <g id="line2d_266">
    <path clip-path="url(#p3a03025450)" d="M 739.412515 302.207022 
L 750.896464 302.207022 
" style="fill:none;stroke:#ff7f0e;stroke-linecap:square;"/>
   </g>
   <g id="line2d_267">
    <path clip-path="url(#p3a03025450)" d="M 761.334905 301.737524 
L 770.902421 301.737524 
" style="fill:none;stroke:#ff7f0e;stroke-linecap:square;"/>
   </g>
   <g id="line2d_268">
    <path clip-path="url(#p3a03025450)" d="M 779.733218 299.426475 
L 787.932686 299.426475 
" style="fill:none;stroke:#ff7f0e;stroke-linecap:square;"/>
   </g>
   <g id="line2d_269">
    <path clip-path="url(#p3a03025450)" d="M 795.585102 284.175291 
L 802.758921 284.175291 
" style="fill:none;stroke:#ff7f0e;stroke-linecap:square;"/>
   </g>
   <g id="line2d_270">
    <path clip-path="url(#p3a03025450)" d="M 809.510499 284.138564 
L 815.886791 284.138564 
" style="fill:none;stroke:#ff7f0e;stroke-linecap:square;"/>
   </g>
   <g id="line2d_271">
    <path clip-path="url(#p3a03025450)" d="M 821.927329 287.071685 
L 827.665711 287.071685 
" style="fill:none;stroke:#ff7f0e;stroke-linecap:square;"/>
   </g>
   <g id="line2d_272">
    <path clip-path="url(#p3a03025450)" d="M 833.13073 279.830962 
L 838.347253 279.830962 
" style="fill:none;stroke:#ff7f0e;stroke-linecap:square;"/>
   </g>
   <g id="line2d_273">
    <path clip-path="url(#p3a03025450)" d="M 843.336896 284.536386 
L 848.118577 284.536386 
" style="fill:none;stroke:#ff7f0e;stroke-linecap:square;"/>
   </g>
   <g id="line2d_274">
    <path clip-path="url(#p3a03025450)" d="M 852.708938 287.197982 
L 857.122702 287.197982 
" style="fill:none;stroke:#ff7f0e;stroke-linecap:square;"/>
   </g>
   <g id="line2d_275">
    <path clip-path="url(#p3a03025450)" d="M 861.372956 282.895223 
L 865.471381 282.895223 
" style="fill:none;stroke:#ff7f0e;stroke-linecap:square;"/>
   </g>
   <g id="line2d_276">
    <path clip-path="url(#p3a03025450)" d="M 869.428454 285.643735 
L 873.253599 285.643735 
" style="fill:none;stroke:#ff7f0e;stroke-linecap:square;"/>
   </g>
   <g id="line2d_277">
    <path clip-path="url(#p3a03025450)" d="M 876.95533 279.409051 
L 880.541364 279.409051 
" style="fill:none;stroke:#ff7f0e;stroke-linecap:square;"/>
   </g>
   <g id="line2d_278">
    <path clip-path="url(#p3a03025450)" d="M 884.018712 290.090461 
L 887.393771 290.090461 
" style="fill:none;stroke:#ff7f0e;stroke-linecap:square;"/>
   </g>
   <g id="line2d_279">
    <path clip-path="url(#p3a03025450)" d="M 890.672386 281.332869 
L 893.859917 281.332869 
" style="fill:none;stroke:#ff7f0e;stroke-linecap:square;"/>
   </g>
   <g id="line2d_280">
    <path clip-path="url(#p3a03025450)" d="M 896.961287 181.380275 
L 899.981033 181.380275 
" style="fill:none;stroke:#ff7f0e;stroke-linecap:square;"/>
   </g>
   <g id="line2d_281">
    <path clip-path="url(#p3a03025450)" d="M 902.923341 182.402679 
L 905.792084 182.402679 
" style="fill:none;stroke:#ff7f0e;stroke-linecap:square;"/>
   </g>
   <g id="patch_8">
    <path d="M 481.090909 315 
L 481.090909 43.2 
" style="fill:none;stroke:#000000;stroke-linecap:square;stroke-linejoin:miter;stroke-width:0.8;"/>
   </g>
   <g id="patch_9">
    <path d="M 907.2 315 
L 907.2 43.2 
" style="fill:none;stroke:#000000;stroke-linecap:square;stroke-linejoin:miter;stroke-width:0.8;"/>
   </g>
   <g id="patch_10">
    <path d="M 481.090909 315 
L 907.2 315 
" style="fill:none;stroke:#000000;stroke-linecap:square;stroke-linejoin:miter;stroke-width:0.8;"/>
   </g>
   <g id="patch_11">
    <path d="M 481.090909 43.2 
L 907.2 43.2 
" style="fill:none;stroke:#000000;stroke-linecap:square;stroke-linejoin:miter;stroke-width:0.8;"/>
   </g>
   <g id="text_31">
    <!-- Time taken for tests generated given for RS -->
    <defs>
     <path d="M 2.984375 54.6875 
L 12.5 54.6875 
L 29.59375 8.796875 
L 46.6875 54.6875 
L 56.203125 54.6875 
L 35.6875 0 
L 23.484375 0 
z
" id="DejaVuSans-118"/>
     <path d="M 44.390625 34.1875 
Q 47.5625 33.109375 50.5625 29.59375 
Q 53.5625 26.078125 56.59375 19.921875 
L 66.609375 0 
L 56 0 
L 46.6875 18.703125 
Q 43.0625 26.03125 39.671875 28.421875 
Q 36.28125 30.8125 30.421875 30.8125 
L 19.671875 30.8125 
L 19.671875 0 
L 9.8125 0 
L 9.8125 72.90625 
L 32.078125 72.90625 
Q 44.578125 72.90625 50.734375 67.671875 
Q 56.890625 62.453125 56.890625 51.90625 
Q 56.890625 45.015625 53.6875 40.46875 
Q 50.484375 35.9375 44.390625 34.1875 
z
M 19.671875 64.796875 
L 19.671875 38.921875 
L 32.078125 38.921875 
Q 39.203125 38.921875 42.84375 42.21875 
Q 46.484375 45.515625 46.484375 51.90625 
Q 46.484375 58.296875 42.84375 61.546875 
Q 39.203125 64.796875 32.078125 64.796875 
z
" id="DejaVuSans-82"/>
    </defs>
    <g transform="translate(562.697642 37.2)scale(0.12 -0.12)">
     <use xlink:href="#DejaVuSans-84"/>
     <use x="57.958984" xlink:href="#DejaVuSans-105"/>
     <use x="85.742188" xlink:href="#DejaVuSans-109"/>
     <use x="183.154297" xlink:href="#DejaVuSans-101"/>
     <use x="244.677734" xlink:href="#DejaVuSans-32"/>
     <use x="276.464844" xlink:href="#DejaVuSans-116"/>
     <use x="315.673828" xlink:href="#DejaVuSans-97"/>
     <use x="376.953125" xlink:href="#DejaVuSans-107"/>
     <use x="431.238281" xlink:href="#DejaVuSans-101"/>
     <use x="492.761719" xlink:href="#DejaVuSans-110"/>
     <use x="556.140625" xlink:href="#DejaVuSans-32"/>
     <use x="587.927734" xlink:href="#DejaVuSans-102"/>
     <use x="623.132812" xlink:href="#DejaVuSans-111"/>
     <use x="684.314453" xlink:href="#DejaVuSans-114"/>
     <use x="725.427734" xlink:href="#DejaVuSans-32"/>
     <use x="757.214844" xlink:href="#DejaVuSans-116"/>
     <use x="796.423828" xlink:href="#DejaVuSans-101"/>
     <use x="857.947266" xlink:href="#DejaVuSans-115"/>
     <use x="910.046875" xlink:href="#DejaVuSans-116"/>
     <use x="949.255859" xlink:href="#DejaVuSans-115"/>
     <use x="1001.355469" xlink:href="#DejaVuSans-32"/>
     <use x="1033.142578" xlink:href="#DejaVuSans-103"/>
     <use x="1096.619141" xlink:href="#DejaVuSans-101"/>
     <use x="1158.142578" xlink:href="#DejaVuSans-110"/>
     <use x="1221.521484" xlink:href="#DejaVuSans-101"/>
     <use x="1283.044922" xlink:href="#DejaVuSans-114"/>
     <use x="1324.158203" xlink:href="#DejaVuSans-97"/>
     <use x="1385.4375" xlink:href="#DejaVuSans-116"/>
     <use x="1424.646484" xlink:href="#DejaVuSans-101"/>
     <use x="1486.169922" xlink:href="#DejaVuSans-100"/>
     <use x="1549.646484" xlink:href="#DejaVuSans-32"/>
     <use x="1581.433594" xlink:href="#DejaVuSans-103"/>
     <use x="1644.910156" xlink:href="#DejaVuSans-105"/>
     <use x="1672.693359" xlink:href="#DejaVuSans-118"/>
     <use x="1731.873047" xlink:href="#DejaVuSans-101"/>
     <use x="1793.396484" xlink:href="#DejaVuSans-110"/>
     <use x="1856.775391" xlink:href="#DejaVuSans-32"/>
     <use x="1888.5625" xlink:href="#DejaVuSans-102"/>
     <use x="1923.767578" xlink:href="#DejaVuSans-111"/>
     <use x="1984.949219" xlink:href="#DejaVuSans-114"/>
     <use x="2026.0625" xlink:href="#DejaVuSans-32"/>
     <use x="2057.849609" xlink:href="#DejaVuSans-82"/>
     <use x="2127.332031" xlink:href="#DejaVuSans-83"/>
    </g>
   </g>
  </g>
  <g id="text_32">
   <!-- BES VS RS in terms of Time taken for JavaNioServerSocket3 -->
   <defs>
    <path d="M 28.609375 0 
L 0.78125 72.90625 
L 11.078125 72.90625 
L 34.1875 11.53125 
L 57.328125 72.90625 
L 67.578125 72.90625 
L 39.796875 0 
z
" id="DejaVuSans-86"/>
    <path d="M 9.8125 72.90625 
L 19.671875 72.90625 
L 19.671875 5.078125 
Q 19.671875 -8.109375 14.671875 -14.0625 
Q 9.671875 -20.015625 -1.421875 -20.015625 
L -5.171875 -20.015625 
L -5.171875 -11.71875 
L -2.09375 -11.71875 
Q 4.4375 -11.71875 7.125 -8.046875 
Q 9.8125 -4.390625 9.8125 5.078125 
z
" id="DejaVuSans-74"/>
    <path d="M 9.8125 72.90625 
L 23.09375 72.90625 
L 55.421875 11.921875 
L 55.421875 72.90625 
L 64.984375 72.90625 
L 64.984375 0 
L 51.703125 0 
L 19.390625 60.984375 
L 19.390625 0 
L 9.8125 0 
z
" id="DejaVuSans-78"/>
    <path d="M 48.78125 52.59375 
L 48.78125 44.1875 
Q 44.96875 46.296875 41.140625 47.34375 
Q 37.3125 48.390625 33.40625 48.390625 
Q 24.65625 48.390625 19.8125 42.84375 
Q 14.984375 37.3125 14.984375 27.296875 
Q 14.984375 17.28125 19.8125 11.734375 
Q 24.65625 6.203125 33.40625 6.203125 
Q 37.3125 6.203125 41.140625 7.25 
Q 44.96875 8.296875 48.78125 10.40625 
L 48.78125 2.09375 
Q 45.015625 0.34375 40.984375 -0.53125 
Q 36.96875 -1.421875 32.421875 -1.421875 
Q 20.0625 -1.421875 12.78125 6.34375 
Q 5.515625 14.109375 5.515625 27.296875 
Q 5.515625 40.671875 12.859375 48.328125 
Q 20.21875 56 33.015625 56 
Q 37.15625 56 41.109375 55.140625 
Q 45.0625 54.296875 48.78125 52.59375 
z
" id="DejaVuSans-99"/>
   </defs>
   <g transform="translate(324.81375 9.118125)scale(0.12 -0.12)">
    <use xlink:href="#DejaVuSans-66"/>
    <use x="68.603516" xlink:href="#DejaVuSans-69"/>
    <use x="131.787109" xlink:href="#DejaVuSans-83"/>
    <use x="195.263672" xlink:href="#DejaVuSans-32"/>
    <use x="227.050781" xlink:href="#DejaVuSans-86"/>
    <use x="295.458984" xlink:href="#DejaVuSans-83"/>
    <use x="358.935547" xlink:href="#DejaVuSans-32"/>
    <use x="390.722656" xlink:href="#DejaVuSans-82"/>
    <use x="460.205078" xlink:href="#DejaVuSans-83"/>
    <use x="523.681641" xlink:href="#DejaVuSans-32"/>
    <use x="555.46875" xlink:href="#DejaVuSans-105"/>
    <use x="583.251953" xlink:href="#DejaVuSans-110"/>
    <use x="646.630859" xlink:href="#DejaVuSans-32"/>
    <use x="678.417969" xlink:href="#DejaVuSans-116"/>
    <use x="717.626953" xlink:href="#DejaVuSans-101"/>
    <use x="779.150391" xlink:href="#DejaVuSans-114"/>
    <use x="818.513672" xlink:href="#DejaVuSans-109"/>
    <use x="915.925781" xlink:href="#DejaVuSans-115"/>
    <use x="968.025391" xlink:href="#DejaVuSans-32"/>
    <use x="999.8125" xlink:href="#DejaVuSans-111"/>
    <use x="1060.994141" xlink:href="#DejaVuSans-102"/>
    <use x="1096.199219" xlink:href="#DejaVuSans-32"/>
    <use x="1127.986328" xlink:href="#DejaVuSans-84"/>
    <use x="1185.945312" xlink:href="#DejaVuSans-105"/>
    <use x="1213.728516" xlink:href="#DejaVuSans-109"/>
    <use x="1311.140625" xlink:href="#DejaVuSans-101"/>
    <use x="1372.664062" xlink:href="#DejaVuSans-32"/>
    <use x="1404.451172" xlink:href="#DejaVuSans-116"/>
    <use x="1443.660156" xlink:href="#DejaVuSans-97"/>
    <use x="1504.939453" xlink:href="#DejaVuSans-107"/>
    <use x="1559.224609" xlink:href="#DejaVuSans-101"/>
    <use x="1620.748047" xlink:href="#DejaVuSans-110"/>
    <use x="1684.126953" xlink:href="#DejaVuSans-32"/>
    <use x="1715.914062" xlink:href="#DejaVuSans-102"/>
    <use x="1751.119141" xlink:href="#DejaVuSans-111"/>
    <use x="1812.300781" xlink:href="#DejaVuSans-114"/>
    <use x="1853.414062" xlink:href="#DejaVuSans-32"/>
    <use x="1885.201172" xlink:href="#DejaVuSans-74"/>
    <use x="1914.693359" xlink:href="#DejaVuSans-97"/>
    <use x="1975.972656" xlink:href="#DejaVuSans-118"/>
    <use x="2035.152344" xlink:href="#DejaVuSans-97"/>
    <use x="2096.431641" xlink:href="#DejaVuSans-78"/>
    <use x="2171.236328" xlink:href="#DejaVuSans-105"/>
    <use x="2199.019531" xlink:href="#DejaVuSans-111"/>
    <use x="2260.201172" xlink:href="#DejaVuSans-83"/>
    <use x="2323.677734" xlink:href="#DejaVuSans-101"/>
    <use x="2385.201172" xlink:href="#DejaVuSans-114"/>
    <use x="2426.314453" xlink:href="#DejaVuSans-118"/>
    <use x="2485.494141" xlink:href="#DejaVuSans-101"/>
    <use x="2547.017578" xlink:href="#DejaVuSans-114"/>
    <use x="2588.130859" xlink:href="#DejaVuSans-83"/>
    <use x="2651.607422" xlink:href="#DejaVuSans-111"/>
    <use x="2712.789062" xlink:href="#DejaVuSans-99"/>
    <use x="2767.769531" xlink:href="#DejaVuSans-107"/>
    <use x="2822.054688" xlink:href="#DejaVuSans-101"/>
    <use x="2883.578125" xlink:href="#DejaVuSans-116"/>
    <use x="2922.787109" xlink:href="#DejaVuSans-51"/>
   </g>
  </g>
 </g>
 <defs>
  <clipPath id="p5c79d0c549">
   <rect height="271.8" width="284.072727" x="126" y="43.2"/>
  </clipPath>
  <clipPath id="p3a03025450">
   <rect height="271.8" width="426.109091" x="481.090909" y="43.2"/>
  </clipPath>
 </defs>
</svg>
