<?xml version="1.0" encoding="utf-8" standalone="no"?>
<!DOCTYPE svg PUBLIC "-//W3C//DTD SVG 1.1//EN"
  "http://www.w3.org/Graphics/SVG/1.1/DTD/svg11.dtd">
<!-- Created with matplotlib (https://matplotlib.org/) -->
<svg height="360pt" version="1.1" viewBox="0 0 1008 360" width="1008pt" xmlns="http://www.w3.org/2000/svg" xmlns:xlink="http://www.w3.org/1999/xlink">
 <defs>
  <style type="text/css">
*{stroke-linecap:butt;stroke-linejoin:round;}
  </style>
 </defs>
 <g id="figure_1">
  <g id="patch_1">
   <path d="M 0 360 
L 1008 360 
L 1008 0 
L 0 0 
z
" style="fill:#ffffff;"/>
  </g>
  <g id="axes_1">
   <g id="patch_2">
    <path d="M 126 315 
L 410.072727 315 
L 410.072727 43.2 
L 126 43.2 
z
" style="fill:#ffffff;"/>
   </g>
   <g id="matplotlib.axis_1">
    <g id="xtick_1">
     <g id="line2d_1">
      <path clip-path="url(#p8a8dac9d51)" d="M 136.925874 315 
L 136.925874 43.2 
" style="fill:none;stroke:#b0b0b0;stroke-linecap:square;stroke-width:0.8;"/>
     </g>
     <g id="line2d_2">
      <defs>
       <path d="M 0 0 
L 0 3.5 
" id="mc838d66f97" style="stroke:#000000;stroke-width:0.8;"/>
      </defs>
      <g>
       <use style="stroke:#000000;stroke-width:0.8;" x="136.925874" xlink:href="#mc838d66f97" y="315"/>
      </g>
     </g>
     <g id="text_1">
      <!-- 1 -->
      <defs>
       <path d="M 12.40625 8.296875 
L 28.515625 8.296875 
L 28.515625 63.921875 
L 10.984375 60.40625 
L 10.984375 69.390625 
L 28.421875 72.90625 
L 38.28125 72.90625 
L 38.28125 8.296875 
L 54.390625 8.296875 
L 54.390625 0 
L 12.40625 0 
z
" id="DejaVuSans-49"/>
      </defs>
      <g transform="translate(133.744624 329.598437)scale(0.1 -0.1)">
       <use xlink:href="#DejaVuSans-49"/>
      </g>
     </g>
    </g>
    <g id="xtick_2">
     <g id="line2d_3">
      <path clip-path="url(#p8a8dac9d51)" d="M 158.777622 315 
L 158.777622 43.2 
" style="fill:none;stroke:#b0b0b0;stroke-linecap:square;stroke-width:0.8;"/>
     </g>
     <g id="line2d_4">
      <g>
       <use style="stroke:#000000;stroke-width:0.8;" x="158.777622" xlink:href="#mc838d66f97" y="315"/>
      </g>
     </g>
     <g id="text_2">
      <!-- 50 -->
      <defs>
       <path d="M 10.796875 72.90625 
L 49.515625 72.90625 
L 49.515625 64.59375 
L 19.828125 64.59375 
L 19.828125 46.734375 
Q 21.96875 47.46875 24.109375 47.828125 
Q 26.265625 48.1875 28.421875 48.1875 
Q 40.625 48.1875 47.75 41.5 
Q 54.890625 34.8125 54.890625 23.390625 
Q 54.890625 11.625 47.5625 5.09375 
Q 40.234375 -1.421875 26.90625 -1.421875 
Q 22.3125 -1.421875 17.546875 -0.640625 
Q 12.796875 0.140625 7.71875 1.703125 
L 7.71875 11.625 
Q 12.109375 9.234375 16.796875 8.0625 
Q 21.484375 6.890625 26.703125 6.890625 
Q 35.15625 6.890625 40.078125 11.328125 
Q 45.015625 15.765625 45.015625 23.390625 
Q 45.015625 31 40.078125 35.4375 
Q 35.15625 39.890625 26.703125 39.890625 
Q 22.75 39.890625 18.8125 39.015625 
Q 14.890625 38.140625 10.796875 36.28125 
z
" id="DejaVuSans-53"/>
       <path d="M 31.78125 66.40625 
Q 24.171875 66.40625 20.328125 58.90625 
Q 16.5 51.421875 16.5 36.375 
Q 16.5 21.390625 20.328125 13.890625 
Q 24.171875 6.390625 31.78125 6.390625 
Q 39.453125 6.390625 43.28125 13.890625 
Q 47.125 21.390625 47.125 36.375 
Q 47.125 51.421875 43.28125 58.90625 
Q 39.453125 66.40625 31.78125 66.40625 
z
M 31.78125 74.21875 
Q 44.046875 74.21875 50.515625 64.515625 
Q 56.984375 54.828125 56.984375 36.375 
Q 56.984375 17.96875 50.515625 8.265625 
Q 44.046875 -1.421875 31.78125 -1.421875 
Q 19.53125 -1.421875 13.0625 8.265625 
Q 6.59375 17.96875 6.59375 36.375 
Q 6.59375 54.828125 13.0625 64.515625 
Q 19.53125 74.21875 31.78125 74.21875 
z
" id="DejaVuSans-48"/>
      </defs>
      <g transform="translate(152.415122 329.598437)scale(0.1 -0.1)">
       <use xlink:href="#DejaVuSans-53"/>
       <use x="63.623047" xlink:href="#DejaVuSans-48"/>
      </g>
     </g>
    </g>
    <g id="xtick_3">
     <g id="line2d_5">
      <path clip-path="url(#p8a8dac9d51)" d="M 180.629371 315 
L 180.629371 43.2 
" style="fill:none;stroke:#b0b0b0;stroke-linecap:square;stroke-width:0.8;"/>
     </g>
     <g id="line2d_6">
      <g>
       <use style="stroke:#000000;stroke-width:0.8;" x="180.629371" xlink:href="#mc838d66f97" y="315"/>
      </g>
     </g>
     <g id="text_3">
      <!-- 100 -->
      <g transform="translate(171.085621 329.598437)scale(0.1 -0.1)">
       <use xlink:href="#DejaVuSans-49"/>
       <use x="63.623047" xlink:href="#DejaVuSans-48"/>
       <use x="127.246094" xlink:href="#DejaVuSans-48"/>
      </g>
     </g>
    </g>
    <g id="xtick_4">
     <g id="line2d_7">
      <path clip-path="url(#p8a8dac9d51)" d="M 202.481119 315 
L 202.481119 43.2 
" style="fill:none;stroke:#b0b0b0;stroke-linecap:square;stroke-width:0.8;"/>
     </g>
     <g id="line2d_8">
      <g>
       <use style="stroke:#000000;stroke-width:0.8;" x="202.481119" xlink:href="#mc838d66f97" y="315"/>
      </g>
     </g>
     <g id="text_4">
      <!-- 150 -->
      <g transform="translate(192.937369 329.598437)scale(0.1 -0.1)">
       <use xlink:href="#DejaVuSans-49"/>
       <use x="63.623047" xlink:href="#DejaVuSans-53"/>
       <use x="127.246094" xlink:href="#DejaVuSans-48"/>
      </g>
     </g>
    </g>
    <g id="xtick_5">
     <g id="line2d_9">
      <path clip-path="url(#p8a8dac9d51)" d="M 224.332867 315 
L 224.332867 43.2 
" style="fill:none;stroke:#b0b0b0;stroke-linecap:square;stroke-width:0.8;"/>
     </g>
     <g id="line2d_10">
      <g>
       <use style="stroke:#000000;stroke-width:0.8;" x="224.332867" xlink:href="#mc838d66f97" y="315"/>
      </g>
     </g>
     <g id="text_5">
      <!-- 200 -->
      <defs>
       <path d="M 19.1875 8.296875 
L 53.609375 8.296875 
L 53.609375 0 
L 7.328125 0 
L 7.328125 8.296875 
Q 12.9375 14.109375 22.625 23.890625 
Q 32.328125 33.6875 34.8125 36.53125 
Q 39.546875 41.84375 41.421875 45.53125 
Q 43.3125 49.21875 43.3125 52.78125 
Q 43.3125 58.59375 39.234375 62.25 
Q 35.15625 65.921875 28.609375 65.921875 
Q 23.96875 65.921875 18.8125 64.3125 
Q 13.671875 62.703125 7.8125 59.421875 
L 7.8125 69.390625 
Q 13.765625 71.78125 18.9375 73 
Q 24.125 74.21875 28.421875 74.21875 
Q 39.75 74.21875 46.484375 68.546875 
Q 53.21875 62.890625 53.21875 53.421875 
Q 53.21875 48.921875 51.53125 44.890625 
Q 49.859375 40.875 45.40625 35.40625 
Q 44.1875 33.984375 37.640625 27.21875 
Q 31.109375 20.453125 19.1875 8.296875 
z
" id="DejaVuSans-50"/>
      </defs>
      <g transform="translate(214.789117 329.598437)scale(0.1 -0.1)">
       <use xlink:href="#DejaVuSans-50"/>
       <use x="63.623047" xlink:href="#DejaVuSans-48"/>
       <use x="127.246094" xlink:href="#DejaVuSans-48"/>
      </g>
     </g>
    </g>
    <g id="xtick_6">
     <g id="line2d_11">
      <path clip-path="url(#p8a8dac9d51)" d="M 246.184615 315 
L 246.184615 43.2 
" style="fill:none;stroke:#b0b0b0;stroke-linecap:square;stroke-width:0.8;"/>
     </g>
     <g id="line2d_12">
      <g>
       <use style="stroke:#000000;stroke-width:0.8;" x="246.184615" xlink:href="#mc838d66f97" y="315"/>
      </g>
     </g>
     <g id="text_6">
      <!-- 250 -->
      <g transform="translate(236.640865 329.598437)scale(0.1 -0.1)">
       <use xlink:href="#DejaVuSans-50"/>
       <use x="63.623047" xlink:href="#DejaVuSans-53"/>
       <use x="127.246094" xlink:href="#DejaVuSans-48"/>
      </g>
     </g>
    </g>
    <g id="xtick_7">
     <g id="line2d_13">
      <path clip-path="url(#p8a8dac9d51)" d="M 268.036364 315 
L 268.036364 43.2 
" style="fill:none;stroke:#b0b0b0;stroke-linecap:square;stroke-width:0.8;"/>
     </g>
     <g id="line2d_14">
      <g>
       <use style="stroke:#000000;stroke-width:0.8;" x="268.036364" xlink:href="#mc838d66f97" y="315"/>
      </g>
     </g>
     <g id="text_7">
      <!-- 300 -->
      <defs>
       <path d="M 40.578125 39.3125 
Q 47.65625 37.796875 51.625 33 
Q 55.609375 28.21875 55.609375 21.1875 
Q 55.609375 10.40625 48.1875 4.484375 
Q 40.765625 -1.421875 27.09375 -1.421875 
Q 22.515625 -1.421875 17.65625 -0.515625 
Q 12.796875 0.390625 7.625 2.203125 
L 7.625 11.71875 
Q 11.71875 9.328125 16.59375 8.109375 
Q 21.484375 6.890625 26.8125 6.890625 
Q 36.078125 6.890625 40.9375 10.546875 
Q 45.796875 14.203125 45.796875 21.1875 
Q 45.796875 27.640625 41.28125 31.265625 
Q 36.765625 34.90625 28.71875 34.90625 
L 20.21875 34.90625 
L 20.21875 43.015625 
L 29.109375 43.015625 
Q 36.375 43.015625 40.234375 45.921875 
Q 44.09375 48.828125 44.09375 54.296875 
Q 44.09375 59.90625 40.109375 62.90625 
Q 36.140625 65.921875 28.71875 65.921875 
Q 24.65625 65.921875 20.015625 65.03125 
Q 15.375 64.15625 9.8125 62.3125 
L 9.8125 71.09375 
Q 15.4375 72.65625 20.34375 73.4375 
Q 25.25 74.21875 29.59375 74.21875 
Q 40.828125 74.21875 47.359375 69.109375 
Q 53.90625 64.015625 53.90625 55.328125 
Q 53.90625 49.265625 50.4375 45.09375 
Q 46.96875 40.921875 40.578125 39.3125 
z
" id="DejaVuSans-51"/>
      </defs>
      <g transform="translate(258.492614 329.598437)scale(0.1 -0.1)">
       <use xlink:href="#DejaVuSans-51"/>
       <use x="63.623047" xlink:href="#DejaVuSans-48"/>
       <use x="127.246094" xlink:href="#DejaVuSans-48"/>
      </g>
     </g>
    </g>
    <g id="xtick_8">
     <g id="line2d_15">
      <path clip-path="url(#p8a8dac9d51)" d="M 289.888112 315 
L 289.888112 43.2 
" style="fill:none;stroke:#b0b0b0;stroke-linecap:square;stroke-width:0.8;"/>
     </g>
     <g id="line2d_16">
      <g>
       <use style="stroke:#000000;stroke-width:0.8;" x="289.888112" xlink:href="#mc838d66f97" y="315"/>
      </g>
     </g>
     <g id="text_8">
      <!-- 350 -->
      <g transform="translate(280.344362 329.598437)scale(0.1 -0.1)">
       <use xlink:href="#DejaVuSans-51"/>
       <use x="63.623047" xlink:href="#DejaVuSans-53"/>
       <use x="127.246094" xlink:href="#DejaVuSans-48"/>
      </g>
     </g>
    </g>
    <g id="xtick_9">
     <g id="line2d_17">
      <path clip-path="url(#p8a8dac9d51)" d="M 311.73986 315 
L 311.73986 43.2 
" style="fill:none;stroke:#b0b0b0;stroke-linecap:square;stroke-width:0.8;"/>
     </g>
     <g id="line2d_18">
      <g>
       <use style="stroke:#000000;stroke-width:0.8;" x="311.73986" xlink:href="#mc838d66f97" y="315"/>
      </g>
     </g>
     <g id="text_9">
      <!-- 400 -->
      <defs>
       <path d="M 37.796875 64.3125 
L 12.890625 25.390625 
L 37.796875 25.390625 
z
M 35.203125 72.90625 
L 47.609375 72.90625 
L 47.609375 25.390625 
L 58.015625 25.390625 
L 58.015625 17.1875 
L 47.609375 17.1875 
L 47.609375 0 
L 37.796875 0 
L 37.796875 17.1875 
L 4.890625 17.1875 
L 4.890625 26.703125 
z
" id="DejaVuSans-52"/>
      </defs>
      <g transform="translate(302.19611 329.598437)scale(0.1 -0.1)">
       <use xlink:href="#DejaVuSans-52"/>
       <use x="63.623047" xlink:href="#DejaVuSans-48"/>
       <use x="127.246094" xlink:href="#DejaVuSans-48"/>
      </g>
     </g>
    </g>
    <g id="xtick_10">
     <g id="line2d_19">
      <path clip-path="url(#p8a8dac9d51)" d="M 333.591608 315 
L 333.591608 43.2 
" style="fill:none;stroke:#b0b0b0;stroke-linecap:square;stroke-width:0.8;"/>
     </g>
     <g id="line2d_20">
      <g>
       <use style="stroke:#000000;stroke-width:0.8;" x="333.591608" xlink:href="#mc838d66f97" y="315"/>
      </g>
     </g>
     <g id="text_10">
      <!-- 450 -->
      <g transform="translate(324.047858 329.598437)scale(0.1 -0.1)">
       <use xlink:href="#DejaVuSans-52"/>
       <use x="63.623047" xlink:href="#DejaVuSans-53"/>
       <use x="127.246094" xlink:href="#DejaVuSans-48"/>
      </g>
     </g>
    </g>
    <g id="xtick_11">
     <g id="line2d_21">
      <path clip-path="url(#p8a8dac9d51)" d="M 355.443357 315 
L 355.443357 43.2 
" style="fill:none;stroke:#b0b0b0;stroke-linecap:square;stroke-width:0.8;"/>
     </g>
     <g id="line2d_22">
      <g>
       <use style="stroke:#000000;stroke-width:0.8;" x="355.443357" xlink:href="#mc838d66f97" y="315"/>
      </g>
     </g>
     <g id="text_11">
      <!-- 500 -->
      <g transform="translate(345.899607 329.598437)scale(0.1 -0.1)">
       <use xlink:href="#DejaVuSans-53"/>
       <use x="63.623047" xlink:href="#DejaVuSans-48"/>
       <use x="127.246094" xlink:href="#DejaVuSans-48"/>
      </g>
     </g>
    </g>
    <g id="xtick_12">
     <g id="line2d_23">
      <path clip-path="url(#p8a8dac9d51)" d="M 377.295105 315 
L 377.295105 43.2 
" style="fill:none;stroke:#b0b0b0;stroke-linecap:square;stroke-width:0.8;"/>
     </g>
     <g id="line2d_24">
      <g>
       <use style="stroke:#000000;stroke-width:0.8;" x="377.295105" xlink:href="#mc838d66f97" y="315"/>
      </g>
     </g>
     <g id="text_12">
      <!-- 550 -->
      <g transform="translate(367.751355 329.598437)scale(0.1 -0.1)">
       <use xlink:href="#DejaVuSans-53"/>
       <use x="63.623047" xlink:href="#DejaVuSans-53"/>
       <use x="127.246094" xlink:href="#DejaVuSans-48"/>
      </g>
     </g>
    </g>
    <g id="xtick_13">
     <g id="line2d_25">
      <path clip-path="url(#p8a8dac9d51)" d="M 399.146853 315 
L 399.146853 43.2 
" style="fill:none;stroke:#b0b0b0;stroke-linecap:square;stroke-width:0.8;"/>
     </g>
     <g id="line2d_26">
      <g>
       <use style="stroke:#000000;stroke-width:0.8;" x="399.146853" xlink:href="#mc838d66f97" y="315"/>
      </g>
     </g>
     <g id="text_13">
      <!-- 600 -->
      <defs>
       <path d="M 33.015625 40.375 
Q 26.375 40.375 22.484375 35.828125 
Q 18.609375 31.296875 18.609375 23.390625 
Q 18.609375 15.53125 22.484375 10.953125 
Q 26.375 6.390625 33.015625 6.390625 
Q 39.65625 6.390625 43.53125 10.953125 
Q 47.40625 15.53125 47.40625 23.390625 
Q 47.40625 31.296875 43.53125 35.828125 
Q 39.65625 40.375 33.015625 40.375 
z
M 52.59375 71.296875 
L 52.59375 62.3125 
Q 48.875 64.0625 45.09375 64.984375 
Q 41.3125 65.921875 37.59375 65.921875 
Q 27.828125 65.921875 22.671875 59.328125 
Q 17.53125 52.734375 16.796875 39.40625 
Q 19.671875 43.65625 24.015625 45.921875 
Q 28.375 48.1875 33.59375 48.1875 
Q 44.578125 48.1875 50.953125 41.515625 
Q 57.328125 34.859375 57.328125 23.390625 
Q 57.328125 12.15625 50.6875 5.359375 
Q 44.046875 -1.421875 33.015625 -1.421875 
Q 20.359375 -1.421875 13.671875 8.265625 
Q 6.984375 17.96875 6.984375 36.375 
Q 6.984375 53.65625 15.1875 63.9375 
Q 23.390625 74.21875 37.203125 74.21875 
Q 40.921875 74.21875 44.703125 73.484375 
Q 48.484375 72.75 52.59375 71.296875 
z
" id="DejaVuSans-54"/>
      </defs>
      <g transform="translate(389.603103 329.598437)scale(0.1 -0.1)">
       <use xlink:href="#DejaVuSans-54"/>
       <use x="63.623047" xlink:href="#DejaVuSans-48"/>
       <use x="127.246094" xlink:href="#DejaVuSans-48"/>
      </g>
     </g>
    </g>
    <g id="text_14">
     <!-- Depths -->
     <defs>
      <path d="M 19.671875 64.796875 
L 19.671875 8.109375 
L 31.59375 8.109375 
Q 46.6875 8.109375 53.6875 14.9375 
Q 60.6875 21.78125 60.6875 36.53125 
Q 60.6875 51.171875 53.6875 57.984375 
Q 46.6875 64.796875 31.59375 64.796875 
z
M 9.8125 72.90625 
L 30.078125 72.90625 
Q 51.265625 72.90625 61.171875 64.09375 
Q 71.09375 55.28125 71.09375 36.53125 
Q 71.09375 17.671875 61.125 8.828125 
Q 51.171875 0 30.078125 0 
L 9.8125 0 
z
" id="DejaVuSans-68"/>
      <path d="M 56.203125 29.59375 
L 56.203125 25.203125 
L 14.890625 25.203125 
Q 15.484375 15.921875 20.484375 11.0625 
Q 25.484375 6.203125 34.421875 6.203125 
Q 39.59375 6.203125 44.453125 7.46875 
Q 49.3125 8.734375 54.109375 11.28125 
L 54.109375 2.78125 
Q 49.265625 0.734375 44.1875 -0.34375 
Q 39.109375 -1.421875 33.890625 -1.421875 
Q 20.796875 -1.421875 13.15625 6.1875 
Q 5.515625 13.8125 5.515625 26.8125 
Q 5.515625 40.234375 12.765625 48.109375 
Q 20.015625 56 32.328125 56 
Q 43.359375 56 49.78125 48.890625 
Q 56.203125 41.796875 56.203125 29.59375 
z
M 47.21875 32.234375 
Q 47.125 39.59375 43.09375 43.984375 
Q 39.0625 48.390625 32.421875 48.390625 
Q 24.90625 48.390625 20.390625 44.140625 
Q 15.875 39.890625 15.1875 32.171875 
z
" id="DejaVuSans-101"/>
      <path d="M 18.109375 8.203125 
L 18.109375 -20.796875 
L 9.078125 -20.796875 
L 9.078125 54.6875 
L 18.109375 54.6875 
L 18.109375 46.390625 
Q 20.953125 51.265625 25.265625 53.625 
Q 29.59375 56 35.59375 56 
Q 45.5625 56 51.78125 48.09375 
Q 58.015625 40.1875 58.015625 27.296875 
Q 58.015625 14.40625 51.78125 6.484375 
Q 45.5625 -1.421875 35.59375 -1.421875 
Q 29.59375 -1.421875 25.265625 0.953125 
Q 20.953125 3.328125 18.109375 8.203125 
z
M 48.6875 27.296875 
Q 48.6875 37.203125 44.609375 42.84375 
Q 40.53125 48.484375 33.40625 48.484375 
Q 26.265625 48.484375 22.1875 42.84375 
Q 18.109375 37.203125 18.109375 27.296875 
Q 18.109375 17.390625 22.1875 11.75 
Q 26.265625 6.109375 33.40625 6.109375 
Q 40.53125 6.109375 44.609375 11.75 
Q 48.6875 17.390625 48.6875 27.296875 
z
" id="DejaVuSans-112"/>
      <path d="M 18.3125 70.21875 
L 18.3125 54.6875 
L 36.8125 54.6875 
L 36.8125 47.703125 
L 18.3125 47.703125 
L 18.3125 18.015625 
Q 18.3125 11.328125 20.140625 9.421875 
Q 21.96875 7.515625 27.59375 7.515625 
L 36.8125 7.515625 
L 36.8125 0 
L 27.59375 0 
Q 17.1875 0 13.234375 3.875 
Q 9.28125 7.765625 9.28125 18.015625 
L 9.28125 47.703125 
L 2.6875 47.703125 
L 2.6875 54.6875 
L 9.28125 54.6875 
L 9.28125 70.21875 
z
" id="DejaVuSans-116"/>
      <path d="M 54.890625 33.015625 
L 54.890625 0 
L 45.90625 0 
L 45.90625 32.71875 
Q 45.90625 40.484375 42.875 44.328125 
Q 39.84375 48.1875 33.796875 48.1875 
Q 26.515625 48.1875 22.3125 43.546875 
Q 18.109375 38.921875 18.109375 30.90625 
L 18.109375 0 
L 9.078125 0 
L 9.078125 75.984375 
L 18.109375 75.984375 
L 18.109375 46.1875 
Q 21.34375 51.125 25.703125 53.5625 
Q 30.078125 56 35.796875 56 
Q 45.21875 56 50.046875 50.171875 
Q 54.890625 44.34375 54.890625 33.015625 
z
" id="DejaVuSans-104"/>
      <path d="M 44.28125 53.078125 
L 44.28125 44.578125 
Q 40.484375 46.53125 36.375 47.5 
Q 32.28125 48.484375 27.875 48.484375 
Q 21.1875 48.484375 17.84375 46.4375 
Q 14.5 44.390625 14.5 40.28125 
Q 14.5 37.15625 16.890625 35.375 
Q 19.28125 33.59375 26.515625 31.984375 
L 29.59375 31.296875 
Q 39.15625 29.25 43.1875 25.515625 
Q 47.21875 21.78125 47.21875 15.09375 
Q 47.21875 7.46875 41.1875 3.015625 
Q 35.15625 -1.421875 24.609375 -1.421875 
Q 20.21875 -1.421875 15.453125 -0.5625 
Q 10.6875 0.296875 5.421875 2 
L 5.421875 11.28125 
Q 10.40625 8.6875 15.234375 7.390625 
Q 20.0625 6.109375 24.8125 6.109375 
Q 31.15625 6.109375 34.5625 8.28125 
Q 37.984375 10.453125 37.984375 14.40625 
Q 37.984375 18.0625 35.515625 20.015625 
Q 33.0625 21.96875 24.703125 23.78125 
L 21.578125 24.515625 
Q 13.234375 26.265625 9.515625 29.90625 
Q 5.8125 33.546875 5.8125 39.890625 
Q 5.8125 47.609375 11.28125 51.796875 
Q 16.75 56 26.8125 56 
Q 31.78125 56 36.171875 55.265625 
Q 40.578125 54.546875 44.28125 53.078125 
z
" id="DejaVuSans-115"/>
     </defs>
     <g transform="translate(250.201989 343.276563)scale(0.1 -0.1)">
      <use xlink:href="#DejaVuSans-68"/>
      <use x="77.001953" xlink:href="#DejaVuSans-101"/>
      <use x="138.525391" xlink:href="#DejaVuSans-112"/>
      <use x="202.001953" xlink:href="#DejaVuSans-116"/>
      <use x="241.210938" xlink:href="#DejaVuSans-104"/>
      <use x="304.589844" xlink:href="#DejaVuSans-115"/>
     </g>
    </g>
   </g>
   <g id="matplotlib.axis_2">
    <g id="ytick_1">
     <g id="line2d_27">
      <path clip-path="url(#p8a8dac9d51)" d="M 126 302.999222 
L 410.072727 302.999222 
" style="fill:none;stroke:#b0b0b0;stroke-linecap:square;stroke-width:0.8;"/>
     </g>
     <g id="line2d_28">
      <defs>
       <path d="M 0 0 
L -3.5 0 
" id="mfc3af741bf" style="stroke:#000000;stroke-width:0.8;"/>
      </defs>
      <g>
       <use style="stroke:#000000;stroke-width:0.8;" x="126" xlink:href="#mfc3af741bf" y="302.999222"/>
      </g>
     </g>
     <g id="text_15">
      <!-- 0 -->
      <g transform="translate(112.6375 306.798441)scale(0.1 -0.1)">
       <use xlink:href="#DejaVuSans-48"/>
      </g>
     </g>
    </g>
    <g id="ytick_2">
     <g id="line2d_29">
      <path clip-path="url(#p8a8dac9d51)" d="M 126 256.394794 
L 410.072727 256.394794 
" style="fill:none;stroke:#b0b0b0;stroke-linecap:square;stroke-width:0.8;"/>
     </g>
     <g id="line2d_30">
      <g>
       <use style="stroke:#000000;stroke-width:0.8;" x="126" xlink:href="#mfc3af741bf" y="256.394794"/>
      </g>
     </g>
     <g id="text_16">
      <!-- 100 -->
      <g transform="translate(99.9125 260.194013)scale(0.1 -0.1)">
       <use xlink:href="#DejaVuSans-49"/>
       <use x="63.623047" xlink:href="#DejaVuSans-48"/>
       <use x="127.246094" xlink:href="#DejaVuSans-48"/>
      </g>
     </g>
    </g>
    <g id="ytick_3">
     <g id="line2d_31">
      <path clip-path="url(#p8a8dac9d51)" d="M 126 209.790367 
L 410.072727 209.790367 
" style="fill:none;stroke:#b0b0b0;stroke-linecap:square;stroke-width:0.8;"/>
     </g>
     <g id="line2d_32">
      <g>
       <use style="stroke:#000000;stroke-width:0.8;" x="126" xlink:href="#mfc3af741bf" y="209.790367"/>
      </g>
     </g>
     <g id="text_17">
      <!-- 200 -->
      <g transform="translate(99.9125 213.589586)scale(0.1 -0.1)">
       <use xlink:href="#DejaVuSans-50"/>
       <use x="63.623047" xlink:href="#DejaVuSans-48"/>
       <use x="127.246094" xlink:href="#DejaVuSans-48"/>
      </g>
     </g>
    </g>
    <g id="ytick_4">
     <g id="line2d_33">
      <path clip-path="url(#p8a8dac9d51)" d="M 126 163.18594 
L 410.072727 163.18594 
" style="fill:none;stroke:#b0b0b0;stroke-linecap:square;stroke-width:0.8;"/>
     </g>
     <g id="line2d_34">
      <g>
       <use style="stroke:#000000;stroke-width:0.8;" x="126" xlink:href="#mfc3af741bf" y="163.18594"/>
      </g>
     </g>
     <g id="text_18">
      <!-- 300 -->
      <g transform="translate(99.9125 166.985158)scale(0.1 -0.1)">
       <use xlink:href="#DejaVuSans-51"/>
       <use x="63.623047" xlink:href="#DejaVuSans-48"/>
       <use x="127.246094" xlink:href="#DejaVuSans-48"/>
      </g>
     </g>
    </g>
    <g id="ytick_5">
     <g id="line2d_35">
      <path clip-path="url(#p8a8dac9d51)" d="M 126 116.581512 
L 410.072727 116.581512 
" style="fill:none;stroke:#b0b0b0;stroke-linecap:square;stroke-width:0.8;"/>
     </g>
     <g id="line2d_36">
      <g>
       <use style="stroke:#000000;stroke-width:0.8;" x="126" xlink:href="#mfc3af741bf" y="116.581512"/>
      </g>
     </g>
     <g id="text_19">
      <!-- 400 -->
      <g transform="translate(99.9125 120.380731)scale(0.1 -0.1)">
       <use xlink:href="#DejaVuSans-52"/>
       <use x="63.623047" xlink:href="#DejaVuSans-48"/>
       <use x="127.246094" xlink:href="#DejaVuSans-48"/>
      </g>
     </g>
    </g>
    <g id="ytick_6">
     <g id="line2d_37">
      <path clip-path="url(#p8a8dac9d51)" d="M 126 69.977085 
L 410.072727 69.977085 
" style="fill:none;stroke:#b0b0b0;stroke-linecap:square;stroke-width:0.8;"/>
     </g>
     <g id="line2d_38">
      <g>
       <use style="stroke:#000000;stroke-width:0.8;" x="126" xlink:href="#mfc3af741bf" y="69.977085"/>
      </g>
     </g>
     <g id="text_20">
      <!-- 500 -->
      <g transform="translate(99.9125 73.776303)scale(0.1 -0.1)">
       <use xlink:href="#DejaVuSans-53"/>
       <use x="63.623047" xlink:href="#DejaVuSans-48"/>
       <use x="127.246094" xlink:href="#DejaVuSans-48"/>
      </g>
     </g>
    </g>
    <g id="text_21">
     <!-- Time taken -->
     <defs>
      <path d="M -0.296875 72.90625 
L 61.375 72.90625 
L 61.375 64.59375 
L 35.5 64.59375 
L 35.5 0 
L 25.59375 0 
L 25.59375 64.59375 
L -0.296875 64.59375 
z
" id="DejaVuSans-84"/>
      <path d="M 9.421875 54.6875 
L 18.40625 54.6875 
L 18.40625 0 
L 9.421875 0 
z
M 9.421875 75.984375 
L 18.40625 75.984375 
L 18.40625 64.59375 
L 9.421875 64.59375 
z
" id="DejaVuSans-105"/>
      <path d="M 52 44.1875 
Q 55.375 50.25 60.0625 53.125 
Q 64.75 56 71.09375 56 
Q 79.640625 56 84.28125 50.015625 
Q 88.921875 44.046875 88.921875 33.015625 
L 88.921875 0 
L 79.890625 0 
L 79.890625 32.71875 
Q 79.890625 40.578125 77.09375 44.375 
Q 74.3125 48.1875 68.609375 48.1875 
Q 61.625 48.1875 57.5625 43.546875 
Q 53.515625 38.921875 53.515625 30.90625 
L 53.515625 0 
L 44.484375 0 
L 44.484375 32.71875 
Q 44.484375 40.625 41.703125 44.40625 
Q 38.921875 48.1875 33.109375 48.1875 
Q 26.21875 48.1875 22.15625 43.53125 
Q 18.109375 38.875 18.109375 30.90625 
L 18.109375 0 
L 9.078125 0 
L 9.078125 54.6875 
L 18.109375 54.6875 
L 18.109375 46.1875 
Q 21.1875 51.21875 25.484375 53.609375 
Q 29.78125 56 35.6875 56 
Q 41.65625 56 45.828125 52.96875 
Q 50 49.953125 52 44.1875 
z
" id="DejaVuSans-109"/>
      <path id="DejaVuSans-32"/>
      <path d="M 34.28125 27.484375 
Q 23.390625 27.484375 19.1875 25 
Q 14.984375 22.515625 14.984375 16.5 
Q 14.984375 11.71875 18.140625 8.90625 
Q 21.296875 6.109375 26.703125 6.109375 
Q 34.1875 6.109375 38.703125 11.40625 
Q 43.21875 16.703125 43.21875 25.484375 
L 43.21875 27.484375 
z
M 52.203125 31.203125 
L 52.203125 0 
L 43.21875 0 
L 43.21875 8.296875 
Q 40.140625 3.328125 35.546875 0.953125 
Q 30.953125 -1.421875 24.3125 -1.421875 
Q 15.921875 -1.421875 10.953125 3.296875 
Q 6 8.015625 6 15.921875 
Q 6 25.140625 12.171875 29.828125 
Q 18.359375 34.515625 30.609375 34.515625 
L 43.21875 34.515625 
L 43.21875 35.40625 
Q 43.21875 41.609375 39.140625 45 
Q 35.0625 48.390625 27.6875 48.390625 
Q 23 48.390625 18.546875 47.265625 
Q 14.109375 46.140625 10.015625 43.890625 
L 10.015625 52.203125 
Q 14.9375 54.109375 19.578125 55.046875 
Q 24.21875 56 28.609375 56 
Q 40.484375 56 46.34375 49.84375 
Q 52.203125 43.703125 52.203125 31.203125 
z
" id="DejaVuSans-97"/>
      <path d="M 9.078125 75.984375 
L 18.109375 75.984375 
L 18.109375 31.109375 
L 44.921875 54.6875 
L 56.390625 54.6875 
L 27.390625 29.109375 
L 57.625 0 
L 45.90625 0 
L 18.109375 26.703125 
L 18.109375 0 
L 9.078125 0 
z
" id="DejaVuSans-107"/>
      <path d="M 54.890625 33.015625 
L 54.890625 0 
L 45.90625 0 
L 45.90625 32.71875 
Q 45.90625 40.484375 42.875 44.328125 
Q 39.84375 48.1875 33.796875 48.1875 
Q 26.515625 48.1875 22.3125 43.546875 
Q 18.109375 38.921875 18.109375 30.90625 
L 18.109375 0 
L 9.078125 0 
L 9.078125 54.6875 
L 18.109375 54.6875 
L 18.109375 46.1875 
Q 21.34375 51.125 25.703125 53.5625 
Q 30.078125 56 35.796875 56 
Q 45.21875 56 50.046875 50.171875 
Q 54.890625 44.34375 54.890625 33.015625 
z
" id="DejaVuSans-110"/>
     </defs>
     <g transform="translate(93.832812 206.90625)rotate(-90)scale(0.1 -0.1)">
      <use xlink:href="#DejaVuSans-84"/>
      <use x="57.958984" xlink:href="#DejaVuSans-105"/>
      <use x="85.742188" xlink:href="#DejaVuSans-109"/>
      <use x="183.154297" xlink:href="#DejaVuSans-101"/>
      <use x="244.677734" xlink:href="#DejaVuSans-32"/>
      <use x="276.464844" xlink:href="#DejaVuSans-116"/>
      <use x="315.673828" xlink:href="#DejaVuSans-97"/>
      <use x="376.953125" xlink:href="#DejaVuSans-107"/>
      <use x="431.238281" xlink:href="#DejaVuSans-101"/>
      <use x="492.761719" xlink:href="#DejaVuSans-110"/>
     </g>
    </g>
   </g>
   <g id="line2d_39">
    <path clip-path="url(#p8a8dac9d51)" d="M 131.462937 302.349578 
L 142.388811 302.349578 
L 142.388811 302.318209 
L 131.462937 302.318209 
L 131.462937 302.349578 
" style="fill:none;stroke:#000000;stroke-linecap:square;"/>
   </g>
   <g id="line2d_40">
    <path clip-path="url(#p8a8dac9d51)" d="M 136.925874 302.349578 
L 136.925874 302.396136 
" style="fill:none;stroke:#000000;stroke-linecap:square;"/>
   </g>
   <g id="line2d_41">
    <path clip-path="url(#p8a8dac9d51)" d="M 136.925874 302.318209 
L 136.925874 302.273388 
" style="fill:none;stroke:#000000;stroke-linecap:square;"/>
   </g>
   <g id="line2d_42">
    <path clip-path="url(#p8a8dac9d51)" d="M 134.194406 302.396136 
L 139.657343 302.396136 
" style="fill:none;stroke:#000000;stroke-linecap:square;"/>
   </g>
   <g id="line2d_43">
    <path clip-path="url(#p8a8dac9d51)" d="M 134.194406 302.273388 
L 139.657343 302.273388 
" style="fill:none;stroke:#000000;stroke-linecap:square;"/>
   </g>
   <g id="line2d_44">
    <defs>
     <path d="M 0 3 
C 0.795609 3 1.55874 2.683901 2.12132 2.12132 
C 2.683901 1.55874 3 0.795609 3 0 
C 3 -0.795609 2.683901 -1.55874 2.12132 -2.12132 
C 1.55874 -2.683901 0.795609 -3 0 -3 
C -0.795609 -3 -1.55874 -2.683901 -2.12132 -2.12132 
C -2.683901 -1.55874 -3 -0.795609 -3 0 
C -3 0.795609 -2.683901 1.55874 -2.12132 2.12132 
C -1.55874 2.683901 -0.795609 3 0 3 
z
" id="m746de07209" style="stroke:#000000;"/>
    </defs>
    <g clip-path="url(#p8a8dac9d51)">
     <use style="fill-opacity:0;stroke:#000000;" x="136.925874" xlink:href="#m746de07209" y="302.645455"/>
     <use style="fill-opacity:0;stroke:#000000;" x="136.925874" xlink:href="#m746de07209" y="302.431207"/>
    </g>
   </g>
   <g id="line2d_45">
    <path clip-path="url(#p8a8dac9d51)" d="M 153.314685 302.029466 
L 164.240559 302.029466 
L 164.240559 301.993227 
L 153.314685 301.993227 
L 153.314685 302.029466 
" style="fill:none;stroke:#000000;stroke-linecap:square;"/>
   </g>
   <g id="line2d_46">
    <path clip-path="url(#p8a8dac9d51)" d="M 158.777622 302.029466 
L 158.777622 302.062689 
" style="fill:none;stroke:#000000;stroke-linecap:square;"/>
   </g>
   <g id="line2d_47">
    <path clip-path="url(#p8a8dac9d51)" d="M 158.777622 301.993227 
L 158.777622 301.967459 
" style="fill:none;stroke:#000000;stroke-linecap:square;"/>
   </g>
   <g id="line2d_48">
    <path clip-path="url(#p8a8dac9d51)" d="M 156.046154 302.062689 
L 161.509091 302.062689 
" style="fill:none;stroke:#000000;stroke-linecap:square;"/>
   </g>
   <g id="line2d_49">
    <path clip-path="url(#p8a8dac9d51)" d="M 156.046154 301.967459 
L 161.509091 301.967459 
" style="fill:none;stroke:#000000;stroke-linecap:square;"/>
   </g>
   <g id="line2d_50"/>
   <g id="line2d_51">
    <path clip-path="url(#p8a8dac9d51)" d="M 175.166434 301.600076 
L 186.092308 301.600076 
L 186.092308 301.562923 
L 175.166434 301.562923 
L 175.166434 301.600076 
" style="fill:none;stroke:#000000;stroke-linecap:square;"/>
   </g>
   <g id="line2d_52">
    <path clip-path="url(#p8a8dac9d51)" d="M 180.629371 301.600076 
L 180.629371 301.633181 
" style="fill:none;stroke:#000000;stroke-linecap:square;"/>
   </g>
   <g id="line2d_53">
    <path clip-path="url(#p8a8dac9d51)" d="M 180.629371 301.562923 
L 180.629371 301.530723 
" style="fill:none;stroke:#000000;stroke-linecap:square;"/>
   </g>
   <g id="line2d_54">
    <path clip-path="url(#p8a8dac9d51)" d="M 177.897902 301.633181 
L 183.360839 301.633181 
" style="fill:none;stroke:#000000;stroke-linecap:square;"/>
   </g>
   <g id="line2d_55">
    <path clip-path="url(#p8a8dac9d51)" d="M 177.897902 301.530723 
L 183.360839 301.530723 
" style="fill:none;stroke:#000000;stroke-linecap:square;"/>
   </g>
   <g id="line2d_56"/>
   <g id="line2d_57">
    <path clip-path="url(#p8a8dac9d51)" d="M 197.018182 300.634353 
L 207.944056 300.634353 
L 207.944056 300.575605 
L 197.018182 300.575605 
L 197.018182 300.634353 
" style="fill:none;stroke:#000000;stroke-linecap:square;"/>
   </g>
   <g id="line2d_58">
    <path clip-path="url(#p8a8dac9d51)" d="M 202.481119 300.634353 
L 202.481119 300.699512 
" style="fill:none;stroke:#000000;stroke-linecap:square;"/>
   </g>
   <g id="line2d_59">
    <path clip-path="url(#p8a8dac9d51)" d="M 202.481119 300.575605 
L 202.481119 300.504929 
" style="fill:none;stroke:#000000;stroke-linecap:square;"/>
   </g>
   <g id="line2d_60">
    <path clip-path="url(#p8a8dac9d51)" d="M 199.74965 300.699512 
L 205.212587 300.699512 
" style="fill:none;stroke:#000000;stroke-linecap:square;"/>
   </g>
   <g id="line2d_61">
    <path clip-path="url(#p8a8dac9d51)" d="M 199.74965 300.504929 
L 205.212587 300.504929 
" style="fill:none;stroke:#000000;stroke-linecap:square;"/>
   </g>
   <g id="line2d_62"/>
   <g id="line2d_63">
    <path clip-path="url(#p8a8dac9d51)" d="M 218.86993 298.607873 
L 229.795804 298.607873 
L 229.795804 298.476563 
L 218.86993 298.476563 
L 218.86993 298.607873 
" style="fill:none;stroke:#000000;stroke-linecap:square;"/>
   </g>
   <g id="line2d_64">
    <path clip-path="url(#p8a8dac9d51)" d="M 224.332867 298.607873 
L 224.332867 298.635774 
" style="fill:none;stroke:#000000;stroke-linecap:square;"/>
   </g>
   <g id="line2d_65">
    <path clip-path="url(#p8a8dac9d51)" d="M 224.332867 298.476563 
L 224.332867 298.340788 
" style="fill:none;stroke:#000000;stroke-linecap:square;"/>
   </g>
   <g id="line2d_66">
    <path clip-path="url(#p8a8dac9d51)" d="M 221.601399 298.635774 
L 227.064336 298.635774 
" style="fill:none;stroke:#000000;stroke-linecap:square;"/>
   </g>
   <g id="line2d_67">
    <path clip-path="url(#p8a8dac9d51)" d="M 221.601399 298.340788 
L 227.064336 298.340788 
" style="fill:none;stroke:#000000;stroke-linecap:square;"/>
   </g>
   <g id="line2d_68">
    <g clip-path="url(#p8a8dac9d51)">
     <use style="fill-opacity:0;stroke:#000000;" x="224.332867" xlink:href="#m746de07209" y="299.841111"/>
     <use style="fill-opacity:0;stroke:#000000;" x="224.332867" xlink:href="#m746de07209" y="299.937153"/>
     <use style="fill-opacity:0;stroke:#000000;" x="224.332867" xlink:href="#m746de07209" y="299.910156"/>
     <use style="fill-opacity:0;stroke:#000000;" x="224.332867" xlink:href="#m746de07209" y="299.949714"/>
     <use style="fill-opacity:0;stroke:#000000;" x="224.332867" xlink:href="#m746de07209" y="299.870483"/>
    </g>
   </g>
   <g id="line2d_69">
    <path clip-path="url(#p8a8dac9d51)" d="M 240.721678 296.695931 
L 251.647552 296.695931 
L 251.647552 296.636359 
L 240.721678 296.636359 
L 240.721678 296.695931 
" style="fill:none;stroke:#000000;stroke-linecap:square;"/>
   </g>
   <g id="line2d_70">
    <path clip-path="url(#p8a8dac9d51)" d="M 246.184615 296.695931 
L 246.184615 296.77678 
" style="fill:none;stroke:#000000;stroke-linecap:square;"/>
   </g>
   <g id="line2d_71">
    <path clip-path="url(#p8a8dac9d51)" d="M 246.184615 296.636359 
L 246.184615 296.571758 
" style="fill:none;stroke:#000000;stroke-linecap:square;"/>
   </g>
   <g id="line2d_72">
    <path clip-path="url(#p8a8dac9d51)" d="M 243.453147 296.77678 
L 248.916084 296.77678 
" style="fill:none;stroke:#000000;stroke-linecap:square;"/>
   </g>
   <g id="line2d_73">
    <path clip-path="url(#p8a8dac9d51)" d="M 243.453147 296.571758 
L 248.916084 296.571758 
" style="fill:none;stroke:#000000;stroke-linecap:square;"/>
   </g>
   <g id="line2d_74">
    <g clip-path="url(#p8a8dac9d51)">
     <use style="fill-opacity:0;stroke:#000000;" x="246.184615" xlink:href="#m746de07209" y="296.546815"/>
    </g>
   </g>
   <g id="line2d_75">
    <path clip-path="url(#p8a8dac9d51)" d="M 262.573427 290.388464 
L 273.499301 290.388464 
L 273.499301 290.171167 
L 262.573427 290.171167 
L 262.573427 290.388464 
" style="fill:none;stroke:#000000;stroke-linecap:square;"/>
   </g>
   <g id="line2d_76">
    <path clip-path="url(#p8a8dac9d51)" d="M 268.036364 290.388464 
L 268.036364 290.56225 
" style="fill:none;stroke:#000000;stroke-linecap:square;"/>
   </g>
   <g id="line2d_77">
    <path clip-path="url(#p8a8dac9d51)" d="M 268.036364 290.171167 
L 268.036364 289.902264 
" style="fill:none;stroke:#000000;stroke-linecap:square;"/>
   </g>
   <g id="line2d_78">
    <path clip-path="url(#p8a8dac9d51)" d="M 265.304895 290.56225 
L 270.767832 290.56225 
" style="fill:none;stroke:#000000;stroke-linecap:square;"/>
   </g>
   <g id="line2d_79">
    <path clip-path="url(#p8a8dac9d51)" d="M 265.304895 289.902264 
L 270.767832 289.902264 
" style="fill:none;stroke:#000000;stroke-linecap:square;"/>
   </g>
   <g id="line2d_80"/>
   <g id="line2d_81">
    <path clip-path="url(#p8a8dac9d51)" d="M 284.425175 279.242259 
L 295.351049 279.242259 
L 295.351049 278.480265 
L 284.425175 278.480265 
L 284.425175 279.242259 
" style="fill:none;stroke:#000000;stroke-linecap:square;"/>
   </g>
   <g id="line2d_82">
    <path clip-path="url(#p8a8dac9d51)" d="M 289.888112 279.242259 
L 289.888112 279.867593 
" style="fill:none;stroke:#000000;stroke-linecap:square;"/>
   </g>
   <g id="line2d_83">
    <path clip-path="url(#p8a8dac9d51)" d="M 289.888112 278.480265 
L 289.888112 277.970481 
" style="fill:none;stroke:#000000;stroke-linecap:square;"/>
   </g>
   <g id="line2d_84">
    <path clip-path="url(#p8a8dac9d51)" d="M 287.156643 279.867593 
L 292.61958 279.867593 
" style="fill:none;stroke:#000000;stroke-linecap:square;"/>
   </g>
   <g id="line2d_85">
    <path clip-path="url(#p8a8dac9d51)" d="M 287.156643 277.970481 
L 292.61958 277.970481 
" style="fill:none;stroke:#000000;stroke-linecap:square;"/>
   </g>
   <g id="line2d_86"/>
   <g id="line2d_87">
    <path clip-path="url(#p8a8dac9d51)" d="M 306.276923 260.334369 
L 317.202797 260.334369 
L 317.202797 258.524353 
L 306.276923 258.524353 
L 306.276923 260.334369 
" style="fill:none;stroke:#000000;stroke-linecap:square;"/>
   </g>
   <g id="line2d_88">
    <path clip-path="url(#p8a8dac9d51)" d="M 311.73986 260.334369 
L 311.73986 262.322028 
" style="fill:none;stroke:#000000;stroke-linecap:square;"/>
   </g>
   <g id="line2d_89">
    <path clip-path="url(#p8a8dac9d51)" d="M 311.73986 258.524353 
L 311.73986 257.273891 
" style="fill:none;stroke:#000000;stroke-linecap:square;"/>
   </g>
   <g id="line2d_90">
    <path clip-path="url(#p8a8dac9d51)" d="M 309.008392 262.322028 
L 314.471329 262.322028 
" style="fill:none;stroke:#000000;stroke-linecap:square;"/>
   </g>
   <g id="line2d_91">
    <path clip-path="url(#p8a8dac9d51)" d="M 309.008392 257.273891 
L 314.471329 257.273891 
" style="fill:none;stroke:#000000;stroke-linecap:square;"/>
   </g>
   <g id="line2d_92"/>
   <g id="line2d_93">
    <path clip-path="url(#p8a8dac9d51)" d="M 328.128671 231.864692 
L 339.054545 231.864692 
L 339.054545 229.140435 
L 328.128671 229.140435 
L 328.128671 231.864692 
" style="fill:none;stroke:#000000;stroke-linecap:square;"/>
   </g>
   <g id="line2d_94">
    <path clip-path="url(#p8a8dac9d51)" d="M 333.591608 231.864692 
L 333.591608 234.86497 
" style="fill:none;stroke:#000000;stroke-linecap:square;"/>
   </g>
   <g id="line2d_95">
    <path clip-path="url(#p8a8dac9d51)" d="M 333.591608 229.140435 
L 333.591608 226.702268 
" style="fill:none;stroke:#000000;stroke-linecap:square;"/>
   </g>
   <g id="line2d_96">
    <path clip-path="url(#p8a8dac9d51)" d="M 330.86014 234.86497 
L 336.323077 234.86497 
" style="fill:none;stroke:#000000;stroke-linecap:square;"/>
   </g>
   <g id="line2d_97">
    <path clip-path="url(#p8a8dac9d51)" d="M 330.86014 226.702268 
L 336.323077 226.702268 
" style="fill:none;stroke:#000000;stroke-linecap:square;"/>
   </g>
   <g id="line2d_98"/>
   <g id="line2d_99">
    <path clip-path="url(#p8a8dac9d51)" d="M 349.98042 197.676024 
L 360.906294 197.676024 
L 360.906294 193.991985 
L 349.98042 193.991985 
L 349.98042 197.676024 
" style="fill:none;stroke:#000000;stroke-linecap:square;"/>
   </g>
   <g id="line2d_100">
    <path clip-path="url(#p8a8dac9d51)" d="M 355.443357 197.676024 
L 355.443357 200.066495 
" style="fill:none;stroke:#000000;stroke-linecap:square;"/>
   </g>
   <g id="line2d_101">
    <path clip-path="url(#p8a8dac9d51)" d="M 355.443357 193.991985 
L 355.443357 189.644535 
" style="fill:none;stroke:#000000;stroke-linecap:square;"/>
   </g>
   <g id="line2d_102">
    <path clip-path="url(#p8a8dac9d51)" d="M 352.711888 200.066495 
L 358.174825 200.066495 
" style="fill:none;stroke:#000000;stroke-linecap:square;"/>
   </g>
   <g id="line2d_103">
    <path clip-path="url(#p8a8dac9d51)" d="M 352.711888 189.644535 
L 358.174825 189.644535 
" style="fill:none;stroke:#000000;stroke-linecap:square;"/>
   </g>
   <g id="line2d_104">
    <g clip-path="url(#p8a8dac9d51)">
     <use style="fill-opacity:0;stroke:#000000;" x="355.443357" xlink:href="#m746de07209" y="186.689326"/>
    </g>
   </g>
   <g id="line2d_105">
    <path clip-path="url(#p8a8dac9d51)" d="M 371.832168 142.094902 
L 382.758042 142.094902 
L 382.758042 138.908297 
L 371.832168 138.908297 
L 371.832168 142.094902 
" style="fill:none;stroke:#000000;stroke-linecap:square;"/>
   </g>
   <g id="line2d_106">
    <path clip-path="url(#p8a8dac9d51)" d="M 377.295105 142.094902 
L 377.295105 146.183675 
" style="fill:none;stroke:#000000;stroke-linecap:square;"/>
   </g>
   <g id="line2d_107">
    <path clip-path="url(#p8a8dac9d51)" d="M 377.295105 138.908297 
L 377.295105 135.668922 
" style="fill:none;stroke:#000000;stroke-linecap:square;"/>
   </g>
   <g id="line2d_108">
    <path clip-path="url(#p8a8dac9d51)" d="M 374.563636 146.183675 
L 380.026573 146.183675 
" style="fill:none;stroke:#000000;stroke-linecap:square;"/>
   </g>
   <g id="line2d_109">
    <path clip-path="url(#p8a8dac9d51)" d="M 374.563636 135.668922 
L 380.026573 135.668922 
" style="fill:none;stroke:#000000;stroke-linecap:square;"/>
   </g>
   <g id="line2d_110">
    <g clip-path="url(#p8a8dac9d51)">
     <use style="fill-opacity:0;stroke:#000000;" x="377.295105" xlink:href="#m746de07209" y="148.655935"/>
     <use style="fill-opacity:0;stroke:#000000;" x="377.295105" xlink:href="#m746de07209" y="149.138313"/>
     <use style="fill-opacity:0;stroke:#000000;" x="377.295105" xlink:href="#m746de07209" y="150.287587"/>
     <use style="fill-opacity:0;stroke:#000000;" x="377.295105" xlink:href="#m746de07209" y="131.893647"/>
     <use style="fill-opacity:0;stroke:#000000;" x="377.295105" xlink:href="#m746de07209" y="131.426505"/>
     <use style="fill-opacity:0;stroke:#000000;" x="377.295105" xlink:href="#m746de07209" y="133.119495"/>
    </g>
   </g>
   <g id="line2d_111">
    <path clip-path="url(#p8a8dac9d51)" d="M 393.683916 76.347338 
L 404.60979 76.347338 
L 404.60979 61.493717 
L 393.683916 61.493717 
L 393.683916 76.347338 
" style="fill:none;stroke:#000000;stroke-linecap:square;"/>
   </g>
   <g id="line2d_112">
    <path clip-path="url(#p8a8dac9d51)" d="M 399.146853 76.347338 
L 399.146853 81.416616 
" style="fill:none;stroke:#000000;stroke-linecap:square;"/>
   </g>
   <g id="line2d_113">
    <path clip-path="url(#p8a8dac9d51)" d="M 399.146853 61.493717 
L 399.146853 55.554545 
" style="fill:none;stroke:#000000;stroke-linecap:square;"/>
   </g>
   <g id="line2d_114">
    <path clip-path="url(#p8a8dac9d51)" d="M 396.415385 81.416616 
L 401.878322 81.416616 
" style="fill:none;stroke:#000000;stroke-linecap:square;"/>
   </g>
   <g id="line2d_115">
    <path clip-path="url(#p8a8dac9d51)" d="M 396.415385 55.554545 
L 401.878322 55.554545 
" style="fill:none;stroke:#000000;stroke-linecap:square;"/>
   </g>
   <g id="line2d_116"/>
   <g id="line2d_117">
    <path clip-path="url(#p8a8dac9d51)" d="M 131.462937 302.333855 
L 142.388811 302.333855 
" style="fill:none;stroke:#ff7f0e;stroke-linecap:square;"/>
   </g>
   <g id="line2d_118">
    <path clip-path="url(#p8a8dac9d51)" d="M 153.314685 302.007273 
L 164.240559 302.007273 
" style="fill:none;stroke:#ff7f0e;stroke-linecap:square;"/>
   </g>
   <g id="line2d_119">
    <path clip-path="url(#p8a8dac9d51)" d="M 175.166434 301.56972 
L 186.092308 301.56972 
" style="fill:none;stroke:#ff7f0e;stroke-linecap:square;"/>
   </g>
   <g id="line2d_120">
    <path clip-path="url(#p8a8dac9d51)" d="M 197.018182 300.597189 
L 207.944056 300.597189 
" style="fill:none;stroke:#ff7f0e;stroke-linecap:square;"/>
   </g>
   <g id="line2d_121">
    <path clip-path="url(#p8a8dac9d51)" d="M 218.86993 298.526635 
L 229.795804 298.526635 
" style="fill:none;stroke:#ff7f0e;stroke-linecap:square;"/>
   </g>
   <g id="line2d_122">
    <path clip-path="url(#p8a8dac9d51)" d="M 240.721678 296.660882 
L 251.647552 296.660882 
" style="fill:none;stroke:#ff7f0e;stroke-linecap:square;"/>
   </g>
   <g id="line2d_123">
    <path clip-path="url(#p8a8dac9d51)" d="M 262.573427 290.313262 
L 273.499301 290.313262 
" style="fill:none;stroke:#ff7f0e;stroke-linecap:square;"/>
   </g>
   <g id="line2d_124">
    <path clip-path="url(#p8a8dac9d51)" d="M 284.425175 278.80396 
L 295.351049 278.80396 
" style="fill:none;stroke:#ff7f0e;stroke-linecap:square;"/>
   </g>
   <g id="line2d_125">
    <path clip-path="url(#p8a8dac9d51)" d="M 306.276923 259.146854 
L 317.202797 259.146854 
" style="fill:none;stroke:#ff7f0e;stroke-linecap:square;"/>
   </g>
   <g id="line2d_126">
    <path clip-path="url(#p8a8dac9d51)" d="M 328.128671 230.685626 
L 339.054545 230.685626 
" style="fill:none;stroke:#ff7f0e;stroke-linecap:square;"/>
   </g>
   <g id="line2d_127">
    <path clip-path="url(#p8a8dac9d51)" d="M 349.98042 195.496106 
L 360.906294 195.496106 
" style="fill:none;stroke:#ff7f0e;stroke-linecap:square;"/>
   </g>
   <g id="line2d_128">
    <path clip-path="url(#p8a8dac9d51)" d="M 371.832168 140.376858 
L 382.758042 140.376858 
" style="fill:none;stroke:#ff7f0e;stroke-linecap:square;"/>
   </g>
   <g id="line2d_129">
    <path clip-path="url(#p8a8dac9d51)" d="M 393.683916 71.49605 
L 404.60979 71.49605 
" style="fill:none;stroke:#ff7f0e;stroke-linecap:square;"/>
   </g>
   <g id="patch_3">
    <path d="M 126 315 
L 126 43.2 
" style="fill:none;stroke:#000000;stroke-linecap:square;stroke-linejoin:miter;stroke-width:0.8;"/>
   </g>
   <g id="patch_4">
    <path d="M 410.072727 315 
L 410.072727 43.2 
" style="fill:none;stroke:#000000;stroke-linecap:square;stroke-linejoin:miter;stroke-width:0.8;"/>
   </g>
   <g id="patch_5">
    <path d="M 126 315 
L 410.072727 315 
" style="fill:none;stroke:#000000;stroke-linecap:square;stroke-linejoin:miter;stroke-width:0.8;"/>
   </g>
   <g id="patch_6">
    <path d="M 126 43.2 
L 410.072727 43.2 
" style="fill:none;stroke:#000000;stroke-linecap:square;stroke-linejoin:miter;stroke-width:0.8;"/>
   </g>
   <g id="text_22">
    <!-- Time taken for tests generated for BES -->
    <defs>
     <path d="M 37.109375 75.984375 
L 37.109375 68.5 
L 28.515625 68.5 
Q 23.6875 68.5 21.796875 66.546875 
Q 19.921875 64.59375 19.921875 59.515625 
L 19.921875 54.6875 
L 34.71875 54.6875 
L 34.71875 47.703125 
L 19.921875 47.703125 
L 19.921875 0 
L 10.890625 0 
L 10.890625 47.703125 
L 2.296875 47.703125 
L 2.296875 54.6875 
L 10.890625 54.6875 
L 10.890625 58.5 
Q 10.890625 67.625 15.140625 71.796875 
Q 19.390625 75.984375 28.609375 75.984375 
z
" id="DejaVuSans-102"/>
     <path d="M 30.609375 48.390625 
Q 23.390625 48.390625 19.1875 42.75 
Q 14.984375 37.109375 14.984375 27.296875 
Q 14.984375 17.484375 19.15625 11.84375 
Q 23.34375 6.203125 30.609375 6.203125 
Q 37.796875 6.203125 41.984375 11.859375 
Q 46.1875 17.53125 46.1875 27.296875 
Q 46.1875 37.015625 41.984375 42.703125 
Q 37.796875 48.390625 30.609375 48.390625 
z
M 30.609375 56 
Q 42.328125 56 49.015625 48.375 
Q 55.71875 40.765625 55.71875 27.296875 
Q 55.71875 13.875 49.015625 6.21875 
Q 42.328125 -1.421875 30.609375 -1.421875 
Q 18.84375 -1.421875 12.171875 6.21875 
Q 5.515625 13.875 5.515625 27.296875 
Q 5.515625 40.765625 12.171875 48.375 
Q 18.84375 56 30.609375 56 
z
" id="DejaVuSans-111"/>
     <path d="M 41.109375 46.296875 
Q 39.59375 47.171875 37.8125 47.578125 
Q 36.03125 48 33.890625 48 
Q 26.265625 48 22.1875 43.046875 
Q 18.109375 38.09375 18.109375 28.8125 
L 18.109375 0 
L 9.078125 0 
L 9.078125 54.6875 
L 18.109375 54.6875 
L 18.109375 46.1875 
Q 20.953125 51.171875 25.484375 53.578125 
Q 30.03125 56 36.53125 56 
Q 37.453125 56 38.578125 55.875 
Q 39.703125 55.765625 41.0625 55.515625 
z
" id="DejaVuSans-114"/>
     <path d="M 45.40625 27.984375 
Q 45.40625 37.75 41.375 43.109375 
Q 37.359375 48.484375 30.078125 48.484375 
Q 22.859375 48.484375 18.828125 43.109375 
Q 14.796875 37.75 14.796875 27.984375 
Q 14.796875 18.265625 18.828125 12.890625 
Q 22.859375 7.515625 30.078125 7.515625 
Q 37.359375 7.515625 41.375 12.890625 
Q 45.40625 18.265625 45.40625 27.984375 
z
M 54.390625 6.78125 
Q 54.390625 -7.171875 48.1875 -13.984375 
Q 42 -20.796875 29.203125 -20.796875 
Q 24.46875 -20.796875 20.265625 -20.09375 
Q 16.0625 -19.390625 12.109375 -17.921875 
L 12.109375 -9.1875 
Q 16.0625 -11.328125 19.921875 -12.34375 
Q 23.78125 -13.375 27.78125 -13.375 
Q 36.625 -13.375 41.015625 -8.765625 
Q 45.40625 -4.15625 45.40625 5.171875 
L 45.40625 9.625 
Q 42.625 4.78125 38.28125 2.390625 
Q 33.9375 0 27.875 0 
Q 17.828125 0 11.671875 7.65625 
Q 5.515625 15.328125 5.515625 27.984375 
Q 5.515625 40.671875 11.671875 48.328125 
Q 17.828125 56 27.875 56 
Q 33.9375 56 38.28125 53.609375 
Q 42.625 51.21875 45.40625 46.390625 
L 45.40625 54.6875 
L 54.390625 54.6875 
z
" id="DejaVuSans-103"/>
     <path d="M 45.40625 46.390625 
L 45.40625 75.984375 
L 54.390625 75.984375 
L 54.390625 0 
L 45.40625 0 
L 45.40625 8.203125 
Q 42.578125 3.328125 38.25 0.953125 
Q 33.9375 -1.421875 27.875 -1.421875 
Q 17.96875 -1.421875 11.734375 6.484375 
Q 5.515625 14.40625 5.515625 27.296875 
Q 5.515625 40.1875 11.734375 48.09375 
Q 17.96875 56 27.875 56 
Q 33.9375 56 38.25 53.625 
Q 42.578125 51.265625 45.40625 46.390625 
z
M 14.796875 27.296875 
Q 14.796875 17.390625 18.875 11.75 
Q 22.953125 6.109375 30.078125 6.109375 
Q 37.203125 6.109375 41.296875 11.75 
Q 45.40625 17.390625 45.40625 27.296875 
Q 45.40625 37.203125 41.296875 42.84375 
Q 37.203125 48.484375 30.078125 48.484375 
Q 22.953125 48.484375 18.875 42.84375 
Q 14.796875 37.203125 14.796875 27.296875 
z
" id="DejaVuSans-100"/>
     <path d="M 19.671875 34.8125 
L 19.671875 8.109375 
L 35.5 8.109375 
Q 43.453125 8.109375 47.28125 11.40625 
Q 51.125 14.703125 51.125 21.484375 
Q 51.125 28.328125 47.28125 31.5625 
Q 43.453125 34.8125 35.5 34.8125 
z
M 19.671875 64.796875 
L 19.671875 42.828125 
L 34.28125 42.828125 
Q 41.5 42.828125 45.03125 45.53125 
Q 48.578125 48.25 48.578125 53.8125 
Q 48.578125 59.328125 45.03125 62.0625 
Q 41.5 64.796875 34.28125 64.796875 
z
M 9.8125 72.90625 
L 35.015625 72.90625 
Q 46.296875 72.90625 52.390625 68.21875 
Q 58.5 63.53125 58.5 54.890625 
Q 58.5 48.1875 55.375 44.234375 
Q 52.25 40.28125 46.1875 39.3125 
Q 53.46875 37.75 57.5 32.78125 
Q 61.53125 27.828125 61.53125 20.40625 
Q 61.53125 10.640625 54.890625 5.3125 
Q 48.25 0 35.984375 0 
L 9.8125 0 
z
" id="DejaVuSans-66"/>
     <path d="M 9.8125 72.90625 
L 55.90625 72.90625 
L 55.90625 64.59375 
L 19.671875 64.59375 
L 19.671875 43.015625 
L 54.390625 43.015625 
L 54.390625 34.71875 
L 19.671875 34.71875 
L 19.671875 8.296875 
L 56.78125 8.296875 
L 56.78125 0 
L 9.8125 0 
z
" id="DejaVuSans-69"/>
     <path d="M 53.515625 70.515625 
L 53.515625 60.890625 
Q 47.90625 63.578125 42.921875 64.890625 
Q 37.9375 66.21875 33.296875 66.21875 
Q 25.25 66.21875 20.875 63.09375 
Q 16.5 59.96875 16.5 54.203125 
Q 16.5 49.359375 19.40625 46.890625 
Q 22.3125 44.4375 30.421875 42.921875 
L 36.375 41.703125 
Q 47.40625 39.59375 52.65625 34.296875 
Q 57.90625 29 57.90625 20.125 
Q 57.90625 9.515625 50.796875 4.046875 
Q 43.703125 -1.421875 29.984375 -1.421875 
Q 24.8125 -1.421875 18.96875 -0.25 
Q 13.140625 0.921875 6.890625 3.21875 
L 6.890625 13.375 
Q 12.890625 10.015625 18.65625 8.296875 
Q 24.421875 6.59375 29.984375 6.59375 
Q 38.421875 6.59375 43.015625 9.90625 
Q 47.609375 13.234375 47.609375 19.390625 
Q 47.609375 24.75 44.3125 27.78125 
Q 41.015625 30.8125 33.5 32.328125 
L 27.484375 33.5 
Q 16.453125 35.6875 11.515625 40.375 
Q 6.59375 45.0625 6.59375 53.421875 
Q 6.59375 63.09375 13.40625 68.65625 
Q 20.21875 74.21875 32.171875 74.21875 
Q 37.3125 74.21875 42.625 73.28125 
Q 47.953125 72.359375 53.515625 70.515625 
z
" id="DejaVuSans-83"/>
    </defs>
    <g transform="translate(151.278239 37.2)scale(0.12 -0.12)">
     <use xlink:href="#DejaVuSans-84"/>
     <use x="57.958984" xlink:href="#DejaVuSans-105"/>
     <use x="85.742188" xlink:href="#DejaVuSans-109"/>
     <use x="183.154297" xlink:href="#DejaVuSans-101"/>
     <use x="244.677734" xlink:href="#DejaVuSans-32"/>
     <use x="276.464844" xlink:href="#DejaVuSans-116"/>
     <use x="315.673828" xlink:href="#DejaVuSans-97"/>
     <use x="376.953125" xlink:href="#DejaVuSans-107"/>
     <use x="431.238281" xlink:href="#DejaVuSans-101"/>
     <use x="492.761719" xlink:href="#DejaVuSans-110"/>
     <use x="556.140625" xlink:href="#DejaVuSans-32"/>
     <use x="587.927734" xlink:href="#DejaVuSans-102"/>
     <use x="623.132812" xlink:href="#DejaVuSans-111"/>
     <use x="684.314453" xlink:href="#DejaVuSans-114"/>
     <use x="725.427734" xlink:href="#DejaVuSans-32"/>
     <use x="757.214844" xlink:href="#DejaVuSans-116"/>
     <use x="796.423828" xlink:href="#DejaVuSans-101"/>
     <use x="857.947266" xlink:href="#DejaVuSans-115"/>
     <use x="910.046875" xlink:href="#DejaVuSans-116"/>
     <use x="949.255859" xlink:href="#DejaVuSans-115"/>
     <use x="1001.355469" xlink:href="#DejaVuSans-32"/>
     <use x="1033.142578" xlink:href="#DejaVuSans-103"/>
     <use x="1096.619141" xlink:href="#DejaVuSans-101"/>
     <use x="1158.142578" xlink:href="#DejaVuSans-110"/>
     <use x="1221.521484" xlink:href="#DejaVuSans-101"/>
     <use x="1283.044922" xlink:href="#DejaVuSans-114"/>
     <use x="1324.158203" xlink:href="#DejaVuSans-97"/>
     <use x="1385.4375" xlink:href="#DejaVuSans-116"/>
     <use x="1424.646484" xlink:href="#DejaVuSans-101"/>
     <use x="1486.169922" xlink:href="#DejaVuSans-100"/>
     <use x="1549.646484" xlink:href="#DejaVuSans-32"/>
     <use x="1581.433594" xlink:href="#DejaVuSans-102"/>
     <use x="1616.638672" xlink:href="#DejaVuSans-111"/>
     <use x="1677.820312" xlink:href="#DejaVuSans-114"/>
     <use x="1718.933594" xlink:href="#DejaVuSans-32"/>
     <use x="1750.720703" xlink:href="#DejaVuSans-66"/>
     <use x="1819.324219" xlink:href="#DejaVuSans-69"/>
     <use x="1882.507812" xlink:href="#DejaVuSans-83"/>
    </g>
   </g>
  </g>
  <g id="axes_2">
   <g id="patch_7">
    <path d="M 481.090909 315 
L 907.2 315 
L 907.2 43.2 
L 481.090909 43.2 
z
" style="fill:#ffffff;"/>
   </g>
   <g id="matplotlib.axis_3">
    <g id="xtick_14">
     <g id="line2d_130">
      <path clip-path="url(#p485156cfcd)" d="M 497.47972 315 
L 497.47972 43.2 
" style="fill:none;stroke:#b0b0b0;stroke-linecap:square;stroke-width:0.8;"/>
     </g>
     <g id="line2d_131">
      <g>
       <use style="stroke:#000000;stroke-width:0.8;" x="497.47972" xlink:href="#mc838d66f97" y="315"/>
      </g>
     </g>
     <g id="text_23">
      <!-- 2 -->
      <g transform="translate(494.29847 329.598437)scale(0.1 -0.1)">
       <use xlink:href="#DejaVuSans-50"/>
      </g>
     </g>
    </g>
    <g id="xtick_15">
     <g id="line2d_132">
      <path clip-path="url(#p485156cfcd)" d="M 530.257343 315 
L 530.257343 43.2 
" style="fill:none;stroke:#b0b0b0;stroke-linecap:square;stroke-width:0.8;"/>
     </g>
     <g id="line2d_133">
      <g>
       <use style="stroke:#000000;stroke-width:0.8;" x="530.257343" xlink:href="#mc838d66f97" y="315"/>
      </g>
     </g>
     <g id="text_24">
      <!-- 101 -->
      <g transform="translate(520.713593 329.598437)scale(0.1 -0.1)">
       <use xlink:href="#DejaVuSans-49"/>
       <use x="63.623047" xlink:href="#DejaVuSans-48"/>
       <use x="127.246094" xlink:href="#DejaVuSans-49"/>
      </g>
     </g>
    </g>
    <g id="xtick_16">
     <g id="line2d_134">
      <path clip-path="url(#p485156cfcd)" d="M 563.034965 315 
L 563.034965 43.2 
" style="fill:none;stroke:#b0b0b0;stroke-linecap:square;stroke-width:0.8;"/>
     </g>
     <g id="line2d_135">
      <g>
       <use style="stroke:#000000;stroke-width:0.8;" x="563.034965" xlink:href="#mc838d66f97" y="315"/>
      </g>
     </g>
     <g id="text_25">
      <!-- 201 -->
      <g transform="translate(553.491215 329.598437)scale(0.1 -0.1)">
       <use xlink:href="#DejaVuSans-50"/>
       <use x="63.623047" xlink:href="#DejaVuSans-48"/>
       <use x="127.246094" xlink:href="#DejaVuSans-49"/>
      </g>
     </g>
    </g>
    <g id="xtick_17">
     <g id="line2d_136">
      <path clip-path="url(#p485156cfcd)" d="M 595.812587 315 
L 595.812587 43.2 
" style="fill:none;stroke:#b0b0b0;stroke-linecap:square;stroke-width:0.8;"/>
     </g>
     <g id="line2d_137">
      <g>
       <use style="stroke:#000000;stroke-width:0.8;" x="595.812587" xlink:href="#mc838d66f97" y="315"/>
      </g>
     </g>
     <g id="text_26">
      <!-- 301 -->
      <g transform="translate(586.268837 329.598437)scale(0.1 -0.1)">
       <use xlink:href="#DejaVuSans-51"/>
       <use x="63.623047" xlink:href="#DejaVuSans-48"/>
       <use x="127.246094" xlink:href="#DejaVuSans-49"/>
      </g>
     </g>
    </g>
    <g id="xtick_18">
     <g id="line2d_138">
      <path clip-path="url(#p485156cfcd)" d="M 628.59021 315 
L 628.59021 43.2 
" style="fill:none;stroke:#b0b0b0;stroke-linecap:square;stroke-width:0.8;"/>
     </g>
     <g id="line2d_139">
      <g>
       <use style="stroke:#000000;stroke-width:0.8;" x="628.59021" xlink:href="#mc838d66f97" y="315"/>
      </g>
     </g>
     <g id="text_27">
      <!-- 401 -->
      <g transform="translate(619.04646 329.598437)scale(0.1 -0.1)">
       <use xlink:href="#DejaVuSans-52"/>
       <use x="63.623047" xlink:href="#DejaVuSans-48"/>
       <use x="127.246094" xlink:href="#DejaVuSans-49"/>
      </g>
     </g>
    </g>
    <g id="xtick_19">
     <g id="line2d_140">
      <path clip-path="url(#p485156cfcd)" d="M 661.367832 315 
L 661.367832 43.2 
" style="fill:none;stroke:#b0b0b0;stroke-linecap:square;stroke-width:0.8;"/>
     </g>
     <g id="line2d_141">
      <g>
       <use style="stroke:#000000;stroke-width:0.8;" x="661.367832" xlink:href="#mc838d66f97" y="315"/>
      </g>
     </g>
     <g id="text_28">
      <!-- 501 -->
      <g transform="translate(651.824082 329.598437)scale(0.1 -0.1)">
       <use xlink:href="#DejaVuSans-53"/>
       <use x="63.623047" xlink:href="#DejaVuSans-48"/>
       <use x="127.246094" xlink:href="#DejaVuSans-49"/>
      </g>
     </g>
    </g>
    <g id="xtick_20">
     <g id="line2d_142">
      <path clip-path="url(#p485156cfcd)" d="M 694.145455 315 
L 694.145455 43.2 
" style="fill:none;stroke:#b0b0b0;stroke-linecap:square;stroke-width:0.8;"/>
     </g>
     <g id="line2d_143">
      <g>
       <use style="stroke:#000000;stroke-width:0.8;" x="694.145455" xlink:href="#mc838d66f97" y="315"/>
      </g>
     </g>
     <g id="text_29">
      <!-- 601 -->
      <g transform="translate(684.601705 329.598437)scale(0.1 -0.1)">
       <use xlink:href="#DejaVuSans-54"/>
       <use x="63.623047" xlink:href="#DejaVuSans-48"/>
       <use x="127.246094" xlink:href="#DejaVuSans-49"/>
      </g>
     </g>
    </g>
    <g id="xtick_21">
     <g id="line2d_144">
      <path clip-path="url(#p485156cfcd)" d="M 726.923077 315 
L 726.923077 43.2 
" style="fill:none;stroke:#b0b0b0;stroke-linecap:square;stroke-width:0.8;"/>
     </g>
     <g id="line2d_145">
      <g>
       <use style="stroke:#000000;stroke-width:0.8;" x="726.923077" xlink:href="#mc838d66f97" y="315"/>
      </g>
     </g>
     <g id="text_30">
      <!-- 701 -->
      <defs>
       <path d="M 8.203125 72.90625 
L 55.078125 72.90625 
L 55.078125 68.703125 
L 28.609375 0 
L 18.3125 0 
L 43.21875 64.59375 
L 8.203125 64.59375 
z
" id="DejaVuSans-55"/>
      </defs>
      <g transform="translate(717.379327 329.598437)scale(0.1 -0.1)">
       <use xlink:href="#DejaVuSans-55"/>
       <use x="63.623047" xlink:href="#DejaVuSans-48"/>
       <use x="127.246094" xlink:href="#DejaVuSans-49"/>
      </g>
     </g>
    </g>
    <g id="xtick_22">
     <g id="line2d_146">
      <path clip-path="url(#p485156cfcd)" d="M 759.700699 315 
L 759.700699 43.2 
" style="fill:none;stroke:#b0b0b0;stroke-linecap:square;stroke-width:0.8;"/>
     </g>
     <g id="line2d_147">
      <g>
       <use style="stroke:#000000;stroke-width:0.8;" x="759.700699" xlink:href="#mc838d66f97" y="315"/>
      </g>
     </g>
     <g id="text_31">
      <!-- 801 -->
      <defs>
       <path d="M 31.78125 34.625 
Q 24.75 34.625 20.71875 30.859375 
Q 16.703125 27.09375 16.703125 20.515625 
Q 16.703125 13.921875 20.71875 10.15625 
Q 24.75 6.390625 31.78125 6.390625 
Q 38.8125 6.390625 42.859375 10.171875 
Q 46.921875 13.96875 46.921875 20.515625 
Q 46.921875 27.09375 42.890625 30.859375 
Q 38.875 34.625 31.78125 34.625 
z
M 21.921875 38.8125 
Q 15.578125 40.375 12.03125 44.71875 
Q 8.5 49.078125 8.5 55.328125 
Q 8.5 64.0625 14.71875 69.140625 
Q 20.953125 74.21875 31.78125 74.21875 
Q 42.671875 74.21875 48.875 69.140625 
Q 55.078125 64.0625 55.078125 55.328125 
Q 55.078125 49.078125 51.53125 44.71875 
Q 48 40.375 41.703125 38.8125 
Q 48.828125 37.15625 52.796875 32.3125 
Q 56.78125 27.484375 56.78125 20.515625 
Q 56.78125 9.90625 50.3125 4.234375 
Q 43.84375 -1.421875 31.78125 -1.421875 
Q 19.734375 -1.421875 13.25 4.234375 
Q 6.78125 9.90625 6.78125 20.515625 
Q 6.78125 27.484375 10.78125 32.3125 
Q 14.796875 37.15625 21.921875 38.8125 
z
M 18.3125 54.390625 
Q 18.3125 48.734375 21.84375 45.5625 
Q 25.390625 42.390625 31.78125 42.390625 
Q 38.140625 42.390625 41.71875 45.5625 
Q 45.3125 48.734375 45.3125 54.390625 
Q 45.3125 60.0625 41.71875 63.234375 
Q 38.140625 66.40625 31.78125 66.40625 
Q 25.390625 66.40625 21.84375 63.234375 
Q 18.3125 60.0625 18.3125 54.390625 
z
" id="DejaVuSans-56"/>
      </defs>
      <g transform="translate(750.156949 329.598437)scale(0.1 -0.1)">
       <use xlink:href="#DejaVuSans-56"/>
       <use x="63.623047" xlink:href="#DejaVuSans-48"/>
       <use x="127.246094" xlink:href="#DejaVuSans-49"/>
      </g>
     </g>
    </g>
    <g id="xtick_23">
     <g id="line2d_148">
      <path clip-path="url(#p485156cfcd)" d="M 792.478322 315 
L 792.478322 43.2 
" style="fill:none;stroke:#b0b0b0;stroke-linecap:square;stroke-width:0.8;"/>
     </g>
     <g id="line2d_149">
      <g>
       <use style="stroke:#000000;stroke-width:0.8;" x="792.478322" xlink:href="#mc838d66f97" y="315"/>
      </g>
     </g>
     <g id="text_32">
      <!-- 901 -->
      <defs>
       <path d="M 10.984375 1.515625 
L 10.984375 10.5 
Q 14.703125 8.734375 18.5 7.8125 
Q 22.3125 6.890625 25.984375 6.890625 
Q 35.75 6.890625 40.890625 13.453125 
Q 46.046875 20.015625 46.78125 33.40625 
Q 43.953125 29.203125 39.59375 26.953125 
Q 35.25 24.703125 29.984375 24.703125 
Q 19.046875 24.703125 12.671875 31.3125 
Q 6.296875 37.9375 6.296875 49.421875 
Q 6.296875 60.640625 12.9375 67.421875 
Q 19.578125 74.21875 30.609375 74.21875 
Q 43.265625 74.21875 49.921875 64.515625 
Q 56.59375 54.828125 56.59375 36.375 
Q 56.59375 19.140625 48.40625 8.859375 
Q 40.234375 -1.421875 26.421875 -1.421875 
Q 22.703125 -1.421875 18.890625 -0.6875 
Q 15.09375 0.046875 10.984375 1.515625 
z
M 30.609375 32.421875 
Q 37.25 32.421875 41.125 36.953125 
Q 45.015625 41.5 45.015625 49.421875 
Q 45.015625 57.28125 41.125 61.84375 
Q 37.25 66.40625 30.609375 66.40625 
Q 23.96875 66.40625 20.09375 61.84375 
Q 16.21875 57.28125 16.21875 49.421875 
Q 16.21875 41.5 20.09375 36.953125 
Q 23.96875 32.421875 30.609375 32.421875 
z
" id="DejaVuSans-57"/>
      </defs>
      <g transform="translate(782.934572 329.598437)scale(0.1 -0.1)">
       <use xlink:href="#DejaVuSans-57"/>
       <use x="63.623047" xlink:href="#DejaVuSans-48"/>
       <use x="127.246094" xlink:href="#DejaVuSans-49"/>
      </g>
     </g>
    </g>
    <g id="xtick_24">
     <g id="line2d_150">
      <path clip-path="url(#p485156cfcd)" d="M 825.255944 315 
L 825.255944 43.2 
" style="fill:none;stroke:#b0b0b0;stroke-linecap:square;stroke-width:0.8;"/>
     </g>
     <g id="line2d_151">
      <g>
       <use style="stroke:#000000;stroke-width:0.8;" x="825.255944" xlink:href="#mc838d66f97" y="315"/>
      </g>
     </g>
     <g id="text_33">
      <!-- 1001 -->
      <g transform="translate(812.530944 329.598437)scale(0.1 -0.1)">
       <use xlink:href="#DejaVuSans-49"/>
       <use x="63.623047" xlink:href="#DejaVuSans-48"/>
       <use x="127.246094" xlink:href="#DejaVuSans-48"/>
       <use x="190.869141" xlink:href="#DejaVuSans-49"/>
      </g>
     </g>
    </g>
    <g id="xtick_25">
     <g id="line2d_152">
      <path clip-path="url(#p485156cfcd)" d="M 858.033566 315 
L 858.033566 43.2 
" style="fill:none;stroke:#b0b0b0;stroke-linecap:square;stroke-width:0.8;"/>
     </g>
     <g id="line2d_153">
      <g>
       <use style="stroke:#000000;stroke-width:0.8;" x="858.033566" xlink:href="#mc838d66f97" y="315"/>
      </g>
     </g>
     <g id="text_34">
      <!-- 1101 -->
      <g transform="translate(845.308566 329.598437)scale(0.1 -0.1)">
       <use xlink:href="#DejaVuSans-49"/>
       <use x="63.623047" xlink:href="#DejaVuSans-49"/>
       <use x="127.246094" xlink:href="#DejaVuSans-48"/>
       <use x="190.869141" xlink:href="#DejaVuSans-49"/>
      </g>
     </g>
    </g>
    <g id="xtick_26">
     <g id="line2d_154">
      <path clip-path="url(#p485156cfcd)" d="M 890.811189 315 
L 890.811189 43.2 
" style="fill:none;stroke:#b0b0b0;stroke-linecap:square;stroke-width:0.8;"/>
     </g>
     <g id="line2d_155">
      <g>
       <use style="stroke:#000000;stroke-width:0.8;" x="890.811189" xlink:href="#mc838d66f97" y="315"/>
      </g>
     </g>
     <g id="text_35">
      <!-- 1201 -->
      <g transform="translate(878.086189 329.598437)scale(0.1 -0.1)">
       <use xlink:href="#DejaVuSans-49"/>
       <use x="63.623047" xlink:href="#DejaVuSans-50"/>
       <use x="127.246094" xlink:href="#DejaVuSans-48"/>
       <use x="190.869141" xlink:href="#DejaVuSans-49"/>
      </g>
     </g>
    </g>
    <g id="text_36">
     <!-- Test sizes -->
     <defs>
      <path d="M 5.515625 54.6875 
L 48.1875 54.6875 
L 48.1875 46.484375 
L 14.40625 7.171875 
L 48.1875 7.171875 
L 48.1875 0 
L 4.296875 0 
L 4.296875 8.203125 
L 38.09375 47.515625 
L 5.515625 47.515625 
z
" id="DejaVuSans-122"/>
     </defs>
     <g transform="translate(670.411861 343.276563)scale(0.1 -0.1)">
      <use xlink:href="#DejaVuSans-84"/>
      <use x="44.083984" xlink:href="#DejaVuSans-101"/>
      <use x="105.607422" xlink:href="#DejaVuSans-115"/>
      <use x="157.707031" xlink:href="#DejaVuSans-116"/>
      <use x="196.916016" xlink:href="#DejaVuSans-32"/>
      <use x="228.703125" xlink:href="#DejaVuSans-115"/>
      <use x="280.802734" xlink:href="#DejaVuSans-105"/>
      <use x="308.585938" xlink:href="#DejaVuSans-122"/>
      <use x="361.076172" xlink:href="#DejaVuSans-101"/>
      <use x="422.599609" xlink:href="#DejaVuSans-115"/>
     </g>
    </g>
   </g>
   <g id="matplotlib.axis_4">
    <g id="ytick_7">
     <g id="line2d_156">
      <path clip-path="url(#p485156cfcd)" d="M 481.090909 271.974812 
L 907.2 271.974812 
" style="fill:none;stroke:#b0b0b0;stroke-linecap:square;stroke-width:0.8;"/>
     </g>
     <g id="line2d_157">
      <g>
       <use style="stroke:#000000;stroke-width:0.8;" x="481.090909" xlink:href="#mfc3af741bf" y="271.974812"/>
      </g>
     </g>
     <g id="text_37">
      <!-- 1.0 -->
      <defs>
       <path d="M 10.6875 12.40625 
L 21 12.40625 
L 21 0 
L 10.6875 0 
z
" id="DejaVuSans-46"/>
      </defs>
      <g transform="translate(458.187784 275.774031)scale(0.1 -0.1)">
       <use xlink:href="#DejaVuSans-49"/>
       <use x="63.623047" xlink:href="#DejaVuSans-46"/>
       <use x="95.410156" xlink:href="#DejaVuSans-48"/>
      </g>
     </g>
    </g>
    <g id="ytick_8">
     <g id="line2d_158">
      <path clip-path="url(#p485156cfcd)" d="M 481.090909 223.33816 
L 907.2 223.33816 
" style="fill:none;stroke:#b0b0b0;stroke-linecap:square;stroke-width:0.8;"/>
     </g>
     <g id="line2d_159">
      <g>
       <use style="stroke:#000000;stroke-width:0.8;" x="481.090909" xlink:href="#mfc3af741bf" y="223.33816"/>
      </g>
     </g>
     <g id="text_38">
      <!-- 1.5 -->
      <g transform="translate(458.187784 227.137379)scale(0.1 -0.1)">
       <use xlink:href="#DejaVuSans-49"/>
       <use x="63.623047" xlink:href="#DejaVuSans-46"/>
       <use x="95.410156" xlink:href="#DejaVuSans-53"/>
      </g>
     </g>
    </g>
    <g id="ytick_9">
     <g id="line2d_160">
      <path clip-path="url(#p485156cfcd)" d="M 481.090909 174.701508 
L 907.2 174.701508 
" style="fill:none;stroke:#b0b0b0;stroke-linecap:square;stroke-width:0.8;"/>
     </g>
     <g id="line2d_161">
      <g>
       <use style="stroke:#000000;stroke-width:0.8;" x="481.090909" xlink:href="#mfc3af741bf" y="174.701508"/>
      </g>
     </g>
     <g id="text_39">
      <!-- 2.0 -->
      <g transform="translate(458.187784 178.500727)scale(0.1 -0.1)">
       <use xlink:href="#DejaVuSans-50"/>
       <use x="63.623047" xlink:href="#DejaVuSans-46"/>
       <use x="95.410156" xlink:href="#DejaVuSans-48"/>
      </g>
     </g>
    </g>
    <g id="ytick_10">
     <g id="line2d_162">
      <path clip-path="url(#p485156cfcd)" d="M 481.090909 126.064856 
L 907.2 126.064856 
" style="fill:none;stroke:#b0b0b0;stroke-linecap:square;stroke-width:0.8;"/>
     </g>
     <g id="line2d_163">
      <g>
       <use style="stroke:#000000;stroke-width:0.8;" x="481.090909" xlink:href="#mfc3af741bf" y="126.064856"/>
      </g>
     </g>
     <g id="text_40">
      <!-- 2.5 -->
      <g transform="translate(458.187784 129.864075)scale(0.1 -0.1)">
       <use xlink:href="#DejaVuSans-50"/>
       <use x="63.623047" xlink:href="#DejaVuSans-46"/>
       <use x="95.410156" xlink:href="#DejaVuSans-53"/>
      </g>
     </g>
    </g>
    <g id="ytick_11">
     <g id="line2d_164">
      <path clip-path="url(#p485156cfcd)" d="M 481.090909 77.428204 
L 907.2 77.428204 
" style="fill:none;stroke:#b0b0b0;stroke-linecap:square;stroke-width:0.8;"/>
     </g>
     <g id="line2d_165">
      <g>
       <use style="stroke:#000000;stroke-width:0.8;" x="481.090909" xlink:href="#mfc3af741bf" y="77.428204"/>
      </g>
     </g>
     <g id="text_41">
      <!-- 3.0 -->
      <g transform="translate(458.187784 81.227423)scale(0.1 -0.1)">
       <use xlink:href="#DejaVuSans-51"/>
       <use x="63.623047" xlink:href="#DejaVuSans-46"/>
       <use x="95.410156" xlink:href="#DejaVuSans-48"/>
      </g>
     </g>
    </g>
    <g id="text_42">
     <!-- Time taken -->
     <g transform="translate(452.108097 206.90625)rotate(-90)scale(0.1 -0.1)">
      <use xlink:href="#DejaVuSans-84"/>
      <use x="57.958984" xlink:href="#DejaVuSans-105"/>
      <use x="85.742188" xlink:href="#DejaVuSans-109"/>
      <use x="183.154297" xlink:href="#DejaVuSans-101"/>
      <use x="244.677734" xlink:href="#DejaVuSans-32"/>
      <use x="276.464844" xlink:href="#DejaVuSans-116"/>
      <use x="315.673828" xlink:href="#DejaVuSans-97"/>
      <use x="376.953125" xlink:href="#DejaVuSans-107"/>
      <use x="431.238281" xlink:href="#DejaVuSans-101"/>
      <use x="492.761719" xlink:href="#DejaVuSans-110"/>
     </g>
    </g>
   </g>
   <g id="line2d_166">
    <path clip-path="url(#p485156cfcd)" d="M 489.285315 266.239993 
L 505.674126 266.239993 
L 505.674126 261.522957 
L 489.285315 261.522957 
L 489.285315 266.239993 
" style="fill:none;stroke:#000000;stroke-linecap:square;"/>
   </g>
   <g id="line2d_167">
    <path clip-path="url(#p485156cfcd)" d="M 497.47972 266.239993 
L 497.47972 269.12364 
" style="fill:none;stroke:#000000;stroke-linecap:square;"/>
   </g>
   <g id="line2d_168">
    <path clip-path="url(#p485156cfcd)" d="M 497.47972 261.522957 
L 497.47972 255.114818 
" style="fill:none;stroke:#000000;stroke-linecap:square;"/>
   </g>
   <g id="line2d_169">
    <path clip-path="url(#p485156cfcd)" d="M 493.382517 269.12364 
L 501.576923 269.12364 
" style="fill:none;stroke:#000000;stroke-linecap:square;"/>
   </g>
   <g id="line2d_170">
    <path clip-path="url(#p485156cfcd)" d="M 493.382517 255.114818 
L 501.576923 255.114818 
" style="fill:none;stroke:#000000;stroke-linecap:square;"/>
   </g>
   <g id="line2d_171">
    <g clip-path="url(#p485156cfcd)">
     <use style="fill-opacity:0;stroke:#000000;" x="497.47972" xlink:href="#m746de07209" y="302.645455"/>
     <use style="fill-opacity:0;stroke:#000000;" x="497.47972" xlink:href="#m746de07209" y="253.508835"/>
    </g>
   </g>
   <g id="line2d_172">
    <path clip-path="url(#p485156cfcd)" d="M 522.062937 224.522848 
L 538.451748 224.522848 
L 538.451748 218.761353 
L 522.062937 218.761353 
L 522.062937 224.522848 
" style="fill:none;stroke:#000000;stroke-linecap:square;"/>
   </g>
   <g id="line2d_173">
    <path clip-path="url(#p485156cfcd)" d="M 530.257343 224.522848 
L 530.257343 229.501023 
" style="fill:none;stroke:#000000;stroke-linecap:square;"/>
   </g>
   <g id="line2d_174">
    <path clip-path="url(#p485156cfcd)" d="M 530.257343 218.761353 
L 530.257343 212.753161 
" style="fill:none;stroke:#000000;stroke-linecap:square;"/>
   </g>
   <g id="line2d_175">
    <path clip-path="url(#p485156cfcd)" d="M 526.16014 229.501023 
L 534.354545 229.501023 
" style="fill:none;stroke:#000000;stroke-linecap:square;"/>
   </g>
   <g id="line2d_176">
    <path clip-path="url(#p485156cfcd)" d="M 526.16014 212.753161 
L 534.354545 212.753161 
" style="fill:none;stroke:#000000;stroke-linecap:square;"/>
   </g>
   <g id="line2d_177">
    <g clip-path="url(#p485156cfcd)">
     <use style="fill-opacity:0;stroke:#000000;" x="530.257343" xlink:href="#m746de07209" y="236.294308"/>
    </g>
   </g>
   <g id="line2d_178">
    <path clip-path="url(#p485156cfcd)" d="M 554.840559 211.287935 
L 571.229371 211.287935 
L 571.229371 206.18748 
L 554.840559 206.18748 
L 554.840559 211.287935 
" style="fill:none;stroke:#000000;stroke-linecap:square;"/>
   </g>
   <g id="line2d_179">
    <path clip-path="url(#p485156cfcd)" d="M 563.034965 211.287935 
L 563.034965 215.776393 
" style="fill:none;stroke:#000000;stroke-linecap:square;"/>
   </g>
   <g id="line2d_180">
    <path clip-path="url(#p485156cfcd)" d="M 563.034965 206.18748 
L 563.034965 199.43383 
" style="fill:none;stroke:#000000;stroke-linecap:square;"/>
   </g>
   <g id="line2d_181">
    <path clip-path="url(#p485156cfcd)" d="M 558.937762 215.776393 
L 567.132168 215.776393 
" style="fill:none;stroke:#000000;stroke-linecap:square;"/>
   </g>
   <g id="line2d_182">
    <path clip-path="url(#p485156cfcd)" d="M 558.937762 199.43383 
L 567.132168 199.43383 
" style="fill:none;stroke:#000000;stroke-linecap:square;"/>
   </g>
   <g id="line2d_183">
    <g clip-path="url(#p485156cfcd)">
     <use style="fill-opacity:0;stroke:#000000;" x="563.034965" xlink:href="#m746de07209" y="195.59884"/>
    </g>
   </g>
   <g id="line2d_184">
    <path clip-path="url(#p485156cfcd)" d="M 587.618182 198.295399 
L 604.006993 198.295399 
L 604.006993 192.948579 
L 587.618182 192.948579 
L 587.618182 198.295399 
" style="fill:none;stroke:#000000;stroke-linecap:square;"/>
   </g>
   <g id="line2d_185">
    <path clip-path="url(#p485156cfcd)" d="M 595.812587 198.295399 
L 595.812587 202.897242 
" style="fill:none;stroke:#000000;stroke-linecap:square;"/>
   </g>
   <g id="line2d_186">
    <path clip-path="url(#p485156cfcd)" d="M 595.812587 192.948579 
L 595.812587 185.560448 
" style="fill:none;stroke:#000000;stroke-linecap:square;"/>
   </g>
   <g id="line2d_187">
    <path clip-path="url(#p485156cfcd)" d="M 591.715385 202.897242 
L 599.90979 202.897242 
" style="fill:none;stroke:#000000;stroke-linecap:square;"/>
   </g>
   <g id="line2d_188">
    <path clip-path="url(#p485156cfcd)" d="M 591.715385 185.560448 
L 599.90979 185.560448 
" style="fill:none;stroke:#000000;stroke-linecap:square;"/>
   </g>
   <g id="line2d_189">
    <g clip-path="url(#p485156cfcd)">
     <use style="fill-opacity:0;stroke:#000000;" x="595.812587" xlink:href="#m746de07209" y="182.991821"/>
     <use style="fill-opacity:0;stroke:#000000;" x="595.812587" xlink:href="#m746de07209" y="183.245609"/>
    </g>
   </g>
   <g id="line2d_190">
    <path clip-path="url(#p485156cfcd)" d="M 620.395804 184.088896 
L 636.784615 184.088896 
L 636.784615 180.230958 
L 620.395804 180.230958 
L 620.395804 184.088896 
" style="fill:none;stroke:#000000;stroke-linecap:square;"/>
   </g>
   <g id="line2d_191">
    <path clip-path="url(#p485156cfcd)" d="M 628.59021 184.088896 
L 628.59021 189.77089 
" style="fill:none;stroke:#000000;stroke-linecap:square;"/>
   </g>
   <g id="line2d_192">
    <path clip-path="url(#p485156cfcd)" d="M 628.59021 180.230958 
L 628.59021 175.335455 
" style="fill:none;stroke:#000000;stroke-linecap:square;"/>
   </g>
   <g id="line2d_193">
    <path clip-path="url(#p485156cfcd)" d="M 624.493007 189.77089 
L 632.687413 189.77089 
" style="fill:none;stroke:#000000;stroke-linecap:square;"/>
   </g>
   <g id="line2d_194">
    <path clip-path="url(#p485156cfcd)" d="M 624.493007 175.335455 
L 632.687413 175.335455 
" style="fill:none;stroke:#000000;stroke-linecap:square;"/>
   </g>
   <g id="line2d_195"/>
   <g id="line2d_196">
    <path clip-path="url(#p485156cfcd)" d="M 653.173427 170.856842 
L 669.562238 170.856842 
L 669.562238 165.751581 
L 653.173427 165.751581 
L 653.173427 170.856842 
" style="fill:none;stroke:#000000;stroke-linecap:square;"/>
   </g>
   <g id="line2d_197">
    <path clip-path="url(#p485156cfcd)" d="M 661.367832 170.856842 
L 661.367832 174.567947 
" style="fill:none;stroke:#000000;stroke-linecap:square;"/>
   </g>
   <g id="line2d_198">
    <path clip-path="url(#p485156cfcd)" d="M 661.367832 165.751581 
L 661.367832 161.699974 
" style="fill:none;stroke:#000000;stroke-linecap:square;"/>
   </g>
   <g id="line2d_199">
    <path clip-path="url(#p485156cfcd)" d="M 657.270629 174.567947 
L 665.465035 174.567947 
" style="fill:none;stroke:#000000;stroke-linecap:square;"/>
   </g>
   <g id="line2d_200">
    <path clip-path="url(#p485156cfcd)" d="M 657.270629 161.699974 
L 665.465035 161.699974 
" style="fill:none;stroke:#000000;stroke-linecap:square;"/>
   </g>
   <g id="line2d_201">
    <g clip-path="url(#p485156cfcd)">
     <use style="fill-opacity:0;stroke:#000000;" x="661.367832" xlink:href="#m746de07209" y="154.610484"/>
    </g>
   </g>
   <g id="line2d_202">
    <path clip-path="url(#p485156cfcd)" d="M 685.951049 158.739435 
L 702.33986 158.739435 
L 702.33986 150.489163 
L 685.951049 150.489163 
L 685.951049 158.739435 
" style="fill:none;stroke:#000000;stroke-linecap:square;"/>
   </g>
   <g id="line2d_203">
    <path clip-path="url(#p485156cfcd)" d="M 694.145455 158.739435 
L 694.145455 164.122864 
" style="fill:none;stroke:#000000;stroke-linecap:square;"/>
   </g>
   <g id="line2d_204">
    <path clip-path="url(#p485156cfcd)" d="M 694.145455 150.489163 
L 694.145455 139.537972 
" style="fill:none;stroke:#000000;stroke-linecap:square;"/>
   </g>
   <g id="line2d_205">
    <path clip-path="url(#p485156cfcd)" d="M 690.048252 164.122864 
L 698.242657 164.122864 
" style="fill:none;stroke:#000000;stroke-linecap:square;"/>
   </g>
   <g id="line2d_206">
    <path clip-path="url(#p485156cfcd)" d="M 690.048252 139.537972 
L 698.242657 139.537972 
" style="fill:none;stroke:#000000;stroke-linecap:square;"/>
   </g>
   <g id="line2d_207">
    <g clip-path="url(#p485156cfcd)">
     <use style="fill-opacity:0;stroke:#000000;" x="694.145455" xlink:href="#m746de07209" y="133.866844"/>
     <use style="fill-opacity:0;stroke:#000000;" x="694.145455" xlink:href="#m746de07209" y="87.928507"/>
     <use style="fill-opacity:0;stroke:#000000;" x="694.145455" xlink:href="#m746de07209" y="121.749913"/>
    </g>
   </g>
   <g id="line2d_208">
    <path clip-path="url(#p485156cfcd)" d="M 718.728671 144.827943 
L 735.117483 144.827943 
L 735.117483 140.348541 
L 718.728671 140.348541 
L 718.728671 144.827943 
" style="fill:none;stroke:#000000;stroke-linecap:square;"/>
   </g>
   <g id="line2d_209">
    <path clip-path="url(#p485156cfcd)" d="M 726.923077 144.827943 
L 726.923077 150.108685 
" style="fill:none;stroke:#000000;stroke-linecap:square;"/>
   </g>
   <g id="line2d_210">
    <path clip-path="url(#p485156cfcd)" d="M 726.923077 140.348541 
L 726.923077 136.160926 
" style="fill:none;stroke:#000000;stroke-linecap:square;"/>
   </g>
   <g id="line2d_211">
    <path clip-path="url(#p485156cfcd)" d="M 722.825874 150.108685 
L 731.02028 150.108685 
" style="fill:none;stroke:#000000;stroke-linecap:square;"/>
   </g>
   <g id="line2d_212">
    <path clip-path="url(#p485156cfcd)" d="M 722.825874 136.160926 
L 731.02028 136.160926 
" style="fill:none;stroke:#000000;stroke-linecap:square;"/>
   </g>
   <g id="line2d_213">
    <g clip-path="url(#p485156cfcd)">
     <use style="fill-opacity:0;stroke:#000000;" x="726.923077" xlink:href="#m746de07209" y="130.020559"/>
    </g>
   </g>
   <g id="line2d_214">
    <path clip-path="url(#p485156cfcd)" d="M 751.506294 135.188884 
L 767.895105 135.188884 
L 767.895105 128.63735 
L 751.506294 128.63735 
L 751.506294 135.188884 
" style="fill:none;stroke:#000000;stroke-linecap:square;"/>
   </g>
   <g id="line2d_215">
    <path clip-path="url(#p485156cfcd)" d="M 759.700699 135.188884 
L 759.700699 139.207234 
" style="fill:none;stroke:#000000;stroke-linecap:square;"/>
   </g>
   <g id="line2d_216">
    <path clip-path="url(#p485156cfcd)" d="M 759.700699 128.63735 
L 759.700699 122.407956 
" style="fill:none;stroke:#000000;stroke-linecap:square;"/>
   </g>
   <g id="line2d_217">
    <path clip-path="url(#p485156cfcd)" d="M 755.603497 139.207234 
L 763.797902 139.207234 
" style="fill:none;stroke:#000000;stroke-linecap:square;"/>
   </g>
   <g id="line2d_218">
    <path clip-path="url(#p485156cfcd)" d="M 755.603497 122.407956 
L 763.797902 122.407956 
" style="fill:none;stroke:#000000;stroke-linecap:square;"/>
   </g>
   <g id="line2d_219"/>
   <g id="line2d_220">
    <path clip-path="url(#p485156cfcd)" d="M 784.283916 122.96613 
L 800.672727 122.96613 
L 800.672727 118.339182 
L 784.283916 118.339182 
L 784.283916 122.96613 
" style="fill:none;stroke:#000000;stroke-linecap:square;"/>
   </g>
   <g id="line2d_221">
    <path clip-path="url(#p485156cfcd)" d="M 792.478322 122.96613 
L 792.478322 129.14841 
" style="fill:none;stroke:#000000;stroke-linecap:square;"/>
   </g>
   <g id="line2d_222">
    <path clip-path="url(#p485156cfcd)" d="M 792.478322 118.339182 
L 792.478322 112.707514 
" style="fill:none;stroke:#000000;stroke-linecap:square;"/>
   </g>
   <g id="line2d_223">
    <path clip-path="url(#p485156cfcd)" d="M 788.381119 129.14841 
L 796.575524 129.14841 
" style="fill:none;stroke:#000000;stroke-linecap:square;"/>
   </g>
   <g id="line2d_224">
    <path clip-path="url(#p485156cfcd)" d="M 788.381119 112.707514 
L 796.575524 112.707514 
" style="fill:none;stroke:#000000;stroke-linecap:square;"/>
   </g>
   <g id="line2d_225">
    <g clip-path="url(#p485156cfcd)">
     <use style="fill-opacity:0;stroke:#000000;" x="792.478322" xlink:href="#m746de07209" y="109.802607"/>
    </g>
   </g>
   <g id="line2d_226">
    <path clip-path="url(#p485156cfcd)" d="M 817.061538 112.400183 
L 833.45035 112.400183 
L 833.45035 105.029609 
L 817.061538 105.029609 
L 817.061538 112.400183 
" style="fill:none;stroke:#000000;stroke-linecap:square;"/>
   </g>
   <g id="line2d_227">
    <path clip-path="url(#p485156cfcd)" d="M 825.255944 112.400183 
L 825.255944 119.533244 
" style="fill:none;stroke:#000000;stroke-linecap:square;"/>
   </g>
   <g id="line2d_228">
    <path clip-path="url(#p485156cfcd)" d="M 825.255944 105.029609 
L 825.255944 98.303736 
" style="fill:none;stroke:#000000;stroke-linecap:square;"/>
   </g>
   <g id="line2d_229">
    <path clip-path="url(#p485156cfcd)" d="M 821.158741 119.533244 
L 829.353147 119.533244 
" style="fill:none;stroke:#000000;stroke-linecap:square;"/>
   </g>
   <g id="line2d_230">
    <path clip-path="url(#p485156cfcd)" d="M 821.158741 98.303736 
L 829.353147 98.303736 
" style="fill:none;stroke:#000000;stroke-linecap:square;"/>
   </g>
   <g id="line2d_231">
    <g clip-path="url(#p485156cfcd)">
     <use style="fill-opacity:0;stroke:#000000;" x="825.255944" xlink:href="#m746de07209" y="55.554545"/>
     <use style="fill-opacity:0;stroke:#000000;" x="825.255944" xlink:href="#m746de07209" y="70.897079"/>
    </g>
   </g>
   <g id="line2d_232">
    <path clip-path="url(#p485156cfcd)" d="M 849.839161 103.569438 
L 866.227972 103.569438 
L 866.227972 96.052489 
L 849.839161 96.052489 
L 849.839161 103.569438 
" style="fill:none;stroke:#000000;stroke-linecap:square;"/>
   </g>
   <g id="line2d_233">
    <path clip-path="url(#p485156cfcd)" d="M 858.033566 103.569438 
L 858.033566 113.092381 
" style="fill:none;stroke:#000000;stroke-linecap:square;"/>
   </g>
   <g id="line2d_234">
    <path clip-path="url(#p485156cfcd)" d="M 858.033566 96.052489 
L 858.033566 91.447161 
" style="fill:none;stroke:#000000;stroke-linecap:square;"/>
   </g>
   <g id="line2d_235">
    <path clip-path="url(#p485156cfcd)" d="M 853.936364 113.092381 
L 862.130769 113.092381 
" style="fill:none;stroke:#000000;stroke-linecap:square;"/>
   </g>
   <g id="line2d_236">
    <path clip-path="url(#p485156cfcd)" d="M 853.936364 91.447161 
L 862.130769 91.447161 
" style="fill:none;stroke:#000000;stroke-linecap:square;"/>
   </g>
   <g id="line2d_237">
    <g clip-path="url(#p485156cfcd)">
     <use style="fill-opacity:0;stroke:#000000;" x="858.033566" xlink:href="#m746de07209" y="77.316443"/>
     <use style="fill-opacity:0;stroke:#000000;" x="858.033566" xlink:href="#m746de07209" y="81.017176"/>
     <use style="fill-opacity:0;stroke:#000000;" x="858.033566" xlink:href="#m746de07209" y="83.513909"/>
    </g>
   </g>
   <g id="line2d_238">
    <path clip-path="url(#p485156cfcd)" d="M 882.616783 92.926361 
L 899.005594 92.926361 
L 899.005594 85.512001 
L 882.616783 85.512001 
L 882.616783 92.926361 
" style="fill:none;stroke:#000000;stroke-linecap:square;"/>
   </g>
   <g id="line2d_239">
    <path clip-path="url(#p485156cfcd)" d="M 890.811189 92.926361 
L 890.811189 97.619997 
" style="fill:none;stroke:#000000;stroke-linecap:square;"/>
   </g>
   <g id="line2d_240">
    <path clip-path="url(#p485156cfcd)" d="M 890.811189 85.512001 
L 890.811189 80.607007 
" style="fill:none;stroke:#000000;stroke-linecap:square;"/>
   </g>
   <g id="line2d_241">
    <path clip-path="url(#p485156cfcd)" d="M 886.713986 97.619997 
L 894.908392 97.619997 
" style="fill:none;stroke:#000000;stroke-linecap:square;"/>
   </g>
   <g id="line2d_242">
    <path clip-path="url(#p485156cfcd)" d="M 886.713986 80.607007 
L 894.908392 80.607007 
" style="fill:none;stroke:#000000;stroke-linecap:square;"/>
   </g>
   <g id="line2d_243"/>
   <g id="line2d_244">
    <path clip-path="url(#p485156cfcd)" d="M 489.285315 265.0113 
L 505.674126 265.0113 
" style="fill:none;stroke:#ff7f0e;stroke-linecap:square;"/>
   </g>
   <g id="line2d_245">
    <path clip-path="url(#p485156cfcd)" d="M 522.062937 221.210246 
L 538.451748 221.210246 
" style="fill:none;stroke:#ff7f0e;stroke-linecap:square;"/>
   </g>
   <g id="line2d_246">
    <path clip-path="url(#p485156cfcd)" d="M 554.840559 208.932249 
L 571.229371 208.932249 
" style="fill:none;stroke:#ff7f0e;stroke-linecap:square;"/>
   </g>
   <g id="line2d_247">
    <path clip-path="url(#p485156cfcd)" d="M 587.618182 195.327184 
L 604.006993 195.327184 
" style="fill:none;stroke:#ff7f0e;stroke-linecap:square;"/>
   </g>
   <g id="line2d_248">
    <path clip-path="url(#p485156cfcd)" d="M 620.395804 182.240431 
L 636.784615 182.240431 
" style="fill:none;stroke:#ff7f0e;stroke-linecap:square;"/>
   </g>
   <g id="line2d_249">
    <path clip-path="url(#p485156cfcd)" d="M 653.173427 169.272305 
L 669.562238 169.272305 
" style="fill:none;stroke:#ff7f0e;stroke-linecap:square;"/>
   </g>
   <g id="line2d_250">
    <path clip-path="url(#p485156cfcd)" d="M 685.951049 154.940143 
L 702.33986 154.940143 
" style="fill:none;stroke:#ff7f0e;stroke-linecap:square;"/>
   </g>
   <g id="line2d_251">
    <path clip-path="url(#p485156cfcd)" d="M 718.728671 143.796942 
L 735.117483 143.796942 
" style="fill:none;stroke:#ff7f0e;stroke-linecap:square;"/>
   </g>
   <g id="line2d_252">
    <path clip-path="url(#p485156cfcd)" d="M 751.506294 129.981331 
L 767.895105 129.981331 
" style="fill:none;stroke:#ff7f0e;stroke-linecap:square;"/>
   </g>
   <g id="line2d_253">
    <path clip-path="url(#p485156cfcd)" d="M 784.283916 119.634894 
L 800.672727 119.634894 
" style="fill:none;stroke:#ff7f0e;stroke-linecap:square;"/>
   </g>
   <g id="line2d_254">
    <path clip-path="url(#p485156cfcd)" d="M 817.061538 109.188605 
L 833.45035 109.188605 
" style="fill:none;stroke:#ff7f0e;stroke-linecap:square;"/>
   </g>
   <g id="line2d_255">
    <path clip-path="url(#p485156cfcd)" d="M 849.839161 99.473401 
L 866.227972 99.473401 
" style="fill:none;stroke:#ff7f0e;stroke-linecap:square;"/>
   </g>
   <g id="line2d_256">
    <path clip-path="url(#p485156cfcd)" d="M 882.616783 88.594203 
L 899.005594 88.594203 
" style="fill:none;stroke:#ff7f0e;stroke-linecap:square;"/>
   </g>
   <g id="patch_8">
    <path d="M 481.090909 315 
L 481.090909 43.2 
" style="fill:none;stroke:#000000;stroke-linecap:square;stroke-linejoin:miter;stroke-width:0.8;"/>
   </g>
   <g id="patch_9">
    <path d="M 907.2 315 
L 907.2 43.2 
" style="fill:none;stroke:#000000;stroke-linecap:square;stroke-linejoin:miter;stroke-width:0.8;"/>
   </g>
   <g id="patch_10">
    <path d="M 481.090909 315 
L 907.2 315 
" style="fill:none;stroke:#000000;stroke-linecap:square;stroke-linejoin:miter;stroke-width:0.8;"/>
   </g>
   <g id="patch_11">
    <path d="M 481.090909 43.2 
L 907.2 43.2 
" style="fill:none;stroke:#000000;stroke-linecap:square;stroke-linejoin:miter;stroke-width:0.8;"/>
   </g>
   <g id="text_43">
    <!-- Time taken for tests generated given for RS -->
    <defs>
     <path d="M 2.984375 54.6875 
L 12.5 54.6875 
L 29.59375 8.796875 
L 46.6875 54.6875 
L 56.203125 54.6875 
L 35.6875 0 
L 23.484375 0 
z
" id="DejaVuSans-118"/>
     <path d="M 44.390625 34.1875 
Q 47.5625 33.109375 50.5625 29.59375 
Q 53.5625 26.078125 56.59375 19.921875 
L 66.609375 0 
L 56 0 
L 46.6875 18.703125 
Q 43.0625 26.03125 39.671875 28.421875 
Q 36.28125 30.8125 30.421875 30.8125 
L 19.671875 30.8125 
L 19.671875 0 
L 9.8125 0 
L 9.8125 72.90625 
L 32.078125 72.90625 
Q 44.578125 72.90625 50.734375 67.671875 
Q 56.890625 62.453125 56.890625 51.90625 
Q 56.890625 45.015625 53.6875 40.46875 
Q 50.484375 35.9375 44.390625 34.1875 
z
M 19.671875 64.796875 
L 19.671875 38.921875 
L 32.078125 38.921875 
Q 39.203125 38.921875 42.84375 42.21875 
Q 46.484375 45.515625 46.484375 51.90625 
Q 46.484375 58.296875 42.84375 61.546875 
Q 39.203125 64.796875 32.078125 64.796875 
z
" id="DejaVuSans-82"/>
    </defs>
    <g transform="translate(562.697642 37.2)scale(0.12 -0.12)">
     <use xlink:href="#DejaVuSans-84"/>
     <use x="57.958984" xlink:href="#DejaVuSans-105"/>
     <use x="85.742188" xlink:href="#DejaVuSans-109"/>
     <use x="183.154297" xlink:href="#DejaVuSans-101"/>
     <use x="244.677734" xlink:href="#DejaVuSans-32"/>
     <use x="276.464844" xlink:href="#DejaVuSans-116"/>
     <use x="315.673828" xlink:href="#DejaVuSans-97"/>
     <use x="376.953125" xlink:href="#DejaVuSans-107"/>
     <use x="431.238281" xlink:href="#DejaVuSans-101"/>
     <use x="492.761719" xlink:href="#DejaVuSans-110"/>
     <use x="556.140625" xlink:href="#DejaVuSans-32"/>
     <use x="587.927734" xlink:href="#DejaVuSans-102"/>
     <use x="623.132812" xlink:href="#DejaVuSans-111"/>
     <use x="684.314453" xlink:href="#DejaVuSans-114"/>
     <use x="725.427734" xlink:href="#DejaVuSans-32"/>
     <use x="757.214844" xlink:href="#DejaVuSans-116"/>
     <use x="796.423828" xlink:href="#DejaVuSans-101"/>
     <use x="857.947266" xlink:href="#DejaVuSans-115"/>
     <use x="910.046875" xlink:href="#DejaVuSans-116"/>
     <use x="949.255859" xlink:href="#DejaVuSans-115"/>
     <use x="1001.355469" xlink:href="#DejaVuSans-32"/>
     <use x="1033.142578" xlink:href="#DejaVuSans-103"/>
     <use x="1096.619141" xlink:href="#DejaVuSans-101"/>
     <use x="1158.142578" xlink:href="#DejaVuSans-110"/>
     <use x="1221.521484" xlink:href="#DejaVuSans-101"/>
     <use x="1283.044922" xlink:href="#DejaVuSans-114"/>
     <use x="1324.158203" xlink:href="#DejaVuSans-97"/>
     <use x="1385.4375" xlink:href="#DejaVuSans-116"/>
     <use x="1424.646484" xlink:href="#DejaVuSans-101"/>
     <use x="1486.169922" xlink:href="#DejaVuSans-100"/>
     <use x="1549.646484" xlink:href="#DejaVuSans-32"/>
     <use x="1581.433594" xlink:href="#DejaVuSans-103"/>
     <use x="1644.910156" xlink:href="#DejaVuSans-105"/>
     <use x="1672.693359" xlink:href="#DejaVuSans-118"/>
     <use x="1731.873047" xlink:href="#DejaVuSans-101"/>
     <use x="1793.396484" xlink:href="#DejaVuSans-110"/>
     <use x="1856.775391" xlink:href="#DejaVuSans-32"/>
     <use x="1888.5625" xlink:href="#DejaVuSans-102"/>
     <use x="1923.767578" xlink:href="#DejaVuSans-111"/>
     <use x="1984.949219" xlink:href="#DejaVuSans-114"/>
     <use x="2026.0625" xlink:href="#DejaVuSans-32"/>
     <use x="2057.849609" xlink:href="#DejaVuSans-82"/>
     <use x="2127.332031" xlink:href="#DejaVuSans-83"/>
    </g>
   </g>
  </g>
  <g id="text_44">
   <!-- BES VS RS in terms of Time taken for SimpleModel -->
   <defs>
    <path d="M 28.609375 0 
L 0.78125 72.90625 
L 11.078125 72.90625 
L 34.1875 11.53125 
L 57.328125 72.90625 
L 67.578125 72.90625 
L 39.796875 0 
z
" id="DejaVuSans-86"/>
    <path d="M 9.421875 75.984375 
L 18.40625 75.984375 
L 18.40625 0 
L 9.421875 0 
z
" id="DejaVuSans-108"/>
    <path d="M 9.8125 72.90625 
L 24.515625 72.90625 
L 43.109375 23.296875 
L 61.8125 72.90625 
L 76.515625 72.90625 
L 76.515625 0 
L 66.890625 0 
L 66.890625 64.015625 
L 48.09375 14.015625 
L 38.1875 14.015625 
L 19.390625 64.015625 
L 19.390625 0 
L 9.8125 0 
z
" id="DejaVuSans-77"/>
   </defs>
   <g transform="translate(352.386562 9.118125)scale(0.12 -0.12)">
    <use xlink:href="#DejaVuSans-66"/>
    <use x="68.603516" xlink:href="#DejaVuSans-69"/>
    <use x="131.787109" xlink:href="#DejaVuSans-83"/>
    <use x="195.263672" xlink:href="#DejaVuSans-32"/>
    <use x="227.050781" xlink:href="#DejaVuSans-86"/>
    <use x="295.458984" xlink:href="#DejaVuSans-83"/>
    <use x="358.935547" xlink:href="#DejaVuSans-32"/>
    <use x="390.722656" xlink:href="#DejaVuSans-82"/>
    <use x="460.205078" xlink:href="#DejaVuSans-83"/>
    <use x="523.681641" xlink:href="#DejaVuSans-32"/>
    <use x="555.46875" xlink:href="#DejaVuSans-105"/>
    <use x="583.251953" xlink:href="#DejaVuSans-110"/>
    <use x="646.630859" xlink:href="#DejaVuSans-32"/>
    <use x="678.417969" xlink:href="#DejaVuSans-116"/>
    <use x="717.626953" xlink:href="#DejaVuSans-101"/>
    <use x="779.150391" xlink:href="#DejaVuSans-114"/>
    <use x="818.513672" xlink:href="#DejaVuSans-109"/>
    <use x="915.925781" xlink:href="#DejaVuSans-115"/>
    <use x="968.025391" xlink:href="#DejaVuSans-32"/>
    <use x="999.8125" xlink:href="#DejaVuSans-111"/>
    <use x="1060.994141" xlink:href="#DejaVuSans-102"/>
    <use x="1096.199219" xlink:href="#DejaVuSans-32"/>
    <use x="1127.986328" xlink:href="#DejaVuSans-84"/>
    <use x="1185.945312" xlink:href="#DejaVuSans-105"/>
    <use x="1213.728516" xlink:href="#DejaVuSans-109"/>
    <use x="1311.140625" xlink:href="#DejaVuSans-101"/>
    <use x="1372.664062" xlink:href="#DejaVuSans-32"/>
    <use x="1404.451172" xlink:href="#DejaVuSans-116"/>
    <use x="1443.660156" xlink:href="#DejaVuSans-97"/>
    <use x="1504.939453" xlink:href="#DejaVuSans-107"/>
    <use x="1559.224609" xlink:href="#DejaVuSans-101"/>
    <use x="1620.748047" xlink:href="#DejaVuSans-110"/>
    <use x="1684.126953" xlink:href="#DejaVuSans-32"/>
    <use x="1715.914062" xlink:href="#DejaVuSans-102"/>
    <use x="1751.119141" xlink:href="#DejaVuSans-111"/>
    <use x="1812.300781" xlink:href="#DejaVuSans-114"/>
    <use x="1853.414062" xlink:href="#DejaVuSans-32"/>
    <use x="1885.201172" xlink:href="#DejaVuSans-83"/>
    <use x="1948.677734" xlink:href="#DejaVuSans-105"/>
    <use x="1976.460938" xlink:href="#DejaVuSans-109"/>
    <use x="2073.873047" xlink:href="#DejaVuSans-112"/>
    <use x="2137.349609" xlink:href="#DejaVuSans-108"/>
    <use x="2165.132812" xlink:href="#DejaVuSans-101"/>
    <use x="2226.65625" xlink:href="#DejaVuSans-77"/>
    <use x="2312.935547" xlink:href="#DejaVuSans-111"/>
    <use x="2374.117188" xlink:href="#DejaVuSans-100"/>
    <use x="2437.59375" xlink:href="#DejaVuSans-101"/>
    <use x="2499.117188" xlink:href="#DejaVuSans-108"/>
   </g>
  </g>
 </g>
 <defs>
  <clipPath id="p8a8dac9d51">
   <rect height="271.8" width="284.072727" x="126" y="43.2"/>
  </clipPath>
  <clipPath id="p485156cfcd">
   <rect height="271.8" width="426.109091" x="481.090909" y="43.2"/>
  </clipPath>
 </defs>
</svg>
