<?xml version="1.0" encoding="utf-8" standalone="no"?>
<!DOCTYPE svg PUBLIC "-//W3C//DTD SVG 1.1//EN"
  "http://www.w3.org/Graphics/SVG/1.1/DTD/svg11.dtd">
<!-- Created with matplotlib (https://matplotlib.org/) -->
<svg height="360pt" version="1.1" viewBox="0 0 1008 360" width="1008pt" xmlns="http://www.w3.org/2000/svg" xmlns:xlink="http://www.w3.org/1999/xlink">
 <defs>
  <style type="text/css">
*{stroke-linecap:butt;stroke-linejoin:round;}
  </style>
 </defs>
 <g id="figure_1">
  <g id="patch_1">
   <path d="M 0 360 
L 1008 360 
L 1008 0 
L 0 0 
z
" style="fill:#ffffff;"/>
  </g>
  <g id="axes_1">
   <g id="patch_2">
    <path d="M 126 315 
L 410.072727 315 
L 410.072727 43.2 
L 126 43.2 
z
" style="fill:#ffffff;"/>
   </g>
   <g id="matplotlib.axis_1">
    <g id="xtick_1">
     <g id="line2d_1">
      <path clip-path="url(#p7805fa276a)" d="M 149.672727 315 
L 149.672727 43.2 
" style="fill:none;stroke:#b0b0b0;stroke-linecap:square;stroke-width:0.8;"/>
     </g>
     <g id="line2d_2">
      <defs>
       <path d="M 0 0 
L 0 3.5 
" id="m316835f84b" style="stroke:#000000;stroke-width:0.8;"/>
      </defs>
      <g>
       <use style="stroke:#000000;stroke-width:0.8;" x="149.672727" xlink:href="#m316835f84b" y="315"/>
      </g>
     </g>
     <g id="text_1">
      <!-- 1 -->
      <defs>
       <path d="M 12.40625 8.296875 
L 28.515625 8.296875 
L 28.515625 63.921875 
L 10.984375 60.40625 
L 10.984375 69.390625 
L 28.421875 72.90625 
L 38.28125 72.90625 
L 38.28125 8.296875 
L 54.390625 8.296875 
L 54.390625 0 
L 12.40625 0 
z
" id="DejaVuSans-49"/>
      </defs>
      <g transform="translate(149.00944 331.910477)rotate(-40)scale(0.1 -0.1)">
       <use xlink:href="#DejaVuSans-49"/>
      </g>
     </g>
    </g>
    <g id="xtick_2">
     <g id="line2d_3">
      <path clip-path="url(#p7805fa276a)" d="M 173.345455 315 
L 173.345455 43.2 
" style="fill:none;stroke:#b0b0b0;stroke-linecap:square;stroke-width:0.8;"/>
     </g>
     <g id="line2d_4">
      <g>
       <use style="stroke:#000000;stroke-width:0.8;" x="173.345455" xlink:href="#m316835f84b" y="315"/>
      </g>
     </g>
     <g id="text_2">
      <!-- 2 -->
      <defs>
       <path d="M 19.1875 8.296875 
L 53.609375 8.296875 
L 53.609375 0 
L 7.328125 0 
L 7.328125 8.296875 
Q 12.9375 14.109375 22.625 23.890625 
Q 32.328125 33.6875 34.8125 36.53125 
Q 39.546875 41.84375 41.421875 45.53125 
Q 43.3125 49.21875 43.3125 52.78125 
Q 43.3125 58.59375 39.234375 62.25 
Q 35.15625 65.921875 28.609375 65.921875 
Q 23.96875 65.921875 18.8125 64.3125 
Q 13.671875 62.703125 7.8125 59.421875 
L 7.8125 69.390625 
Q 13.765625 71.78125 18.9375 73 
Q 24.125 74.21875 28.421875 74.21875 
Q 39.75 74.21875 46.484375 68.546875 
Q 53.21875 62.890625 53.21875 53.421875 
Q 53.21875 48.921875 51.53125 44.890625 
Q 49.859375 40.875 45.40625 35.40625 
Q 44.1875 33.984375 37.640625 27.21875 
Q 31.109375 20.453125 19.1875 8.296875 
z
" id="DejaVuSans-50"/>
      </defs>
      <g transform="translate(172.682168 331.910477)rotate(-40)scale(0.1 -0.1)">
       <use xlink:href="#DejaVuSans-50"/>
      </g>
     </g>
    </g>
    <g id="xtick_3">
     <g id="line2d_5">
      <path clip-path="url(#p7805fa276a)" d="M 197.018182 315 
L 197.018182 43.2 
" style="fill:none;stroke:#b0b0b0;stroke-linecap:square;stroke-width:0.8;"/>
     </g>
     <g id="line2d_6">
      <g>
       <use style="stroke:#000000;stroke-width:0.8;" x="197.018182" xlink:href="#m316835f84b" y="315"/>
      </g>
     </g>
     <g id="text_3">
      <!-- 3 -->
      <defs>
       <path d="M 40.578125 39.3125 
Q 47.65625 37.796875 51.625 33 
Q 55.609375 28.21875 55.609375 21.1875 
Q 55.609375 10.40625 48.1875 4.484375 
Q 40.765625 -1.421875 27.09375 -1.421875 
Q 22.515625 -1.421875 17.65625 -0.515625 
Q 12.796875 0.390625 7.625 2.203125 
L 7.625 11.71875 
Q 11.71875 9.328125 16.59375 8.109375 
Q 21.484375 6.890625 26.8125 6.890625 
Q 36.078125 6.890625 40.9375 10.546875 
Q 45.796875 14.203125 45.796875 21.1875 
Q 45.796875 27.640625 41.28125 31.265625 
Q 36.765625 34.90625 28.71875 34.90625 
L 20.21875 34.90625 
L 20.21875 43.015625 
L 29.109375 43.015625 
Q 36.375 43.015625 40.234375 45.921875 
Q 44.09375 48.828125 44.09375 54.296875 
Q 44.09375 59.90625 40.109375 62.90625 
Q 36.140625 65.921875 28.71875 65.921875 
Q 24.65625 65.921875 20.015625 65.03125 
Q 15.375 64.15625 9.8125 62.3125 
L 9.8125 71.09375 
Q 15.4375 72.65625 20.34375 73.4375 
Q 25.25 74.21875 29.59375 74.21875 
Q 40.828125 74.21875 47.359375 69.109375 
Q 53.90625 64.015625 53.90625 55.328125 
Q 53.90625 49.265625 50.4375 45.09375 
Q 46.96875 40.921875 40.578125 39.3125 
z
" id="DejaVuSans-51"/>
      </defs>
      <g transform="translate(196.354895 331.910477)rotate(-40)scale(0.1 -0.1)">
       <use xlink:href="#DejaVuSans-51"/>
      </g>
     </g>
    </g>
    <g id="xtick_4">
     <g id="line2d_7">
      <path clip-path="url(#p7805fa276a)" d="M 220.690909 315 
L 220.690909 43.2 
" style="fill:none;stroke:#b0b0b0;stroke-linecap:square;stroke-width:0.8;"/>
     </g>
     <g id="line2d_8">
      <g>
       <use style="stroke:#000000;stroke-width:0.8;" x="220.690909" xlink:href="#m316835f84b" y="315"/>
      </g>
     </g>
     <g id="text_4">
      <!-- 4 -->
      <defs>
       <path d="M 37.796875 64.3125 
L 12.890625 25.390625 
L 37.796875 25.390625 
z
M 35.203125 72.90625 
L 47.609375 72.90625 
L 47.609375 25.390625 
L 58.015625 25.390625 
L 58.015625 17.1875 
L 47.609375 17.1875 
L 47.609375 0 
L 37.796875 0 
L 37.796875 17.1875 
L 4.890625 17.1875 
L 4.890625 26.703125 
z
" id="DejaVuSans-52"/>
      </defs>
      <g transform="translate(220.027622 331.910477)rotate(-40)scale(0.1 -0.1)">
       <use xlink:href="#DejaVuSans-52"/>
      </g>
     </g>
    </g>
    <g id="xtick_5">
     <g id="line2d_9">
      <path clip-path="url(#p7805fa276a)" d="M 244.363636 315 
L 244.363636 43.2 
" style="fill:none;stroke:#b0b0b0;stroke-linecap:square;stroke-width:0.8;"/>
     </g>
     <g id="line2d_10">
      <g>
       <use style="stroke:#000000;stroke-width:0.8;" x="244.363636" xlink:href="#m316835f84b" y="315"/>
      </g>
     </g>
     <g id="text_5">
      <!-- 5 -->
      <defs>
       <path d="M 10.796875 72.90625 
L 49.515625 72.90625 
L 49.515625 64.59375 
L 19.828125 64.59375 
L 19.828125 46.734375 
Q 21.96875 47.46875 24.109375 47.828125 
Q 26.265625 48.1875 28.421875 48.1875 
Q 40.625 48.1875 47.75 41.5 
Q 54.890625 34.8125 54.890625 23.390625 
Q 54.890625 11.625 47.5625 5.09375 
Q 40.234375 -1.421875 26.90625 -1.421875 
Q 22.3125 -1.421875 17.546875 -0.640625 
Q 12.796875 0.140625 7.71875 1.703125 
L 7.71875 11.625 
Q 12.109375 9.234375 16.796875 8.0625 
Q 21.484375 6.890625 26.703125 6.890625 
Q 35.15625 6.890625 40.078125 11.328125 
Q 45.015625 15.765625 45.015625 23.390625 
Q 45.015625 31 40.078125 35.4375 
Q 35.15625 39.890625 26.703125 39.890625 
Q 22.75 39.890625 18.8125 39.015625 
Q 14.890625 38.140625 10.796875 36.28125 
z
" id="DejaVuSans-53"/>
      </defs>
      <g transform="translate(243.70035 331.910477)rotate(-40)scale(0.1 -0.1)">
       <use xlink:href="#DejaVuSans-53"/>
      </g>
     </g>
    </g>
    <g id="xtick_6">
     <g id="line2d_11">
      <path clip-path="url(#p7805fa276a)" d="M 268.036364 315 
L 268.036364 43.2 
" style="fill:none;stroke:#b0b0b0;stroke-linecap:square;stroke-width:0.8;"/>
     </g>
     <g id="line2d_12">
      <g>
       <use style="stroke:#000000;stroke-width:0.8;" x="268.036364" xlink:href="#m316835f84b" y="315"/>
      </g>
     </g>
     <g id="text_6">
      <!-- 6 -->
      <defs>
       <path d="M 33.015625 40.375 
Q 26.375 40.375 22.484375 35.828125 
Q 18.609375 31.296875 18.609375 23.390625 
Q 18.609375 15.53125 22.484375 10.953125 
Q 26.375 6.390625 33.015625 6.390625 
Q 39.65625 6.390625 43.53125 10.953125 
Q 47.40625 15.53125 47.40625 23.390625 
Q 47.40625 31.296875 43.53125 35.828125 
Q 39.65625 40.375 33.015625 40.375 
z
M 52.59375 71.296875 
L 52.59375 62.3125 
Q 48.875 64.0625 45.09375 64.984375 
Q 41.3125 65.921875 37.59375 65.921875 
Q 27.828125 65.921875 22.671875 59.328125 
Q 17.53125 52.734375 16.796875 39.40625 
Q 19.671875 43.65625 24.015625 45.921875 
Q 28.375 48.1875 33.59375 48.1875 
Q 44.578125 48.1875 50.953125 41.515625 
Q 57.328125 34.859375 57.328125 23.390625 
Q 57.328125 12.15625 50.6875 5.359375 
Q 44.046875 -1.421875 33.015625 -1.421875 
Q 20.359375 -1.421875 13.671875 8.265625 
Q 6.984375 17.96875 6.984375 36.375 
Q 6.984375 53.65625 15.1875 63.9375 
Q 23.390625 74.21875 37.203125 74.21875 
Q 40.921875 74.21875 44.703125 73.484375 
Q 48.484375 72.75 52.59375 71.296875 
z
" id="DejaVuSans-54"/>
      </defs>
      <g transform="translate(267.373077 331.910477)rotate(-40)scale(0.1 -0.1)">
       <use xlink:href="#DejaVuSans-54"/>
      </g>
     </g>
    </g>
    <g id="xtick_7">
     <g id="line2d_13">
      <path clip-path="url(#p7805fa276a)" d="M 291.709091 315 
L 291.709091 43.2 
" style="fill:none;stroke:#b0b0b0;stroke-linecap:square;stroke-width:0.8;"/>
     </g>
     <g id="line2d_14">
      <g>
       <use style="stroke:#000000;stroke-width:0.8;" x="291.709091" xlink:href="#m316835f84b" y="315"/>
      </g>
     </g>
     <g id="text_7">
      <!-- 7 -->
      <defs>
       <path d="M 8.203125 72.90625 
L 55.078125 72.90625 
L 55.078125 68.703125 
L 28.609375 0 
L 18.3125 0 
L 43.21875 64.59375 
L 8.203125 64.59375 
z
" id="DejaVuSans-55"/>
      </defs>
      <g transform="translate(291.045804 331.910477)rotate(-40)scale(0.1 -0.1)">
       <use xlink:href="#DejaVuSans-55"/>
      </g>
     </g>
    </g>
    <g id="xtick_8">
     <g id="line2d_15">
      <path clip-path="url(#p7805fa276a)" d="M 315.381818 315 
L 315.381818 43.2 
" style="fill:none;stroke:#b0b0b0;stroke-linecap:square;stroke-width:0.8;"/>
     </g>
     <g id="line2d_16">
      <g>
       <use style="stroke:#000000;stroke-width:0.8;" x="315.381818" xlink:href="#m316835f84b" y="315"/>
      </g>
     </g>
     <g id="text_8">
      <!-- 8 -->
      <defs>
       <path d="M 31.78125 34.625 
Q 24.75 34.625 20.71875 30.859375 
Q 16.703125 27.09375 16.703125 20.515625 
Q 16.703125 13.921875 20.71875 10.15625 
Q 24.75 6.390625 31.78125 6.390625 
Q 38.8125 6.390625 42.859375 10.171875 
Q 46.921875 13.96875 46.921875 20.515625 
Q 46.921875 27.09375 42.890625 30.859375 
Q 38.875 34.625 31.78125 34.625 
z
M 21.921875 38.8125 
Q 15.578125 40.375 12.03125 44.71875 
Q 8.5 49.078125 8.5 55.328125 
Q 8.5 64.0625 14.71875 69.140625 
Q 20.953125 74.21875 31.78125 74.21875 
Q 42.671875 74.21875 48.875 69.140625 
Q 55.078125 64.0625 55.078125 55.328125 
Q 55.078125 49.078125 51.53125 44.71875 
Q 48 40.375 41.703125 38.8125 
Q 48.828125 37.15625 52.796875 32.3125 
Q 56.78125 27.484375 56.78125 20.515625 
Q 56.78125 9.90625 50.3125 4.234375 
Q 43.84375 -1.421875 31.78125 -1.421875 
Q 19.734375 -1.421875 13.25 4.234375 
Q 6.78125 9.90625 6.78125 20.515625 
Q 6.78125 27.484375 10.78125 32.3125 
Q 14.796875 37.15625 21.921875 38.8125 
z
M 18.3125 54.390625 
Q 18.3125 48.734375 21.84375 45.5625 
Q 25.390625 42.390625 31.78125 42.390625 
Q 38.140625 42.390625 41.71875 45.5625 
Q 45.3125 48.734375 45.3125 54.390625 
Q 45.3125 60.0625 41.71875 63.234375 
Q 38.140625 66.40625 31.78125 66.40625 
Q 25.390625 66.40625 21.84375 63.234375 
Q 18.3125 60.0625 18.3125 54.390625 
z
" id="DejaVuSans-56"/>
      </defs>
      <g transform="translate(314.718531 331.910477)rotate(-40)scale(0.1 -0.1)">
       <use xlink:href="#DejaVuSans-56"/>
      </g>
     </g>
    </g>
    <g id="xtick_9">
     <g id="line2d_17">
      <path clip-path="url(#p7805fa276a)" d="M 339.054545 315 
L 339.054545 43.2 
" style="fill:none;stroke:#b0b0b0;stroke-linecap:square;stroke-width:0.8;"/>
     </g>
     <g id="line2d_18">
      <g>
       <use style="stroke:#000000;stroke-width:0.8;" x="339.054545" xlink:href="#m316835f84b" y="315"/>
      </g>
     </g>
     <g id="text_9">
      <!-- 9 -->
      <defs>
       <path d="M 10.984375 1.515625 
L 10.984375 10.5 
Q 14.703125 8.734375 18.5 7.8125 
Q 22.3125 6.890625 25.984375 6.890625 
Q 35.75 6.890625 40.890625 13.453125 
Q 46.046875 20.015625 46.78125 33.40625 
Q 43.953125 29.203125 39.59375 26.953125 
Q 35.25 24.703125 29.984375 24.703125 
Q 19.046875 24.703125 12.671875 31.3125 
Q 6.296875 37.9375 6.296875 49.421875 
Q 6.296875 60.640625 12.9375 67.421875 
Q 19.578125 74.21875 30.609375 74.21875 
Q 43.265625 74.21875 49.921875 64.515625 
Q 56.59375 54.828125 56.59375 36.375 
Q 56.59375 19.140625 48.40625 8.859375 
Q 40.234375 -1.421875 26.421875 -1.421875 
Q 22.703125 -1.421875 18.890625 -0.6875 
Q 15.09375 0.046875 10.984375 1.515625 
z
M 30.609375 32.421875 
Q 37.25 32.421875 41.125 36.953125 
Q 45.015625 41.5 45.015625 49.421875 
Q 45.015625 57.28125 41.125 61.84375 
Q 37.25 66.40625 30.609375 66.40625 
Q 23.96875 66.40625 20.09375 61.84375 
Q 16.21875 57.28125 16.21875 49.421875 
Q 16.21875 41.5 20.09375 36.953125 
Q 23.96875 32.421875 30.609375 32.421875 
z
" id="DejaVuSans-57"/>
      </defs>
      <g transform="translate(338.391259 331.910477)rotate(-40)scale(0.1 -0.1)">
       <use xlink:href="#DejaVuSans-57"/>
      </g>
     </g>
    </g>
    <g id="xtick_10">
     <g id="line2d_19">
      <path clip-path="url(#p7805fa276a)" d="M 362.727273 315 
L 362.727273 43.2 
" style="fill:none;stroke:#b0b0b0;stroke-linecap:square;stroke-width:0.8;"/>
     </g>
     <g id="line2d_20">
      <g>
       <use style="stroke:#000000;stroke-width:0.8;" x="362.727273" xlink:href="#m316835f84b" y="315"/>
      </g>
     </g>
     <g id="text_10">
      <!-- 10 -->
      <defs>
       <path d="M 31.78125 66.40625 
Q 24.171875 66.40625 20.328125 58.90625 
Q 16.5 51.421875 16.5 36.375 
Q 16.5 21.390625 20.328125 13.890625 
Q 24.171875 6.390625 31.78125 6.390625 
Q 39.453125 6.390625 43.28125 13.890625 
Q 47.125 21.390625 47.125 36.375 
Q 47.125 51.421875 43.28125 58.90625 
Q 39.453125 66.40625 31.78125 66.40625 
z
M 31.78125 74.21875 
Q 44.046875 74.21875 50.515625 64.515625 
Q 56.984375 54.828125 56.984375 36.375 
Q 56.984375 17.96875 50.515625 8.265625 
Q 44.046875 -1.421875 31.78125 -1.421875 
Q 19.53125 -1.421875 13.0625 8.265625 
Q 6.59375 17.96875 6.59375 36.375 
Q 6.59375 54.828125 13.0625 64.515625 
Q 19.53125 74.21875 31.78125 74.21875 
z
" id="DejaVuSans-48"/>
      </defs>
      <g transform="translate(359.627007 336.000213)rotate(-40)scale(0.1 -0.1)">
       <use xlink:href="#DejaVuSans-49"/>
       <use x="63.623047" xlink:href="#DejaVuSans-48"/>
      </g>
     </g>
    </g>
    <g id="xtick_11">
     <g id="line2d_21">
      <path clip-path="url(#p7805fa276a)" d="M 386.4 315 
L 386.4 43.2 
" style="fill:none;stroke:#b0b0b0;stroke-linecap:square;stroke-width:0.8;"/>
     </g>
     <g id="line2d_22">
      <g>
       <use style="stroke:#000000;stroke-width:0.8;" x="386.4" xlink:href="#m316835f84b" y="315"/>
      </g>
     </g>
     <g id="text_11">
      <!-- 11 -->
      <g transform="translate(383.299734 336.000213)rotate(-40)scale(0.1 -0.1)">
       <use xlink:href="#DejaVuSans-49"/>
       <use x="63.623047" xlink:href="#DejaVuSans-49"/>
      </g>
     </g>
    </g>
    <g id="text_12">
     <!-- Depth -->
     <defs>
      <path d="M 19.671875 64.796875 
L 19.671875 8.109375 
L 31.59375 8.109375 
Q 46.6875 8.109375 53.6875 14.9375 
Q 60.6875 21.78125 60.6875 36.53125 
Q 60.6875 51.171875 53.6875 57.984375 
Q 46.6875 64.796875 31.59375 64.796875 
z
M 9.8125 72.90625 
L 30.078125 72.90625 
Q 51.265625 72.90625 61.171875 64.09375 
Q 71.09375 55.28125 71.09375 36.53125 
Q 71.09375 17.671875 61.125 8.828125 
Q 51.171875 0 30.078125 0 
L 9.8125 0 
z
" id="DejaVuSans-68"/>
      <path d="M 56.203125 29.59375 
L 56.203125 25.203125 
L 14.890625 25.203125 
Q 15.484375 15.921875 20.484375 11.0625 
Q 25.484375 6.203125 34.421875 6.203125 
Q 39.59375 6.203125 44.453125 7.46875 
Q 49.3125 8.734375 54.109375 11.28125 
L 54.109375 2.78125 
Q 49.265625 0.734375 44.1875 -0.34375 
Q 39.109375 -1.421875 33.890625 -1.421875 
Q 20.796875 -1.421875 13.15625 6.1875 
Q 5.515625 13.8125 5.515625 26.8125 
Q 5.515625 40.234375 12.765625 48.109375 
Q 20.015625 56 32.328125 56 
Q 43.359375 56 49.78125 48.890625 
Q 56.203125 41.796875 56.203125 29.59375 
z
M 47.21875 32.234375 
Q 47.125 39.59375 43.09375 43.984375 
Q 39.0625 48.390625 32.421875 48.390625 
Q 24.90625 48.390625 20.390625 44.140625 
Q 15.875 39.890625 15.1875 32.171875 
z
" id="DejaVuSans-101"/>
      <path d="M 18.109375 8.203125 
L 18.109375 -20.796875 
L 9.078125 -20.796875 
L 9.078125 54.6875 
L 18.109375 54.6875 
L 18.109375 46.390625 
Q 20.953125 51.265625 25.265625 53.625 
Q 29.59375 56 35.59375 56 
Q 45.5625 56 51.78125 48.09375 
Q 58.015625 40.1875 58.015625 27.296875 
Q 58.015625 14.40625 51.78125 6.484375 
Q 45.5625 -1.421875 35.59375 -1.421875 
Q 29.59375 -1.421875 25.265625 0.953125 
Q 20.953125 3.328125 18.109375 8.203125 
z
M 48.6875 27.296875 
Q 48.6875 37.203125 44.609375 42.84375 
Q 40.53125 48.484375 33.40625 48.484375 
Q 26.265625 48.484375 22.1875 42.84375 
Q 18.109375 37.203125 18.109375 27.296875 
Q 18.109375 17.390625 22.1875 11.75 
Q 26.265625 6.109375 33.40625 6.109375 
Q 40.53125 6.109375 44.609375 11.75 
Q 48.6875 17.390625 48.6875 27.296875 
z
" id="DejaVuSans-112"/>
      <path d="M 18.3125 70.21875 
L 18.3125 54.6875 
L 36.8125 54.6875 
L 36.8125 47.703125 
L 18.3125 47.703125 
L 18.3125 18.015625 
Q 18.3125 11.328125 20.140625 9.421875 
Q 21.96875 7.515625 27.59375 7.515625 
L 36.8125 7.515625 
L 36.8125 0 
L 27.59375 0 
Q 17.1875 0 13.234375 3.875 
Q 9.28125 7.765625 9.28125 18.015625 
L 9.28125 47.703125 
L 2.6875 47.703125 
L 2.6875 54.6875 
L 9.28125 54.6875 
L 9.28125 70.21875 
z
" id="DejaVuSans-116"/>
      <path d="M 54.890625 33.015625 
L 54.890625 0 
L 45.90625 0 
L 45.90625 32.71875 
Q 45.90625 40.484375 42.875 44.328125 
Q 39.84375 48.1875 33.796875 48.1875 
Q 26.515625 48.1875 22.3125 43.546875 
Q 18.109375 38.921875 18.109375 30.90625 
L 18.109375 0 
L 9.078125 0 
L 9.078125 75.984375 
L 18.109375 75.984375 
L 18.109375 46.1875 
Q 21.34375 51.125 25.703125 53.5625 
Q 30.078125 56 35.796875 56 
Q 45.21875 56 50.046875 50.171875 
Q 54.890625 44.34375 54.890625 33.015625 
z
" id="DejaVuSans-104"/>
     </defs>
     <g transform="translate(252.806676 349.191784)scale(0.1 -0.1)">
      <use xlink:href="#DejaVuSans-68"/>
      <use x="77.001953" xlink:href="#DejaVuSans-101"/>
      <use x="138.525391" xlink:href="#DejaVuSans-112"/>
      <use x="202.001953" xlink:href="#DejaVuSans-116"/>
      <use x="241.210938" xlink:href="#DejaVuSans-104"/>
     </g>
    </g>
   </g>
   <g id="matplotlib.axis_2">
    <g id="ytick_1">
     <g id="line2d_23">
      <path clip-path="url(#p7805fa276a)" d="M 126 303.529262 
L 410.072727 303.529262 
" style="fill:none;stroke:#b0b0b0;stroke-linecap:square;stroke-width:0.8;"/>
     </g>
     <g id="line2d_24">
      <defs>
       <path d="M 0 0 
L -3.5 0 
" id="md4a7b52408" style="stroke:#000000;stroke-width:0.8;"/>
      </defs>
      <g>
       <use style="stroke:#000000;stroke-width:0.8;" x="126" xlink:href="#md4a7b52408" y="303.529262"/>
      </g>
     </g>
     <g id="text_13">
      <!-- 0 -->
      <g transform="translate(112.6375 307.328481)scale(0.1 -0.1)">
       <use xlink:href="#DejaVuSans-48"/>
      </g>
     </g>
    </g>
    <g id="ytick_2">
     <g id="line2d_25">
      <path clip-path="url(#p7805fa276a)" d="M 126 272.605998 
L 410.072727 272.605998 
" style="fill:none;stroke:#b0b0b0;stroke-linecap:square;stroke-width:0.8;"/>
     </g>
     <g id="line2d_26">
      <g>
       <use style="stroke:#000000;stroke-width:0.8;" x="126" xlink:href="#md4a7b52408" y="272.605998"/>
      </g>
     </g>
     <g id="text_14">
      <!-- 50 -->
      <g transform="translate(106.275 276.405217)scale(0.1 -0.1)">
       <use xlink:href="#DejaVuSans-53"/>
       <use x="63.623047" xlink:href="#DejaVuSans-48"/>
      </g>
     </g>
    </g>
    <g id="ytick_3">
     <g id="line2d_27">
      <path clip-path="url(#p7805fa276a)" d="M 126 241.682735 
L 410.072727 241.682735 
" style="fill:none;stroke:#b0b0b0;stroke-linecap:square;stroke-width:0.8;"/>
     </g>
     <g id="line2d_28">
      <g>
       <use style="stroke:#000000;stroke-width:0.8;" x="126" xlink:href="#md4a7b52408" y="241.682735"/>
      </g>
     </g>
     <g id="text_15">
      <!-- 100 -->
      <g transform="translate(99.9125 245.481953)scale(0.1 -0.1)">
       <use xlink:href="#DejaVuSans-49"/>
       <use x="63.623047" xlink:href="#DejaVuSans-48"/>
       <use x="127.246094" xlink:href="#DejaVuSans-48"/>
      </g>
     </g>
    </g>
    <g id="ytick_4">
     <g id="line2d_29">
      <path clip-path="url(#p7805fa276a)" d="M 126 210.759471 
L 410.072727 210.759471 
" style="fill:none;stroke:#b0b0b0;stroke-linecap:square;stroke-width:0.8;"/>
     </g>
     <g id="line2d_30">
      <g>
       <use style="stroke:#000000;stroke-width:0.8;" x="126" xlink:href="#md4a7b52408" y="210.759471"/>
      </g>
     </g>
     <g id="text_16">
      <!-- 150 -->
      <g transform="translate(99.9125 214.55869)scale(0.1 -0.1)">
       <use xlink:href="#DejaVuSans-49"/>
       <use x="63.623047" xlink:href="#DejaVuSans-53"/>
       <use x="127.246094" xlink:href="#DejaVuSans-48"/>
      </g>
     </g>
    </g>
    <g id="ytick_5">
     <g id="line2d_31">
      <path clip-path="url(#p7805fa276a)" d="M 126 179.836207 
L 410.072727 179.836207 
" style="fill:none;stroke:#b0b0b0;stroke-linecap:square;stroke-width:0.8;"/>
     </g>
     <g id="line2d_32">
      <g>
       <use style="stroke:#000000;stroke-width:0.8;" x="126" xlink:href="#md4a7b52408" y="179.836207"/>
      </g>
     </g>
     <g id="text_17">
      <!-- 200 -->
      <g transform="translate(99.9125 183.635426)scale(0.1 -0.1)">
       <use xlink:href="#DejaVuSans-50"/>
       <use x="63.623047" xlink:href="#DejaVuSans-48"/>
       <use x="127.246094" xlink:href="#DejaVuSans-48"/>
      </g>
     </g>
    </g>
    <g id="ytick_6">
     <g id="line2d_33">
      <path clip-path="url(#p7805fa276a)" d="M 126 148.912944 
L 410.072727 148.912944 
" style="fill:none;stroke:#b0b0b0;stroke-linecap:square;stroke-width:0.8;"/>
     </g>
     <g id="line2d_34">
      <g>
       <use style="stroke:#000000;stroke-width:0.8;" x="126" xlink:href="#md4a7b52408" y="148.912944"/>
      </g>
     </g>
     <g id="text_18">
      <!-- 250 -->
      <g transform="translate(99.9125 152.712162)scale(0.1 -0.1)">
       <use xlink:href="#DejaVuSans-50"/>
       <use x="63.623047" xlink:href="#DejaVuSans-53"/>
       <use x="127.246094" xlink:href="#DejaVuSans-48"/>
      </g>
     </g>
    </g>
    <g id="ytick_7">
     <g id="line2d_35">
      <path clip-path="url(#p7805fa276a)" d="M 126 117.98968 
L 410.072727 117.98968 
" style="fill:none;stroke:#b0b0b0;stroke-linecap:square;stroke-width:0.8;"/>
     </g>
     <g id="line2d_36">
      <g>
       <use style="stroke:#000000;stroke-width:0.8;" x="126" xlink:href="#md4a7b52408" y="117.98968"/>
      </g>
     </g>
     <g id="text_19">
      <!-- 300 -->
      <g transform="translate(99.9125 121.788899)scale(0.1 -0.1)">
       <use xlink:href="#DejaVuSans-51"/>
       <use x="63.623047" xlink:href="#DejaVuSans-48"/>
       <use x="127.246094" xlink:href="#DejaVuSans-48"/>
      </g>
     </g>
    </g>
    <g id="ytick_8">
     <g id="line2d_37">
      <path clip-path="url(#p7805fa276a)" d="M 126 87.066416 
L 410.072727 87.066416 
" style="fill:none;stroke:#b0b0b0;stroke-linecap:square;stroke-width:0.8;"/>
     </g>
     <g id="line2d_38">
      <g>
       <use style="stroke:#000000;stroke-width:0.8;" x="126" xlink:href="#md4a7b52408" y="87.066416"/>
      </g>
     </g>
     <g id="text_20">
      <!-- 350 -->
      <g transform="translate(99.9125 90.865635)scale(0.1 -0.1)">
       <use xlink:href="#DejaVuSans-51"/>
       <use x="63.623047" xlink:href="#DejaVuSans-53"/>
       <use x="127.246094" xlink:href="#DejaVuSans-48"/>
      </g>
     </g>
    </g>
    <g id="ytick_9">
     <g id="line2d_39">
      <path clip-path="url(#p7805fa276a)" d="M 126 56.143152 
L 410.072727 56.143152 
" style="fill:none;stroke:#b0b0b0;stroke-linecap:square;stroke-width:0.8;"/>
     </g>
     <g id="line2d_40">
      <g>
       <use style="stroke:#000000;stroke-width:0.8;" x="126" xlink:href="#md4a7b52408" y="56.143152"/>
      </g>
     </g>
     <g id="text_21">
      <!-- 400 -->
      <g transform="translate(99.9125 59.942371)scale(0.1 -0.1)">
       <use xlink:href="#DejaVuSans-52"/>
       <use x="63.623047" xlink:href="#DejaVuSans-48"/>
       <use x="127.246094" xlink:href="#DejaVuSans-48"/>
      </g>
     </g>
    </g>
    <g id="text_22">
     <!-- Time taken -->
     <defs>
      <path d="M -0.296875 72.90625 
L 61.375 72.90625 
L 61.375 64.59375 
L 35.5 64.59375 
L 35.5 0 
L 25.59375 0 
L 25.59375 64.59375 
L -0.296875 64.59375 
z
" id="DejaVuSans-84"/>
      <path d="M 9.421875 54.6875 
L 18.40625 54.6875 
L 18.40625 0 
L 9.421875 0 
z
M 9.421875 75.984375 
L 18.40625 75.984375 
L 18.40625 64.59375 
L 9.421875 64.59375 
z
" id="DejaVuSans-105"/>
      <path d="M 52 44.1875 
Q 55.375 50.25 60.0625 53.125 
Q 64.75 56 71.09375 56 
Q 79.640625 56 84.28125 50.015625 
Q 88.921875 44.046875 88.921875 33.015625 
L 88.921875 0 
L 79.890625 0 
L 79.890625 32.71875 
Q 79.890625 40.578125 77.09375 44.375 
Q 74.3125 48.1875 68.609375 48.1875 
Q 61.625 48.1875 57.5625 43.546875 
Q 53.515625 38.921875 53.515625 30.90625 
L 53.515625 0 
L 44.484375 0 
L 44.484375 32.71875 
Q 44.484375 40.625 41.703125 44.40625 
Q 38.921875 48.1875 33.109375 48.1875 
Q 26.21875 48.1875 22.15625 43.53125 
Q 18.109375 38.875 18.109375 30.90625 
L 18.109375 0 
L 9.078125 0 
L 9.078125 54.6875 
L 18.109375 54.6875 
L 18.109375 46.1875 
Q 21.1875 51.21875 25.484375 53.609375 
Q 29.78125 56 35.6875 56 
Q 41.65625 56 45.828125 52.96875 
Q 50 49.953125 52 44.1875 
z
" id="DejaVuSans-109"/>
      <path id="DejaVuSans-32"/>
      <path d="M 34.28125 27.484375 
Q 23.390625 27.484375 19.1875 25 
Q 14.984375 22.515625 14.984375 16.5 
Q 14.984375 11.71875 18.140625 8.90625 
Q 21.296875 6.109375 26.703125 6.109375 
Q 34.1875 6.109375 38.703125 11.40625 
Q 43.21875 16.703125 43.21875 25.484375 
L 43.21875 27.484375 
z
M 52.203125 31.203125 
L 52.203125 0 
L 43.21875 0 
L 43.21875 8.296875 
Q 40.140625 3.328125 35.546875 0.953125 
Q 30.953125 -1.421875 24.3125 -1.421875 
Q 15.921875 -1.421875 10.953125 3.296875 
Q 6 8.015625 6 15.921875 
Q 6 25.140625 12.171875 29.828125 
Q 18.359375 34.515625 30.609375 34.515625 
L 43.21875 34.515625 
L 43.21875 35.40625 
Q 43.21875 41.609375 39.140625 45 
Q 35.0625 48.390625 27.6875 48.390625 
Q 23 48.390625 18.546875 47.265625 
Q 14.109375 46.140625 10.015625 43.890625 
L 10.015625 52.203125 
Q 14.9375 54.109375 19.578125 55.046875 
Q 24.21875 56 28.609375 56 
Q 40.484375 56 46.34375 49.84375 
Q 52.203125 43.703125 52.203125 31.203125 
z
" id="DejaVuSans-97"/>
      <path d="M 9.078125 75.984375 
L 18.109375 75.984375 
L 18.109375 31.109375 
L 44.921875 54.6875 
L 56.390625 54.6875 
L 27.390625 29.109375 
L 57.625 0 
L 45.90625 0 
L 18.109375 26.703125 
L 18.109375 0 
L 9.078125 0 
z
" id="DejaVuSans-107"/>
      <path d="M 54.890625 33.015625 
L 54.890625 0 
L 45.90625 0 
L 45.90625 32.71875 
Q 45.90625 40.484375 42.875 44.328125 
Q 39.84375 48.1875 33.796875 48.1875 
Q 26.515625 48.1875 22.3125 43.546875 
Q 18.109375 38.921875 18.109375 30.90625 
L 18.109375 0 
L 9.078125 0 
L 9.078125 54.6875 
L 18.109375 54.6875 
L 18.109375 46.1875 
Q 21.34375 51.125 25.703125 53.5625 
Q 30.078125 56 35.796875 56 
Q 45.21875 56 50.046875 50.171875 
Q 54.890625 44.34375 54.890625 33.015625 
z
" id="DejaVuSans-110"/>
     </defs>
     <g transform="translate(93.832812 206.90625)rotate(-90)scale(0.1 -0.1)">
      <use xlink:href="#DejaVuSans-84"/>
      <use x="57.958984" xlink:href="#DejaVuSans-105"/>
      <use x="85.742188" xlink:href="#DejaVuSans-109"/>
      <use x="183.154297" xlink:href="#DejaVuSans-101"/>
      <use x="244.677734" xlink:href="#DejaVuSans-32"/>
      <use x="276.464844" xlink:href="#DejaVuSans-116"/>
      <use x="315.673828" xlink:href="#DejaVuSans-97"/>
      <use x="376.953125" xlink:href="#DejaVuSans-107"/>
      <use x="431.238281" xlink:href="#DejaVuSans-101"/>
      <use x="492.761719" xlink:href="#DejaVuSans-110"/>
     </g>
    </g>
   </g>
   <g id="line2d_41">
    <path clip-path="url(#p7805fa276a)" d="M 143.754545 302.327302 
L 155.590909 302.327302 
L 155.590909 302.259605 
L 143.754545 302.259605 
L 143.754545 302.327302 
" style="fill:none;stroke:#000000;stroke-linecap:square;"/>
   </g>
   <g id="line2d_42">
    <path clip-path="url(#p7805fa276a)" d="M 149.672727 302.327302 
L 149.672727 302.393027 
" style="fill:none;stroke:#000000;stroke-linecap:square;"/>
   </g>
   <g id="line2d_43">
    <path clip-path="url(#p7805fa276a)" d="M 149.672727 302.259605 
L 149.672727 302.204107 
" style="fill:none;stroke:#000000;stroke-linecap:square;"/>
   </g>
   <g id="line2d_44">
    <path clip-path="url(#p7805fa276a)" d="M 146.713636 302.393027 
L 152.631818 302.393027 
" style="fill:none;stroke:#000000;stroke-linecap:square;"/>
   </g>
   <g id="line2d_45">
    <path clip-path="url(#p7805fa276a)" d="M 146.713636 302.204107 
L 152.631818 302.204107 
" style="fill:none;stroke:#000000;stroke-linecap:square;"/>
   </g>
   <g id="line2d_46">
    <defs>
     <path d="M 0 3 
C 0.795609 3 1.55874 2.683901 2.12132 2.12132 
C 2.683901 1.55874 3 0.795609 3 0 
C 3 -0.795609 2.683901 -1.55874 2.12132 -2.12132 
C 1.55874 -2.683901 0.795609 -3 0 -3 
C -0.795609 -3 -1.55874 -2.683901 -2.12132 -2.12132 
C -2.683901 -1.55874 -3 -0.795609 -3 0 
C -3 0.795609 -2.683901 1.55874 -2.12132 2.12132 
C -1.55874 2.683901 -0.795609 3 0 3 
z
" id="mf22da3c4cd" style="stroke:#000000;"/>
    </defs>
    <g clip-path="url(#p7805fa276a)">
     <use style="fill-opacity:0;stroke:#000000;" x="149.672727" xlink:href="#mf22da3c4cd" y="302.645455"/>
    </g>
   </g>
   <g id="line2d_47">
    <path clip-path="url(#p7805fa276a)" d="M 167.427273 302.333551 
L 179.263636 302.333551 
L 179.263636 302.233185 
L 167.427273 302.233185 
L 167.427273 302.333551 
" style="fill:none;stroke:#000000;stroke-linecap:square;"/>
   </g>
   <g id="line2d_48">
    <path clip-path="url(#p7805fa276a)" d="M 173.345455 302.333551 
L 173.345455 302.420713 
" style="fill:none;stroke:#000000;stroke-linecap:square;"/>
   </g>
   <g id="line2d_49">
    <path clip-path="url(#p7805fa276a)" d="M 173.345455 302.233185 
L 173.345455 302.132177 
" style="fill:none;stroke:#000000;stroke-linecap:square;"/>
   </g>
   <g id="line2d_50">
    <path clip-path="url(#p7805fa276a)" d="M 170.386364 302.420713 
L 176.304545 302.420713 
" style="fill:none;stroke:#000000;stroke-linecap:square;"/>
   </g>
   <g id="line2d_51">
    <path clip-path="url(#p7805fa276a)" d="M 170.386364 302.132177 
L 176.304545 302.132177 
" style="fill:none;stroke:#000000;stroke-linecap:square;"/>
   </g>
   <g id="line2d_52"/>
   <g id="line2d_53">
    <path clip-path="url(#p7805fa276a)" d="M 191.1 302.21705 
L 202.936364 302.21705 
L 202.936364 302.121787 
L 191.1 302.121787 
L 191.1 302.21705 
" style="fill:none;stroke:#000000;stroke-linecap:square;"/>
   </g>
   <g id="line2d_54">
    <path clip-path="url(#p7805fa276a)" d="M 197.018182 302.21705 
L 197.018182 302.338387 
" style="fill:none;stroke:#000000;stroke-linecap:square;"/>
   </g>
   <g id="line2d_55">
    <path clip-path="url(#p7805fa276a)" d="M 197.018182 302.121787 
L 197.018182 302.071823 
" style="fill:none;stroke:#000000;stroke-linecap:square;"/>
   </g>
   <g id="line2d_56">
    <path clip-path="url(#p7805fa276a)" d="M 194.059091 302.338387 
L 199.977273 302.338387 
" style="fill:none;stroke:#000000;stroke-linecap:square;"/>
   </g>
   <g id="line2d_57">
    <path clip-path="url(#p7805fa276a)" d="M 194.059091 302.071823 
L 199.977273 302.071823 
" style="fill:none;stroke:#000000;stroke-linecap:square;"/>
   </g>
   <g id="line2d_58">
    <g clip-path="url(#p7805fa276a)">
     <use style="fill-opacity:0;stroke:#000000;" x="197.018182" xlink:href="#mf22da3c4cd" y="301.87855"/>
    </g>
   </g>
   <g id="line2d_59">
    <path clip-path="url(#p7805fa276a)" d="M 214.772727 302.033623 
L 226.609091 302.033623 
L 226.609091 301.952446 
L 214.772727 301.952446 
L 214.772727 302.033623 
" style="fill:none;stroke:#000000;stroke-linecap:square;"/>
   </g>
   <g id="line2d_60">
    <path clip-path="url(#p7805fa276a)" d="M 220.690909 302.033623 
L 220.690909 302.09752 
" style="fill:none;stroke:#000000;stroke-linecap:square;"/>
   </g>
   <g id="line2d_61">
    <path clip-path="url(#p7805fa276a)" d="M 220.690909 301.952446 
L 220.690909 301.83993 
" style="fill:none;stroke:#000000;stroke-linecap:square;"/>
   </g>
   <g id="line2d_62">
    <path clip-path="url(#p7805fa276a)" d="M 217.731818 302.09752 
L 223.65 302.09752 
" style="fill:none;stroke:#000000;stroke-linecap:square;"/>
   </g>
   <g id="line2d_63">
    <path clip-path="url(#p7805fa276a)" d="M 217.731818 301.83993 
L 223.65 301.83993 
" style="fill:none;stroke:#000000;stroke-linecap:square;"/>
   </g>
   <g id="line2d_64"/>
   <g id="line2d_65">
    <path clip-path="url(#p7805fa276a)" d="M 238.445455 301.688098 
L 250.281818 301.688098 
L 250.281818 301.548559 
L 238.445455 301.548559 
L 238.445455 301.688098 
" style="fill:none;stroke:#000000;stroke-linecap:square;"/>
   </g>
   <g id="line2d_66">
    <path clip-path="url(#p7805fa276a)" d="M 244.363636 301.688098 
L 244.363636 301.739815 
" style="fill:none;stroke:#000000;stroke-linecap:square;"/>
   </g>
   <g id="line2d_67">
    <path clip-path="url(#p7805fa276a)" d="M 244.363636 301.548559 
L 244.363636 301.502602 
" style="fill:none;stroke:#000000;stroke-linecap:square;"/>
   </g>
   <g id="line2d_68">
    <path clip-path="url(#p7805fa276a)" d="M 241.404545 301.739815 
L 247.322727 301.739815 
" style="fill:none;stroke:#000000;stroke-linecap:square;"/>
   </g>
   <g id="line2d_69">
    <path clip-path="url(#p7805fa276a)" d="M 241.404545 301.502602 
L 247.322727 301.502602 
" style="fill:none;stroke:#000000;stroke-linecap:square;"/>
   </g>
   <g id="line2d_70"/>
   <g id="line2d_71">
    <path clip-path="url(#p7805fa276a)" d="M 262.118182 301.485201 
L 273.954545 301.485201 
L 273.954545 300.917753 
L 262.118182 300.917753 
L 262.118182 301.485201 
" style="fill:none;stroke:#000000;stroke-linecap:square;"/>
   </g>
   <g id="line2d_72">
    <path clip-path="url(#p7805fa276a)" d="M 268.036364 301.485201 
L 268.036364 301.553921 
" style="fill:none;stroke:#000000;stroke-linecap:square;"/>
   </g>
   <g id="line2d_73">
    <path clip-path="url(#p7805fa276a)" d="M 268.036364 300.917753 
L 268.036364 300.643371 
" style="fill:none;stroke:#000000;stroke-linecap:square;"/>
   </g>
   <g id="line2d_74">
    <path clip-path="url(#p7805fa276a)" d="M 265.077273 301.553921 
L 270.995455 301.553921 
" style="fill:none;stroke:#000000;stroke-linecap:square;"/>
   </g>
   <g id="line2d_75">
    <path clip-path="url(#p7805fa276a)" d="M 265.077273 300.643371 
L 270.995455 300.643371 
" style="fill:none;stroke:#000000;stroke-linecap:square;"/>
   </g>
   <g id="line2d_76"/>
   <g id="line2d_77">
    <path clip-path="url(#p7805fa276a)" d="M 285.790909 299.662263 
L 297.627273 299.662263 
L 297.627273 299.057468 
L 285.790909 299.057468 
L 285.790909 299.662263 
" style="fill:none;stroke:#000000;stroke-linecap:square;"/>
   </g>
   <g id="line2d_78">
    <path clip-path="url(#p7805fa276a)" d="M 291.709091 299.662263 
L 291.709091 300.520195 
" style="fill:none;stroke:#000000;stroke-linecap:square;"/>
   </g>
   <g id="line2d_79">
    <path clip-path="url(#p7805fa276a)" d="M 291.709091 299.057468 
L 291.709091 298.604589 
" style="fill:none;stroke:#000000;stroke-linecap:square;"/>
   </g>
   <g id="line2d_80">
    <path clip-path="url(#p7805fa276a)" d="M 288.75 300.520195 
L 294.668182 300.520195 
" style="fill:none;stroke:#000000;stroke-linecap:square;"/>
   </g>
   <g id="line2d_81">
    <path clip-path="url(#p7805fa276a)" d="M 288.75 298.604589 
L 294.668182 298.604589 
" style="fill:none;stroke:#000000;stroke-linecap:square;"/>
   </g>
   <g id="line2d_82"/>
   <g id="line2d_83">
    <path clip-path="url(#p7805fa276a)" d="M 309.463636 296.524612 
L 321.3 296.524612 
L 321.3 296.18543 
L 309.463636 296.18543 
L 309.463636 296.524612 
" style="fill:none;stroke:#000000;stroke-linecap:square;"/>
   </g>
   <g id="line2d_84">
    <path clip-path="url(#p7805fa276a)" d="M 315.381818 296.524612 
L 315.381818 296.951427 
" style="fill:none;stroke:#000000;stroke-linecap:square;"/>
   </g>
   <g id="line2d_85">
    <path clip-path="url(#p7805fa276a)" d="M 315.381818 296.18543 
L 315.381818 295.912099 
" style="fill:none;stroke:#000000;stroke-linecap:square;"/>
   </g>
   <g id="line2d_86">
    <path clip-path="url(#p7805fa276a)" d="M 312.422727 296.951427 
L 318.340909 296.951427 
" style="fill:none;stroke:#000000;stroke-linecap:square;"/>
   </g>
   <g id="line2d_87">
    <path clip-path="url(#p7805fa276a)" d="M 312.422727 295.912099 
L 318.340909 295.912099 
" style="fill:none;stroke:#000000;stroke-linecap:square;"/>
   </g>
   <g id="line2d_88"/>
   <g id="line2d_89">
    <path clip-path="url(#p7805fa276a)" d="M 333.136364 289.787684 
L 344.972727 289.787684 
L 344.972727 286.249986 
L 333.136364 286.249986 
L 333.136364 289.787684 
" style="fill:none;stroke:#000000;stroke-linecap:square;"/>
   </g>
   <g id="line2d_90">
    <path clip-path="url(#p7805fa276a)" d="M 339.054545 289.787684 
L 339.054545 293.481877 
" style="fill:none;stroke:#000000;stroke-linecap:square;"/>
   </g>
   <g id="line2d_91">
    <path clip-path="url(#p7805fa276a)" d="M 339.054545 286.249986 
L 339.054545 284.151278 
" style="fill:none;stroke:#000000;stroke-linecap:square;"/>
   </g>
   <g id="line2d_92">
    <path clip-path="url(#p7805fa276a)" d="M 336.095455 293.481877 
L 342.013636 293.481877 
" style="fill:none;stroke:#000000;stroke-linecap:square;"/>
   </g>
   <g id="line2d_93">
    <path clip-path="url(#p7805fa276a)" d="M 336.095455 284.151278 
L 342.013636 284.151278 
" style="fill:none;stroke:#000000;stroke-linecap:square;"/>
   </g>
   <g id="line2d_94"/>
   <g id="line2d_95">
    <path clip-path="url(#p7805fa276a)" d="M 356.809091 264.475905 
L 368.645455 264.475905 
L 368.645455 258.761105 
L 356.809091 258.761105 
L 356.809091 264.475905 
" style="fill:none;stroke:#000000;stroke-linecap:square;"/>
   </g>
   <g id="line2d_96">
    <path clip-path="url(#p7805fa276a)" d="M 362.727273 264.475905 
L 362.727273 271.465806 
" style="fill:none;stroke:#000000;stroke-linecap:square;"/>
   </g>
   <g id="line2d_97">
    <path clip-path="url(#p7805fa276a)" d="M 362.727273 258.761105 
L 362.727273 255.340264 
" style="fill:none;stroke:#000000;stroke-linecap:square;"/>
   </g>
   <g id="line2d_98">
    <path clip-path="url(#p7805fa276a)" d="M 359.768182 271.465806 
L 365.686364 271.465806 
" style="fill:none;stroke:#000000;stroke-linecap:square;"/>
   </g>
   <g id="line2d_99">
    <path clip-path="url(#p7805fa276a)" d="M 359.768182 255.340264 
L 365.686364 255.340264 
" style="fill:none;stroke:#000000;stroke-linecap:square;"/>
   </g>
   <g id="line2d_100">
    <g clip-path="url(#p7805fa276a)">
     <use style="fill-opacity:0;stroke:#000000;" x="362.727273" xlink:href="#mf22da3c4cd" y="273.531605"/>
    </g>
   </g>
   <g id="line2d_101">
    <path clip-path="url(#p7805fa276a)" d="M 380.481818 154.053104 
L 392.318182 154.053104 
L 392.318182 140.041531 
L 380.481818 140.041531 
L 380.481818 154.053104 
" style="fill:none;stroke:#000000;stroke-linecap:square;"/>
   </g>
   <g id="line2d_102">
    <path clip-path="url(#p7805fa276a)" d="M 386.4 154.053104 
L 386.4 167.947699 
" style="fill:none;stroke:#000000;stroke-linecap:square;"/>
   </g>
   <g id="line2d_103">
    <path clip-path="url(#p7805fa276a)" d="M 386.4 140.041531 
L 386.4 124.54833 
" style="fill:none;stroke:#000000;stroke-linecap:square;"/>
   </g>
   <g id="line2d_104">
    <path clip-path="url(#p7805fa276a)" d="M 383.440909 167.947699 
L 389.359091 167.947699 
" style="fill:none;stroke:#000000;stroke-linecap:square;"/>
   </g>
   <g id="line2d_105">
    <path clip-path="url(#p7805fa276a)" d="M 383.440909 124.54833 
L 389.359091 124.54833 
" style="fill:none;stroke:#000000;stroke-linecap:square;"/>
   </g>
   <g id="line2d_106">
    <g clip-path="url(#p7805fa276a)">
     <use style="fill-opacity:0;stroke:#000000;" x="386.4" xlink:href="#mf22da3c4cd" y="55.554545"/>
    </g>
   </g>
   <g id="line2d_107">
    <path clip-path="url(#p7805fa276a)" d="M 143.754545 302.286715 
L 155.590909 302.286715 
" style="fill:none;stroke:#ff7f0e;stroke-linecap:square;"/>
   </g>
   <g id="line2d_108">
    <path clip-path="url(#p7805fa276a)" d="M 167.427273 302.274289 
L 179.263636 302.274289 
" style="fill:none;stroke:#ff7f0e;stroke-linecap:square;"/>
   </g>
   <g id="line2d_109">
    <path clip-path="url(#p7805fa276a)" d="M 191.1 302.165008 
L 202.936364 302.165008 
" style="fill:none;stroke:#ff7f0e;stroke-linecap:square;"/>
   </g>
   <g id="line2d_110">
    <path clip-path="url(#p7805fa276a)" d="M 214.772727 302.003745 
L 226.609091 302.003745 
" style="fill:none;stroke:#ff7f0e;stroke-linecap:square;"/>
   </g>
   <g id="line2d_111">
    <path clip-path="url(#p7805fa276a)" d="M 238.445455 301.602831 
L 250.281818 301.602831 
" style="fill:none;stroke:#ff7f0e;stroke-linecap:square;"/>
   </g>
   <g id="line2d_112">
    <path clip-path="url(#p7805fa276a)" d="M 262.118182 301.015389 
L 273.954545 301.015389 
" style="fill:none;stroke:#ff7f0e;stroke-linecap:square;"/>
   </g>
   <g id="line2d_113">
    <path clip-path="url(#p7805fa276a)" d="M 285.790909 299.523354 
L 297.627273 299.523354 
" style="fill:none;stroke:#ff7f0e;stroke-linecap:square;"/>
   </g>
   <g id="line2d_114">
    <path clip-path="url(#p7805fa276a)" d="M 309.463636 296.338885 
L 321.3 296.338885 
" style="fill:none;stroke:#ff7f0e;stroke-linecap:square;"/>
   </g>
   <g id="line2d_115">
    <path clip-path="url(#p7805fa276a)" d="M 333.136364 287.312587 
L 344.972727 287.312587 
" style="fill:none;stroke:#ff7f0e;stroke-linecap:square;"/>
   </g>
   <g id="line2d_116">
    <path clip-path="url(#p7805fa276a)" d="M 356.809091 261.987064 
L 368.645455 261.987064 
" style="fill:none;stroke:#ff7f0e;stroke-linecap:square;"/>
   </g>
   <g id="line2d_117">
    <path clip-path="url(#p7805fa276a)" d="M 380.481818 145.232656 
L 392.318182 145.232656 
" style="fill:none;stroke:#ff7f0e;stroke-linecap:square;"/>
   </g>
   <g id="patch_3">
    <path d="M 126 315 
L 126 43.2 
" style="fill:none;stroke:#000000;stroke-linecap:square;stroke-linejoin:miter;stroke-width:0.8;"/>
   </g>
   <g id="patch_4">
    <path d="M 410.072727 315 
L 410.072727 43.2 
" style="fill:none;stroke:#000000;stroke-linecap:square;stroke-linejoin:miter;stroke-width:0.8;"/>
   </g>
   <g id="patch_5">
    <path d="M 126 315 
L 410.072727 315 
" style="fill:none;stroke:#000000;stroke-linecap:square;stroke-linejoin:miter;stroke-width:0.8;"/>
   </g>
   <g id="patch_6">
    <path d="M 126 43.2 
L 410.072727 43.2 
" style="fill:none;stroke:#000000;stroke-linecap:square;stroke-linejoin:miter;stroke-width:0.8;"/>
   </g>
   <g id="text_23">
    <!-- Time taken for tests generated for BES -->
    <defs>
     <path d="M 37.109375 75.984375 
L 37.109375 68.5 
L 28.515625 68.5 
Q 23.6875 68.5 21.796875 66.546875 
Q 19.921875 64.59375 19.921875 59.515625 
L 19.921875 54.6875 
L 34.71875 54.6875 
L 34.71875 47.703125 
L 19.921875 47.703125 
L 19.921875 0 
L 10.890625 0 
L 10.890625 47.703125 
L 2.296875 47.703125 
L 2.296875 54.6875 
L 10.890625 54.6875 
L 10.890625 58.5 
Q 10.890625 67.625 15.140625 71.796875 
Q 19.390625 75.984375 28.609375 75.984375 
z
" id="DejaVuSans-102"/>
     <path d="M 30.609375 48.390625 
Q 23.390625 48.390625 19.1875 42.75 
Q 14.984375 37.109375 14.984375 27.296875 
Q 14.984375 17.484375 19.15625 11.84375 
Q 23.34375 6.203125 30.609375 6.203125 
Q 37.796875 6.203125 41.984375 11.859375 
Q 46.1875 17.53125 46.1875 27.296875 
Q 46.1875 37.015625 41.984375 42.703125 
Q 37.796875 48.390625 30.609375 48.390625 
z
M 30.609375 56 
Q 42.328125 56 49.015625 48.375 
Q 55.71875 40.765625 55.71875 27.296875 
Q 55.71875 13.875 49.015625 6.21875 
Q 42.328125 -1.421875 30.609375 -1.421875 
Q 18.84375 -1.421875 12.171875 6.21875 
Q 5.515625 13.875 5.515625 27.296875 
Q 5.515625 40.765625 12.171875 48.375 
Q 18.84375 56 30.609375 56 
z
" id="DejaVuSans-111"/>
     <path d="M 41.109375 46.296875 
Q 39.59375 47.171875 37.8125 47.578125 
Q 36.03125 48 33.890625 48 
Q 26.265625 48 22.1875 43.046875 
Q 18.109375 38.09375 18.109375 28.8125 
L 18.109375 0 
L 9.078125 0 
L 9.078125 54.6875 
L 18.109375 54.6875 
L 18.109375 46.1875 
Q 20.953125 51.171875 25.484375 53.578125 
Q 30.03125 56 36.53125 56 
Q 37.453125 56 38.578125 55.875 
Q 39.703125 55.765625 41.0625 55.515625 
z
" id="DejaVuSans-114"/>
     <path d="M 44.28125 53.078125 
L 44.28125 44.578125 
Q 40.484375 46.53125 36.375 47.5 
Q 32.28125 48.484375 27.875 48.484375 
Q 21.1875 48.484375 17.84375 46.4375 
Q 14.5 44.390625 14.5 40.28125 
Q 14.5 37.15625 16.890625 35.375 
Q 19.28125 33.59375 26.515625 31.984375 
L 29.59375 31.296875 
Q 39.15625 29.25 43.1875 25.515625 
Q 47.21875 21.78125 47.21875 15.09375 
Q 47.21875 7.46875 41.1875 3.015625 
Q 35.15625 -1.421875 24.609375 -1.421875 
Q 20.21875 -1.421875 15.453125 -0.5625 
Q 10.6875 0.296875 5.421875 2 
L 5.421875 11.28125 
Q 10.40625 8.6875 15.234375 7.390625 
Q 20.0625 6.109375 24.8125 6.109375 
Q 31.15625 6.109375 34.5625 8.28125 
Q 37.984375 10.453125 37.984375 14.40625 
Q 37.984375 18.0625 35.515625 20.015625 
Q 33.0625 21.96875 24.703125 23.78125 
L 21.578125 24.515625 
Q 13.234375 26.265625 9.515625 29.90625 
Q 5.8125 33.546875 5.8125 39.890625 
Q 5.8125 47.609375 11.28125 51.796875 
Q 16.75 56 26.8125 56 
Q 31.78125 56 36.171875 55.265625 
Q 40.578125 54.546875 44.28125 53.078125 
z
" id="DejaVuSans-115"/>
     <path d="M 45.40625 27.984375 
Q 45.40625 37.75 41.375 43.109375 
Q 37.359375 48.484375 30.078125 48.484375 
Q 22.859375 48.484375 18.828125 43.109375 
Q 14.796875 37.75 14.796875 27.984375 
Q 14.796875 18.265625 18.828125 12.890625 
Q 22.859375 7.515625 30.078125 7.515625 
Q 37.359375 7.515625 41.375 12.890625 
Q 45.40625 18.265625 45.40625 27.984375 
z
M 54.390625 6.78125 
Q 54.390625 -7.171875 48.1875 -13.984375 
Q 42 -20.796875 29.203125 -20.796875 
Q 24.46875 -20.796875 20.265625 -20.09375 
Q 16.0625 -19.390625 12.109375 -17.921875 
L 12.109375 -9.1875 
Q 16.0625 -11.328125 19.921875 -12.34375 
Q 23.78125 -13.375 27.78125 -13.375 
Q 36.625 -13.375 41.015625 -8.765625 
Q 45.40625 -4.15625 45.40625 5.171875 
L 45.40625 9.625 
Q 42.625 4.78125 38.28125 2.390625 
Q 33.9375 0 27.875 0 
Q 17.828125 0 11.671875 7.65625 
Q 5.515625 15.328125 5.515625 27.984375 
Q 5.515625 40.671875 11.671875 48.328125 
Q 17.828125 56 27.875 56 
Q 33.9375 56 38.28125 53.609375 
Q 42.625 51.21875 45.40625 46.390625 
L 45.40625 54.6875 
L 54.390625 54.6875 
z
" id="DejaVuSans-103"/>
     <path d="M 45.40625 46.390625 
L 45.40625 75.984375 
L 54.390625 75.984375 
L 54.390625 0 
L 45.40625 0 
L 45.40625 8.203125 
Q 42.578125 3.328125 38.25 0.953125 
Q 33.9375 -1.421875 27.875 -1.421875 
Q 17.96875 -1.421875 11.734375 6.484375 
Q 5.515625 14.40625 5.515625 27.296875 
Q 5.515625 40.1875 11.734375 48.09375 
Q 17.96875 56 27.875 56 
Q 33.9375 56 38.25 53.625 
Q 42.578125 51.265625 45.40625 46.390625 
z
M 14.796875 27.296875 
Q 14.796875 17.390625 18.875 11.75 
Q 22.953125 6.109375 30.078125 6.109375 
Q 37.203125 6.109375 41.296875 11.75 
Q 45.40625 17.390625 45.40625 27.296875 
Q 45.40625 37.203125 41.296875 42.84375 
Q 37.203125 48.484375 30.078125 48.484375 
Q 22.953125 48.484375 18.875 42.84375 
Q 14.796875 37.203125 14.796875 27.296875 
z
" id="DejaVuSans-100"/>
     <path d="M 19.671875 34.8125 
L 19.671875 8.109375 
L 35.5 8.109375 
Q 43.453125 8.109375 47.28125 11.40625 
Q 51.125 14.703125 51.125 21.484375 
Q 51.125 28.328125 47.28125 31.5625 
Q 43.453125 34.8125 35.5 34.8125 
z
M 19.671875 64.796875 
L 19.671875 42.828125 
L 34.28125 42.828125 
Q 41.5 42.828125 45.03125 45.53125 
Q 48.578125 48.25 48.578125 53.8125 
Q 48.578125 59.328125 45.03125 62.0625 
Q 41.5 64.796875 34.28125 64.796875 
z
M 9.8125 72.90625 
L 35.015625 72.90625 
Q 46.296875 72.90625 52.390625 68.21875 
Q 58.5 63.53125 58.5 54.890625 
Q 58.5 48.1875 55.375 44.234375 
Q 52.25 40.28125 46.1875 39.3125 
Q 53.46875 37.75 57.5 32.78125 
Q 61.53125 27.828125 61.53125 20.40625 
Q 61.53125 10.640625 54.890625 5.3125 
Q 48.25 0 35.984375 0 
L 9.8125 0 
z
" id="DejaVuSans-66"/>
     <path d="M 9.8125 72.90625 
L 55.90625 72.90625 
L 55.90625 64.59375 
L 19.671875 64.59375 
L 19.671875 43.015625 
L 54.390625 43.015625 
L 54.390625 34.71875 
L 19.671875 34.71875 
L 19.671875 8.296875 
L 56.78125 8.296875 
L 56.78125 0 
L 9.8125 0 
z
" id="DejaVuSans-69"/>
     <path d="M 53.515625 70.515625 
L 53.515625 60.890625 
Q 47.90625 63.578125 42.921875 64.890625 
Q 37.9375 66.21875 33.296875 66.21875 
Q 25.25 66.21875 20.875 63.09375 
Q 16.5 59.96875 16.5 54.203125 
Q 16.5 49.359375 19.40625 46.890625 
Q 22.3125 44.4375 30.421875 42.921875 
L 36.375 41.703125 
Q 47.40625 39.59375 52.65625 34.296875 
Q 57.90625 29 57.90625 20.125 
Q 57.90625 9.515625 50.796875 4.046875 
Q 43.703125 -1.421875 29.984375 -1.421875 
Q 24.8125 -1.421875 18.96875 -0.25 
Q 13.140625 0.921875 6.890625 3.21875 
L 6.890625 13.375 
Q 12.890625 10.015625 18.65625 8.296875 
Q 24.421875 6.59375 29.984375 6.59375 
Q 38.421875 6.59375 43.015625 9.90625 
Q 47.609375 13.234375 47.609375 19.390625 
Q 47.609375 24.75 44.3125 27.78125 
Q 41.015625 30.8125 33.5 32.328125 
L 27.484375 33.5 
Q 16.453125 35.6875 11.515625 40.375 
Q 6.59375 45.0625 6.59375 53.421875 
Q 6.59375 63.09375 13.40625 68.65625 
Q 20.21875 74.21875 32.171875 74.21875 
Q 37.3125 74.21875 42.625 73.28125 
Q 47.953125 72.359375 53.515625 70.515625 
z
" id="DejaVuSans-83"/>
    </defs>
    <g transform="translate(151.278239 37.2)scale(0.12 -0.12)">
     <use xlink:href="#DejaVuSans-84"/>
     <use x="57.958984" xlink:href="#DejaVuSans-105"/>
     <use x="85.742188" xlink:href="#DejaVuSans-109"/>
     <use x="183.154297" xlink:href="#DejaVuSans-101"/>
     <use x="244.677734" xlink:href="#DejaVuSans-32"/>
     <use x="276.464844" xlink:href="#DejaVuSans-116"/>
     <use x="315.673828" xlink:href="#DejaVuSans-97"/>
     <use x="376.953125" xlink:href="#DejaVuSans-107"/>
     <use x="431.238281" xlink:href="#DejaVuSans-101"/>
     <use x="492.761719" xlink:href="#DejaVuSans-110"/>
     <use x="556.140625" xlink:href="#DejaVuSans-32"/>
     <use x="587.927734" xlink:href="#DejaVuSans-102"/>
     <use x="623.132812" xlink:href="#DejaVuSans-111"/>
     <use x="684.314453" xlink:href="#DejaVuSans-114"/>
     <use x="725.427734" xlink:href="#DejaVuSans-32"/>
     <use x="757.214844" xlink:href="#DejaVuSans-116"/>
     <use x="796.423828" xlink:href="#DejaVuSans-101"/>
     <use x="857.947266" xlink:href="#DejaVuSans-115"/>
     <use x="910.046875" xlink:href="#DejaVuSans-116"/>
     <use x="949.255859" xlink:href="#DejaVuSans-115"/>
     <use x="1001.355469" xlink:href="#DejaVuSans-32"/>
     <use x="1033.142578" xlink:href="#DejaVuSans-103"/>
     <use x="1096.619141" xlink:href="#DejaVuSans-101"/>
     <use x="1158.142578" xlink:href="#DejaVuSans-110"/>
     <use x="1221.521484" xlink:href="#DejaVuSans-101"/>
     <use x="1283.044922" xlink:href="#DejaVuSans-114"/>
     <use x="1324.158203" xlink:href="#DejaVuSans-97"/>
     <use x="1385.4375" xlink:href="#DejaVuSans-116"/>
     <use x="1424.646484" xlink:href="#DejaVuSans-101"/>
     <use x="1486.169922" xlink:href="#DejaVuSans-100"/>
     <use x="1549.646484" xlink:href="#DejaVuSans-32"/>
     <use x="1581.433594" xlink:href="#DejaVuSans-102"/>
     <use x="1616.638672" xlink:href="#DejaVuSans-111"/>
     <use x="1677.820312" xlink:href="#DejaVuSans-114"/>
     <use x="1718.933594" xlink:href="#DejaVuSans-32"/>
     <use x="1750.720703" xlink:href="#DejaVuSans-66"/>
     <use x="1819.324219" xlink:href="#DejaVuSans-69"/>
     <use x="1882.507812" xlink:href="#DejaVuSans-83"/>
    </g>
   </g>
  </g>
  <g id="axes_2">
   <g id="patch_7">
    <path d="M 481.090909 315 
L 907.2 315 
L 907.2 43.2 
L 481.090909 43.2 
z
" style="fill:#ffffff;"/>
   </g>
   <g id="matplotlib.axis_3">
    <g id="xtick_12">
     <g id="line2d_118">
      <path clip-path="url(#p8aa5ea1fcd)" d="M 499.617391 315 
L 499.617391 43.2 
" style="fill:none;stroke:#b0b0b0;stroke-linecap:square;stroke-width:0.8;"/>
     </g>
     <g id="line2d_119">
      <g>
       <use style="stroke:#000000;stroke-width:0.8;" x="499.617391" xlink:href="#m316835f84b" y="315"/>
      </g>
     </g>
     <g id="text_24">
      <!-- 1 (1) -->
      <defs>
       <path d="M 31 75.875 
Q 24.46875 64.65625 21.28125 53.65625 
Q 18.109375 42.671875 18.109375 31.390625 
Q 18.109375 20.125 21.3125 9.0625 
Q 24.515625 -2 31 -13.1875 
L 23.1875 -13.1875 
Q 15.875 -1.703125 12.234375 9.375 
Q 8.59375 20.453125 8.59375 31.390625 
Q 8.59375 42.28125 12.203125 53.3125 
Q 15.828125 64.359375 23.1875 75.875 
z
" id="DejaVuSans-40"/>
       <path d="M 8.015625 75.875 
L 15.828125 75.875 
Q 23.140625 64.359375 26.78125 53.3125 
Q 30.421875 42.28125 30.421875 31.390625 
Q 30.421875 20.453125 26.78125 9.375 
Q 23.140625 -1.703125 15.828125 -13.1875 
L 8.015625 -13.1875 
Q 14.5 -2 17.703125 9.0625 
Q 20.90625 20.125 20.90625 31.390625 
Q 20.90625 42.671875 17.703125 53.65625 
Q 14.5 64.65625 8.015625 75.875 
z
" id="DejaVuSans-41"/>
      </defs>
      <g transform="translate(492.311063 343.058825)rotate(-40)scale(0.1 -0.1)">
       <use xlink:href="#DejaVuSans-49"/>
       <use x="63.623047" xlink:href="#DejaVuSans-32"/>
       <use x="95.410156" xlink:href="#DejaVuSans-40"/>
       <use x="134.423828" xlink:href="#DejaVuSans-49"/>
       <use x="198.046875" xlink:href="#DejaVuSans-41"/>
      </g>
     </g>
    </g>
    <g id="xtick_13">
     <g id="line2d_120">
      <path clip-path="url(#p8aa5ea1fcd)" d="M 527.407115 315 
L 527.407115 43.2 
" style="fill:none;stroke:#b0b0b0;stroke-linecap:square;stroke-width:0.8;"/>
     </g>
     <g id="line2d_121">
      <g>
       <use style="stroke:#000000;stroke-width:0.8;" x="527.407115" xlink:href="#m316835f84b" y="315"/>
      </g>
     </g>
     <g id="text_25">
      <!-- 4 (2) -->
      <g transform="translate(520.100786 343.058825)rotate(-40)scale(0.1 -0.1)">
       <use xlink:href="#DejaVuSans-52"/>
       <use x="63.623047" xlink:href="#DejaVuSans-32"/>
       <use x="95.410156" xlink:href="#DejaVuSans-40"/>
       <use x="134.423828" xlink:href="#DejaVuSans-50"/>
       <use x="198.046875" xlink:href="#DejaVuSans-41"/>
      </g>
     </g>
    </g>
    <g id="xtick_14">
     <g id="line2d_122">
      <path clip-path="url(#p8aa5ea1fcd)" d="M 564.460079 315 
L 564.460079 43.2 
" style="fill:none;stroke:#b0b0b0;stroke-linecap:square;stroke-width:0.8;"/>
     </g>
     <g id="line2d_123">
      <g>
       <use style="stroke:#000000;stroke-width:0.8;" x="564.460079" xlink:href="#m316835f84b" y="315"/>
      </g>
     </g>
     <g id="text_26">
      <!-- 15 (3) -->
      <g transform="translate(554.716772 347.148561)rotate(-40)scale(0.1 -0.1)">
       <use xlink:href="#DejaVuSans-49"/>
       <use x="63.623047" xlink:href="#DejaVuSans-53"/>
       <use x="127.246094" xlink:href="#DejaVuSans-32"/>
       <use x="159.033203" xlink:href="#DejaVuSans-40"/>
       <use x="198.046875" xlink:href="#DejaVuSans-51"/>
       <use x="261.669922" xlink:href="#DejaVuSans-41"/>
      </g>
     </g>
    </g>
    <g id="xtick_15">
     <g id="line2d_124">
      <path clip-path="url(#p8aa5ea1fcd)" d="M 610.776285 315 
L 610.776285 43.2 
" style="fill:none;stroke:#b0b0b0;stroke-linecap:square;stroke-width:0.8;"/>
     </g>
     <g id="line2d_125">
      <g>
       <use style="stroke:#000000;stroke-width:0.8;" x="610.776285" xlink:href="#m316835f84b" y="315"/>
      </g>
     </g>
     <g id="text_27">
      <!-- 51 (4) -->
      <g transform="translate(601.032977 347.148561)rotate(-40)scale(0.1 -0.1)">
       <use xlink:href="#DejaVuSans-53"/>
       <use x="63.623047" xlink:href="#DejaVuSans-49"/>
       <use x="127.246094" xlink:href="#DejaVuSans-32"/>
       <use x="159.033203" xlink:href="#DejaVuSans-40"/>
       <use x="198.046875" xlink:href="#DejaVuSans-52"/>
       <use x="261.669922" xlink:href="#DejaVuSans-41"/>
      </g>
     </g>
    </g>
    <g id="xtick_16">
     <g id="line2d_126">
      <path clip-path="url(#p8aa5ea1fcd)" d="M 666.355731 315 
L 666.355731 43.2 
" style="fill:none;stroke:#b0b0b0;stroke-linecap:square;stroke-width:0.8;"/>
     </g>
     <g id="line2d_127">
      <g>
       <use style="stroke:#000000;stroke-width:0.8;" x="666.355731" xlink:href="#m316835f84b" y="315"/>
      </g>
     </g>
     <g id="text_28">
      <!-- 153 (5) -->
      <g transform="translate(654.175445 351.238297)rotate(-40)scale(0.1 -0.1)">
       <use xlink:href="#DejaVuSans-49"/>
       <use x="63.623047" xlink:href="#DejaVuSans-53"/>
       <use x="127.246094" xlink:href="#DejaVuSans-51"/>
       <use x="190.869141" xlink:href="#DejaVuSans-32"/>
       <use x="222.65625" xlink:href="#DejaVuSans-40"/>
       <use x="261.669922" xlink:href="#DejaVuSans-53"/>
       <use x="325.292969" xlink:href="#DejaVuSans-41"/>
      </g>
     </g>
    </g>
    <g id="xtick_17">
     <g id="line2d_128">
      <path clip-path="url(#p8aa5ea1fcd)" d="M 731.198419 315 
L 731.198419 43.2 
" style="fill:none;stroke:#b0b0b0;stroke-linecap:square;stroke-width:0.8;"/>
     </g>
     <g id="line2d_129">
      <g>
       <use style="stroke:#000000;stroke-width:0.8;" x="731.198419" xlink:href="#m316835f84b" y="315"/>
      </g>
     </g>
     <g id="text_29">
      <!-- 427 (6) -->
      <g transform="translate(719.018133 351.238297)rotate(-40)scale(0.1 -0.1)">
       <use xlink:href="#DejaVuSans-52"/>
       <use x="63.623047" xlink:href="#DejaVuSans-50"/>
       <use x="127.246094" xlink:href="#DejaVuSans-55"/>
       <use x="190.869141" xlink:href="#DejaVuSans-32"/>
       <use x="222.65625" xlink:href="#DejaVuSans-40"/>
       <use x="261.669922" xlink:href="#DejaVuSans-54"/>
       <use x="325.292969" xlink:href="#DejaVuSans-41"/>
      </g>
     </g>
    </g>
    <g id="xtick_18">
     <g id="line2d_130">
      <path clip-path="url(#p8aa5ea1fcd)" d="M 805.304348 315 
L 805.304348 43.2 
" style="fill:none;stroke:#b0b0b0;stroke-linecap:square;stroke-width:0.8;"/>
     </g>
     <g id="line2d_131">
      <g>
       <use style="stroke:#000000;stroke-width:0.8;" x="805.304348" xlink:href="#m316835f84b" y="315"/>
      </g>
     </g>
     <g id="text_30">
      <!-- 1127 (7) -->
      <g transform="translate(790.687083 355.328033)rotate(-40)scale(0.1 -0.1)">
       <use xlink:href="#DejaVuSans-49"/>
       <use x="63.623047" xlink:href="#DejaVuSans-49"/>
       <use x="127.246094" xlink:href="#DejaVuSans-50"/>
       <use x="190.869141" xlink:href="#DejaVuSans-55"/>
       <use x="254.492188" xlink:href="#DejaVuSans-32"/>
       <use x="286.279297" xlink:href="#DejaVuSans-40"/>
       <use x="325.292969" xlink:href="#DejaVuSans-55"/>
       <use x="388.916016" xlink:href="#DejaVuSans-41"/>
      </g>
     </g>
    </g>
    <g id="xtick_19">
     <g id="line2d_132">
      <path clip-path="url(#p8aa5ea1fcd)" d="M 888.673518 315 
L 888.673518 43.2 
" style="fill:none;stroke:#b0b0b0;stroke-linecap:square;stroke-width:0.8;"/>
     </g>
     <g id="line2d_133">
      <g>
       <use style="stroke:#000000;stroke-width:0.8;" x="888.673518" xlink:href="#m316835f84b" y="315"/>
      </g>
     </g>
     <g id="text_31">
      <!-- 2858 (8) -->
      <g transform="translate(874.056253 355.328033)rotate(-40)scale(0.1 -0.1)">
       <use xlink:href="#DejaVuSans-50"/>
       <use x="63.623047" xlink:href="#DejaVuSans-56"/>
       <use x="127.246094" xlink:href="#DejaVuSans-53"/>
       <use x="190.869141" xlink:href="#DejaVuSans-56"/>
       <use x="254.492188" xlink:href="#DejaVuSans-32"/>
       <use x="286.279297" xlink:href="#DejaVuSans-40"/>
       <use x="325.292969" xlink:href="#DejaVuSans-56"/>
       <use x="388.916016" xlink:href="#DejaVuSans-41"/>
      </g>
     </g>
    </g>
    <g id="text_32">
     <!-- Test suite size (corresponding depth) -->
     <defs>
      <path d="M 8.5 21.578125 
L 8.5 54.6875 
L 17.484375 54.6875 
L 17.484375 21.921875 
Q 17.484375 14.15625 20.5 10.265625 
Q 23.53125 6.390625 29.59375 6.390625 
Q 36.859375 6.390625 41.078125 11.03125 
Q 45.3125 15.671875 45.3125 23.6875 
L 45.3125 54.6875 
L 54.296875 54.6875 
L 54.296875 0 
L 45.3125 0 
L 45.3125 8.40625 
Q 42.046875 3.421875 37.71875 1 
Q 33.40625 -1.421875 27.6875 -1.421875 
Q 18.265625 -1.421875 13.375 4.4375 
Q 8.5 10.296875 8.5 21.578125 
z
M 31.109375 56 
z
" id="DejaVuSans-117"/>
      <path d="M 5.515625 54.6875 
L 48.1875 54.6875 
L 48.1875 46.484375 
L 14.40625 7.171875 
L 48.1875 7.171875 
L 48.1875 0 
L 4.296875 0 
L 4.296875 8.203125 
L 38.09375 47.515625 
L 5.515625 47.515625 
z
" id="DejaVuSans-122"/>
      <path d="M 48.78125 52.59375 
L 48.78125 44.1875 
Q 44.96875 46.296875 41.140625 47.34375 
Q 37.3125 48.390625 33.40625 48.390625 
Q 24.65625 48.390625 19.8125 42.84375 
Q 14.984375 37.3125 14.984375 27.296875 
Q 14.984375 17.28125 19.8125 11.734375 
Q 24.65625 6.203125 33.40625 6.203125 
Q 37.3125 6.203125 41.140625 7.25 
Q 44.96875 8.296875 48.78125 10.40625 
L 48.78125 2.09375 
Q 45.015625 0.34375 40.984375 -0.53125 
Q 36.96875 -1.421875 32.421875 -1.421875 
Q 20.0625 -1.421875 12.78125 6.34375 
Q 5.515625 14.109375 5.515625 27.296875 
Q 5.515625 40.671875 12.859375 48.328125 
Q 20.21875 56 33.015625 56 
Q 37.15625 56 41.109375 55.140625 
Q 45.0625 54.296875 48.78125 52.59375 
z
" id="DejaVuSans-99"/>
     </defs>
     <g transform="translate(601.885298 368.519604)scale(0.1 -0.1)">
      <use xlink:href="#DejaVuSans-84"/>
      <use x="44.083984" xlink:href="#DejaVuSans-101"/>
      <use x="105.607422" xlink:href="#DejaVuSans-115"/>
      <use x="157.707031" xlink:href="#DejaVuSans-116"/>
      <use x="196.916016" xlink:href="#DejaVuSans-32"/>
      <use x="228.703125" xlink:href="#DejaVuSans-115"/>
      <use x="280.802734" xlink:href="#DejaVuSans-117"/>
      <use x="344.181641" xlink:href="#DejaVuSans-105"/>
      <use x="371.964844" xlink:href="#DejaVuSans-116"/>
      <use x="411.173828" xlink:href="#DejaVuSans-101"/>
      <use x="472.697266" xlink:href="#DejaVuSans-32"/>
      <use x="504.484375" xlink:href="#DejaVuSans-115"/>
      <use x="556.583984" xlink:href="#DejaVuSans-105"/>
      <use x="584.367188" xlink:href="#DejaVuSans-122"/>
      <use x="636.857422" xlink:href="#DejaVuSans-101"/>
      <use x="698.380859" xlink:href="#DejaVuSans-32"/>
      <use x="730.167969" xlink:href="#DejaVuSans-40"/>
      <use x="769.181641" xlink:href="#DejaVuSans-99"/>
      <use x="824.162109" xlink:href="#DejaVuSans-111"/>
      <use x="885.34375" xlink:href="#DejaVuSans-114"/>
      <use x="924.707031" xlink:href="#DejaVuSans-114"/>
      <use x="963.570312" xlink:href="#DejaVuSans-101"/>
      <use x="1025.09375" xlink:href="#DejaVuSans-115"/>
      <use x="1077.193359" xlink:href="#DejaVuSans-112"/>
      <use x="1140.669922" xlink:href="#DejaVuSans-111"/>
      <use x="1201.851562" xlink:href="#DejaVuSans-110"/>
      <use x="1265.230469" xlink:href="#DejaVuSans-100"/>
      <use x="1328.707031" xlink:href="#DejaVuSans-105"/>
      <use x="1356.490234" xlink:href="#DejaVuSans-110"/>
      <use x="1419.869141" xlink:href="#DejaVuSans-103"/>
      <use x="1483.345703" xlink:href="#DejaVuSans-32"/>
      <use x="1515.132812" xlink:href="#DejaVuSans-100"/>
      <use x="1578.609375" xlink:href="#DejaVuSans-101"/>
      <use x="1640.132812" xlink:href="#DejaVuSans-112"/>
      <use x="1703.609375" xlink:href="#DejaVuSans-116"/>
      <use x="1742.818359" xlink:href="#DejaVuSans-104"/>
      <use x="1806.197266" xlink:href="#DejaVuSans-41"/>
     </g>
    </g>
   </g>
   <g id="matplotlib.axis_4">
    <g id="ytick_10">
     <g id="line2d_134">
      <path clip-path="url(#p8aa5ea1fcd)" d="M 481.090909 303.987772 
L 907.2 303.987772 
" style="fill:none;stroke:#b0b0b0;stroke-linecap:square;stroke-width:0.8;"/>
     </g>
     <g id="line2d_135">
      <g>
       <use style="stroke:#000000;stroke-width:0.8;" x="481.090909" xlink:href="#md4a7b52408" y="303.987772"/>
      </g>
     </g>
     <g id="text_33">
      <!-- 0 -->
      <g transform="translate(467.728409 307.786991)scale(0.1 -0.1)">
       <use xlink:href="#DejaVuSans-48"/>
      </g>
     </g>
    </g>
    <g id="ytick_11">
     <g id="line2d_136">
      <path clip-path="url(#p8aa5ea1fcd)" d="M 481.090909 272.38411 
L 907.2 272.38411 
" style="fill:none;stroke:#b0b0b0;stroke-linecap:square;stroke-width:0.8;"/>
     </g>
     <g id="line2d_137">
      <g>
       <use style="stroke:#000000;stroke-width:0.8;" x="481.090909" xlink:href="#md4a7b52408" y="272.38411"/>
      </g>
     </g>
     <g id="text_34">
      <!-- 50 -->
      <g transform="translate(461.365909 276.183329)scale(0.1 -0.1)">
       <use xlink:href="#DejaVuSans-53"/>
       <use x="63.623047" xlink:href="#DejaVuSans-48"/>
      </g>
     </g>
    </g>
    <g id="ytick_12">
     <g id="line2d_138">
      <path clip-path="url(#p8aa5ea1fcd)" d="M 481.090909 240.780448 
L 907.2 240.780448 
" style="fill:none;stroke:#b0b0b0;stroke-linecap:square;stroke-width:0.8;"/>
     </g>
     <g id="line2d_139">
      <g>
       <use style="stroke:#000000;stroke-width:0.8;" x="481.090909" xlink:href="#md4a7b52408" y="240.780448"/>
      </g>
     </g>
     <g id="text_35">
      <!-- 100 -->
      <g transform="translate(455.003409 244.579667)scale(0.1 -0.1)">
       <use xlink:href="#DejaVuSans-49"/>
       <use x="63.623047" xlink:href="#DejaVuSans-48"/>
       <use x="127.246094" xlink:href="#DejaVuSans-48"/>
      </g>
     </g>
    </g>
    <g id="ytick_13">
     <g id="line2d_140">
      <path clip-path="url(#p8aa5ea1fcd)" d="M 481.090909 209.176786 
L 907.2 209.176786 
" style="fill:none;stroke:#b0b0b0;stroke-linecap:square;stroke-width:0.8;"/>
     </g>
     <g id="line2d_141">
      <g>
       <use style="stroke:#000000;stroke-width:0.8;" x="481.090909" xlink:href="#md4a7b52408" y="209.176786"/>
      </g>
     </g>
     <g id="text_36">
      <!-- 150 -->
      <g transform="translate(455.003409 212.976005)scale(0.1 -0.1)">
       <use xlink:href="#DejaVuSans-49"/>
       <use x="63.623047" xlink:href="#DejaVuSans-53"/>
       <use x="127.246094" xlink:href="#DejaVuSans-48"/>
      </g>
     </g>
    </g>
    <g id="ytick_14">
     <g id="line2d_142">
      <path clip-path="url(#p8aa5ea1fcd)" d="M 481.090909 177.573124 
L 907.2 177.573124 
" style="fill:none;stroke:#b0b0b0;stroke-linecap:square;stroke-width:0.8;"/>
     </g>
     <g id="line2d_143">
      <g>
       <use style="stroke:#000000;stroke-width:0.8;" x="481.090909" xlink:href="#md4a7b52408" y="177.573124"/>
      </g>
     </g>
     <g id="text_37">
      <!-- 200 -->
      <g transform="translate(455.003409 181.372343)scale(0.1 -0.1)">
       <use xlink:href="#DejaVuSans-50"/>
       <use x="63.623047" xlink:href="#DejaVuSans-48"/>
       <use x="127.246094" xlink:href="#DejaVuSans-48"/>
      </g>
     </g>
    </g>
    <g id="ytick_15">
     <g id="line2d_144">
      <path clip-path="url(#p8aa5ea1fcd)" d="M 481.090909 145.969462 
L 907.2 145.969462 
" style="fill:none;stroke:#b0b0b0;stroke-linecap:square;stroke-width:0.8;"/>
     </g>
     <g id="line2d_145">
      <g>
       <use style="stroke:#000000;stroke-width:0.8;" x="481.090909" xlink:href="#md4a7b52408" y="145.969462"/>
      </g>
     </g>
     <g id="text_38">
      <!-- 250 -->
      <g transform="translate(455.003409 149.768681)scale(0.1 -0.1)">
       <use xlink:href="#DejaVuSans-50"/>
       <use x="63.623047" xlink:href="#DejaVuSans-53"/>
       <use x="127.246094" xlink:href="#DejaVuSans-48"/>
      </g>
     </g>
    </g>
    <g id="ytick_16">
     <g id="line2d_146">
      <path clip-path="url(#p8aa5ea1fcd)" d="M 481.090909 114.3658 
L 907.2 114.3658 
" style="fill:none;stroke:#b0b0b0;stroke-linecap:square;stroke-width:0.8;"/>
     </g>
     <g id="line2d_147">
      <g>
       <use style="stroke:#000000;stroke-width:0.8;" x="481.090909" xlink:href="#md4a7b52408" y="114.3658"/>
      </g>
     </g>
     <g id="text_39">
      <!-- 300 -->
      <g transform="translate(455.003409 118.165019)scale(0.1 -0.1)">
       <use xlink:href="#DejaVuSans-51"/>
       <use x="63.623047" xlink:href="#DejaVuSans-48"/>
       <use x="127.246094" xlink:href="#DejaVuSans-48"/>
      </g>
     </g>
    </g>
    <g id="ytick_17">
     <g id="line2d_148">
      <path clip-path="url(#p8aa5ea1fcd)" d="M 481.090909 82.762138 
L 907.2 82.762138 
" style="fill:none;stroke:#b0b0b0;stroke-linecap:square;stroke-width:0.8;"/>
     </g>
     <g id="line2d_149">
      <g>
       <use style="stroke:#000000;stroke-width:0.8;" x="481.090909" xlink:href="#md4a7b52408" y="82.762138"/>
      </g>
     </g>
     <g id="text_40">
      <!-- 350 -->
      <g transform="translate(455.003409 86.561357)scale(0.1 -0.1)">
       <use xlink:href="#DejaVuSans-51"/>
       <use x="63.623047" xlink:href="#DejaVuSans-53"/>
       <use x="127.246094" xlink:href="#DejaVuSans-48"/>
      </g>
     </g>
    </g>
    <g id="ytick_18">
     <g id="line2d_150">
      <path clip-path="url(#p8aa5ea1fcd)" d="M 481.090909 51.158476 
L 907.2 51.158476 
" style="fill:none;stroke:#b0b0b0;stroke-linecap:square;stroke-width:0.8;"/>
     </g>
     <g id="line2d_151">
      <g>
       <use style="stroke:#000000;stroke-width:0.8;" x="481.090909" xlink:href="#md4a7b52408" y="51.158476"/>
      </g>
     </g>
     <g id="text_41">
      <!-- 400 -->
      <g transform="translate(455.003409 54.957695)scale(0.1 -0.1)">
       <use xlink:href="#DejaVuSans-52"/>
       <use x="63.623047" xlink:href="#DejaVuSans-48"/>
       <use x="127.246094" xlink:href="#DejaVuSans-48"/>
      </g>
     </g>
    </g>
    <g id="text_42">
     <!-- Time taken -->
     <g transform="translate(448.923722 206.90625)rotate(-90)scale(0.1 -0.1)">
      <use xlink:href="#DejaVuSans-84"/>
      <use x="57.958984" xlink:href="#DejaVuSans-105"/>
      <use x="85.742188" xlink:href="#DejaVuSans-109"/>
      <use x="183.154297" xlink:href="#DejaVuSans-101"/>
      <use x="244.677734" xlink:href="#DejaVuSans-32"/>
      <use x="276.464844" xlink:href="#DejaVuSans-116"/>
      <use x="315.673828" xlink:href="#DejaVuSans-97"/>
      <use x="376.953125" xlink:href="#DejaVuSans-107"/>
      <use x="431.238281" xlink:href="#DejaVuSans-101"/>
      <use x="492.761719" xlink:href="#DejaVuSans-110"/>
     </g>
    </g>
   </g>
   <g id="line2d_152">
    <path clip-path="url(#p8aa5ea1fcd)" d="M 490.35415 302.577858 
L 508.880632 302.577858 
L 508.880632 302.393083 
L 490.35415 302.393083 
L 490.35415 302.577858 
" style="fill:none;stroke:#000000;stroke-linecap:square;"/>
   </g>
   <g id="line2d_153">
    <path clip-path="url(#p8aa5ea1fcd)" d="M 499.617391 302.577858 
L 499.617391 302.645455 
" style="fill:none;stroke:#000000;stroke-linecap:square;"/>
   </g>
   <g id="line2d_154">
    <path clip-path="url(#p8aa5ea1fcd)" d="M 499.617391 302.393083 
L 499.617391 302.137744 
" style="fill:none;stroke:#000000;stroke-linecap:square;"/>
   </g>
   <g id="line2d_155">
    <path clip-path="url(#p8aa5ea1fcd)" d="M 494.985771 302.645455 
L 504.249012 302.645455 
" style="fill:none;stroke:#000000;stroke-linecap:square;"/>
   </g>
   <g id="line2d_156">
    <path clip-path="url(#p8aa5ea1fcd)" d="M 494.985771 302.137744 
L 504.249012 302.137744 
" style="fill:none;stroke:#000000;stroke-linecap:square;"/>
   </g>
   <g id="line2d_157"/>
   <g id="line2d_158">
    <path clip-path="url(#p8aa5ea1fcd)" d="M 518.143874 302.512598 
L 536.670356 302.512598 
L 536.670356 302.309783 
L 518.143874 302.309783 
L 518.143874 302.512598 
" style="fill:none;stroke:#000000;stroke-linecap:square;"/>
   </g>
   <g id="line2d_159">
    <path clip-path="url(#p8aa5ea1fcd)" d="M 527.407115 302.512598 
L 527.407115 302.643579 
" style="fill:none;stroke:#000000;stroke-linecap:square;"/>
   </g>
   <g id="line2d_160">
    <path clip-path="url(#p8aa5ea1fcd)" d="M 527.407115 302.309783 
L 527.407115 302.077703 
" style="fill:none;stroke:#000000;stroke-linecap:square;"/>
   </g>
   <g id="line2d_161">
    <path clip-path="url(#p8aa5ea1fcd)" d="M 522.775494 302.643579 
L 532.038735 302.643579 
" style="fill:none;stroke:#000000;stroke-linecap:square;"/>
   </g>
   <g id="line2d_162">
    <path clip-path="url(#p8aa5ea1fcd)" d="M 522.775494 302.077703 
L 532.038735 302.077703 
" style="fill:none;stroke:#000000;stroke-linecap:square;"/>
   </g>
   <g id="line2d_163">
    <g clip-path="url(#p8aa5ea1fcd)">
     <use style="fill-opacity:0;stroke:#000000;" x="527.407115" xlink:href="#mf22da3c4cd" y="301.820096"/>
    </g>
   </g>
   <g id="line2d_164">
    <path clip-path="url(#p8aa5ea1fcd)" d="M 555.196838 302.211207 
L 573.72332 302.211207 
L 573.72332 302.044791 
L 555.196838 302.044791 
L 555.196838 302.211207 
" style="fill:none;stroke:#000000;stroke-linecap:square;"/>
   </g>
   <g id="line2d_165">
    <path clip-path="url(#p8aa5ea1fcd)" d="M 564.460079 302.211207 
L 564.460079 302.323865 
" style="fill:none;stroke:#000000;stroke-linecap:square;"/>
   </g>
   <g id="line2d_166">
    <path clip-path="url(#p8aa5ea1fcd)" d="M 564.460079 302.044791 
L 564.460079 301.913083 
" style="fill:none;stroke:#000000;stroke-linecap:square;"/>
   </g>
   <g id="line2d_167">
    <path clip-path="url(#p8aa5ea1fcd)" d="M 559.828458 302.323865 
L 569.0917 302.323865 
" style="fill:none;stroke:#000000;stroke-linecap:square;"/>
   </g>
   <g id="line2d_168">
    <path clip-path="url(#p8aa5ea1fcd)" d="M 559.828458 301.913083 
L 569.0917 301.913083 
" style="fill:none;stroke:#000000;stroke-linecap:square;"/>
   </g>
   <g id="line2d_169">
    <g clip-path="url(#p8aa5ea1fcd)">
     <use style="fill-opacity:0;stroke:#000000;" x="564.460079" xlink:href="#mf22da3c4cd" y="301.629619"/>
     <use style="fill-opacity:0;stroke:#000000;" x="564.460079" xlink:href="#mf22da3c4cd" y="301.788144"/>
    </g>
   </g>
   <g id="line2d_170">
    <path clip-path="url(#p8aa5ea1fcd)" d="M 601.513043 301.804236 
L 620.039526 301.804236 
L 620.039526 301.526401 
L 601.513043 301.526401 
L 601.513043 301.804236 
" style="fill:none;stroke:#000000;stroke-linecap:square;"/>
   </g>
   <g id="line2d_171">
    <path clip-path="url(#p8aa5ea1fcd)" d="M 610.776285 301.804236 
L 610.776285 301.992492 
" style="fill:none;stroke:#000000;stroke-linecap:square;"/>
   </g>
   <g id="line2d_172">
    <path clip-path="url(#p8aa5ea1fcd)" d="M 610.776285 301.526401 
L 610.776285 301.132602 
" style="fill:none;stroke:#000000;stroke-linecap:square;"/>
   </g>
   <g id="line2d_173">
    <path clip-path="url(#p8aa5ea1fcd)" d="M 606.144664 301.992492 
L 615.407905 301.992492 
" style="fill:none;stroke:#000000;stroke-linecap:square;"/>
   </g>
   <g id="line2d_174">
    <path clip-path="url(#p8aa5ea1fcd)" d="M 606.144664 301.132602 
L 615.407905 301.132602 
" style="fill:none;stroke:#000000;stroke-linecap:square;"/>
   </g>
   <g id="line2d_175"/>
   <g id="line2d_176">
    <path clip-path="url(#p8aa5ea1fcd)" d="M 657.09249 301.017044 
L 675.618972 301.017044 
L 675.618972 299.797857 
L 657.09249 299.797857 
L 657.09249 301.017044 
" style="fill:none;stroke:#000000;stroke-linecap:square;"/>
   </g>
   <g id="line2d_177">
    <path clip-path="url(#p8aa5ea1fcd)" d="M 666.355731 301.017044 
L 666.355731 301.244872 
" style="fill:none;stroke:#000000;stroke-linecap:square;"/>
   </g>
   <g id="line2d_178">
    <path clip-path="url(#p8aa5ea1fcd)" d="M 666.355731 299.797857 
L 666.355731 298.473571 
" style="fill:none;stroke:#000000;stroke-linecap:square;"/>
   </g>
   <g id="line2d_179">
    <path clip-path="url(#p8aa5ea1fcd)" d="M 661.724111 301.244872 
L 670.987352 301.244872 
" style="fill:none;stroke:#000000;stroke-linecap:square;"/>
   </g>
   <g id="line2d_180">
    <path clip-path="url(#p8aa5ea1fcd)" d="M 661.724111 298.473571 
L 670.987352 298.473571 
" style="fill:none;stroke:#000000;stroke-linecap:square;"/>
   </g>
   <g id="line2d_181">
    <g clip-path="url(#p8aa5ea1fcd)">
     <use style="fill-opacity:0;stroke:#000000;" x="666.355731" xlink:href="#mf22da3c4cd" y="296.758134"/>
    </g>
   </g>
   <g id="line2d_182">
    <path clip-path="url(#p8aa5ea1fcd)" d="M 721.935178 299.088735 
L 740.46166 299.088735 
L 740.46166 297.99963 
L 721.935178 297.99963 
L 721.935178 299.088735 
" style="fill:none;stroke:#000000;stroke-linecap:square;"/>
   </g>
   <g id="line2d_183">
    <path clip-path="url(#p8aa5ea1fcd)" d="M 731.198419 299.088735 
L 731.198419 299.793789 
" style="fill:none;stroke:#000000;stroke-linecap:square;"/>
   </g>
   <g id="line2d_184">
    <path clip-path="url(#p8aa5ea1fcd)" d="M 731.198419 297.99963 
L 731.198419 297.239242 
" style="fill:none;stroke:#000000;stroke-linecap:square;"/>
   </g>
   <g id="line2d_185">
    <path clip-path="url(#p8aa5ea1fcd)" d="M 726.566798 299.793789 
L 735.83004 299.793789 
" style="fill:none;stroke:#000000;stroke-linecap:square;"/>
   </g>
   <g id="line2d_186">
    <path clip-path="url(#p8aa5ea1fcd)" d="M 726.566798 297.239242 
L 735.83004 297.239242 
" style="fill:none;stroke:#000000;stroke-linecap:square;"/>
   </g>
   <g id="line2d_187">
    <g clip-path="url(#p8aa5ea1fcd)">
     <use style="fill-opacity:0;stroke:#000000;" x="731.198419" xlink:href="#mf22da3c4cd" y="294.597438"/>
     <use style="fill-opacity:0;stroke:#000000;" x="731.198419" xlink:href="#mf22da3c4cd" y="294.533208"/>
     <use style="fill-opacity:0;stroke:#000000;" x="731.198419" xlink:href="#mf22da3c4cd" y="293.940728"/>
    </g>
   </g>
   <g id="line2d_188">
    <path clip-path="url(#p8aa5ea1fcd)" d="M 796.041107 289.337732 
L 814.567589 289.337732 
L 814.567589 281.348306 
L 796.041107 281.348306 
L 796.041107 289.337732 
" style="fill:none;stroke:#000000;stroke-linecap:square;"/>
   </g>
   <g id="line2d_189">
    <path clip-path="url(#p8aa5ea1fcd)" d="M 805.304348 289.337732 
L 805.304348 293.115131 
" style="fill:none;stroke:#000000;stroke-linecap:square;"/>
   </g>
   <g id="line2d_190">
    <path clip-path="url(#p8aa5ea1fcd)" d="M 805.304348 281.348306 
L 805.304348 269.740802 
" style="fill:none;stroke:#000000;stroke-linecap:square;"/>
   </g>
   <g id="line2d_191">
    <path clip-path="url(#p8aa5ea1fcd)" d="M 800.672727 293.115131 
L 809.935968 293.115131 
" style="fill:none;stroke:#000000;stroke-linecap:square;"/>
   </g>
   <g id="line2d_192">
    <path clip-path="url(#p8aa5ea1fcd)" d="M 800.672727 269.740802 
L 809.935968 269.740802 
" style="fill:none;stroke:#000000;stroke-linecap:square;"/>
   </g>
   <g id="line2d_193">
    <g clip-path="url(#p8aa5ea1fcd)">
     <use style="fill-opacity:0;stroke:#000000;" x="805.304348" xlink:href="#mf22da3c4cd" y="260.716396"/>
     <use style="fill-opacity:0;stroke:#000000;" x="805.304348" xlink:href="#mf22da3c4cd" y="256.850512"/>
    </g>
   </g>
   <g id="line2d_194">
    <path clip-path="url(#p8aa5ea1fcd)" d="M 879.410277 232.260329 
L 897.936759 232.260329 
L 897.936759 171.525541 
L 879.410277 171.525541 
L 879.410277 232.260329 
" style="fill:none;stroke:#000000;stroke-linecap:square;"/>
   </g>
   <g id="line2d_195">
    <path clip-path="url(#p8aa5ea1fcd)" d="M 888.673518 232.260329 
L 888.673518 252.628662 
" style="fill:none;stroke:#000000;stroke-linecap:square;"/>
   </g>
   <g id="line2d_196">
    <path clip-path="url(#p8aa5ea1fcd)" d="M 888.673518 171.525541 
L 888.673518 87.464828 
" style="fill:none;stroke:#000000;stroke-linecap:square;"/>
   </g>
   <g id="line2d_197">
    <path clip-path="url(#p8aa5ea1fcd)" d="M 884.041897 252.628662 
L 893.305138 252.628662 
" style="fill:none;stroke:#000000;stroke-linecap:square;"/>
   </g>
   <g id="line2d_198">
    <path clip-path="url(#p8aa5ea1fcd)" d="M 884.041897 87.464828 
L 893.305138 87.464828 
" style="fill:none;stroke:#000000;stroke-linecap:square;"/>
   </g>
   <g id="line2d_199">
    <g clip-path="url(#p8aa5ea1fcd)">
     <use style="fill-opacity:0;stroke:#000000;" x="888.673518" xlink:href="#mf22da3c4cd" y="55.554545"/>
    </g>
   </g>
   <g id="line2d_200">
    <path clip-path="url(#p8aa5ea1fcd)" d="M 490.35415 302.510274 
L 508.880632 302.510274 
" style="fill:none;stroke:#ff7f0e;stroke-linecap:square;"/>
   </g>
   <g id="line2d_201">
    <path clip-path="url(#p8aa5ea1fcd)" d="M 518.143874 302.44721 
L 536.670356 302.44721 
" style="fill:none;stroke:#ff7f0e;stroke-linecap:square;"/>
   </g>
   <g id="line2d_202">
    <path clip-path="url(#p8aa5ea1fcd)" d="M 555.196838 302.143658 
L 573.72332 302.143658 
" style="fill:none;stroke:#ff7f0e;stroke-linecap:square;"/>
   </g>
   <g id="line2d_203">
    <path clip-path="url(#p8aa5ea1fcd)" d="M 601.513043 301.68939 
L 620.039526 301.68939 
" style="fill:none;stroke:#ff7f0e;stroke-linecap:square;"/>
   </g>
   <g id="line2d_204">
    <path clip-path="url(#p8aa5ea1fcd)" d="M 657.09249 300.79804 
L 675.618972 300.79804 
" style="fill:none;stroke:#ff7f0e;stroke-linecap:square;"/>
   </g>
   <g id="line2d_205">
    <path clip-path="url(#p8aa5ea1fcd)" d="M 721.935178 298.578282 
L 740.46166 298.578282 
" style="fill:none;stroke:#ff7f0e;stroke-linecap:square;"/>
   </g>
   <g id="line2d_206">
    <path clip-path="url(#p8aa5ea1fcd)" d="M 796.041107 284.783717 
L 814.567589 284.783717 
" style="fill:none;stroke:#ff7f0e;stroke-linecap:square;"/>
   </g>
   <g id="line2d_207">
    <path clip-path="url(#p8aa5ea1fcd)" d="M 879.410277 206.361791 
L 897.936759 206.361791 
" style="fill:none;stroke:#ff7f0e;stroke-linecap:square;"/>
   </g>
   <g id="patch_8">
    <path d="M 481.090909 315 
L 481.090909 43.2 
" style="fill:none;stroke:#000000;stroke-linecap:square;stroke-linejoin:miter;stroke-width:0.8;"/>
   </g>
   <g id="patch_9">
    <path d="M 907.2 315 
L 907.2 43.2 
" style="fill:none;stroke:#000000;stroke-linecap:square;stroke-linejoin:miter;stroke-width:0.8;"/>
   </g>
   <g id="patch_10">
    <path d="M 481.090909 315 
L 907.2 315 
" style="fill:none;stroke:#000000;stroke-linecap:square;stroke-linejoin:miter;stroke-width:0.8;"/>
   </g>
   <g id="patch_11">
    <path d="M 481.090909 43.2 
L 907.2 43.2 
" style="fill:none;stroke:#000000;stroke-linecap:square;stroke-linejoin:miter;stroke-width:0.8;"/>
   </g>
   <g id="text_43">
    <!-- Time taken for tests generated given for RS -->
    <defs>
     <path d="M 2.984375 54.6875 
L 12.5 54.6875 
L 29.59375 8.796875 
L 46.6875 54.6875 
L 56.203125 54.6875 
L 35.6875 0 
L 23.484375 0 
z
" id="DejaVuSans-118"/>
     <path d="M 44.390625 34.1875 
Q 47.5625 33.109375 50.5625 29.59375 
Q 53.5625 26.078125 56.59375 19.921875 
L 66.609375 0 
L 56 0 
L 46.6875 18.703125 
Q 43.0625 26.03125 39.671875 28.421875 
Q 36.28125 30.8125 30.421875 30.8125 
L 19.671875 30.8125 
L 19.671875 0 
L 9.8125 0 
L 9.8125 72.90625 
L 32.078125 72.90625 
Q 44.578125 72.90625 50.734375 67.671875 
Q 56.890625 62.453125 56.890625 51.90625 
Q 56.890625 45.015625 53.6875 40.46875 
Q 50.484375 35.9375 44.390625 34.1875 
z
M 19.671875 64.796875 
L 19.671875 38.921875 
L 32.078125 38.921875 
Q 39.203125 38.921875 42.84375 42.21875 
Q 46.484375 45.515625 46.484375 51.90625 
Q 46.484375 58.296875 42.84375 61.546875 
Q 39.203125 64.796875 32.078125 64.796875 
z
" id="DejaVuSans-82"/>
    </defs>
    <g transform="translate(562.697642 37.2)scale(0.12 -0.12)">
     <use xlink:href="#DejaVuSans-84"/>
     <use x="57.958984" xlink:href="#DejaVuSans-105"/>
     <use x="85.742188" xlink:href="#DejaVuSans-109"/>
     <use x="183.154297" xlink:href="#DejaVuSans-101"/>
     <use x="244.677734" xlink:href="#DejaVuSans-32"/>
     <use x="276.464844" xlink:href="#DejaVuSans-116"/>
     <use x="315.673828" xlink:href="#DejaVuSans-97"/>
     <use x="376.953125" xlink:href="#DejaVuSans-107"/>
     <use x="431.238281" xlink:href="#DejaVuSans-101"/>
     <use x="492.761719" xlink:href="#DejaVuSans-110"/>
     <use x="556.140625" xlink:href="#DejaVuSans-32"/>
     <use x="587.927734" xlink:href="#DejaVuSans-102"/>
     <use x="623.132812" xlink:href="#DejaVuSans-111"/>
     <use x="684.314453" xlink:href="#DejaVuSans-114"/>
     <use x="725.427734" xlink:href="#DejaVuSans-32"/>
     <use x="757.214844" xlink:href="#DejaVuSans-116"/>
     <use x="796.423828" xlink:href="#DejaVuSans-101"/>
     <use x="857.947266" xlink:href="#DejaVuSans-115"/>
     <use x="910.046875" xlink:href="#DejaVuSans-116"/>
     <use x="949.255859" xlink:href="#DejaVuSans-115"/>
     <use x="1001.355469" xlink:href="#DejaVuSans-32"/>
     <use x="1033.142578" xlink:href="#DejaVuSans-103"/>
     <use x="1096.619141" xlink:href="#DejaVuSans-101"/>
     <use x="1158.142578" xlink:href="#DejaVuSans-110"/>
     <use x="1221.521484" xlink:href="#DejaVuSans-101"/>
     <use x="1283.044922" xlink:href="#DejaVuSans-114"/>
     <use x="1324.158203" xlink:href="#DejaVuSans-97"/>
     <use x="1385.4375" xlink:href="#DejaVuSans-116"/>
     <use x="1424.646484" xlink:href="#DejaVuSans-101"/>
     <use x="1486.169922" xlink:href="#DejaVuSans-100"/>
     <use x="1549.646484" xlink:href="#DejaVuSans-32"/>
     <use x="1581.433594" xlink:href="#DejaVuSans-103"/>
     <use x="1644.910156" xlink:href="#DejaVuSans-105"/>
     <use x="1672.693359" xlink:href="#DejaVuSans-118"/>
     <use x="1731.873047" xlink:href="#DejaVuSans-101"/>
     <use x="1793.396484" xlink:href="#DejaVuSans-110"/>
     <use x="1856.775391" xlink:href="#DejaVuSans-32"/>
     <use x="1888.5625" xlink:href="#DejaVuSans-102"/>
     <use x="1923.767578" xlink:href="#DejaVuSans-111"/>
     <use x="1984.949219" xlink:href="#DejaVuSans-114"/>
     <use x="2026.0625" xlink:href="#DejaVuSans-32"/>
     <use x="2057.849609" xlink:href="#DejaVuSans-82"/>
     <use x="2127.332031" xlink:href="#DejaVuSans-83"/>
    </g>
   </g>
  </g>
  <g id="text_44">
   <!-- BES VS RS in terms of Time taken for JavaNioServerSocket3 -->
   <defs>
    <path d="M 28.609375 0 
L 0.78125 72.90625 
L 11.078125 72.90625 
L 34.1875 11.53125 
L 57.328125 72.90625 
L 67.578125 72.90625 
L 39.796875 0 
z
" id="DejaVuSans-86"/>
    <path d="M 9.8125 72.90625 
L 19.671875 72.90625 
L 19.671875 5.078125 
Q 19.671875 -8.109375 14.671875 -14.0625 
Q 9.671875 -20.015625 -1.421875 -20.015625 
L -5.171875 -20.015625 
L -5.171875 -11.71875 
L -2.09375 -11.71875 
Q 4.4375 -11.71875 7.125 -8.046875 
Q 9.8125 -4.390625 9.8125 5.078125 
z
" id="DejaVuSans-74"/>
    <path d="M 9.8125 72.90625 
L 23.09375 72.90625 
L 55.421875 11.921875 
L 55.421875 72.90625 
L 64.984375 72.90625 
L 64.984375 0 
L 51.703125 0 
L 19.390625 60.984375 
L 19.390625 0 
L 9.8125 0 
z
" id="DejaVuSans-78"/>
   </defs>
   <g transform="translate(324.81375 9.118125)scale(0.12 -0.12)">
    <use xlink:href="#DejaVuSans-66"/>
    <use x="68.603516" xlink:href="#DejaVuSans-69"/>
    <use x="131.787109" xlink:href="#DejaVuSans-83"/>
    <use x="195.263672" xlink:href="#DejaVuSans-32"/>
    <use x="227.050781" xlink:href="#DejaVuSans-86"/>
    <use x="295.458984" xlink:href="#DejaVuSans-83"/>
    <use x="358.935547" xlink:href="#DejaVuSans-32"/>
    <use x="390.722656" xlink:href="#DejaVuSans-82"/>
    <use x="460.205078" xlink:href="#DejaVuSans-83"/>
    <use x="523.681641" xlink:href="#DejaVuSans-32"/>
    <use x="555.46875" xlink:href="#DejaVuSans-105"/>
    <use x="583.251953" xlink:href="#DejaVuSans-110"/>
    <use x="646.630859" xlink:href="#DejaVuSans-32"/>
    <use x="678.417969" xlink:href="#DejaVuSans-116"/>
    <use x="717.626953" xlink:href="#DejaVuSans-101"/>
    <use x="779.150391" xlink:href="#DejaVuSans-114"/>
    <use x="818.513672" xlink:href="#DejaVuSans-109"/>
    <use x="915.925781" xlink:href="#DejaVuSans-115"/>
    <use x="968.025391" xlink:href="#DejaVuSans-32"/>
    <use x="999.8125" xlink:href="#DejaVuSans-111"/>
    <use x="1060.994141" xlink:href="#DejaVuSans-102"/>
    <use x="1096.199219" xlink:href="#DejaVuSans-32"/>
    <use x="1127.986328" xlink:href="#DejaVuSans-84"/>
    <use x="1185.945312" xlink:href="#DejaVuSans-105"/>
    <use x="1213.728516" xlink:href="#DejaVuSans-109"/>
    <use x="1311.140625" xlink:href="#DejaVuSans-101"/>
    <use x="1372.664062" xlink:href="#DejaVuSans-32"/>
    <use x="1404.451172" xlink:href="#DejaVuSans-116"/>
    <use x="1443.660156" xlink:href="#DejaVuSans-97"/>
    <use x="1504.939453" xlink:href="#DejaVuSans-107"/>
    <use x="1559.224609" xlink:href="#DejaVuSans-101"/>
    <use x="1620.748047" xlink:href="#DejaVuSans-110"/>
    <use x="1684.126953" xlink:href="#DejaVuSans-32"/>
    <use x="1715.914062" xlink:href="#DejaVuSans-102"/>
    <use x="1751.119141" xlink:href="#DejaVuSans-111"/>
    <use x="1812.300781" xlink:href="#DejaVuSans-114"/>
    <use x="1853.414062" xlink:href="#DejaVuSans-32"/>
    <use x="1885.201172" xlink:href="#DejaVuSans-74"/>
    <use x="1914.693359" xlink:href="#DejaVuSans-97"/>
    <use x="1975.972656" xlink:href="#DejaVuSans-118"/>
    <use x="2035.152344" xlink:href="#DejaVuSans-97"/>
    <use x="2096.431641" xlink:href="#DejaVuSans-78"/>
    <use x="2171.236328" xlink:href="#DejaVuSans-105"/>
    <use x="2199.019531" xlink:href="#DejaVuSans-111"/>
    <use x="2260.201172" xlink:href="#DejaVuSans-83"/>
    <use x="2323.677734" xlink:href="#DejaVuSans-101"/>
    <use x="2385.201172" xlink:href="#DejaVuSans-114"/>
    <use x="2426.314453" xlink:href="#DejaVuSans-118"/>
    <use x="2485.494141" xlink:href="#DejaVuSans-101"/>
    <use x="2547.017578" xlink:href="#DejaVuSans-114"/>
    <use x="2588.130859" xlink:href="#DejaVuSans-83"/>
    <use x="2651.607422" xlink:href="#DejaVuSans-111"/>
    <use x="2712.789062" xlink:href="#DejaVuSans-99"/>
    <use x="2767.769531" xlink:href="#DejaVuSans-107"/>
    <use x="2822.054688" xlink:href="#DejaVuSans-101"/>
    <use x="2883.578125" xlink:href="#DejaVuSans-116"/>
    <use x="2922.787109" xlink:href="#DejaVuSans-51"/>
   </g>
  </g>
 </g>
 <defs>
  <clipPath id="p7805fa276a">
   <rect height="271.8" width="284.072727" x="126" y="43.2"/>
  </clipPath>
  <clipPath id="p8aa5ea1fcd">
   <rect height="271.8" width="426.109091" x="481.090909" y="43.2"/>
  </clipPath>
 </defs>
</svg>
